<?xml version="1.0" encoding="UTF-8"?>
<svg width="36px" height="36px" viewBox="0 0 36 36" version="1.1" xmlns="http://www.w3.org/2000/svg" xmlns:xlink="http://www.w3.org/1999/xlink">
    <!-- Generator: Sketch 39.1 (31720) - http://www.bohemiancoding.com/sketch -->
    <title>checkbox</title>
    <desc>Created with Sketch.</desc>
    <defs>
        <circle id="path-1" cx="16" cy="16" r="16"></circle>
        <mask id="mask-2" maskContentUnits="userSpaceOnUse" maskUnits="objectBoundingBox" x="-2" y="-2" width="36" height="36">
            <rect x="-2" y="-2" width="36" height="36" fill="white"></rect>
            <use xlink:href="#path-1" fill="black"></use>
        </mask>
    </defs>
    <g id="聯絡表單" stroke="none" stroke-width="1" fill="none" fill-rule="evenodd">
        <g transform="translate(-457.000000, -1095.000000)" id="表單">
            <g transform="translate(297.000000, 440.000000)">
                <g id="info" transform="translate(60.000000, 40.000000)">
                    <g id="style" transform="translate(0.000000, 548.000000)">
                        <g id="pic">
                            <g id="checkbox" transform="translate(102.000000, 69.000000)">
                                <g id="Group-3">
                                    <g id="Oval-6">
                                        <use fill="#59C6E5" fill-rule="evenodd" xlink:href="#path-1"></use>
                                        <use stroke="#FFFFFF" mask="url(#mask-2)" stroke-width="4" xlink:href="#path-1"></use>
                                    </g>
                                    <path d="M8.47644341,16.3450501 L13.5943406,21.5183948 C14.2295985,22.1605351 15.259555,22.1605351 15.8948129,21.5183948 L23.5235566,13.8070009 C24.1588145,13.1648606 24.1588145,12.1237455 23.5235566,11.4816052 C22.8882987,10.8394649 21.8583422,10.8394649 21.2230843,11.4816052 L13.5943406,19.1929991 L15.8948129,19.1929991 L10.7769157,14.0196544 C10.1416578,13.3775141 9.1117013,13.3775141 8.47644341,14.0196544 C7.84118553,14.6617947 7.84118553,15.7029098 8.47644341,16.3450501 L8.47644341,16.3450501 Z" id="Check-Icon" fill="#FFFFFF"></path>
                                </g>
                            </g>
                        </g>
                    </g>
                </g>
            </g>
        </g>
    </g>
</svg>