<?xml version="1.0" encoding="UTF-8"?>
<svg width="150px" height="151px" viewBox="0 0 150 151" version="1.1" xmlns="http://www.w3.org/2000/svg" xmlns:xlink="http://www.w3.org/1999/xlink">
    <!-- Generator: Sketch 39.1 (31720) - http://www.bohemiancoding.com/sketch -->
    <title>contactus-success</title>
    <desc>Created with Sketch.</desc>
    <defs>
        <ellipse id="path-1" cx="75" cy="75.2321824" rx="75" ry="75.2321824"></ellipse>
    </defs>
    <g id="聯絡表單" stroke="none" stroke-width="1" fill="none" fill-rule="evenodd">
        <g id="聯絡表單＿成功" transform="translate(-646.000000, -553.000000)">
            <g id="完成" transform="translate(297.000000, 441.000000)">
                <g id="Group-10" transform="translate(223.000000, 90.000000)">
                    <g id="contactus-success" transform="translate(126.000000, 0.000000)">
                        <g id="Group-2" transform="translate(0.000000, 22.032520)">
                            <mask id="mask-2" fill="white">
                                <use xlink:href="#path-1"></use>
                            </mask>
                            <use id="Mask" fill="#CDEEF7" xlink:href="#path-1"></use>
                            <g mask="url(#mask-2)">
                                <g transform="translate(-30.937500, 110.027067)">
                                    <path d="M2.10335221e-18,11.6108674 C2.10335221e-18,11.6108674 25.5963135,1.2398098 37.1031189,0.272775047 C63.7194635,-1.96406908 76.4918518,10.3403141 104.862671,8.67670182 C133.23349,7.01308958 141.738883,0.703225403 156.999207,1.23980978 C165.749828,1.54749965 170.625,4.55785028 170.625,4.55785028 L170.625,39.8229358 L2.10335221e-18,39.8229358 L2.10335221e-18,11.6108674 Z" id="Rectangle-116" fill="#8CD8D0"></path>
                                    <path d="M0,20.4774289 C0,20.4774289 19.3331909,11.8209521 40.6344143,3.46765182 C60.4266357,8.72240029 88.6061832,23.1608701 103.91651,21.8191499 C119.226837,20.4774297 128.199005,13.7692565 161.111737,2.82120684 C163.862915,4.69768068 170.625,8.72240037 170.625,8.72240037 L170.625,39.7556756 L0,39.7556756 L0,20.4774289 Z" id="Rectangle-115" fill="#69C2B2"></path>
                                    <path d="M-1.10563211e-16,20.4833797 C-1.10563211e-16,20.4833797 1.40487671,20.4833797 48.0171204,11.0793569 C90.2037048,21.7616176 123.953247,27.6548651 158.505402,8.93382166 C162.108155,11.4613694 170.625,18.6025751 170.625,18.6025751 L170.625,34.5894139 L-1.10563211e-16,34.5894139 L-1.10563211e-16,20.4833797 Z" id="Rectangle-114" fill="#3C929A"></path>
                                    <path d="M0,33.5638206 C0,33.5638206 4.41735403,30.5153658 33.7856691,27.9903073 C63.1539842,25.4652488 101.771494,23.0398558 119.571714,23.0398559 C152.624428,23.0398559 170.625,26.5108035 170.625,26.5108035 L170.625,40.6168377 L0,40.6168377 L0,33.5638206 Z" id="Rectangle-113" fill="#3C5D71"></path>
                                </g>
                            </g>
                        </g>
                        <g id="Group-4" transform="translate(83.102819, 67.371705) rotate(-15.000000) translate(-83.102819, -67.371705) translate(26.102819, 13.371705)">
                            <g id="Group-3" opacity="0.1" transform="translate(19.643223, 87.589430) scale(-1, 1) rotate(-90.000000) translate(-19.643223, -87.589430) translate(11.143223, 79.589430)" fill="#296693">
                                <path d="M15.6230193,1.82108869 C15.6087342,1.82108869 15.5944491,1.82063167 15.5797032,1.81926062 C15.326258,1.79549565 15.140091,1.57292757 15.1635923,1.32156732 C15.1834071,1.10951067 15.1935449,0.893797877 15.1935449,0.678999118 C15.1935449,0.426267811 15.3999875,0.221980481 15.6543543,0.221980481 C15.9087211,0.221980481 16.1151637,0.426267811 16.1151637,0.678999118 C16.1151637,0.921676014 16.1036435,1.16618098 16.0810638,1.40657279 C16.058945,1.64330844 15.8580321,1.82108869 15.6230193,1.82108869" id="Fill-73" transform="translate(15.638377, 1.021535) rotate(-345.000000) translate(-15.638377, -1.021535) "></path>
                                <path d="M13.2289168,6.1225481 C13.1164793,6.1225481 13.003581,6.08187344 12.9146448,5.99961009 C12.7289386,5.82777108 12.71834,5.5389353 12.8916043,5.35384275 C13.0630255,5.17149232 13.226152,4.97771642 13.3768367,4.77845629 C13.5289038,4.57599703 13.8173705,4.53395132 14.021509,4.68568151 C14.2256476,4.83695467 14.2671205,5.12350536 14.1145926,5.3255076 C13.9445539,5.5512748 13.7602301,5.77064375 13.5662293,5.97721617 C13.4754499,6.07364711 13.3524138,6.1225481 13.2289168,6.1225481 L13.2289168,6.1225481 L13.2289168,6.1225481 Z M14.5620385,4.13268896 C14.4989076,4.13268896 14.4348551,4.11989243 14.3735674,4.09292833 C14.1413195,3.9891851 14.0376374,3.71863007 14.1417803,3.48829268 C14.2450016,3.26161143 14.3357811,3.02578982 14.4131971,2.78951118 C14.4915347,2.54911938 14.7500487,2.41841205 14.9933561,2.49473416 C15.2352811,2.57197031 15.368455,2.82972882 15.2901174,3.06966361 C15.2030244,3.33839056 15.0993423,3.60528945 14.9827575,3.86350498 C14.9058023,4.03260187 14.7376069,4.13268896 14.5620385,4.13268896 L14.5620385,4.13268896 L14.5620385,4.13268896 Z" id="Fill-74"></path>
                                <path d="M0.81885834,13.501114 C0.771855779,13.501114 0.724392409,13.4938017 0.676929039,13.4787201 C0.435004093,13.4010269 0.30229098,13.1428114 0.380628581,12.9028766 C0.468643181,12.6336926 0.5723253,12.3667937 0.689370893,12.1104063 C0.793974632,11.8800689 1.06723462,11.7772397 1.29856095,11.881897 C1.5308089,11.9851832 1.63403021,12.2561952 1.52942647,12.4860756 C1.42666597,12.7122998 1.33496489,12.9472074 1.2570881,13.1848571 C1.19441802,13.378176 1.01331992,13.501114 0.81885834,13.501114 L0.81885834,13.501114 L0.81885834,13.501114 Z M1.92664419,11.3805475 C1.83033502,11.3805475 1.73356504,11.3512983 1.65061934,11.2896008 C1.44694158,11.1378706 1.40546873,10.851777 1.55799665,10.6493177 C1.72803533,10.4244645 1.9128199,10.2055526 2.10774229,9.99852316 C2.28146744,9.81388763 2.5731598,9.80474726 2.758866,9.97704328 C2.94503301,10.1493393 2.95517081,10.4381751 2.78098485,10.6228106 C2.60910294,10.8051611 2.4459764,10.9984799 2.29575253,11.1977401 C2.20543389,11.3170219 2.06673025,11.3805475 1.92664419,11.3805475 L1.92664419,11.3805475 L1.92664419,11.3805475 Z M3.66527813,9.72659707 C3.51827993,9.72659707 3.37404658,9.65713024 3.28464955,9.52779396 C3.14087701,9.31985048 3.1943309,9.03558489 3.40399919,8.89299508 C3.7565184,8.65260327 4.13161726,8.44008961 4.51915799,8.2609383 C4.7495627,8.15490998 5.0237443,8.25225495 5.13157371,8.4816783 C5.23940311,8.71018762 5.13940747,8.98257073 4.90900276,9.08905607 C4.56708217,9.24764154 4.236221,9.43501918 3.92563545,9.64616179 C3.84591542,9.70054701 3.75513597,9.72659707 3.66527813,9.72659707 L3.66527813,9.72659707 L3.66527813,9.72659707 Z M6.23843794,8.61924091 C6.02692641,8.61924091 5.83615131,8.47390899 5.78868794,8.26048128 C5.73431243,8.01369122 5.89144844,7.77010029 6.13982472,7.71571507 C6.41907523,7.65538861 6.70339464,7.60922973 6.98541001,7.5790665 C7.23332547,7.55301643 7.46557342,7.73399581 7.49230037,7.98489905 C7.51948812,8.2362593 7.33608598,8.46111246 7.0831016,8.48807656 C6.83472533,8.51412663 6.584045,8.55480129 6.33797277,8.60872948 C6.30479449,8.61558476 6.2711554,8.61924091 6.23843794,8.61924091 L6.23843794,8.61924091 L6.23843794,8.61924091 Z M8.6434023,8.40444215 C8.41115435,8.40444215 8.21116306,8.23031805 8.18627936,7.99586749 C8.1590916,7.74496426 8.34203294,7.52011109 8.59547812,7.49314699 C8.84201116,7.46663991 9.09223068,7.42642227 9.33968534,7.37158003 C9.5876008,7.31947991 9.83413384,7.47258115 9.88943097,7.71937122 C9.9442673,7.96570426 9.78759209,8.2092952 9.53921582,8.26459445 C9.25858288,8.32583495 8.97380266,8.37245085 8.69316972,8.40170004 C8.67658058,8.40352812 8.65999144,8.40444215 8.6434023,8.40444215 L8.6434023,8.40444215 L8.6434023,8.40444215 Z M10.9631169,7.75958886 C10.7898526,7.75958886 10.6235004,7.66224389 10.5451628,7.4958891 C10.4377942,7.26737979 10.537329,6.99499668 10.7681945,6.88851134 C11.1068895,6.73129692 11.4372898,6.54391928 11.7497186,6.33049158 C11.9589261,6.18607369 12.2464712,6.24000189 12.3907045,6.44748835 C12.5349379,6.65543183 12.4819448,6.94015444 12.2722765,7.08320127 C11.917914,7.32542115 11.543276,7.53839184 11.1575785,7.71662911 C11.0949084,7.7458783 11.0285519,7.75958886 10.9631169,7.75958886 L10.9631169,7.75958886 L10.9631169,7.75958886 Z" id="Fill-75"></path>
                                <path d="M0.460809421,15.7606141 C0.20644262,15.7606141 -4.30766534e-14,15.5558698 -4.30766534e-14,15.3035955 C-4.30766534e-14,15.0609186 0.0115202355,14.8159566 0.0340998971,14.5760218 C0.0576011776,14.3246616 0.277407271,14.138655 0.535460547,14.163334 C0.788905728,14.1866419 0.975072734,14.409667 0.951571453,14.6610273 C0.931756648,14.8726269 0.921618841,15.0887967 0.921618841,15.3035955 C0.921618841,15.5558698 0.715176221,15.7606141 0.460809421,15.7606141" id="Fill-76"></path>
                            </g>
                            <g id="paper-plane" transform="translate(57.412882, 53.792005) rotate(-345.000000) translate(-57.412882, -53.792005) translate(10.412882, 10.792005)">
                                <g id="Group" transform="translate(-0.000000, -0.000000)">
                                    <polygon id="Shape" fill="#B7BBBD" points="46.9646493 64.4326938 34.1774482 58.7436553 26.3666337 76.3394374 46.9646493 64.4326938"></polygon>
                                    <polygon id="Shape" fill="#FAFAFA" points="93.9234303 -1.00364161e-13 0.0293419026 46.5226488 26.4898697 57.9741518 26.4810671 75.8665746 36.0347906 62.9817981 69.921754 85.1740414"></polygon>
                                    <polygon id="Shape" fill="#D1D5D7" points="93.9527722 -5.49782442e-13 36.4602482 63.9833273 26.4663962 76.3453115 26.401844 58.8963811 93.9527722 -5.49782442e-13"></polygon>
                                </g>
                            </g>
                        </g>
                        <g id="Group-5" transform="translate(97.968750, 119.834357)">
                            <polygon id="Triangle-1" fill="#5EB262" points="9.375 0 18.75 28.6626778 0 28.6626778"></polygon>
                            <g id="Group-3" transform="translate(7.500000, 23.382711)" stroke="#582628" stroke-linecap="round" fill="#582628" stroke-linejoin="bevel">
                                <path d="M0,0 L2.25,2.26284299" id="Path"></path>
                                <path d="M4.5,0 L2.25,2.26284299" id="Path"></path>
                                <path d="M2.25,2.26284299 L2.25,12.8227769" id="Path"></path>
                            </g>
                        </g>
                        <g id="Group-5-Copy" opacity="0.600000024" transform="translate(10.184181, 120.849275)">
                            <polygon id="Triangle-1" fill="#5EB262" points="2.95848401 0 5.91696802 8.9276587 0 8.9276587"></polygon>
                            <g id="Group-3" transform="translate(2.366787, 7.283090)" stroke="#582628" stroke-width="0.5" fill="#582628" stroke-linecap="round" stroke-linejoin="bevel">
                                <path d="M0,0 L0.710036162,0.704815161" id="Path"></path>
                                <path d="M1.42007232,0 L0.710036162,0.704815161" id="Path"></path>
                                <path d="M0.591696802,0.704815161 L0.591696802,3.99395258" id="Path"></path>
                            </g>
                        </g>
                        <g id="Group-5-Copy-2" opacity="0.600000024" transform="translate(132.500000, 128.371014)">
                            <polygon id="Triangle-1" fill="#5EB262" points="1.640625 0 3.28125 4.95082617 0 4.95082617"></polygon>
                            <g id="Group-3" transform="translate(1.312500, 4.038832)" stroke="#582628" stroke-width="0.5" fill="#582628" stroke-linecap="round" stroke-linejoin="bevel">
                                <path d="" id="Path"></path>
                                <path d="" id="Path"></path>
                                <path d="" id="Path"></path>
                            </g>
                        </g>
                        <g id="Group-5-Copy-4" opacity="0.600000024" transform="translate(53.500000, 144.918841)">
                            <polygon id="Triangle-1" fill="#5EB262" points="1.640625 0 3.28125 4.95082617 0 4.95082617"></polygon>
                            <g id="Group-3" transform="translate(1.312500, 4.038832)" stroke="#582628" stroke-width="0.5" fill="#582628" stroke-linecap="round" stroke-linejoin="bevel">
                                <path d="" id="Path"></path>
                                <path d="" id="Path"></path>
                                <path d="" id="Path"></path>
                            </g>
                        </g>
                        <g id="Group-5-Copy-3" opacity="0.600000024" transform="translate(16.500000, 125.863768)">
                            <polygon id="Triangle-1" fill="#5EB262" points="1.640625 0 3.28125 4.95082617 0 4.95082617"></polygon>
                            <g id="Group-3" transform="translate(1.312500, 4.038832)" stroke="#582628" stroke-width="0.5" fill="#582628" stroke-linecap="round" stroke-linejoin="bevel">
                                <path d="" id="Path"></path>
                                <path d="" id="Path"></path>
                                <path d="" id="Path"></path>
                            </g>
                        </g>
                        <g id="Group-8" transform="translate(20.500000, 120.347826)">
                            <g id="human-copy">
                                <rect id="Rectangle-348-Copy-3" fill="#59C6E5" x="5.9481192" y="33.100483" width="18.1537803" height="19.1410534" rx="9.07689013"></rect>
                                <rect id="Rectangle-342-Copy-16" fill="#FDD7AD" x="12.1365808" y="26.8785877" width="5.70873593" height="10.2039083" rx="2.85436797"></rect>
                                <rect id="Rectangle-342-Copy-16" fill="#FDD7AD" x="12.1365808" y="2.10257152" width="17.0677772" height="28.5348992" rx="8.53388861"></rect>
                                <rect id="Rectangle-342-Copy-14" fill="#582628" x="1.35810362" y="6.90844927" width="25.575137" height="23.7441413"></rect>
                                <rect id="Rectangle-342-Copy-5" fill="#582628" x="24.7115349" y="6.60808191" width="3.42524156" height="11.9919853" rx="1.71262078"></rect>
                                <ellipse id="Oval-38-Copy-10" fill="#FDD7AD" cx="26.3959862" cy="19.7274579" rx="2.28349437" ry="2.30615102"></ellipse>
                                <g id="Group-6" transform="translate(15.701966, 5.500000) scale(-1, 1) translate(-15.701966, -5.500000) translate(0.701966, 0.000000)" fill="#582628">
                                    <path d="M3.71307699,0 L25.8951822,0 C27.8049437,0 29.3531113,1.55263591 29.3531113,3.45922653 L29.3531113,6.91845305 L3.71307699,6.91845305 L3.71307699,0 Z M3.71307699,0 L5.54450801,0 L5.54450801,3.45922653 L3.71307699,3.45922653 L3.71307699,0 Z" id="Combined-Shape-Copy"></path>
                                    <path d="M3.71307699,6.99774718 C5.76375278,6.99774718 7.42615397,5.31885178 7.42615397,3.24782935 C7.42615397,3.24782936 5.99520433e-14,3.24782935 5.99520433e-14,3.24782935 C5.99520433e-14,5.31885178 1.66240119,6.99774718 3.71307699,6.99774718 Z" id="Oval-50-Copy-2"></path>
                                    <path d="M7.42303575,10.2427504 C9.74541284,10.2427504 11.6280715,8.34141217 11.6280715,5.99599264 C11.6280715,5.99599265 3.21800005,5.99599264 3.21800005,5.99599264 C3.21800005,8.34141217 5.10065866,10.2427504 7.42303575,10.2427504 Z" id="Oval-50-Copy-2"></path>
                                    <path d="M12.9513948,10.2427504 C15.2737719,10.2427504 17.1564305,8.34141217 17.1564305,5.99599264 C17.1564305,5.99599265 8.74635912,5.99599264 8.74635912,5.99599264 C8.74635912,8.34141217 10.6290177,10.2427504 12.9513948,10.2427504 Z" id="Oval-50-Copy-2"></path>
                                    <path d="M18.4797539,10.2427504 C20.802131,10.2427504 22.6847896,8.34141217 22.6847896,5.99599264 C22.6847896,5.99599265 14.2747182,5.99599264 14.2747182,5.99599264 C14.2747182,8.34141217 16.1573768,10.2427504 18.4797539,10.2427504 Z" id="Oval-50-Copy-2"></path>
                                    <path d="M24.008113,10.2427504 C26.33049,10.2427504 28.2131487,8.34141217 28.2131487,5.99599264 C28.2131487,5.99599265 19.8030773,5.99599264 19.8030773,5.99599264 C19.8030773,8.34141217 21.6857359,10.2427504 24.008113,10.2427504 Z" id="Oval-50-Copy-2"></path>
                                    <path d="M5.44584625,3.74991783 C7.49652204,3.74991783 9.15892323,2.07102243 9.15892323,-4.16324512e-17 C9.15892323,7.54826592e-09 1.73276926,-4.16324512e-17 1.73276926,-4.16324512e-17 C1.73276926,2.07102243 3.39517045,3.74991783 5.44584625,3.74991783 Z" id="Oval-50-Copy-3"></path>
                                </g>
                                <path d="M20.1021997,33.4776256 C20.1021997,33.4776256 17.5436857,32.9388143 14.9851141,32.9388143 C12.4265424,32.9388143 9.86796445,33.4776256 9.86796445,33.4776256 C9.18532373,33.835957 9.7719711,34.3897418 9.32400213,34.6938023 C8.75482555,35.0801487 8.84403537,35.5624627 8.84403537,35.5624627 C8.84403537,35.5624627 11.9108555,39.9314913 14.9825542,39.9314913 C18.054253,39.9314913 21.1261287,35.5624627 21.1261287,35.5624627 C21.1261287,35.5624627 21.2154026,35.0801487 20.646162,34.6938023 C20.198193,34.3897418 20.7848404,33.835957 20.1021997,33.4776256 Z" id="Shape" fill="#FFFFFF"></path>
                            </g>
                        </g>
                        <g id="Group-4" transform="translate(89.531250, 138.642403)">
                            <path d="M12.1875,6.11261482 C12.1875,9.48865901 9.459375,12.2252296 6.09375,12.2252296 C2.728125,12.2252296 0,9.48865901 0,6.11261482 C0,2.73704084 2.728125,0 6.09375,0 C9.459375,0 12.1875,2.73704084 12.1875,6.11261482" id="Fill-499-Copy" fill="#C0CF49"></path>
                            <g id="Group-3" transform="translate(4.687500, 8.463621)" stroke="#582628" stroke-linecap="round" fill="#582628" stroke-linejoin="bevel">
                                <path d="M0,0 L1.40625,1.41060342" id="Path"></path>
                                <path d="M2.8125,0 L1.40625,1.41060342" id="Path"></path>
                                <path d="M1.40625,1.41060342 L1.40625,7.99341938" id="Path"></path>
                            </g>
                        </g>
                    </g>
                </g>
            </g>
        </g>
    </g>
</svg>