<?xml version="1.0" encoding="UTF-8"?>
<svg width="165px" height="93px" viewBox="0 0 165 93" version="1.1" xmlns="http://www.w3.org/2000/svg" xmlns:xlink="http://www.w3.org/1999/xlink">
    <!-- Generator: Sketch 39.1 (31720) - http://www.bohemiancoding.com/sketch -->
    <title>mobile-help</title>
    <desc>Created with Sketch.</desc>
    <defs></defs>
    <g id="首頁" stroke="none" stroke-width="1" fill="none" fill-rule="evenodd">
        <g id="iPhone-6-Copy-2" transform="translate(-39.000000, -574.000000)">
            <g id="mobile-help" transform="translate(35.000000, 574.000000)">
                <g id="Group" transform="translate(72.000000, 27.000000)">
                    <path d="M89.3601901,24.9219349 L96.6626778,18.875 L89.3601901,12.8280651 L89.3601901,3.00741988 C89.3601901,1.34553934 88.0176149,0 86.3614645,0 L2.99872559,0 C1.35016105,0 0,1.34646775 0,3.00741988 L0,32.9925801 C0,34.6544607 1.34257518,36 2.99872559,36 L86.3614645,36 C88.010029,36 89.3601901,34.6535323 89.3601901,32.9925801 L89.3601901,24.9219349 Z" id="Combined-Shape" fill="#4CA950" transform="translate(48.331339, 18.000000) scale(-1, 1) translate(-48.331339, -18.000000) "></path>
                    <text id="常見問題" font-family="PingFangTC-Semibold, PingFang TC" font-size="16" font-weight="500" fill="#FFFFFF">
                        <tspan x="18" y="24">常見問題</tspan>
                    </text>
                </g>
                <g id="Group-2" transform="translate(29.000000, 46.500000) scale(-1, 1) translate(-29.000000, -46.500000) ">
                    <g id="Group-28" transform="translate(0.000000, 16.000000)">
                        <g id="hand" transform="translate(11.000000, 25.000000)">
                            <path d="M43.3792754,19.0211206 C44.5699232,17.1603 44.0266407,14.6865962 42.1658202,13.4959485 C40.3049996,12.3053008 37.8312958,12.8485833 36.6406481,14.7094038 C31.8890581,22.1354932 23.7001012,26.7181596 14.7217283,26.7181596 C12.5125893,26.7181596 10.7217283,28.5090206 10.7217283,30.7181596 C10.7217283,32.9272986 12.5125893,34.7181596 14.7217283,34.7181596 C26.4570988,34.7181596 37.1723116,28.7217615 43.3792754,19.0211206 Z M14.7217283,34.7181596 C16.9308673,34.7181596 18.7217283,32.9272986 18.7217283,30.7181596 C18.7217283,28.5090206 16.9308673,26.7181596 14.7217283,26.7181596 C12.3423062,26.7181596 10.0091552,26.3995552 7.76435956,25.7778942 C5.63535214,25.188299 3.43148924,26.4362391 2.841894,28.5652465 C2.25229876,30.6942539 3.50023889,32.8981168 5.6292463,33.4877121 C8.56776679,34.3014893 11.6190578,34.7181596 14.7217283,34.7181596 Z" id="Oval-2-Copy" fill="#59C6E5" transform="translate(23.353124, 23.791463) rotate(-30.000000) translate(-23.353124, -23.791463) "></path>
                            <circle id="Oval-27" fill="#FEDCC3" cx="34.5" cy="4.5" r="4.5"></circle>
                        </g>
                        <g id="human-copy" transform="translate(22.000000, 38.500000) scale(-1, 1) translate(-22.000000, -38.500000) ">
                            <rect id="Rectangle-348-Copy-3" fill="#59C6E5" x="8" y="49" width="26" height="28" rx="13"></rect>
                            <rect id="Rectangle-342-Copy-16" fill="#FDD7AD" x="17" y="40" width="8" height="15" rx="4"></rect>
                            <rect id="Rectangle-342-Copy-16" fill="#FDD7AD" x="17" y="3" width="25" height="41" rx="12.5"></rect>
                            <rect id="Rectangle-342-Copy-14" fill="#582628" x="1" y="10" width="37" height="34"></rect>
                            <rect id="Rectangle-342-Copy-5" fill="#582628" x="35" y="10" width="5" height="17" rx="2.5"></rect>
                            <ellipse id="Oval-38-Copy-10" fill="#FDD7AD" cx="37.5" cy="28.5" rx="3.5" ry="3.5"></ellipse>
                            <g id="Group-6" transform="translate(22.000000, 7.500000) scale(-1, 1) translate(-22.000000, -7.500000) " fill="#582628">
                                <path d="M5.44584625,0 L38.0186211,0 C40.7980542,0 43.0512299,2.2583795 43.0512299,5.03160222 L43.0512299,10.0632044 L5.44584625,10.0632044 L5.44584625,0 Z M5.44584625,0 L8.13194507,0 L8.13194507,5.03160222 L5.44584625,5.03160222 L5.44584625,0 Z" id="Combined-Shape-Copy"></path>
                                <path d="M5.44584625,10.1785414 C8.45350408,10.1785414 10.8916925,7.73651168 10.8916925,4.72411542 C10.8916925,4.72411543 -8.79296636e-14,4.72411542 -8.79296636e-14,4.72411542 C-8.79296636e-14,7.73651168 2.43818841,10.1785414 5.44584625,10.1785414 Z" id="Oval-50-Copy-2"></path>
                                <path d="M10.8871191,14.898546 C14.2932722,14.898546 17.0545048,12.1329632 17.0545048,8.72144385 C17.0545048,8.72144386 4.71973341,8.72144385 4.71973341,8.72144385 C4.71973341,12.1329632 7.48096604,14.898546 10.8871191,14.898546 Z" id="Oval-50-Copy-2"></path>
                                <path d="M18.9953791,14.898546 C22.4015321,14.898546 25.1627648,12.1329632 25.1627648,8.72144385 C25.1627648,8.72144386 12.8279934,8.72144385 12.8279934,8.72144385 C12.8279934,12.1329632 15.589226,14.898546 18.9953791,14.898546 Z" id="Oval-50-Copy-2"></path>
                                <path d="M27.103639,14.898546 C30.5097921,14.898546 33.2710247,12.1329632 33.2710247,8.72144385 C33.2710247,8.72144386 20.9362533,8.72144385 20.9362533,8.72144385 C20.9362533,12.1329632 23.697486,14.898546 27.103639,14.898546 Z" id="Oval-50-Copy-2"></path>
                                <path d="M35.211899,14.898546 C38.6180521,14.898546 41.3792847,12.1329632 41.3792847,8.72144385 C41.3792847,8.72144386 29.0445133,8.72144385 29.0445133,8.72144385 C29.0445133,12.1329632 31.8057459,14.898546 35.211899,14.898546 Z" id="Oval-50-Copy-2"></path>
                                <path d="M7.98724116,5.45442593 C10.994899,5.45442593 13.4330874,3.01239626 13.4330874,-6.05562926e-17 C13.4330874,1.09792959e-08 2.54139491,-6.05562926e-17 2.54139491,-6.05562926e-17 C2.54139491,3.01239626 4.97958333,5.45442593 7.98724116,5.45442593 Z" id="Oval-50-Copy-3"></path>
                            </g>
                            <path d="M28.4931714,49.7705365 C28.4931714,49.7705365 24.7466484,49 21.0000408,49 C17.2534331,49 13.5068164,49.7705365 13.5068164,49.7705365 C12.5072012,50.2829745 13.3662499,51.0749242 12.710273,51.5097512 C11.8768074,52.0622526 12.0074405,52.7519942 12.0074405,52.7519942 C12.0074405,52.7519942 16.4982944,59 20.9962923,59 C25.4942902,59 29.9925473,52.7519942 29.9925473,52.7519942 C29.9925473,52.7519942 30.1232741,52.0622526 29.2897148,51.5097512 C28.6337379,51.0749242 29.4927866,50.2829745 28.4931714,49.7705365 Z" id="Shape" fill="#FFFFFF"></path>
                        </g>
                    </g>
                    <g id="?" transform="translate(48.641362, 8.055576) rotate(-345.000000) translate(-48.641362, -8.055576) translate(43.641362, 1.055576)" fill="#F6F6F8">
                        <path d="M1.42108547e-13,1.15808922 C1.385424,0.386024471 2.963532,1.95399252e-14 4.734372,1.95399252e-14 C6.098964,1.95399252e-14 7.226556,0.357717459 8.117188,1.07316028 C9.007816,1.78860706 9.453124,2.66617186 9.453124,3.70588235 C9.453124,4.44706278 9.343752,5.02867482 9.125,5.45073431 C8.906248,5.87279379 8.593752,6.26396894 8.1875,6.62426372 C8.020832,6.75808659 7.822916,6.89448282 7.593748,7.03345638 C7.36458,7.17242598 7.166668,7.28308856 7,7.36544019 C6.833332,7.44779181 6.648436,7.53529412 6.445312,7.6279392 C6.242184,7.72058824 6.130208,7.77205948 6.109372,7.78235294 C6.015624,7.83382419 5.947916,7.88786485 5.906248,7.94448282 C5.864584,8.0011008 5.83854,8.06029214 5.828124,8.12205685 C5.817708,8.18382155 5.8125,8.29191078 5.8125,8.44632452 L5.8125,8.94044216 L2.078124,8.94044216 L2.078124,7.78235294 C2.078124,7.28823134 2.143228,6.90220687 2.273436,6.62426372 C2.403644,6.34632056 2.697912,6.08382551 3.156248,5.83676273 L4.4375,5.15735096 C4.479164,5.13676405 4.5625,5.09558626 4.6875,5.03382155 C4.8125,4.97205685 4.90104,4.92573628 4.953124,4.89485195 C5.005208,4.86396762 5.07552,4.81764706 5.16406,4.75588235 C5.252604,4.69411765 5.317708,4.64007304 5.359372,4.59374852 C5.40104,4.547424 5.440104,4.48823661 5.47656,4.41617449 C5.51302,4.34411633 5.531248,4.26691144 5.531248,4.18455586 C5.531248,3.70073167 5.005212,3.45882353 3.953124,3.45882353 C2.932284,3.45882353 1.942712,3.76249638 0.984372,4.36985393 L1.42108547e-13,1.15808922 L1.42108547e-13,1.15808922 Z" id="Path"></path>
                        <path d="M1.531248,11.7352941 C1.531248,11.0661719 1.749996,10.5463245 2.1875,10.1757363 C2.625,9.80514409 3.213536,9.61984998 3.953124,9.61984998 C4.671876,9.61984998 5.249996,9.80514409 5.6875,10.1757363 C6.125,10.5463245 6.343748,11.0661719 6.343748,11.7352941 C6.343748,12.4044124 6.125,12.9216864 5.6875,13.2871319 C5.249996,13.6525734 4.671876,13.8352941 3.953124,13.8352941 C3.213536,13.8352941 2.625,13.6525734 2.1875,13.2871319 C1.749996,12.9216864 1.531248,12.4044124 1.531248,11.7352941 L1.531248,11.7352941 Z" id="Path"></path>
                    </g>
                </g>
            </g>
        </g>
    </g>
</svg>