<?xml version="1.0" encoding="UTF-8"?>
<svg width="300px" height="359px" viewBox="0 0 300 359" version="1.1" xmlns="http://www.w3.org/2000/svg" xmlns:xlink="http://www.w3.org/1999/xlink">
    <!-- Generator: Sketch 39.1 (31720) - http://www.bohemiancoding.com/sketch -->
    <title>process-5</title>
    <desc>Created with Sketch.</desc>
    <defs></defs>
    <g id="合作流程" stroke="none" stroke-width="1" fill="none" fill-rule="evenodd">
        <g id="process-5">
            <g id="macbook" transform="translate(0.000000, 175.000000)">
                <path d="M276.672116,164.161751 C276.672116,170.975084 271.168761,176.498427 264.380083,176.498427 L36.8132547,176.498427 C30.0245768,176.498427 24.5212219,170.975084 24.5212219,164.161751 L24.5212219,12.3373244 C24.5212219,5.52399111 30.0245768,0.000648888888 36.8132547,0.000648888888 L264.380083,0.000648888888 C271.168761,0.000648888888 276.672116,5.52399111 276.672116,12.3373244 L276.672116,164.161751 Z" id="Fill-130" fill="#2A2A2F"></path>
                <path d="M0.687660746,170.067678 C1.32644301,177.314266 9.34872069,183.045456 19.1800194,183.045456 L281.409191,183.045456 C291.237903,183.045456 299.261474,177.314266 299.901549,170.067678 L0.687660746,170.067678 Z" id="Fill-132" fill="#C3C6CA"></path>
                <g id="Group-27" transform="translate(37.499364, 16.871111)">
                    <g id="Platform">
                        <rect id="Rectangle-1" fill="#125688" x="2.27373675e-13" y="0" width="226.289264" height="142.755556" rx="1"></rect>
                        <g id="Page-1" transform="translate(9.500636, 7.128889)" fill-opacity="0.1" fill="#FEFEFE">
                            <polygon id="Fill-1" points="0 60.0053136 100.354675 60.0053136 100.354675 21.0008074 0 21.0008074"></polygon>
                            <polygon id="Fill-1-Copy" points="0 10.3632148 206.216357 10.3632148 206.216357 0.358708642 0 0.358708642"></polygon>
                            <polygon id="Fill-2" points="113.733058 129.741091 206.216357 129.741091 206.216357 21.0008074 113.733058 21.0008074"></polygon>
                            <polygon id="Fill-3" points="53.9154351 129.741091 100.353331 129.741091 100.353331 70.6429062 53.9154351 70.6429062"></polygon>
                            <polygon id="Fill-4" points="0 129.741091 40.5343636 129.741091 40.5343636 70.6429062 0 70.6429062"></polygon>
                        </g>
                    </g>
                </g>
            </g>
            <g id="rocket" transform="translate(61.000000, 0.000000)">
                <g transform="translate(0.000000, 43.000000)">
                    <g id="smoke" transform="translate(0.000000, 157.000000)">
                        <path d="M160.157607,84.3071897 C160.157607,79.3946769 156.187939,75.4121842 151.290652,75.4121842 C149.847049,75.4121842 148.488081,75.7652831 147.282994,76.3793472 L157.48295,3.50638799 L147.409466,0 L108.490848,75.6504777 C105.354546,70.0607097 103.039123,66.2827442 96.1880186,66.2827442 C89.271034,66.2827442 86.9065608,70.1345131 83.7962259,75.8154502 C79.9708219,68.7428596 76.156494,63.9408109 67.5713351,63.9408109 C55.0896019,63.9408109 48.6236991,74.0904752 48.6236991,86.6110154 C48.6236991,86.8025185 48.6333167,86.9916097 48.6376447,87.1816657 C45.5638567,85.559919 45.7182353,84.6390641 42.0034338,84.6390641 C29.7659878,84.6390641 23.4977269,94.590472 23.4977269,106.865965 C23.4977269,107.438063 23.5260989,108.002442 23.5688972,108.563445 C21.1548773,107.476171 20.3073335,106.865965 17.4903357,106.865965 C6.82200269,106.865965 0.689453127,116.999023 0.689453125,124.314453 C0.689453123,131.629883 7.3420565,136.550389 10.2677915,136.550393 L179.655903,136.550393 C179.655903,136.550393 190.246094,132.31543 190.246094,119.286133 C190.246094,106.256836 179.17691,95.7756688 158.115788,89.983303 C159.390603,88.4430778 160.157607,86.4653379 160.157607,84.3071897 Z" id="Fill-72" fill="#CDEEF7"></path>
                        <path d="M168.568867,118.044918 C165.813662,101.491544 157.155764,101.683175 149.085559,102.188339 C150.100532,100.879107 152.167909,96.8426738 152.167909,95.0082862 C152.167909,90.8323969 149.008269,87.4474105 145.109761,87.4474105 C143.960624,87.4474105 141.422219,90.1029328 140.463633,90.6246752 L154.175981,4.40943246 L151.384318,2.40779473 L114.520564,85.1288265 C112.023962,80.3775577 107.274782,80.8260261 101.82173,80.8260261 C95.0882959,80.8260261 89.4242779,85.7230901 87.7569605,92.3735985 C86.3866493,91.5870841 84.8218987,91.1384832 83.157984,91.1384832 C78.1570042,91.1384832 74.0407233,95.1734533 73.4773354,100.369422 C72.4540983,100.529358 71.4099591,100.716113 70.3531813,100.932124 C67.2756926,98.1264175 61.4635346,96.4295358 57.1056628,96.4295358 C47.3652241,96.4295358 39.4690424,104.888589 39.4690424,115.322948 C39.4690424,115.809095 39.4918891,116.28939 39.525916,116.765785 C37.6043692,115.841765 35.4762306,115.322948 33.234345,115.322948 C24.7426929,115.322948 19.6856917,119.036716 19.6856917,128.133075 C19.6856917,131.354224 20.551919,134.356925 22.044241,136.894933 L163.03804,136.559457 C163.03804,136.559457 170.898737,132.043217 168.568867,118.044918 Z" id="Fill-73" fill="#FFFFFF"></path>
                        <path d="M117.504221,106.82338 C116.598242,106.82338 115.733138,106.98787 114.92574,107.275848 C114.017838,100.442516 108.188605,95.1691858 101.127837,95.1691858 C93.4371158,95.1691858 87.2025007,101.423185 87.2025007,109.137818 C87.2025007,111.26847 87.6804958,113.28673 88.5306925,115.093709 C84.8336835,116.389369 82.176819,119.908782 82.176819,124.059623 C82.176819,129.308834 86.4196273,133.564834 91.6525685,133.564834 C96.8855096,133.564834 101.127837,129.308834 101.127837,124.059623 C101.127837,123.737396 101.111006,123.419029 101.08023,123.105002 L101.127837,123.105967 C105.043647,123.105967 108.579561,121.482291 111.109954,118.872639 C112.494409,120.9319 114.841586,122.285928 117.504221,122.285928 C121.760494,122.285928 125.211292,118.824401 125.211292,114.554413 C125.211292,110.284424 121.760494,106.82338 117.504221,106.82338" id="Fill-74" fill="#CDEEF7"></path>
                        <path d="M178.992733,62.4859662 C180.246388,60.8868912 181.000409,58.875385 181.000409,56.6829881 C181.000409,51.4902151 176.803765,47.2800412 171.626606,47.2800412 C166.449447,47.2800412 162.252803,51.4902151 162.252803,56.6829881 C162.252803,59.6949411 163.669958,62.3692313 165.866139,64.0903473 C165.332842,64.8061926 165.014019,65.6913518 165.014019,66.6536911 C165.014019,69.0269788 166.93177,70.9506926 169.297702,70.9506926 C170.847099,70.9506926 172.199815,70.1229361 172.952393,68.8870899 C173.561188,71.0365554 175.527508,72.6124764 177.865549,72.6124764 C180.688798,72.6124764 182.977789,70.3163687 182.977789,67.4848242 C182.977789,65.0415919 181.273068,63.0016256 178.992733,62.4859662" id="Fill-75" fill="#CDEEF7"></path>
                        <path d="M128.314184,46.6515058 C128.266096,43.4750627 125.688095,40.9141308 122.509956,40.9141308 C119.302003,40.9141308 116.70092,43.5228179 116.70092,46.7407453 C116.70092,47.0224526 116.72785,47.2974067 116.76632,47.5685018 C114.96927,48.2259797 113.683396,49.9509547 113.683396,51.9817558 C113.683396,54.5779011 115.781477,56.6829881 118.370057,56.6829881 C118.865363,56.6829881 119.342878,56.6048432 119.791058,56.4615777 C120.670108,59.8512308 123.732355,62.3566895 127.386565,62.3566895 C131.726511,62.3566895 135.245114,58.8276299 135.245114,54.4746727 C135.245114,50.4362245 132.216529,47.1126568 128.314184,46.6515058" id="Fill-76" fill="#CDEEF7"></path>
                        <path d="M128.457486,30.5551155 C128.457486,32.7672899 126.669572,34.5607622 124.464255,34.5607622 C122.258937,34.5607622 120.471023,32.7672899 120.471023,30.5551155 C120.471023,28.3429412 122.258937,26.5494688 124.464255,26.5494688 C126.669572,26.5494688 128.457486,28.3429412 128.457486,30.5551155" id="Fill-77" fill="#CDEEF7"></path>
                        <path d="M118.489796,35.5149011 C118.489796,36.819727 117.435706,37.8775766 116.134924,37.8775766 C114.834623,37.8775766 113.779572,36.819727 113.779572,35.5149011 C113.779572,34.2105576 114.834623,33.1527079 116.134924,33.1527079 C117.435706,33.1527079 118.489796,34.2105576 118.489796,35.5149011" id="Fill-78" fill="#CDEEF7"></path>
                    </g>
                    <g transform="translate(169.829126, 100.123804) rotate(-345.000000) translate(-169.829126, -100.123804) translate(126.329126, 8.123804)">
                        <path d="M42.1266904,183.865571 C15.0370095,144.036195 32.0606938,125.464252 32.0606938,125.464252 L42.1266904,125.464252 L42.221285,125.464252 L53.2389309,125.464252 C53.2389309,125.464252 69.3119166,142.917558 42.221285,182.745981 L42.221285,182.890459 C42.2055984,182.866141 42.1918133,182.841346 42.1747007,182.818935 C42.1580635,182.841346 42.1433277,182.866141 42.1266904,182.890459 L42.1266904,183.865571 Z" id="Fill-18" fill="#FFC500"></path>
                        <path d="M42.4198496,158 C24.4176975,131.899232 38.0716844,125.61937 38.0716844,125.61937 L42.9301308,125.61937 L42.9760765,125.61937 C42.9760765,125.61937 46.886335,124.597266 47.8353361,125.61937 C59.5909143,138.299006 42.4198496,158 42.4198496,158" id="Fill-20" fill="#FDECA1"></path>
                        <polygon id="Fill-22" fill="#125688" points="55.1185096 125.982992 30.3803815 125.658273 30.492564 117.85738 55.229266 118.180669"></polygon>
                        <path d="M44.0308922,84.7509333 C67.8858212,85.0642088 86.9615884,103.808286 86.6378756,126.62113 C86.560869,131.922018 85.4328651,136.971141 83.463493,141.60018 C77.398036,126.135243 61.9149587,115.028984 43.6016518,114.789617 C25.2873941,114.551203 9.4920124,125.246437 2.99066009,140.546392 C1.15343506,135.868717 0.170412722,130.793368 0.245517911,125.49105 C0.571132178,102.678683 20.1745371,84.4386115 44.0308922,84.7509333" id="Fill-24" fill="#59C6E5"></path>
                        <path d="M70.9094706,71.6619312 C70.6309159,91.1312628 66.069464,108.891169 58.7333984,122.611395 C53.9471063,121.09127 48.8380521,120.226305 43.525073,120.158119 C38.2116186,120.088025 33.0821243,120.817571 28.2506741,122.212767 C21.3139018,108.306579 17.260123,90.4346182 17.5386777,70.9657635 C17.9802772,40.0401816 29.2127811,13.4031835 45.2353798,0.476398059 C60.8824525,13.8180232 71.3515454,40.7358725 70.9094706,71.6619312" id="Fill-28" fill="#F6F6F8"></path>
                        <path d="M64.5043289,30.6447784 L65.6798677,34.2371945 C65.6798677,34.2371945 42.8825909,31.4668285 23.2801367,34.0941464 L25.1135589,30.1317123 C25.1135589,30.1317123 51.442681,27.356578 64.5043289,30.6447784" id="Fill-33" fill="#125688"></path>
                        <path d="M48.6905987,111.78551 C48.5066385,124.648401 46.0205617,135.752276 42.5443323,141.175708 C39.2259189,135.664539 37.0545233,124.499154 37.2389589,111.636263 C37.4224437,98.7738492 39.9118479,87.6685436 43.3857006,82.2465415 C46.7050647,87.758664 48.8755096,98.9240498 48.6905987,111.78551" id="Fill-35" fill="#59C6E5"></path>
                        <path d="M44.8172625,29.754542 C38.1091333,29.6672826 31.5322004,29.8046089 25.1135589,30.1317123 C30.0044278,17.4709964 36.5575933,7.31661813 44.8172627,0.652481141 C52.8848909,7.53071355 59.9766269,17.8619947 64.5043289,30.6447784 C58.0970958,30.1536464 51.5268178,29.8418014 44.8172625,29.754542 Z" id="Fill-39" fill="#59C6E5"></path>
                        <g id="Group-31" transform="translate(33.104811, 45.999230)">
                            <circle id="Oval" fill="#E56B6B" cx="10.941975" cy="10.941975" r="10.941975"></circle>
                            <circle id="Oval" fill="#FFFFFE" cx="11" cy="11" r="6"></circle>
                        </g>
                    </g>
                </g>
                <g id="stars" transform="translate(121.000000, 0.000000)" fill="#FDEBA1">
                    <path d="M112.925926,8.21428571 L110.341333,8.21428571 L106.407407,4.24842857 L106.407407,1.64285714 C106.407407,0.736 105.677333,0 104.777778,0 C103.878222,0 103.148148,0.736 103.148148,1.64285714 L103.148148,4.24842857 L99.2142222,8.21428571 L96.6296296,8.21428571 C95.7300741,8.21428571 95,8.95028571 95,9.85714286 C95,10.764 95.7300741,11.5 96.6296296,11.5 L99.2142222,11.5 L103.148148,15.4658571 L103.148148,18.0714286 C103.148148,18.9782857 103.878222,19.7142857 104.777778,19.7142857 C105.677333,19.7142857 106.407407,18.9782857 106.407407,18.0714286 L106.407407,15.4658571 L110.341333,11.5 L112.925926,11.5 C113.825481,11.5 114.555556,10.764 114.555556,9.85714286 C114.555556,8.95028571 113.825481,8.21428571 112.925926,8.21428571" id="Fill-1"></path>
                    <path d="M90.2592593,15.6071429 C88.9115556,15.6071429 87.8148148,16.7127857 87.8148148,18.0714286 C87.8148148,19.4300714 88.9115556,20.5357143 90.2592593,20.5357143 C91.606963,20.5357143 92.7037037,19.4300714 92.7037037,18.0714286 C92.7037037,16.7127857 91.606963,15.6071429 90.2592593,15.6071429" id="Fill-3"></path>
                    <path d="M2.44444444,50.1071429 C1.09674074,50.1071429 0,51.2127857 0,52.5714286 C0,53.9300714 1.09674074,55.0357143 2.44444444,55.0357143 C3.79214815,55.0357143 4.88888889,53.9300714 4.88888889,52.5714286 C4.88888889,51.2127857 3.79214815,50.1071429 2.44444444,50.1071429" id="Fill-5"></path>
                    <path d="M4.07407407,9.03571429 C2.72637037,9.03571429 1.62962963,10.1413571 1.62962963,11.5 C1.62962963,12.8586429 2.72637037,13.9642857 4.07407407,13.9642857 C5.42177778,13.9642857 6.51851852,12.8586429 6.51851852,11.5 C6.51851852,10.1413571 5.42177778,9.03571429 4.07407407,9.03571429" id="Fill-7"></path>
                    <path d="M36,23.8214286 C34.6522963,23.8214286 33.5555556,24.9270714 33.5555556,26.2857143 C33.5555556,27.6443571 34.6522963,28.75 36,28.75 C37.3477037,28.75 38.4444444,27.6443571 38.4444444,26.2857143 C38.4444444,24.9270714 37.3477037,23.8214286 36,23.8214286" id="Fill-9"></path>
                    <path d="M82.2962963,46.8214286 C80.9485926,46.8214286 79.8518519,47.9270714 79.8518519,49.2857143 C79.8518519,50.6443571 80.9485926,51.75 82.2962963,51.75 C83.644,51.75 84.7407407,50.6443571 84.7407407,49.2857143 C84.7407407,47.9270714 83.644,46.8214286 82.2962963,46.8214286" id="Fill-11"></path>
                    <path d="M15.4814815,84.6071429 C14.1337778,84.6071429 13.037037,85.7127857 13.037037,87.0714286 C13.037037,88.4300714 14.1337778,89.5357143 15.4814815,89.5357143 C16.8291852,89.5357143 17.9259259,88.4300714 17.9259259,87.0714286 C17.9259259,85.7127857 16.8291852,84.6071429 15.4814815,84.6071429" id="Fill-13"></path>
                    <path d="M107.444444,65 C106.096741,65 105,66.1056429 105,67.4642857 C105,68.8229286 106.096741,69.9285714 107.444444,69.9285714 C108.792148,69.9285714 109.888889,68.8229286 109.888889,67.4642857 C109.888889,66.1056429 108.792148,65 107.444444,65" id="Fill-15"></path>
                </g>
            </g>
        </g>
    </g>
</svg>