<?xml version="1.0" encoding="UTF-8"?>
<svg width="375px" height="382px" viewBox="0 0 375 382" version="1.1" xmlns="http://www.w3.org/2000/svg" xmlns:xlink="http://www.w3.org/1999/xlink">
    <!-- Generator: Sketch 39.1 (31720) - http://www.bohemiancoding.com/sketch -->
    <title>process-4</title>
    <desc>Created with Sketch.</desc>
    <defs></defs>
    <g id="合作流程" stroke="none" stroke-width="1" fill="none" fill-rule="evenodd">
        <g id="process-4">
            <g id="Group-2" transform="translate(81.000000, 23.000000)">
                <g id="Group-16" transform="translate(0.000000, 59.000000)">
                    <g id="Group-36">
                        <g id="Group-21-Copy">
                            <path d="M240.395513,155.697853 C240.395513,162.159928 235.148727,167.398517 228.67654,167.398517 L11.718973,167.398517 C5.24678617,167.398517 0,162.159928 0,155.697853 L0,11.700664 C0,5.23858888 5.24678617,0 11.718973,0 L228.67654,0 C235.148727,0 240.395513,5.23858888 240.395513,11.700664 L240.395513,155.697853 Z" id="Fill-130" fill="#2A2A2F"></path>
                            <path d="M124.17158,7.77795163 C124.17158,10.1053191 122.283953,11.9942327 119.959397,11.9942327 C117.632388,11.9942327 115.745988,10.1053191 115.745988,7.77795163 C115.745988,5.44935597 117.632388,3.56167057 119.959397,3.56167057 C122.283953,3.56167057 124.17158,5.44935597 124.17158,7.77795163" id="Fill-134" fill="#347A91"></path>
                        </g>
                        <g id="Group-35" transform="translate(0.000000, 167.398517)">
                            <g id="Group-32">
                                <rect id="Rectangle-202" fill="#D8D8D8" x="0" y="0" width="240.395513" height="124.65847" rx="5"></rect>
                                <g id="keyboard" transform="translate(14.245660, 14.246682)" fill="#9B9B9B">
                                    <rect id="Rectangle-203" x="0" y="0" width="14.24566" height="14.2466823" rx="2"></rect>
                                    <rect id="Rectangle-203-Copy" x="49.8598101" y="39.1783763" width="81.9125451" height="14.2466823" rx="2"></rect>
                                    <rect id="Rectangle-203-Copy-2" x="0" y="39.1783763" width="21.36849" height="14.2466823" rx="2"></rect>
                                    <rect id="Rectangle-203-Copy-14" x="0" y="19.5891881" width="32.052735" height="14.2466823" rx="2"></rect>
                                    <rect id="Rectangle-203-Copy-3" x="24.929905" y="39.1783763" width="21.36849" height="14.2466823" rx="2"></rect>
                                    <rect id="Rectangle-203-Copy-4" x="135.33377" y="39.1783763" width="21.36849" height="14.2466823" rx="2"></rect>
                                    <rect id="Rectangle-203-Copy-5" x="160" y="39" width="21.36849" height="14.2466823" rx="2"></rect>
                                    <rect id="Rectangle-203-Copy-29" x="185.19358" y="39.1783763" width="26.7106125" height="14.2466823" rx="2"></rect>
                                    <rect id="Rectangle-203-Copy-6" x="179.851458" y="19.5891881" width="32.052735" height="14.2466823" rx="2"></rect>
                                    <rect id="Rectangle-203-Copy-7" x="131.772355" y="19.5891881" width="12.4649525" height="14.2466823" rx="2"></rect>
                                    <rect id="Rectangle-203-Copy-25" x="163.82509" y="19.5891881" width="12.4649525" height="14.2466823" rx="2"></rect>
                                    <rect id="Rectangle-203-Copy-27" x="147.798723" y="19.5891881" width="12.4649525" height="14.2466823" rx="2"></rect>
                                    <rect id="Rectangle-203-Copy-20" x="179.851458" y="0" width="14.24566" height="14.2466823" rx="2"></rect>
                                    <rect id="Rectangle-203-Copy-24" x="197.658533" y="0" width="12.4649525" height="14.2466823" rx="2"></rect>
                                    <rect id="Rectangle-203-Copy-15" x="83.6932526" y="0" width="12.4649525" height="14.2466823" rx="2"></rect>
                                    <rect id="Rectangle-203-Copy-8" x="99.7196201" y="19.5891881" width="12.4649525" height="14.2466823" rx="2"></rect>
                                    <rect id="Rectangle-203-Copy-21" x="115.745988" y="0" width="12.4649525" height="14.2466823" rx="2"></rect>
                                    <rect id="Rectangle-203-Copy-16" x="49.8598101" y="0" width="14.24566" height="14.2466823" rx="2"></rect>
                                    <rect id="Rectangle-203-Copy-11" x="49.8598101" y="19.5891881" width="14.24566" height="14.2466823" rx="2"></rect>
                                    <rect id="Rectangle-203-Copy-10" x="115.745988" y="19.5891881" width="12.4649525" height="14.2466823" rx="2"></rect>
                                    <rect id="Rectangle-203-Copy-22" x="131.772355" y="0" width="12.4649525" height="14.2466823" rx="2"></rect>
                                    <rect id="Rectangle-203-Copy-26" x="163.82509" y="0" width="12.4649525" height="14.2466823" rx="2"></rect>
                                    <rect id="Rectangle-203-Copy-28" x="147.798723" y="0" width="12.4649525" height="14.2466823" rx="2"></rect>
                                    <rect id="Rectangle-203-Copy-17" x="67.6668851" y="0" width="12.4649525" height="14.2466823" rx="2"></rect>
                                    <rect id="Rectangle-203-Copy-12" x="67.6668851" y="19.5891881" width="12.4649525" height="14.2466823" rx="2"></rect>
                                    <rect id="Rectangle-203-Copy-18" x="17.807075" y="0" width="14.24566" height="14.2466823" rx="2"></rect>
                                    <rect id="Rectangle-203-Copy-9" x="83.6932526" y="19.5891881" width="12.4649525" height="14.2466823" rx="2"></rect>
                                    <rect id="Rectangle-203-Copy-23" x="99.7196201" y="0" width="12.4649525" height="14.2466823" rx="2"></rect>
                                    <rect id="Rectangle-203-Copy-19" x="33.8334425" y="0" width="14.24566" height="14.2466823" rx="2"></rect>
                                    <rect id="Rectangle-203-Copy-13" x="33.8334425" y="19.5891881" width="14.24566" height="14.2466823" rx="2"></rect>
                                </g>
                                <rect id="Rectangle-228" fill="#E7E8EA" x="87.2546676" y="78.3567525" width="67.6668851" height="32.0550351" rx="2"></rect>
                            </g>
                            <polygon id="Rectangle-229" fill="#787878" points="0 124.65847 240.395513 124.65847 238.614805 131.781811 1.7807075 131.781811"></polygon>
                        </g>
                    </g>
                    <g id="Group-27" transform="translate(13.115646, 16.393443)">
                        <g id="Platform">
                            <rect id="Rectangle-1" fill="#125688" x="2.27373675e-13" y="0" width="214.096268" height="135.054364" rx="1"></rect>
                            <g id="Page-1" transform="translate(8.988720, 6.744309)" fill-opacity="0.1" fill="#FEFEFE">
                                <polygon id="Fill-1" points="0 56.7682247 94.94733 56.7682247 94.94733 19.8678831 0 19.8678831"></polygon>
                                <polygon id="Fill-1-Copy" points="0 9.80415354 195.104936 9.80415354 195.104936 0.339357493 0 0.339357493"></polygon>
                                <polygon id="Fill-2" points="107.604854 122.741987 195.104936 122.741987 195.104936 19.8678831 107.604854 19.8678831"></polygon>
                                <polygon id="Fill-3" points="51.0103449 122.741987 94.9460583 122.741987 94.9460583 66.8319543 51.0103449 66.8319543"></polygon>
                                <polygon id="Fill-4" points="0 122.741987 38.350277 122.741987 38.350277 66.8319543 0 66.8319543"></polygon>
                            </g>
                        </g>
                    </g>
                </g>
                <g id="code" transform="translate(31.000000, 0.000000)">
                    <path d="M8.4375,0 L171.5625,0 C176.203125,0 180,3.796875 180,8.4375 L180,171.5625 C180,176.203125 176.203125,180 171.5625,180 L8.4375,180 C3.796875,180 0,176.203125 0,171.5625 L0,8.4375 C0,3.796875 3.796875,0 8.4375,0 L8.4375,0 Z" id="Shape" fill="#F6F6F8"></path>
                    <path d="M16.875,33.75 L163.125,33.75 C166.21875,33.75 168.75,36.28125 168.75,39.375 L168.75,163.125 C168.75,166.21875 166.21875,168.75 163.125,168.75 L16.875,168.75 C13.78125,168.75 11.25,166.21875 11.25,163.125 L11.25,39.375 C11.25,36.28125 13.78125,33.75 16.875,33.75 L16.875,33.75 Z" id="Shape" fill="#2A2A2F"></path>
                    <path d="M39.375,59.0625 L120.9375,59.0625 C122.484375,59.0625 123.75,60.328125 123.75,61.875 L123.75,64.6875 C123.75,66.234375 122.484375,67.5 120.9375,67.5 L39.375,67.5 C37.828125,67.5 36.5625,66.234375 36.5625,64.6875 L36.5625,61.875 C36.5625,60.328125 37.828125,59.0625 39.375,59.0625 L39.375,59.0625 Z" id="Shape" fill="#F5F7F7"></path>
                    <path d="M73.125,78.75 L39.375,78.75 C37.828125,78.75 36.5625,80.015625 36.5625,81.5625 L36.5625,84.375 C36.5625,85.921875 37.828125,87.1875 39.375,87.1875 L73.125,87.1875 C74.671875,87.1875 75.9375,85.921875 75.9375,84.375 L75.9375,81.5625 C75.9375,80.015625 74.671875,78.75 73.125,78.75 L73.125,78.75 Z M64.6875,118.125 L39.375,118.125 C37.828125,118.125 36.5625,119.390625 36.5625,120.9375 L36.5625,123.75 C36.5625,125.296875 37.828125,126.5625 39.375,126.5625 L64.6875,126.5625 C66.234375,126.5625 67.5,125.296875 67.5,123.75 L67.5,120.9375 C67.5,119.390625 66.234375,118.125 64.6875,118.125 L64.6875,118.125 Z M140.625,118.125 L123.75,118.125 C122.203125,118.125 120.9375,119.390625 120.9375,120.9375 L120.9375,123.75 C120.9375,125.296875 122.203125,126.5625 123.75,126.5625 L140.625,126.5625 C142.171875,126.5625 143.4375,125.296875 143.4375,123.75 L143.4375,120.9375 C143.4375,119.390625 142.171875,118.125 140.625,118.125 L140.625,118.125 Z" id="Shape" fill="#E56B6B"></path>
                    <path d="M140.625,78.75 L90,78.75 C88.453125,78.75 87.1875,80.015625 87.1875,81.5625 L87.1875,84.375 C87.1875,85.921875 88.453125,87.1875 90,87.1875 L140.625,87.1875 C142.171875,87.1875 143.4375,85.921875 143.4375,84.375 L143.4375,81.5625 C143.4375,80.015625 142.171875,78.75 140.625,78.75 L140.625,78.75 Z M140.625,137.8125 L39.375,137.8125 C37.828125,137.8125 36.5625,139.078125 36.5625,140.625 L36.5625,143.4375 C36.5625,144.984375 37.828125,146.25 39.375,146.25 L140.625,146.25 C142.171875,146.25 143.4375,144.984375 143.4375,143.4375 L143.4375,140.625 C143.4375,139.078125 142.171875,137.8125 140.625,137.8125 L140.625,137.8125 Z" id="Shape" fill="#59C6E5"></path>
                    <path d="M106.875,98.4375 L39.375,98.4375 C37.828125,98.4375 36.5625,99.703125 36.5625,101.25 L36.5625,104.0625 C36.5625,105.609375 37.828125,106.875 39.375,106.875 L106.875,106.875 C108.421875,106.875 109.6875,105.609375 109.6875,104.0625 L109.6875,101.25 C109.6875,99.703125 108.421875,98.4375 106.875,98.4375 L106.875,98.4375 Z M106.875,118.125 L81.5625,118.125 C80.015625,118.125 78.75,119.390625 78.75,120.9375 L78.75,123.75 C78.75,125.296875 80.015625,126.5625 81.5625,126.5625 L106.875,126.5625 C108.421875,126.5625 109.6875,125.296875 109.6875,123.75 L109.6875,120.9375 C109.6875,119.390625 108.421875,118.125 106.875,118.125 L106.875,118.125 Z" id="Shape" fill="#FDEBA1"></path>
                    <path d="M16.875,11.25 C13.78125,11.25 11.25,13.78125 11.25,16.875 C11.25,19.96875 13.78125,22.5 16.875,22.5 C19.96875,22.5 22.5,19.96875 22.5,16.875 C22.5,13.78125 19.96875,11.25 16.875,11.25 L16.875,11.25 Z M33.75,11.25 C30.65625,11.25 28.125,13.78125 28.125,16.875 C28.125,19.96875 30.65625,22.5 33.75,22.5 C36.84375,22.5 39.375,19.96875 39.375,16.875 C39.375,13.78125 36.84375,11.25 33.75,11.25 L33.75,11.25 Z M50.625,11.25 C47.53125,11.25 45,13.78125 45,16.875 C45,19.96875 47.53125,22.5 50.625,22.5 C53.71875,22.5 56.25,19.96875 56.25,16.875 C56.25,13.78125 53.71875,11.25 50.625,11.25 L50.625,11.25 Z" id="Shape" fill="#C3C6CA"></path>
                </g>
            </g>
            <g id="tag">
                <g id="Group-20-Copy" transform="translate(255.000000, 302.000000)">
                    <rect id="Rectangle-124" fill="#FFC500" x="0" y="0" width="120" height="43" rx="3"></rect>
                    <path d="M23.6657143,13.32 L20.7857143,13.32 L20.7857143,23.52 C20.7857143,24.2800038 20.7023818,24.8433315 20.5357143,25.21 C20.3690468,25.5766685 20.0257169,25.76 19.5057143,25.76 C18.9857117,25.76 18.6423818,25.5766685 18.4757143,25.21 C18.3090468,24.8433315 18.2257143,24.2800038 18.2257143,23.52 L18.2257143,23.08 L15.5857143,23.08 L15.5857143,23.7 C15.5857143,24.2600028 15.6390471,24.7933308 15.7457143,25.3 C15.8523815,25.8066692 16.0490462,26.2499981 16.3357143,26.63 C16.6223824,27.0100019 17.0090452,27.3033323 17.4957143,27.51 C17.9823834,27.7166677 18.6057105,27.82 19.3657143,27.82 C20.8190549,27.82 21.8990441,27.4966699 22.6057143,26.85 C23.3123845,26.2033301 23.6657143,25.1200076 23.6657143,23.6 L23.6657143,13.32 Z M30.4857143,22.22 L30.4857143,24.34 C30.4857143,24.6333348 30.4323815,24.8866656 30.3257143,25.1 C30.2190471,25.3133344 30.0823818,25.486666 29.9157143,25.62 C29.7490468,25.753334 29.5657153,25.8499997 29.3657143,25.91 C29.1657133,25.9700003 28.9723819,26 28.7857143,26 C28.4123791,26 28.1457151,25.8533348 27.9857143,25.56 C27.8257135,25.2666652 27.7457143,24.9133354 27.7457143,24.5 C27.7457143,24.0199976 27.8657131,23.6400014 28.1057143,23.36 C28.3457155,23.0799986 28.7457115,22.8800006 29.3057143,22.76 C29.4790485,22.7199998 29.6723799,22.6566671 29.8857143,22.57 C30.0990487,22.4833329 30.2990467,22.3666674 30.4857143,22.22 L30.4857143,22.22 Z M25.4457143,20.14 L27.9257143,20.14 L27.9257143,19.84 C27.9257143,19.4133312 28.0323799,19.0733346 28.2457143,18.82 C28.4590487,18.5666654 28.7790455,18.44 29.2057143,18.44 C29.6723833,18.44 30.00238,18.5566655 30.1957143,18.79 C30.3890486,19.0233345 30.4857143,19.3466646 30.4857143,19.76 C30.4857143,20.1200018 30.4057151,20.3933324 30.2457143,20.58 C30.0857135,20.7666676 29.7990497,20.9133328 29.3857143,21.02 L27.8257143,21.44 C27.3457119,21.573334 26.935716,21.7266658 26.5957143,21.9 C26.2557126,22.0733342 25.9757154,22.2899987 25.7557143,22.55 C25.5357132,22.8100013 25.3723815,23.1233315 25.2657143,23.49 C25.1590471,23.8566685 25.1057143,24.2933308 25.1057143,24.8 C25.1057143,25.1600018 25.1523805,25.5233315 25.2457143,25.89 C25.3390481,26.2566685 25.4857133,26.5866652 25.6857143,26.88 C25.8857153,27.1733348 26.1523793,27.4033325 26.4857143,27.57 C26.8190493,27.7366675 27.2257119,27.82 27.7057143,27.82 C28.3723843,27.82 28.9157122,27.7366675 29.3357143,27.57 C29.7557164,27.4033325 30.1257127,27.0400028 30.4457143,26.48 L30.4857143,26.48 C30.5257145,26.6666676 30.5690474,26.8566657 30.6157143,27.05 C30.6623812,27.2433343 30.7323805,27.4266658 30.8257143,27.6 L33.4657143,27.6 C33.3323803,27.2799984 33.2423812,26.9800014 33.1957143,26.7 C33.1490474,26.4199986 33.1257143,26.0266692 33.1257143,25.52 L33.1257143,19.86 C33.1257143,19.3799976 33.0757148,18.9366687 32.9757143,18.53 C32.8757138,18.1233313 32.6857157,17.7733348 32.4057143,17.48 C32.1257129,17.1866652 31.7323835,16.9600008 31.2257143,16.8 C30.7190451,16.6399992 30.0523851,16.56 29.2257143,16.56 C28.7057117,16.56 28.2157166,16.6166661 27.7557143,16.73 C27.295712,16.8433339 26.895716,17.0299987 26.5557143,17.29 C26.2157126,17.5500013 25.9457153,17.8899979 25.7457143,18.31 C25.5457133,18.7300021 25.4457143,19.2533302 25.4457143,19.88 L25.4457143,20.14 Z M40.1857143,16.84 L38.7257143,24.54 L38.6857143,24.54 L37.1457143,16.84 L34.2657143,16.84 L37.0457143,27.6 L40.2457143,27.6 L42.9457143,16.84 L40.1857143,16.84 Z M48.9857143,22.22 L48.9857143,24.34 C48.9857143,24.6333348 48.9323815,24.8866656 48.8257143,25.1 C48.7190471,25.3133344 48.5823818,25.486666 48.4157143,25.62 C48.2490468,25.753334 48.0657153,25.8499997 47.8657143,25.91 C47.6657133,25.9700003 47.4723819,26 47.2857143,26 C46.9123791,26 46.6457151,25.8533348 46.4857143,25.56 C46.3257135,25.2666652 46.2457143,24.9133354 46.2457143,24.5 C46.2457143,24.0199976 46.3657131,23.6400014 46.6057143,23.36 C46.8457155,23.0799986 47.2457115,22.8800006 47.8057143,22.76 C47.9790485,22.7199998 48.1723799,22.6566671 48.3857143,22.57 C48.5990487,22.4833329 48.7990467,22.3666674 48.9857143,22.22 L48.9857143,22.22 Z M43.9457143,20.14 L46.4257143,20.14 L46.4257143,19.84 C46.4257143,19.4133312 46.5323799,19.0733346 46.7457143,18.82 C46.9590487,18.5666654 47.2790455,18.44 47.7057143,18.44 C48.1723833,18.44 48.50238,18.5566655 48.6957143,18.79 C48.8890486,19.0233345 48.9857143,19.3466646 48.9857143,19.76 C48.9857143,20.1200018 48.9057151,20.3933324 48.7457143,20.58 C48.5857135,20.7666676 48.2990497,20.9133328 47.8857143,21.02 L46.3257143,21.44 C45.8457119,21.573334 45.435716,21.7266658 45.0957143,21.9 C44.7557126,22.0733342 44.4757154,22.2899987 44.2557143,22.55 C44.0357132,22.8100013 43.8723815,23.1233315 43.7657143,23.49 C43.6590471,23.8566685 43.6057143,24.2933308 43.6057143,24.8 C43.6057143,25.1600018 43.6523805,25.5233315 43.7457143,25.89 C43.8390481,26.2566685 43.9857133,26.5866652 44.1857143,26.88 C44.3857153,27.1733348 44.6523793,27.4033325 44.9857143,27.57 C45.3190493,27.7366675 45.7257119,27.82 46.2057143,27.82 C46.8723843,27.82 47.4157122,27.7366675 47.8357143,27.57 C48.2557164,27.4033325 48.6257127,27.0400028 48.9457143,26.48 L48.9857143,26.48 C49.0257145,26.6666676 49.0690474,26.8566657 49.1157143,27.05 C49.1623812,27.2433343 49.2323805,27.4266658 49.3257143,27.6 L51.9657143,27.6 C51.8323803,27.2799984 51.7423812,26.9800014 51.6957143,26.7 C51.6490474,26.4199986 51.6257143,26.0266692 51.6257143,25.52 L51.6257143,19.86 C51.6257143,19.3799976 51.5757148,18.9366687 51.4757143,18.53 C51.3757138,18.1233313 51.1857157,17.7733348 50.9057143,17.48 C50.6257129,17.1866652 50.2323835,16.9600008 49.7257143,16.8 C49.2190451,16.6399992 48.5523851,16.56 47.7257143,16.56 C47.2057117,16.56 46.7157166,16.6166661 46.2557143,16.73 C45.795712,16.8433339 45.395716,17.0299987 45.0557143,17.29 C44.7157126,17.5500013 44.4457153,17.8899979 44.2457143,18.31 C44.0457133,18.7300021 43.9457143,19.2533302 43.9457143,19.88 L43.9457143,20.14 Z M60.7857143,23.14 L57.9057143,23.14 L57.9057143,23.72 C57.9057143,25.0400066 58.2557108,26.0533298 58.9557143,26.76 C59.6557178,27.4666702 60.8190395,27.82 62.4457143,27.82 C64.0057221,27.82 65.2223766,27.4766701 66.0957143,26.79 C66.969052,26.1033299 67.4057143,25.0066742 67.4057143,23.5 C67.4057143,23.0599978 67.3657147,22.6600018 67.2857143,22.3 C67.2057139,21.9399982 67.062382,21.6100015 66.8557143,21.31 C66.6490466,21.0099985 66.3723827,20.7300013 66.0257143,20.47 C65.6790459,20.2099987 65.2323837,19.9600012 64.6857143,19.72 L62.4657143,18.76 C61.8523779,18.5066654 61.4523819,18.2300015 61.2657143,17.93 C61.0790467,17.6299985 60.9857143,17.2600022 60.9857143,16.82 C60.9857143,16.6066656 61.0090474,16.400001 61.0557143,16.2 C61.1023812,15.999999 61.189047,15.8233341 61.3157143,15.67 C61.4423816,15.5166659 61.6123799,15.3933338 61.8257143,15.3 C62.0390487,15.2066662 62.3057127,15.16 62.6257143,15.16 C63.1857171,15.16 63.5857131,15.3433315 63.8257143,15.71 C64.0657155,16.0766685 64.1857143,16.5999966 64.1857143,17.28 L66.9457143,17.28 L66.9457143,16.88 C66.9457143,16.1999966 66.8357154,15.6166691 66.6157143,15.13 C66.3957132,14.6433309 66.0890496,14.2433349 65.6957143,13.93 C65.302379,13.6166651 64.835717,13.3900007 64.2957143,13.25 C63.7557116,13.1099993 63.1657175,13.04 62.5257143,13.04 C61.1523741,13.04 60.0723849,13.3866632 59.2857143,14.08 C58.4990437,14.7733368 58.1057143,15.8266596 58.1057143,17.24 C58.1057143,17.8266696 58.1790469,18.3433311 58.3257143,18.79 C58.4723817,19.2366689 58.7023794,19.6299983 59.0157143,19.97 C59.3290492,20.3100017 59.7190453,20.6066654 60.1857143,20.86 C60.6523833,21.1133346 61.2057111,21.3466656 61.8457143,21.56 C62.3257167,21.7200008 62.729046,21.8766659 63.0557143,22.03 C63.3823826,22.1833341 63.6457133,22.3533324 63.8457143,22.54 C64.0457153,22.7266676 64.1890472,22.9366655 64.2757143,23.17 C64.3623814,23.4033345 64.4057143,23.6799984 64.4057143,24 C64.4057143,24.600003 64.2290494,25.0433319 63.8757143,25.33 C63.5223792,25.6166681 63.1257165,25.76 62.6857143,25.76 C62.3123791,25.76 62.0023822,25.7066672 61.7557143,25.6 C61.5090464,25.4933328 61.3123817,25.3466676 61.1657143,25.16 C61.0190469,24.9733324 60.9190479,24.7433347 60.8657143,24.47 C60.8123807,24.1966653 60.7857143,23.893335 60.7857143,23.56 L60.7857143,23.14 Z M73.9457143,20.72 L76.5857143,20.72 C76.5857143,19.4399936 76.2623842,18.4266704 75.6157143,17.68 C74.9690444,16.9333296 74.0057207,16.56 72.7257143,16.56 C72.0857111,16.56 71.4990503,16.6466658 70.9657143,16.82 C70.4323783,16.9933342 69.9723829,17.2966645 69.5857143,17.73 C69.1990457,18.1633355 68.8990487,18.7433297 68.6857143,19.47 C68.4723799,20.1966703 68.3657143,21.1133278 68.3657143,22.22 C68.3657143,23.3000054 68.4523801,24.2033297 68.6257143,24.93 C68.7990485,25.6566703 69.0557126,26.2366645 69.3957143,26.67 C69.735716,27.1033355 70.1623784,27.4033325 70.6757143,27.57 C71.1890502,27.7366675 71.7923775,27.82 72.4857143,27.82 C73.9523883,27.82 75.0023778,27.4500037 75.6357143,26.71 C76.2690508,25.9699963 76.5857143,24.8933404 76.5857143,23.48 L73.9457143,23.48 C73.9457143,24.3600044 73.8390487,24.999998 73.6257143,25.4 C73.4123799,25.800002 73.0723833,26 72.6057143,26 C72.2990461,26 72.0490486,25.9300007 71.8557143,25.79 C71.66238,25.6499993 71.5123815,25.4266682 71.4057143,25.12 C71.2990471,24.8133318 71.2257145,24.4233357 71.1857143,23.95 C71.1457141,23.4766643 71.1257143,22.90667 71.1257143,22.24 C71.1257143,21.6133302 71.1457141,21.0700023 71.1857143,20.61 C71.2257145,20.1499977 71.2990471,19.7700015 71.4057143,19.47 C71.5123815,19.1699985 71.6723799,18.9433341 71.8857143,18.79 C72.0990487,18.6366659 72.3723793,18.56 72.7057143,18.56 C72.9723823,18.56 73.1857135,18.6233327 73.3457143,18.75 C73.5057151,18.8766673 73.6290472,19.0433323 73.7157143,19.25 C73.8023814,19.4566677 73.8623808,19.6866654 73.8957143,19.94 C73.9290478,20.1933346 73.9457143,20.453332 73.9457143,20.72 L73.9457143,20.72 Z M78.0257143,16.84 L78.0257143,27.6 L80.7857143,27.6 L80.7857143,21.14 C80.7857143,20.7799982 80.8457137,20.4766679 80.9657143,20.23 C81.0857149,19.9833321 81.2457133,19.7833341 81.4457143,19.63 C81.6457153,19.4766659 81.8657131,19.366667 82.1057143,19.3 C82.3457155,19.233333 82.5857131,19.2 82.8257143,19.2 C82.9723817,19.2 83.1157136,19.2033333 83.2557143,19.21 C83.395715,19.2166667 83.5390469,19.2266666 83.6857143,19.24 L83.6857143,16.6 C83.6057139,16.5866666 83.5223814,16.5766667 83.4357143,16.57 C83.3490472,16.5633333 83.2657147,16.56 83.1857143,16.56 C82.6123781,16.56 82.1257163,16.7166651 81.7257143,17.03 C81.3257123,17.3433349 80.9857157,17.7599974 80.7057143,18.28 L80.6657143,18.28 L80.6657143,16.84 L78.0257143,16.84 Z M84.7857143,13.16 L84.7857143,15.52 L87.5457143,15.52 L87.5457143,13.16 L84.7857143,13.16 Z M84.7857143,16.84 L84.7857143,27.6 L87.5457143,27.6 L87.5457143,16.84 L84.7857143,16.84 Z M89.4857143,16.84 L89.4857143,31.06 L92.2457143,31.06 L92.2457143,26.6 L92.2857143,26.6 C92.5790491,27.0266688 92.9090458,27.3366657 93.2757143,27.53 C93.6423828,27.7233343 94.0857117,27.82 94.6057143,27.82 C95.7390533,27.82 96.5723783,27.386671 97.1057143,26.52 C97.6390503,25.653329 97.9057143,24.22001 97.9057143,22.22 C97.9057143,20.21999 97.6390503,18.7766711 97.1057143,17.89 C96.5723783,17.0033289 95.7390533,16.56 94.6057143,16.56 C94.0457115,16.56 93.5757162,16.6699989 93.1957143,16.89 C92.8157124,17.1100011 92.4723825,17.4733308 92.1657143,17.98 L92.1257143,17.98 L92.1257143,16.84 L89.4857143,16.84 Z M92.2457143,22.22 C92.2457143,21.0466608 92.3357134,20.1633363 92.5157143,19.57 C92.6957152,18.9766637 93.0923779,18.68 93.7057143,18.68 C94.3057173,18.68 94.6957134,18.9766637 94.8757143,19.57 C95.0557152,20.1633363 95.1457143,21.0466608 95.1457143,22.22 C95.1457143,23.3933392 95.0557152,24.2766637 94.8757143,24.87 C94.6957134,25.4633363 94.3057173,25.76 93.7057143,25.76 C93.0923779,25.76 92.6957152,25.4633363 92.5157143,24.87 C92.3357134,24.2766637 92.2457143,23.3933392 92.2457143,22.22 L92.2457143,22.22 Z M100.085714,13.76 L100.085714,16.84 L98.6857143,16.84 L98.6857143,18.72 L100.085714,18.72 L100.085714,24.88 C100.085714,25.4266694 100.119047,25.8799982 100.185714,26.24 C100.252381,26.6000018 100.375713,26.8899989 100.555714,27.11 C100.735715,27.3300011 100.995713,27.4766663 101.335714,27.55 C101.675716,27.6233337 102.112378,27.66 102.645714,27.66 C102.965716,27.66 103.269046,27.6500001 103.555714,27.63 C103.842382,27.6099999 104.139046,27.6 104.445714,27.6 L104.445714,25.68 C104.35238,25.6933334 104.252381,25.7033333 104.145714,25.71 C104.039047,25.7166667 103.932381,25.72 103.825714,25.72 C103.425712,25.72 103.162382,25.6300009 103.035714,25.45 C102.909047,25.2699991 102.845714,24.9666688 102.845714,24.54 L102.845714,18.72 L104.445714,18.72 L104.445714,16.84 L102.845714,16.84 L102.845714,13.76 L100.085714,13.76 Z" id="Java-Script" fill="#FFFFFF"></path>
                </g>
                <g id="Group-22-Copy" transform="translate(0.000000, 85.000000)">
                    <rect id="Rectangle-124-Copy" fill="#E56B6B" x="0" y="0" width="71" height="33" rx="3"></rect>
                    <path d="M14.9423077,9.54384615 L14.9423077,23 L17.6561538,23 L17.6561538,17.0257692 L20.8223077,17.0257692 L20.8223077,23 L23.5361538,23 L23.5361538,9.54384615 L20.8223077,9.54384615 L20.8223077,14.6888462 L17.6561538,14.6888462 L17.6561538,9.54384615 L14.9423077,9.54384615 Z M33.2984615,9.54384615 L24.7046154,9.54384615 L24.7046154,11.7676923 L27.6446154,11.7676923 L27.6446154,23 L30.3584615,23 L30.3584615,11.7676923 L33.2984615,11.7676923 L33.2984615,9.54384615 Z M34.5234615,9.54384615 L34.5234615,23 L37.0111538,23 L37.0111538,12.2576923 L37.0488462,12.2576923 L39.4423077,23 L41.5530769,23 L43.9465385,12.2576923 L43.9842308,12.2576923 L43.9842308,23 L46.4719231,23 L46.4719231,9.54384615 L42.4576923,9.54384615 L40.5165385,19.0423077 L40.4788462,19.0423077 L38.5565385,9.54384615 L34.5234615,9.54384615 Z M48.4130769,23 L55.9326923,23 L55.9326923,20.7761538 L51.1269231,20.7761538 L51.1269231,9.54384615 L48.4130769,9.54384615 L48.4130769,23 Z" id="HTML" fill="#FFFFFF"></path>
                </g>
                <g id="Group-21-Copy-2" transform="translate(325.000000, 0.000000)">
                    <circle id="Oval-32" fill="#59C6E5" cx="25" cy="25" r="25"></circle>
                    <path d="M17.113307,22.8308525 L19.8642951,22.8308525 C19.8642951,22.3382925 19.8292713,21.8110087 19.7592227,21.2489851 C19.689174,20.6869616 19.514055,20.1628351 19.2338603,19.67659 C18.9536657,19.1903449 18.5301961,18.7893566 17.9634387,18.473613 C17.3966814,18.1578694 16.6229737,18 15.6422925,18 C14.6106668,18 13.7891994,18.1736564 13.1778656,18.5209743 C12.5665319,18.8682922 12.0984865,19.3513726 11.7737154,19.97023 C11.4489444,20.5890874 11.2388015,21.3310737 11.1432806,22.1962111 C11.0477597,23.0613485 11,24.0054076 11,25.0284168 C11,26.0640557 11.0477597,27.0112722 11.1432806,27.8700947 C11.2388015,28.7289172 11.4489444,29.4677461 11.7737154,30.0866035 C12.0984865,30.7054609 12.5665319,31.1790692 13.1778656,31.5074425 C13.7891994,31.8358158 14.6106668,32 15.6422925,32 C16.546557,32 17.2820569,31.8610749 17.8488142,31.5832206 C18.4155716,31.3053662 18.8549611,30.9201648 19.166996,30.4276049 C19.479031,29.9350449 19.6923578,29.3604002 19.8069829,28.7036536 C19.921608,28.046907 19.9789196,27.3522815 19.9789196,26.6197564 L17.2279315,26.6197564 C17.2279315,27.3522815 17.1833557,27.9427131 17.0942029,28.391069 C17.0050501,28.8394249 16.8840587,29.1867376 16.7312253,29.4330176 C16.5783919,29.6792976 16.3969049,29.8434818 16.1867589,29.9255751 C15.9766129,30.0076684 15.7505502,30.0487145 15.5085639,30.0487145 C15.2156331,30.0487145 14.9577306,29.9887241 14.7348485,29.8687415 C14.5119664,29.748759 14.3272954,29.5151122 14.18083,29.1677943 C14.0343647,28.8204764 13.9261093,28.3310812 13.8560606,27.699594 C13.7860119,27.0681069 13.7509881,26.2408712 13.7509881,25.217862 C13.7509881,24.2580015 13.77646,23.4465527 13.8274045,22.7834912 C13.878349,22.1204297 13.9675005,21.5836737 14.0948617,21.173207 C14.2222229,20.7627404 14.3973419,20.4659459 14.620224,20.2828146 C14.8431061,20.0996833 15.1264805,20.0081191 15.4703557,20.0081191 C16.0944256,20.0081191 16.5242632,20.2322937 16.7598814,20.6806495 C16.9954996,21.1290054 17.113307,21.8457326 17.113307,22.8308525 L17.113307,22.8308525 Z M23.7615283,27.5669824 L21.0105402,27.5669824 L21.0105402,28.1163735 C21.0105402,29.366718 21.3448583,30.3265641 22.0135046,30.9959405 C22.6821509,31.6653168 23.7933607,32 25.3471673,32 C26.8372934,32 27.9994469,31.674789 28.8336627,31.0243572 C29.6678786,30.3739255 30.0849802,29.3351447 30.0849802,27.9079838 C30.0849802,27.4912022 30.0467725,27.1123156 29.9703557,26.7713126 C29.893939,26.4303095 29.7570278,26.1177281 29.5596179,25.8335589 C29.3622081,25.5493896 29.0979375,25.284169 28.7667984,25.037889 C28.4356593,24.7916091 28.0090057,24.5548049 27.4868248,24.3274696 L25.3662714,23.4181326 C24.7804099,23.1781675 24.398332,22.9161043 24.2200264,22.631935 C24.0417207,22.3477658 23.9525692,21.9972957 23.9525692,21.5805142 C23.9525692,21.3784383 23.974857,21.1826802 24.0194335,20.9932341 C24.0640099,20.803788 24.1467934,20.6364464 24.2677866,20.4912043 C24.3887797,20.3459623 24.5511628,20.2291389 24.7549407,20.1407307 C24.9587186,20.0523225 25.2134372,20.0081191 25.5191041,20.0081191 C26.0540211,20.0081191 26.436099,20.1817754 26.6653491,20.5290934 C26.8945993,20.8764113 27.0092227,21.3721213 27.0092227,22.0162382 L29.6455863,22.0162382 L29.6455863,21.6373478 C29.6455863,20.9932309 29.5405149,20.4406879 29.3303689,19.9797023 C29.1202229,19.5187167 28.8272966,19.1398301 28.451581,18.8430311 C28.0758655,18.5462322 27.630108,18.3315298 27.1142951,18.1989175 C26.5984823,18.0663052 26.0349174,18 25.4235837,18 C24.1117633,18 23.0801531,18.3283684 22.328722,18.985115 C21.5772909,19.6418617 21.201581,20.6395964 21.201581,21.9783491 C21.201581,22.5340578 21.2716286,23.023453 21.411726,23.4465494 C21.5518233,23.8696458 21.771518,24.2422176 22.0708169,24.564276 C22.3701157,24.8863345 22.7426416,25.1673421 23.1884058,25.4073072 C23.63417,25.6472723 24.162711,25.8682895 24.7740448,26.0703654 C25.2325451,26.2219223 25.617807,26.3703195 25.9298419,26.5155616 C26.2418768,26.6608036 26.4934114,26.8218304 26.6844532,26.9986468 C26.875495,27.1754632 27.0124063,27.3743787 27.095191,27.5953992 C27.1779758,27.8164197 27.2193676,28.0784829 27.2193676,28.3815968 C27.2193676,28.9499352 27.0506165,29.3698678 26.7131094,29.6414073 C26.3756022,29.9129468 25.9967083,30.0487145 25.5764163,30.0487145 C25.219805,30.0487145 24.9236946,29.9981963 24.6880764,29.8971583 C24.4524582,29.7961204 24.2646032,29.6571953 24.1245059,29.4803789 C23.9844086,29.3035625 23.8888891,29.0857027 23.8379447,28.826793 C23.7870002,28.5678832 23.7615283,28.2805609 23.7615283,27.9648173 L23.7615283,27.5669824 Z M33.6765481,27.5669824 L30.9255599,27.5669824 L30.9255599,28.1163735 C30.9255599,29.366718 31.2598781,30.3265641 31.9285244,30.9959405 C32.5971707,31.6653168 33.7083805,32 35.2621871,32 C36.7523131,32 37.9144666,31.674789 38.7486825,31.0243572 C39.5828983,30.3739255 40,29.3351447 40,27.9079838 C40,27.4912022 39.9617922,27.1123156 39.8853755,26.7713126 C39.8089588,26.4303095 39.6720475,26.1177281 39.4746377,25.8335589 C39.2772278,25.5493896 39.0129573,25.284169 38.6818182,25.037889 C38.3506791,24.7916091 37.9240254,24.5548049 37.4018445,24.3274696 L35.2812912,23.4181326 C34.6954297,23.1781675 34.3133518,22.9161043 34.1350461,22.631935 C33.9567404,22.3477658 33.8675889,21.9972957 33.8675889,21.5805142 C33.8675889,21.3784383 33.8898768,21.1826802 33.9344532,20.9932341 C33.9790296,20.803788 34.0618132,20.6364464 34.1828063,20.4912043 C34.3037995,20.3459623 34.4661826,20.2291389 34.6699605,20.1407307 C34.8737384,20.0523225 35.128457,20.0081191 35.4341238,20.0081191 C35.9690409,20.0081191 36.3511187,20.1817754 36.5803689,20.5290934 C36.8096191,20.8764113 36.9242424,21.3721213 36.9242424,22.0162382 L39.5606061,22.0162382 L39.5606061,21.6373478 C39.5606061,20.9932309 39.4555346,20.4406879 39.2453887,19.9797023 C39.0352427,19.5187167 38.7423163,19.1398301 38.3666008,18.8430311 C37.9908853,18.5462322 37.5451277,18.3315298 37.0293149,18.1989175 C36.513502,18.0663052 35.9499372,18 35.3386034,18 C34.0267831,18 32.9951728,18.3283684 32.2437418,18.985115 C31.4923107,19.6418617 31.1166008,20.6395964 31.1166008,21.9783491 C31.1166008,22.5340578 31.1866484,23.023453 31.3267457,23.4465494 C31.466843,23.8696458 31.6865378,24.2422176 31.9858366,24.564276 C32.2851354,24.8863345 32.6576614,25.1673421 33.1034256,25.4073072 C33.5491898,25.6472723 34.0777308,25.8682895 34.6890646,26.0703654 C35.1475649,26.2219223 35.5328267,26.3703195 35.8448617,26.5155616 C36.1568966,26.6608036 36.4084312,26.8218304 36.599473,26.9986468 C36.7905148,27.1754632 36.927426,27.3743787 37.0102108,27.5953992 C37.0929956,27.8164197 37.1343874,28.0784829 37.1343874,28.3815968 C37.1343874,28.9499352 36.9656363,29.3698678 36.6281291,29.6414073 C36.2906219,29.9129468 35.9117281,30.0487145 35.4914361,30.0487145 C35.1348247,30.0487145 34.8387144,29.9981963 34.6030962,29.8971583 C34.367478,29.7961204 34.179623,29.6571953 34.0395257,29.4803789 C33.8994284,29.3035625 33.8039089,29.0857027 33.7529644,28.826793 C33.7020199,28.5678832 33.6765481,28.2805609 33.6765481,27.9648173 L33.6765481,27.5669824 Z" id="CSS" fill="#FFFFFF"></path>
                </g>
            </g>
        </g>
    </g>
</svg>