<?xml version="1.0" encoding="UTF-8"?>
<svg width="328px" height="318px" viewBox="0 0 328 318" version="1.1" xmlns="http://www.w3.org/2000/svg" xmlns:xlink="http://www.w3.org/1999/xlink">
    <!-- Generator: Sketch 39.1 (31720) - http://www.bohemiancoding.com/sketch -->
    <title>pic1</title>
    <desc>Created with Sketch.</desc>
    <defs></defs>
    <g id="合作流程" stroke="none" stroke-width="1" fill="none" fill-rule="evenodd">
        <g id="合作流程-copy" transform="translate(-295.000000, -680.000000)">
            <g id="Group-24" transform="translate(0.000000, 601.000000)">
                <g id="process-1" transform="translate(295.000000, 79.000000)">
                    <g id="pic1">
                        <g id="Notes" transform="translate(63.000000, 83.000000)">
                            <polyline id="Fill-37" fill="#2A2A2F" points="102.12766 6 89.3617021 6 89.3617021 15.5689655 60.6382979 15.5689655 60.6382979 6 0 6 0 184.62069 150 184.62069 150 6 102.12766 6"></polyline>
                            <polygon id="Fill-38" fill="#E56B6B" points="60.6382979 0 89.3617021 0 89.3617021 15.9482759 60.6382979 15.9482759"></polygon>
                            <polyline id="Fill-39" fill="#FFFFFF" points="111.702128 15.9482759 111.702128 25.5172414 38.2978723 25.5172414 38.2978723 15.9482759 9.57446809 15.9482759 9.57446809 175.431034 140.425532 175.431034 140.425532 15.9482759 111.702128 15.9482759"></polyline>
                            <polyline id="Fill-40" fill="#59C6E5" points="89.3617021 6.37931034 89.3617021 15.9482759 60.6382979 15.9482759 60.6382979 6.37931034 38.2978723 6.37931034 38.2978723 25.5172414 111.702128 25.5172414 111.702128 6.37931034 89.3617021 6.37931034"></polyline>
                            <g id="line" transform="translate(25.513196, 44.382423)" fill="#C3C6CA">
                                <path d="M44.6995695,6.65205996 L3.21020777,6.65205996 C1.44531416,6.65205996 0.0187184127,5.22628409 0.0187184127,3.46240478 C0.0187184127,1.70171513 1.44531416,0.272749611 3.21020777,0.272749611 L44.6995695,0.272749611 C46.4644631,0.272749611 47.8910588,1.70171513 47.8910588,3.46240478 C47.8910588,5.22628409 46.4644631,6.65205996 44.6995695,6.65205996" id="Fill-41"></path>
                                <path d="M44.6995695,105.53137 L3.21020777,105.53137 C1.44531416,105.53137 0.0187184127,104.105594 0.0187184127,102.341715 C0.0187184127,100.577836 1.44531416,99.15206 3.21020777,99.15206 L44.6995695,99.15206 C46.4644631,99.15206 47.8910588,100.577836 47.8910588,102.341715 C47.8910588,104.105594 46.4644631,105.53137 44.6995695,105.53137" id="Fill-42"></path>
                                <path d="M95.7633993,25.789991 L3.21020777,25.789991 C1.44531416,25.789991 0.0187184127,24.3642151 0.0187184127,22.6003358 C0.0187184127,20.8396462 1.44531416,19.4106806 3.21020777,19.4106806 L95.7633993,19.4106806 C97.5282929,19.4106806 98.9548886,20.8396462 98.9548886,22.6003358 C98.9548886,24.3642151 97.5282929,25.789991 95.7633993,25.789991" id="Fill-43"></path>
                                <path d="M95.7633993,64.0658531 L3.21020777,64.0658531 C1.44531416,64.0658531 0.0187184127,62.6400772 0.0187184127,60.8761979 C0.0187184127,59.1155082 1.44531416,57.6865427 3.21020777,57.6865427 L95.7633993,57.6865427 C97.5282929,57.6865427 98.9548886,59.1155082 98.9548886,60.8761979 C98.9548886,62.6400772 97.5282929,64.0658531 95.7633993,64.0658531" id="Fill-44"></path>
                                <path d="M95.7633993,86.3934393 L3.21020777,86.3934393 C1.44531416,86.3934393 0.0187184127,84.9676634 0.0187184127,83.2037841 C0.0187184127,81.4399048 1.44531416,80.0141289 3.21020777,80.0141289 L95.7633993,80.0141289 C97.5282929,80.0141289 98.9548886,81.4399048 98.9548886,83.2037841 C98.9548886,84.9676634 97.5282929,86.3934393 95.7633993,86.3934393" id="Fill-45"></path>
                                <path d="M47.8910588,44.927922 L3.21020777,44.927922 C1.44531416,44.927922 0.0187184127,43.5021462 0.0187184127,41.7382669 C0.0187184127,39.9775772 1.44531416,38.5486117 3.21020777,38.5486117 L47.8910588,38.5486117 C49.6559525,38.5486117 51.0825482,39.9775772 51.0825482,41.7382669 C51.0825482,43.5021462 49.6559525,44.927922 47.8910588,44.927922" id="Fill-46"></path>
                                <path d="M95.7633993,44.927922 L73.4229737,44.927922 C71.6580801,44.927922 70.2314844,43.5021462 70.2314844,41.7382669 C70.2314844,39.9775772 71.6580801,38.5486117 73.4229737,38.5486117 L95.7633993,38.5486117 C97.5282929,38.5486117 98.9548886,39.9775772 98.9548886,41.7382669 C98.9548886,43.5021462 97.5282929,44.927922 95.7633993,44.927922" id="Fill-47"></path>
                                <path d="M60.6570163,44.927922 C59.7921227,44.927922 58.9942503,44.6089565 58.3910588,44.002922 C57.8133993,43.3968875 57.4655269,42.5675772 57.4655269,41.7382669 C57.4655269,40.87706 57.7846759,40.0796462 58.3910588,39.4736117 C59.6038248,38.2615427 61.7102078,38.2934393 62.9229737,39.4736117 C63.5261652,40.0796462 63.8485056,40.87706 63.8485056,41.7382669 C63.8485056,42.5994737 63.4974418,43.3968875 62.9229737,44.002922 C62.3133993,44.57706 61.5155269,44.927922 60.6570163,44.927922" id="Fill-48"></path>
                            </g>
                        </g>
                        <g id="girl" transform="translate(158.000000, 78.000000)">
                            <g id="miss" transform="translate(33.000000, 0.000000)">
                                <rect id="Rectangle-342-Copy-6" fill="#582628" x="0" y="0" width="136.49848" height="203" rx="68.2492399"></rect>
                                <rect id="Rectangle-348-Copy-3" fill="#125688" x="28.7690096" y="155.70484" width="80.7291741" height="84.29516" rx="40"></rect>
                                <rect id="Rectangle-342-Copy-16" fill="#FCDCC5" x="56.186465" y="126.252314" width="25.3865327" height="45.7021952" rx="12.6932664"></rect>
                                <polygon id="Fill-4-Copy" fill="#F8BBB6" points="56.2000122 151.723212 81.5800114 151.723212 81.5800114 145 56.2000122 145"></polygon>
                                <rect id="Rectangle-342-Copy-14" fill="#FEDCC3" x="16.0757432" y="34.255488" width="106.115707" height="110.785506"></rect>
                                <path d="M64.9885519,92.7238892 C67.5516694,89.2960578 69.8635407,88.8356655 72.7709108,92.7238892 C75.6782809,96.6121129 74.9517689,101.423916 74.9517689,101.423916 C74.9632179,104.806302 72.2378271,107.548268 68.8440317,107.548268 L68.915431,107.548268 C65.5307718,107.548268 62.7813329,104.800416 62.9265886,101.421515 C62.9265886,101.421515 62.4254343,96.1517206 64.9885519,92.7238892 Z" id="Rectangle-342-Copy-15" fill="#FAC176" opacity="0.9"></path>
                                <path d="M100.359032,88.5056863 C100.359032,91.3087543 98.0843986,93.583708 95.2817254,93.583708 C92.4790522,93.583708 90.2044188,91.3087543 90.2044188,88.5056863 C90.2044188,85.7026184 92.4790522,83.4276646 95.2817254,83.4276646 C98.0843986,83.4276646 100.359032,85.7026184 100.359032,88.5056863" id="Fill-49-Copy-4" fill="#0B2C48"></path>
                                <path d="M79.1176123,118.12748 C79.1176123,121.799397 74.6653221,124.77461 69.1772615,124.77461 C63.6841235,124.77461 59.2328489,121.799397 59.2328489,118.12748 L79.1176123,118.12748 Z" id="Fill-41-Copy-2" fill="#E56B6B"></path>
                                <path d="M15.9141387,76.2889465 C39.608944,76.2889465 58.817379,57.077806 58.817379,33.3796632 C58.817379,33.3796633 37.0467178,33.3796633 15.437352,33.3796633 C15.437352,51.4195686 15.4373518,56.2800935 15.9141387,76.2889465 Z" id="Oval-50-Copy-2" fill="#582628" transform="translate(37.127366, 54.834305) scale(-1, 1) rotate(-270.000000) translate(-37.127366, -54.834305) "></path>
                                <path d="M63.8337241,90.3915648 C100.287271,90.3915648 117.729973,60.8359641 117.729973,24.3772829 C117.729973,24.377283 96.3453842,24.377283 63.1002062,24.3772829 C63.1002062,52.1309835 63.1002059,59.6087142 63.8337241,90.3915648 Z" id="Oval-50-Copy-2" fill="#582628" transform="translate(90.415090, 57.384424) rotate(-270.000000) translate(-90.415090, -57.384424) "></path>
                                <g id="Neckline" transform="translate(46.484116, 155.281672)" fill="#FFFFFF">
                                    <polygon id="Fill-17" points="22.2576654 12.3776779 6.95552045 0 0 8.25178524 11.1288327 27.5059508"></polygon>
                                    <polygon id="Fill-19" points="22 12.3776779 37.302145 0 44.2576654 8.25178524 33.1288327 27.5059508"></polygon>
                                </g>
                                <g id="Bow" transform="translate(56.785284, 162.000000)" fill="#242424">
                                    <polygon id="Fill-23" points="0 16.3499998 0 0 15.703934 8.17499992"></polygon>
                                    <polygon id="Fill-25" points="23.555901 16.3499998 23.555901 0 8.34271495 8.17499992"></polygon>
                                </g>
                            </g>
                            <g id="hand" transform="translate(15.477946, 154.369306) rotate(-30.000000) translate(-15.477946, -154.369306) translate(4.477946, 143.369306)" fill="#FEDCC3">
                                <circle id="Oval-27" cx="10.8500004" cy="10.8500004" r="10.8500004"></circle>
                            </g>
                            <g id="Group" transform="translate(12.000000, 157.000000)" fill="#125688">
                                <rect id="Rectangle-342-Copy" transform="translate(49.346416, 35.764685) rotate(-315.000000) translate(-49.346416, -35.764685) " x="40.1910523" y="5.65485458" width="18.3107275" height="60.2196613" rx="9.15536375"></rect>
                                <rect id="Rectangle-342-Copy-2" transform="translate(22.983693, 30.653560) scale(-1, 1) rotate(-330.000000) translate(-22.983693, -30.653560) " x="13.8283292" y="0.543729474" width="18.3107275" height="60.2196613" rx="6"></rect>
                            </g>
                        </g>
                        <g id="search" transform="translate(209.456715, 175.773702) rotate(-330.000000) translate(-209.456715, -175.773702) translate(141.956715, 108.773702)">
                            <g id="Group-19-Copy" transform="translate(67.500000, 67.000000) scale(-1, 1) rotate(-315.000000) translate(-67.500000, -67.000000) translate(21.000000, 19.000000)">
                                <path d="M76.336,40.1661538 C76.336,60.1452308 60.1452308,76.336 40.1698462,76.336 C20.1907692,76.336 4,60.1452308 4,40.1661538 C4,20.1944615 20.1907692,4 40.1698462,4 C60.1452308,4 76.336,20.1944615 76.336,40.1661538" id="Fill-2142" fill="#CDEEF7"></path>
                                <path d="M51,40.0015494 C51,46.0744046 46.072,51.0030987 40,51.0030987 C33.928,51.0030987 29,46.0744046 29,40.0015494 C29,33.9286941 33.928,29 40,29 C46.072,29 51,33.9286941 51,40.0015494" id="Fill-49-Copy-5" fill="#0B2C48"></path>
                                <path d="M48.7963077,3 L2,49.7963077 C4.60676923,56.4793846 9.12615385,62.1913846 14.9046154,66.2603077 L65.2603077,15.9083077 C61.1913846,10.1261538 55.4793846,5.60676923 48.7963077,3" id="Fill-2143" fill="#FFFFFF" opacity="0.6" style="mix-blend-mode: overlay;"></path>
                                <path d="M91.7913846,89.7563077 L69.7483077,66.7015385 C76.1950769,59.616 80.1606154,50.2412308 80.1606154,39.9286154 C80.1606154,17.952 62.2824615,0.0701538462 40.3021538,0.0701538462 C18.3181538,0.0701538462 0.44,17.952 0.44,39.9286154 C0.44,61.9089231 18.3181538,79.7944615 40.3021538,79.7944615 C49.3150769,79.7944615 57.6116923,76.7483077 64.2984615,71.6861538 L86.456,94.8590769 C87.1796923,95.616 88.1507692,96 89.1218462,96 C90.0412308,96 90.9569231,95.6603077 91.6769231,94.9772308 C93.1464615,93.5704615 93.2018462,91.2295385 91.7913846,89.7563077 L91.7913846,89.7563077 L91.7913846,89.7563077 Z M7.82461538,39.9286154 C7.82461538,22.0209231 22.3944615,7.45476923 40.3021538,7.45476923 C58.2061538,7.45476923 72.776,22.0209231 72.776,39.9286154 C72.776,57.84 58.2061538,72.4098462 40.3021538,72.4098462 C22.3944615,72.4098462 7.82461538,57.84 7.82461538,39.9286154 L7.82461538,39.9286154 L7.82461538,39.9286154 Z" id="Fill-2144" fill="#FFC500"></path>
                            </g>
                            <rect id="Rectangle-342-Copy-3" fill="#FFC500" transform="translate(68.366025, 110.816987) scale(-1, 1) rotate(-360.000000) translate(-68.366025, -110.816987) " x="63.3660254" y="89.6339746" width="10" height="42.3660254" rx="5"></rect>
                        </g>
                        <g id="?" transform="translate(31.500000, 63.500000) scale(-1, 1) translate(-31.500000, -63.500000) translate(0.000000, 38.000000)">
                            <g id="Group-13">
                                <path d="M62.2452537,9.54421226 C62.2452537,4.27355785 57.9724182,0 52.7026547,0 L9.54259897,0 C4.27283548,0 0,4.27355785 0,9.54421226 L0,31.6249306 C0,36.895585 4.27283548,41.1691428 9.54259897,41.1691428 L52.7026547,41.1691428 C57.9724182,41.1691428 62.2452537,36.895585 62.2452537,31.6249306 L62.2452537,9.54421226" id="Fill-162" fill="#F1F1F1"></path>
                                <g id="question-22" transform="translate(31.500000, 21.000000) scale(-1, 1) translate(-31.500000, -21.000000) translate(23.000000, 9.000000)" fill="#C3C6CA">
                                    <g id="Fontawesome">
                                        <g id="Font-Awesome-Icon-Pack">
                                            <g id="question22" transform="translate(0.169406, 0.104831)">
                                                <g id="Group">
                                                    <path d="M9.36403854,16.5779954 L5.43824584,16.5779954 C5.26397141,16.5779954 5.11118011,16.6467646 4.9802735,16.7832547 C4.8493669,16.9199545 4.7839136,17.0792978 4.7839136,17.2614943 L4.7839136,21.3612303 C4.7839136,21.5434268 4.84956768,21.7029798 4.9802735,21.8394699 C5.11118011,21.97596 5.26377063,22.0445196 5.43824584,22.0445196 L9.36403854,22.0445196 C9.53851375,22.0445196 9.69150583,21.9761697 9.82201088,21.8394699 C9.95311826,21.7029798 10.0185716,21.5434268 10.0185716,21.3612303 L10.0185716,17.2614943 C10.0185716,17.0792978 9.95331904,16.9199545 9.82201088,16.7832547 C9.69150583,16.6463453 9.53851375,16.5779954 9.36403854,16.5779954 L9.36403854,16.5779954 L9.36403854,16.5779954 Z" id="Shape"></path>
                                                    <path d="M14.517181,4.30541463 C14.0700507,3.44517035 13.4922145,2.71952925 12.7832709,2.12723335 C12.074528,1.53514711 11.2780457,1.0623587 10.3948277,0.709497107 C9.51160963,0.356635514 8.63381259,0.180099886 7.76123574,0.180099886 C4.44620668,0.180099886 1.9162157,1.69470009 0.171262782,4.72390051 C0.0841255633,4.87192207 0.0540090132,5.03126539 0.0813146853,5.20214014 C0.108620357,5.37280522 0.193147475,5.5151659 0.334896037,5.62901251 L3.01767832,7.76442269 C3.15942688,7.85541611 3.29575447,7.90091282 3.42666107,7.90091282 C3.62302098,7.90091282 3.79187444,7.80970974 3.93382378,7.62751323 C4.71886185,6.60268407 5.30231981,5.94790882 5.68399689,5.66318746 C6.15301197,5.33296939 6.74169013,5.16796519 7.45063372,5.16796519 C8.11580793,5.16796519 8.70187599,5.3501617 9.20903869,5.71434505 C9.71600062,6.07873807 9.9693812,6.50015922 9.9693812,6.97839885 C9.9693812,7.51345695 9.83325439,7.94640953 9.56059922,8.2766276 C9.28794406,8.60684567 8.82977094,8.92553231 8.18628065,9.23310686 C7.33599005,9.63167483 6.55597141,10.2495495 5.84742937,11.0865213 C5.13848578,11.9234931 4.78411437,12.8145577 4.78411437,13.7597152 L4.78411437,14.5285467 C4.78411437,14.7449182 4.84113504,14.9583543 4.95577871,15.1690649 C5.07042238,15.3799852 5.20936006,15.4852356 5.37299332,15.4852356 L9.29878601,15.4852356 C9.47326123,15.4852356 9.62585175,15.3971775 9.75675835,15.2202225 C9.88746418,15.0438966 9.95311826,14.8589744 9.95311826,14.6654562 C9.95311826,14.3809445 10.1030987,13.9991495 10.402658,13.5209099 C10.7026188,13.0426702 11.076064,12.6724067 11.5233952,12.4103288 C11.9484401,12.1599921 12.2809268,11.9578777 12.5210561,11.8039856 C12.7613862,11.6505128 13.0747991,11.4024823 13.4620979,11.0609425 C13.8489952,10.719193 14.148956,10.3803788 14.3613781,10.0444998 C14.5742017,9.70862088 14.7651406,9.27294269 14.9341949,8.73767492 C15.1034499,8.20240716 15.1877762,7.62730357 15.1877762,7.01236414 C15.1877762,6.06720665 14.9641106,5.16482025 14.517181,4.30541463 L14.517181,4.30541463 L14.517181,4.30541463 Z" id="Shape"></path>
                                                </g>
                                            </g>
                                        </g>
                                    </g>
                                </g>
                                <polyline id="Fill-163" fill="#F1F1F1" points="25.0707819 39.1237393 13.0514242 50.8800399 13.0514242 35.1443902"></polyline>
                            </g>
                        </g>
                        <g id="..." transform="translate(79.000000, 0.000000)">
                            <g id="Group">
                                <path d="M68.5714286,0 L11.4285714,0 C5.14285714,0 0,5.12307692 0,11.3846154 L0,45.5384615 C0,51.8 5.14285714,56.9230769 11.4285714,56.9230769 L22.8571429,56.9230769 L22.8571429,74 L40,56.9230769 L68.5714286,56.9230769 C74.8571429,56.9230769 80,51.8 80,45.5384615 L80,11.3846154 C80,5.12307692 74.8571429,0 68.5714286,0 L68.5714286,0 Z" id="Shape" fill="#CDEEF7"></path>
                                <ellipse id="Oval" fill="#FFFFFF" cx="17.1428571" cy="28.4615385" rx="5.71428571" ry="5.69230769"></ellipse>
                                <ellipse id="Oval" fill="#FFFFFF" cx="40" cy="28.4615385" rx="5.71428571" ry="5.69230769"></ellipse>
                                <ellipse id="Oval" fill="#FFFFFF" cx="62.8571429" cy="28.4615385" rx="5.71428571" ry="5.69230769"></ellipse>
                            </g>
                        </g>
                    </g>
                </g>
            </g>
        </g>
    </g>
</svg>