<?xml version="1.0" encoding="UTF-8"?>
<svg width="355px" height="256px" viewBox="0 0 355 256" version="1.1" xmlns="http://www.w3.org/2000/svg" xmlns:xlink="http://www.w3.org/1999/xlink">
    <!-- Generator: Sketch 39.1 (31720) - http://www.bohemiancoding.com/sketch -->
    <title>process-2</title>
    <desc>Created with Sketch.</desc>
    <defs>
        <rect id="path-1" x="0" y="0" width="216.740088" height="162.295082"></rect>
        <mask id="mask-2" maskContentUnits="userSpaceOnUse" maskUnits="objectBoundingBox" x="0" y="0" width="216.740088" height="162.295082" fill="white">
            <use xlink:href="#path-1"></use>
        </mask>
        <polygon id="path-3" points="29.3500246 75.7377049 0 75.7377049 0 0 29.3500246 0 58.7000492 0 58.7000492 75.7377049 29.3500246 75.7377049"></polygon>
        <polygon id="path-5" points="18.6846746 18.5754547 18.6846746 0.0225084272 0.0336893364 0.0225084272 0.0336893364 18.5754547 18.6846746 18.5754547"></polygon>
        <polygon id="path-7" points="2.25161168 4.50168543 2.06057393e-13 4.50168543 2.06057393e-13 0.0221332867 4.50322336 0.0221332867 4.50322336 4.50168543 2.25161168 4.50168543"></polygon>
    </defs>
    <g id="合作流程" stroke="none" stroke-width="1" fill="none" fill-rule="evenodd">
        <g id="process-2" transform="translate(-55.000000, -1.000000)">
            <g id="blueprint" transform="translate(93.017621, 6.000000)">
                <g id="paper">
                    <rect id="Rectangle-377" fill="#296693" x="0" y="31" width="252.863436" height="189.344262"></rect>
                    <g id="line" opacity="0.1" transform="translate(22.577093, 44.180328)" stroke="#CDEEF7">
                        <path d="M18.9647577,0.901639344 L18.9647577,161.393443" id="Line" stroke-linecap="square"></path>
                        <path d="M98.4361233,0.901639344 L98.4361233,161.393443" id="Line-Copy-4" stroke-linecap="square"></path>
                        <path d="M58.7004405,0.901639344 L58.7004405,161.393443" id="Line-Copy-2" stroke-linecap="square"></path>
                        <path d="M138.171806,0.901639344 L138.171806,161.393443" id="Line-Copy-5" stroke-linecap="square"></path>
                        <path d="M197.77533,0.901639344 L197.77533,161.393443" id="Line-Copy-8" stroke-linecap="square"></path>
                        <path d="M38.8325991,0.901639344 L38.8325991,161.393443" id="Line-Copy" stroke-linecap="square"></path>
                        <path d="M118.303965,0.901639344 L118.303965,161.393443" id="Line-Copy-6" stroke-linecap="square"></path>
                        <path d="M177.907489,0.901639344 L177.907489,161.393443" id="Line-Copy-9" stroke-linecap="square"></path>
                        <path d="M78.5682819,0.901639344 L78.5682819,161.393443" id="Line-Copy-3" stroke-linecap="square"></path>
                        <path d="M158.039648,0.901639344 L158.039648,161.393443" id="Line-Copy-7" stroke-linecap="square"></path>
                        <path d="M216.288546,18.0327869 L0.45154185,18.0327869" id="Line-Copy-10" stroke-linecap="square"></path>
                        <path d="M216.288546,100.983607 L0.45154185,100.983607" id="Line-Copy-11" stroke-linecap="square"></path>
                        <path d="M216.288546,59.5081967 L0.45154185,59.5081967" id="Line-Copy-12" stroke-linecap="square"></path>
                        <path d="M216.288546,143.360656 L0.45154185,143.360656" id="Line-Copy-13" stroke-linecap="square"></path>
                        <path d="M216.288546,38.7704918 L0.45154185,38.7704918" id="Line-Copy-15" stroke-linecap="square"></path>
                        <path d="M216.288546,121.721311 L0.45154185,121.721311" id="Line-Copy-16" stroke-linecap="square"></path>
                        <path d="M215.837004,80 L0,80" id="Line-Copy-18" stroke-linecap="square"></path>
                        <use id="Rectangle-373" mask="url(#mask-2)" stroke-width="2" xlink:href="#path-1"></use>
                    </g>
                    <path d="M44.4997687,192.04918 L45.154185,192.04918 L45.154185,22.5409836 C45.154185,10.0919421 35.0460764,0 22.5770925,0 C10.1081086,0 0,10.0919421 0,22.5409836 L0,192.04918 L0.654416351,192.04918 C3.08131795,182.212933 11.9759329,174.918033 22.5770925,174.918033 C33.1782521,174.918033 42.0728671,182.212933 44.4997687,192.04918 Z" id="Combined-Shape" fill="#125688"></path>
                </g>
                <g id="Group-11" transform="translate(76.859031, 71.786885)">
                    <g id="222---Click-Window-(Flat)">
                        <g id="Group-6" stroke-linecap="round" stroke-width="2" stroke="#FFFFFF">
                            <polygon id="Fill-905" stroke-dasharray="1" points="0 28 127 28 127 108 0 108"></polygon>
                            <polygon id="Fill-906" points="0 0 127 0 127 28 0 28"></polygon>
                            <polygon id="Fill-906-Copy-2" points="12 44 56 44 56 88 12 88"></polygon>
                            <polygon id="Fill-906-Copy-3" points="71 44 115 44 115 88 71 88"></polygon>
                        </g>
                        <g id="Group-7" transform="translate(10.000000, 10.000000)" fill="#FFFFFF">
                            <path d="M7.5,3.8372093 C7.5,5.95662791 5.82125,7.6744186 3.75,7.6744186 C1.67875,7.6744186 0,5.95662791 0,3.8372093 C0,1.7177907 1.67875,0 3.75,0 C5.82125,0 7.5,1.7177907 7.5,3.8372093" id="Fill-907"></path>
                            <path d="M21.75,3.8372093 C21.75,5.95662791 20.07125,7.6744186 18,7.6744186 C15.92875,7.6744186 14.25,5.95662791 14.25,3.8372093 C14.25,1.7177907 15.92875,0 18,0 C20.07125,0 21.75,1.7177907 21.75,3.8372093" id="Fill-908"></path>
                            <path d="M36,3.8372093 C36,5.95662791 34.32125,7.6744186 32.25,7.6744186 C30.17875,7.6744186 28.5,5.95662791 28.5,3.8372093 C28.5,1.7177907 30.17875,0 32.25,0 C34.32125,0 36,1.7177907 36,3.8372093" id="Fill-909"></path>
                        </g>
                    </g>
                </g>
            </g>
            <g id="calculator" transform="translate(351.299559, 150.262295)">
                <g id="Group-3">
                    <mask id="mask-4" fill="white">
                        <use xlink:href="#path-3"></use>
                    </mask>
                    <g id="Clip-2"></g>
                    <path d="M56.2033238,75.7377049 L2.49763852,75.7377049 C1.11752594,75.7377049 -0.00039133627,74.618615 -0.00039133627,73.2383607 L-0.00039133627,2.49934426 C-0.00039133627,1.11908988 1.11752594,0 2.49763852,0 L56.2033238,0 C57.5821319,0 58.7000492,1.11908988 58.7000492,2.49934426 L58.7000492,73.2383607 C58.7000492,74.618615 57.5821319,75.7377049 56.2033238,75.7377049" id="Fill-1" fill="#C3C6CA" mask="url(#mask-4)"></path>
                </g>
                <polygon id="Fill-4" fill="#F2F2F2" points="6.52227117 69.2085924 18.2623593 69.2085924 18.2623593 57.4561899 6.52227117 57.4561899"></polygon>
                <polygon id="Fill-6" fill="#F2F2F2" points="23.4801762 69.2085924 35.2202643 69.2085924 35.2202643 57.4561899 23.4801762 57.4561899"></polygon>
                <polygon id="Fill-7" fill="#E56B6B" points="40.4380813 69.2085924 52.1781694 69.2085924 52.1781694 40.4804975 40.4380813 40.4804975"></polygon>
                <polygon id="Fill-8" fill="#F2F2F2" points="6.52227117 52.2328999 18.2623593 52.2328999 18.2623593 40.4804975 6.52227117 40.4804975"></polygon>
                <polygon id="Fill-9" fill="#F2F2F2" points="23.4801762 52.2328999 35.2202643 52.2328999 35.2202643 40.4804975 23.4801762 40.4804975"></polygon>
                <polygon id="Fill-10" fill="#F2F2F2" points="6.52227117 35.2572075 18.2623593 35.2572075 18.2623593 23.504805 6.52227117 23.504805"></polygon>
                <polygon id="Fill-11" fill="#F2F2F2" points="23.4801762 35.2572075 35.2202643 35.2572075 35.2202643 23.504805 23.4801762 23.504805"></polygon>
                <polygon id="Fill-12" fill="#CDEEF7" points="40.4380813 35.2572075 52.1781694 35.2572075 52.1781694 23.504805 40.4380813 23.504805"></polygon>
                <polygon id="Fill-13" fill="#2A2A2F" points="6.52227117 16.9756925 52.1781694 16.9756925 52.1781694 6.52911249 6.52227117 6.52911249"></polygon>
            </g>
            <g id="pencil" transform="translate(64.000000, 194.000000) scale(1, -1) rotate(-225.000000) translate(-64.000000, -194.000000) translate(19.000000, 149.000000)">
                <polygon id="Fill-1" fill="#E7B283" points="1.50864205 87.4364653 20.7087181 81.0695816 7.90917022 68.3373146"></polygon>
                <g id="Group-4" transform="translate(70.293679, 0.403880)">
                    <mask id="mask-6" fill="white">
                        <use xlink:href="#path-5"></use>
                    </mask>
                    <g id="Clip-3"></g>
                    <path d="M16.0342555,2.65899553 C12.4998606,-0.856820794 6.76910256,-0.856820794 3.23470767,2.65899553 L0.0336893364,5.84168713 L12.8347457,18.5754547 L16.0342555,15.3912625 C19.5686504,11.8754462 19.5686504,6.17481185 16.0342555,2.65899553" id="Fill-2" fill="#D8625E" mask="url(#mask-6)"></path>
                </g>
                <polygon id="Fill-5" fill="#EAA700" points="7.90856683 68.3373146 20.7081147 81.0695816 78.861959 23.2229238 66.0609027 10.4906568"></polygon>
                <polygon id="Fill-7" fill="#FFD353" points="12.1757867 72.5821038 70.252698 14.8104741 74.5187112 19.0540629 16.4417999 76.8256926"></polygon>
                <polygon id="Fill-9" fill="#A6A6A6" points="78.8613556 23.2229238 78.8613556 23.2229238 83.1273688 18.979335 83.1273688 18.979335 82.0608655 20.0402322"></polygon>
                <polygon id="Fill-11" fill="#F5EFCA" points="69.2613176 7.30691481 66.0618078 10.4896064 78.8613556 23.2233739 82.0608655 20.0391818 83.1273688 18.9782846 70.3278209 6.24601761"></polygon>
                <g id="Group-15" transform="translate(0.000000, 84.435342)">
                    <mask id="mask-8" fill="white">
                        <use xlink:href="#path-7"></use>
                    </mask>
                    <g id="Clip-14"></g>
                    <path d="M1.5084912,4.50168543 C1.12231745,4.50168543 0.736143707,4.35463037 0.441987922,4.06202082 C-0.147832138,3.47530115 -0.147832138,2.52694609 0.441987922,1.94022642 L1.92785176,0.462173038 C2.51767182,-0.12454663 3.47254675,-0.12454663 4.06085832,0.462173038 C4.65067838,1.04739214 4.65067838,1.99724777 4.06085832,2.58396744 L2.57499448,4.06202082 C2.2808387,4.35463037 1.89466495,4.50168543 1.5084912,4.50168543" id="Fill-13" fill="#A5A5A4" mask="url(#mask-8)"></path>
                </g>
            </g>
            <g id="ruler_triangle" transform="translate(321.779736, 60.622951) rotate(-180.000000) translate(-321.779736, -60.622951) translate(261.779736, 0.622951)">
                <path d="M0,0.000820802713 L0,119.017214 L119.207048,119.017214 L0,0.000820802713 Z M20.7712597,53.1975421 L65.9227933,98.2795093 L20.7712597,98.2795093 L20.7712597,53.1975421 Z" id="Fill-1" fill="#FDEBA1"></path>
                <g id="line" transform="translate(9.124259, 14.364047)" fill="#F3D55B">
                    <path d="M1.06691554,4.51687733 C0.26329561,5.31921198 0.26329561,6.61608027 1.06691554,7.41841492 C1.46769786,7.81855625 1.99385311,8.01965291 2.52000835,8.01965291 C3.0461636,8.01965291 3.57231885,7.81855625 3.97310117,7.41841492 L8.33237961,3.06610854 L8.33237961,3.06610854 L5.42619398,0.164570944 L5.42619398,0.164570944 L1.06691554,4.51687733 Z" id="Fill-2"></path>
                    <path d="M5.42639951,17.5744121 C5.82718183,17.9745534 6.35333708,18.1756501 6.87949233,18.1756501 C7.40564758,18.1756501 7.93180283,17.9745534 8.33258514,17.5744121 L15.6001045,10.3205681 L12.6939189,7.41903053 L5.42639951,14.6728745 C4.62277958,15.4752092 4.62277958,16.7720774 5.42639951,17.5744121" id="Fill-4"></path>
                    <path d="M15.5994879,21.9287705 C16.0002702,22.3289118 16.5264255,22.5300085 17.0525807,22.5300085 C17.578736,22.5300085 18.1048912,22.3289118 18.5056736,21.9287705 L22.864952,17.5744121 L19.9587664,14.6728745 L15.5994879,19.0272329 C14.795868,19.8295676 14.795868,21.1264358 15.5994879,21.9287705" id="Fill-6"></path>
                    <path d="M19.9599995,32.0845625 C20.3607819,32.4847038 20.8869371,32.6858005 21.4130924,32.6858005 C21.9392476,32.6858005 22.4654029,32.4847038 22.8661852,32.0845625 L30.1337045,24.8307185 L27.2275189,21.9291809 L19.9599995,29.1830249 C19.1563796,29.9853595 19.1563796,31.2822278 19.9599995,32.0845625" id="Fill-8"></path>
                    <path d="M30.133088,36.4370741 C30.5338703,36.8372154 31.0600255,37.038312 31.5861808,37.038312 C32.112336,37.038312 32.6384913,36.8372154 33.0392736,36.4370741 L37.398552,32.0847677 L34.4923664,29.1832301 L30.133088,33.5355365 C29.329468,34.3378711 29.329468,35.6347394 30.133088,36.4370741" id="Fill-10"></path>
                    <path d="M34.4925719,43.6933804 C33.688952,44.4957151 33.688952,45.7925834 34.4925719,46.594918 C34.8933542,46.9950594 35.4195095,47.196156 35.9456647,47.196156 C36.47182,47.196156 36.9979752,46.9950594 37.3987576,46.594918 L44.6662769,39.3410741 L44.6662769,39.3410741 L41.7600913,36.4395365 L41.7600913,36.4395365 L34.4925719,43.6933804 Z" id="Fill-12"></path>
                    <path d="M44.666688,50.9474296 C45.0674703,51.3475709 45.5936256,51.5486676 46.1197808,51.5486676 C46.645936,51.5486676 47.1720913,51.3475709 47.5728736,50.9474296 L51.9321521,46.5951232 L49.0259664,43.6935856 L44.666688,48.045892 C43.8630681,48.8482267 43.8630681,50.145095 44.666688,50.9474296" id="Fill-14"></path>
                    <path d="M49.026172,61.1052736 C49.4269543,61.5054149 49.9531095,61.7065116 50.4792648,61.7065116 C51.00542,61.7065116 51.5315753,61.5054149 51.9323576,61.1052736 L59.1978217,53.8493776 L56.291636,50.94784 L49.026172,58.203736 C48.222552,59.0060707 48.222552,60.3029389 49.026172,61.1052736" id="Fill-16"></path>
                    <path d="M59.1992604,65.4577852 C59.6000427,65.8579265 60.1261979,66.0590232 60.6523532,66.0590232 C61.1785084,66.0590232 61.7046637,65.8579265 62.105446,65.4577852 L66.4667797,61.1054788 L63.5605941,58.2039412 L59.1992604,62.5562476 C58.3956404,63.3585822 58.3956404,64.6554505 59.1992604,65.4577852" id="Fill-18"></path>
                    <path d="M63.559772,75.6156292 C63.9605543,76.0157705 64.4867096,76.2168672 65.0128648,76.2168672 C65.5390201,76.2168672 66.0651753,76.0157705 66.4659576,75.6156292 L73.7314217,68.3597332 L70.8252361,65.4581956 L63.559772,72.7140916 C62.7561521,73.5164262 62.7561521,74.8132945 63.559772,75.6156292" id="Fill-20"></path>
                    <path d="M73.7328604,77.066398 C72.9292405,77.8687326 72.9292405,79.1656009 73.7328604,79.9679356 C74.1336427,80.3680769 74.659798,80.5691735 75.1859532,80.5691735 C75.7121085,80.5691735 76.2382637,80.3680769 76.639046,79.9679356 L80.9983245,75.6156292 L80.9983245,75.6156292 L78.0921388,72.7140916 L78.0921388,72.7140916 L73.7328604,77.066398 Z" id="Fill-22"></path>
                    <path d="M78.0923444,90.1239327 C78.4931267,90.5240741 79.0192819,90.7251707 79.5454372,90.7251707 C80.0715924,90.7251707 80.5977477,90.5240741 80.99853,90.1239327 L88.2660494,82.8700888 L85.3598637,79.9685512 L78.0923444,87.2223951 C77.2887244,88.0247298 77.2887244,89.3215981 78.0923444,90.1239327" id="Fill-24"></path>
                    <path d="M88.2654328,94.4784963 C88.6662151,94.8786376 89.1923703,95.0797343 89.7185256,95.0797343 C90.2446808,95.0797343 90.7708361,94.8786376 91.1716184,94.4784963 L95.5308969,90.1241379 L92.6247112,87.2226003 L88.2654328,91.5769587 C87.4618129,92.3792934 87.4618129,93.6761617 88.2654328,94.4784963" id="Fill-26"></path>
                </g>
            </g>
        </g>
    </g>
</svg>