<?xml version="1.0" encoding="UTF-8"?>
<svg width="292px" height="270px" viewBox="0 0 292 270" version="1.1" xmlns="http://www.w3.org/2000/svg" xmlns:xlink="http://www.w3.org/1999/xlink">
    <!-- Generator: Sketch 39.1 (31720) - http://www.bohemiancoding.com/sketch -->
    <title>process-3</title>
    <desc>Created with Sketch.</desc>
    <defs>
        <path d="M5.64251019,11.0866561 C2.66762493,11.0866561 0.256477736,8.66438932 0.256477736,5.67578466 C0.256477736,2.68718 2.66762493,0.264913212 5.64251019,0.264913212 C8.61739545,0.264913212 11.0285427,2.68718 11.0285427,5.67578466 C11.0285427,8.66438932 8.61739545,11.0866561 5.64251019,11.0866561 Z" id="path-1"></path>
        <mask id="mask-2" maskContentUnits="userSpaceOnUse" maskUnits="objectBoundingBox" x="0" y="0" width="10.7720649" height="10.8217429" fill="white">
            <use xlink:href="#path-1"></use>
        </mask>
        <path d="M5.64251019,11.0866561 C2.66762493,11.0866561 0.256477736,8.66438932 0.256477736,5.67578466 C0.256477736,2.68718 2.66762493,0.264913212 5.64251019,0.264913212 C8.61739545,0.264913212 11.0285427,2.68718 11.0285427,5.67578466 C11.0285427,8.66438932 8.61739545,11.0866561 5.64251019,11.0866561 Z" id="path-3"></path>
        <mask id="mask-4" maskContentUnits="userSpaceOnUse" maskUnits="objectBoundingBox" x="0" y="0" width="10.7720649" height="10.8217429" fill="white">
            <use xlink:href="#path-3"></use>
        </mask>
        <path d="M5.38603246,10.8217429 C2.4111472,10.8217429 0,8.3994761 0,5.41087144 C0,2.42226678 2.4111472,0 5.38603246,0 C8.36091772,0 10.7720649,2.42226678 10.7720649,5.41087144 C10.7720649,8.3994761 8.36091772,10.8217429 5.38603246,10.8217429 Z" id="path-5"></path>
        <mask id="mask-6" maskContentUnits="userSpaceOnUse" maskUnits="objectBoundingBox" x="0" y="0" width="10.7720649" height="10.8217429" fill="white">
            <use xlink:href="#path-5"></use>
        </mask>
        <polygon id="path-7" points="0 0 9.2331985 0 9.2331985 9.23226361 0 9.23226361"></polygon>
        <mask id="mask-8" maskContentUnits="userSpaceOnUse" maskUnits="objectBoundingBox" x="0" y="0" width="9.2331985" height="9.23226361" fill="white">
            <use xlink:href="#path-7"></use>
        </mask>
        <polygon id="path-9" points="0 0 9.2331985 0 9.2331985 9.23226361 0 9.23226361"></polygon>
        <mask id="mask-10" maskContentUnits="userSpaceOnUse" maskUnits="objectBoundingBox" x="0" y="0" width="9.2331985" height="9.23226361" fill="white">
            <use xlink:href="#path-9"></use>
        </mask>
    </defs>
    <g id="合作流程" stroke="none" stroke-width="1" fill="none" fill-rule="evenodd">
        <g id="process-3">
            <g id="ruler" transform="translate(155.575663, 248.402235) rotate(-315.000000) translate(-155.575663, -248.402235) translate(46.075663, 138.902235)">
                <path d="M216.66687,24.3686236 C218.654825,26.3555314 218.654825,29.5777568 216.66687,31.5646645 L31.5805168,216.553494 C29.5925616,218.540401 26.3686375,218.540401 24.3806823,216.553494 L0.734724929,192.919996 L193.020913,0.735125624 L216.66687,24.3686236 Z" id="Fill-6" fill="#FDEBA1"></path>
                <g id="line" transform="translate(7.882455, 6.302641)" fill="#B8BCBE">
                    <polygon id="Fill-8" points="178.745706 1.581963 189.905686 12.734487 191.346599 11.2943335 180.186619 0.141809433"></polygon>
                    <polygon id="Fill-10" points="171.537989 8.78572461 178.064662 15.3089585 179.505575 13.8672293 172.978902 7.34557104"></polygon>
                    <polygon id="Fill-12" points="164.46254 15.8574459 175.62252 27.0115456 177.063433 25.5698164 165.903453 14.4172923"></polygon>
                    <polygon id="Fill-14" points="157.254823 23.0613651 163.781496 29.584599 165.222409 28.1428697 158.695736 21.6212115"></polygon>
                    <polygon id="Fill-16" points="150.179373 30.1330863 161.339353 41.287186 162.780266 39.8454568 151.620286 28.6929328"></polygon>
                    <polygon id="Fill-18" points="142.971814 37.3368479 149.498487 43.8600818 150.9394 42.4199283 144.412727 35.8966944"></polygon>
                    <polygon id="Fill-20" points="135.896207 44.4087268 147.056187 55.5628265 148.4971 54.1210972 137.33712 42.9685732"></polygon>
                    <polygon id="Fill-22" points="128.688648 51.6124884 135.215321 58.1357223 136.656233 56.6939931 130.129561 50.1723348"></polygon>
                    <polygon id="Fill-24" points="121.613198 58.6842097 132.773178 69.8383094 134.214091 68.3965801 123.054111 57.2440561"></polygon>
                    <polygon id="Fill-26" points="114.405481 65.8881288 120.932154 72.4113627 122.373067 70.9696335 115.846394 64.4479753"></polygon>
                    <polygon id="Fill-28" points="107.330032 72.9598501 118.490012 84.1139498 119.930925 82.6722206 108.770945 71.5196965"></polygon>
                    <polygon id="Fill-30" points="100.122315 80.1636117 106.648988 86.6868456 108.089901 85.2451164 101.563228 78.7234581"></polygon>
                    <polygon id="Fill-32" points="93.0468655 87.2354905 104.206846 98.3880146 105.647758 96.947861 94.4877783 85.795337"></polygon>
                    <polygon id="Fill-34" points="85.8393061 94.4392522 92.365979 100.962486 93.8068918 99.5207568 87.2802189 92.9990986"></polygon>
                    <polygon id="Fill-36" points="78.7636991 101.510973 89.9236791 112.665073 91.3645919 111.223344 80.2046119 100.07082"></polygon>
                    <polygon id="Fill-38" points="71.5561397 108.714893 78.0828126 115.238126 79.5237254 113.796397 72.9970525 107.274739"></polygon>
                    <polygon id="Fill-40" points="64.4806903 115.786614 75.6406704 126.940714 77.0815832 125.498984 65.9216031 114.34646"></polygon>
                    <polygon id="Fill-42" points="57.2729733 122.990375 63.7996462 129.513609 65.240559 128.07188 58.7138861 121.550222"></polygon>
                    <polygon id="Fill-44" points="50.1975239 130.062254 61.3575039 141.216354 62.7984167 139.774625 51.6384367 128.622101"></polygon>
                    <polygon id="Fill-46" points="42.9898069 137.266016 49.5164798 143.78925 50.9573926 142.347521 44.4307197 135.825862"></polygon>
                    <polygon id="Fill-48" points="35.9143575 144.337737 47.0743375 155.491837 48.5152503 154.050108 37.3552703 142.897584"></polygon>
                    <polygon id="Fill-50" points="28.7067982 151.541499 35.233471 158.064733 36.6743838 156.624579 30.147711 150.101345"></polygon>
                    <polygon id="Fill-52" points="21.6311911 158.613378 32.7911711 169.767477 34.2320839 168.325748 23.0721039 157.173224"></polygon>
                    <polygon id="Fill-54" points="14.4236318 165.817139 20.9503046 172.340373 22.3912174 170.898644 15.8645446 164.376986"></polygon>
                    <polygon id="Fill-56" points="7.34818235 172.888861 18.5081624 184.04296 19.9490752 182.601231 8.78909516 171.448707"></polygon>
                    <polygon id="Fill-58" points="0.140465351 180.09278 6.66713823 186.616014 8.10805103 185.174284 1.58137815 178.652626"></polygon>
                </g>
            </g>
            <g id="Group-18" transform="translate(74.000000, 0.000000)">
                <g id="pdf-2.2-copy">
                    <g id="Group">
                        <path d="M105.678539,0 L166.848283,61.4902771 L166.848283,205.607257 C166.848283,213.180458 160.763228,219.314408 153.26557,219.314408 L13.5827121,219.314408 C6.08505501,219.314408 0,213.180458 0,205.607257 L0,13.7071505 C0,6.13394985 6.08505501,0 13.5827121,0 L105.678539,0 Z" id="Shape" fill="#F6F6F8"></path>
                        <path d="M167.411109,61.6821772 L119.862729,61.6821772 C112.332473,61.6821772 106.220961,55.5413738 106.220961,47.9750267 L106.220961,0.137071505 L167.411109,61.6821772 L167.411109,61.6821772 Z" id="Shape" fill="#C3C6CA"></path>
                    </g>
                </g>
                <g id="126-vector-flat" transform="translate(31.578491, 72.025765)">
                    <g id="126---Vector-(Flat)">
                        <g id="Page-1">
                            <g id="Icons">
                                <g id="126---Vector-(Flat)">
                                    <path d="M99.0004061,54.3736276 C98.0075808,54.3736276 97.205062,53.5656042 97.205062,52.5700038 C97.205062,51.4156846 97.1619737,50.2505436 97.0757972,49.1034389 C97.0003927,48.1096421 97.7418699,47.2439027 98.7311045,47.1699541 C99.7149531,47.1050237 100.580309,47.8372949 100.655713,48.8328953 C100.749071,50.0683776 100.79575,51.3255034 100.79575,52.5700038 C100.79575,53.5656042 99.9932314,54.3736276 99.0004061,54.3736276 L99.0004061,54.3736276 L99.0004061,54.3736276 Z M5.7035519,51.9730044 C5.67303104,51.9730044 5.64251019,51.9730044 5.610194,51.9712007 C4.62095937,51.9206993 3.85793811,51.0729961 3.91000309,50.0791993 C3.97284013,48.8310917 4.08235613,47.5775731 4.23855107,46.3529125 C4.36422516,45.3627231 5.27985068,44.6701315 6.24574583,44.7909743 C7.22959442,44.9154244 7.92439261,45.8190399 7.80051387,46.8074257 C7.65688633,47.9437087 7.55455172,49.1070461 7.49530536,50.2613654 C7.44683107,51.2245005 6.65328895,51.9730044 5.7035519,51.9730044 L5.7035519,51.9730044 L5.7035519,51.9730044 Z M97.7705954,43.6510841 C96.9555091,43.6510841 96.2176227,43.0901571 96.0255209,42.2568829 C95.7616053,41.1314216 95.4546014,40.007764 95.1098954,38.9183752 C94.8100729,37.9678654 95.332518,36.9542288 96.276869,36.65122 C97.2194247,36.3518185 98.2302035,36.8748694 98.5318213,37.8235755 C98.9052529,39.0031455 99.2391869,40.218788 99.5210559,41.436234 C99.7472693,42.4065836 99.1476243,43.3769333 98.1817292,43.6023862 C98.045283,43.6348515 97.9070415,43.6510841 97.7705954,43.6510841 L97.7705954,43.6510841 L97.7705954,43.6510841 Z M7.47376123,41.3280166 C7.30858957,41.3280166 7.13982722,41.3045695 6.97465556,41.2558716 C6.02132781,40.9799172 5.4719525,39.978906 5.7484355,39.0229854 C6.09314158,37.8235755 6.48811729,36.6277729 6.92259057,35.4680428 C7.27088734,34.5337657 8.3103916,34.0630199 9.2331985,34.4129229 C10.1631868,34.7628259 10.6317716,35.8035169 10.2834748,36.7359904 C9.88131774,37.8091465 9.51686288,38.9165716 9.19729162,40.0239966 C8.97107825,40.8139838 8.25294059,41.3280166 7.47376123,41.3280166 L7.47376123,41.3280166 L7.47376123,41.3280166 Z M94.1278421,33.4930747 C93.4689508,33.4930747 92.833399,33.1269391 92.5192137,32.4938672 C92.0075407,31.4585871 91.4491886,30.4359324 90.8621111,29.454761 C90.3522333,28.5998433 90.626921,27.4924183 91.4779141,26.9801892 C92.3289073,26.4661564 93.4312486,26.7439144 93.9411263,27.5970285 C94.5748828,28.6593629 95.1781184,29.7649843 95.7346751,30.8850347 C96.1763298,31.7778285 95.8154656,32.8600028 94.9267702,33.3036942 C94.670036,33.4317515 94.3953484,33.4930747 94.1278421,33.4930747 L94.1278421,33.4930747 L94.1278421,33.4930747 Z M11.6317783,31.377424 C11.3319558,31.377424 11.030338,31.3034754 10.7520597,31.1465602 C9.88670377,30.6559745 9.58329061,29.555764 10.0698289,28.6882209 C10.6784505,27.6060466 11.3355465,26.5328904 12.0249587,25.5012176 C12.5761293,24.6733543 13.6892427,24.4515086 14.515101,25.0070247 C15.339164,25.5625408 15.5581959,26.6825912 15.0070253,27.5104546 C14.3696781,28.4645716 13.7592611,29.4583683 13.1973184,30.4611831 C12.8669751,31.0473609 12.2583534,31.377424 11.6317783,31.377424 L11.6317783,31.377424 L11.6317783,31.377424 Z M88.2588621,24.4479013 C87.7418029,24.4479013 87.2283345,24.2260556 86.8746517,23.7967931 C86.1421513,22.9094102 85.3665626,22.0400635 84.5712252,21.2158074 C83.8800177,20.4997688 83.8979711,19.3580749 84.6089274,18.6654834 C85.321679,17.9728918 86.4581319,17.9873208 87.147544,18.7051631 C88.0093092,19.5961533 88.8459396,20.5340376 89.6376864,21.4935655 C90.2714429,22.2601056 90.1655176,23.3963886 89.4024963,24.0330678 C89.0685623,24.3126295 88.6610192,24.4479013 88.2588621,24.4479013 L88.2588621,24.4479013 L88.2588621,24.4479013 Z M17.9513897,22.6496884 C17.5187118,22.6496884 17.0824431,22.4909695 16.7377371,22.1735317 C16.007032,21.4989764 15.960353,20.3572825 16.6318118,19.6250112 C17.4702375,18.7087703 18.3535468,17.8141729 19.2566049,16.9664697 C19.9819239,16.2883072 21.1183768,16.3279869 21.7952215,17.0566509 C22.4702709,17.7835113 22.4325687,18.9252052 21.7072497,19.6051714 C20.868824,20.3897477 20.050147,21.2176111 19.2745583,22.0653143 C18.9208755,22.4530934 18.437928,22.6496884 17.9513897,22.6496884 L17.9513897,22.6496884 L17.9513897,22.6496884 Z M80.4886126,16.9863096 C80.1115903,16.9863096 79.7309773,16.8672704 79.40602,16.620174 C78.4957806,15.9275824 77.5424528,15.258438 76.5747623,14.6325805 C75.7417226,14.093297 75.5011465,12.9768539 76.0379544,12.1399724 C76.5747623,11.3012873 77.6878757,11.0596017 78.51912,11.6006889 C79.562215,12.2752442 80.5909472,12.9966937 81.5730004,13.7451976 C82.3629519,14.3458043 82.5191468,15.4766765 81.9212972,16.2720746 C81.5676144,16.7392131 81.0308065,16.9863096 80.4886126,16.9863096 L80.4886126,16.9863096 L80.4886126,16.9863096 Z M26.0878894,15.5921084 C25.5133793,15.5921084 24.9496412,15.3161539 24.6031398,14.8021212 C24.0447878,13.9796687 24.2566384,12.8560111 25.0771106,12.2968877 C26.1022522,11.595278 27.1668912,10.9261336 28.2369164,10.3092942 C29.0986815,9.81329769 30.1956368,10.1126992 30.6875611,10.9784387 C31.1812808,11.8423745 30.8832536,12.9443886 30.0232838,13.4403852 C29.0304585,14.0103303 28.0466099,14.6289733 27.0968728,15.2782778 C26.7880736,15.4893018 26.4361862,15.5921084 26.0878894,15.5921084 L26.0878894,15.5921084 L26.0878894,15.5921084 Z M71.2372042,11.5014896 C70.9930373,11.5014896 70.7470752,11.4527917 70.5100898,11.3463779 C69.4669948,10.8828466 68.387993,10.4499769 67.3054005,10.0640014 C66.3700262,9.73213461 65.8816925,8.70046179 66.2138312,7.76077379 C66.5441745,6.8228894 67.5747021,6.33410735 68.5064857,6.66417051 C69.6752547,7.08261123 70.8404331,7.54794618 71.9643185,8.0493536 C72.8709673,8.45336533 73.2803058,9.51750338 72.8781487,10.4283334 C72.5819169,11.1010851 71.924821,11.5014896 71.2372042,11.5014896 L71.2372042,11.5014896 L71.2372042,11.5014896 Z M35.6103948,10.5870523 C34.8904618,10.5870523 34.208231,10.1451645 33.9353387,9.42732219 C33.5798606,8.4966523 34.0430593,7.45415774 34.9676616,7.09884385 C36.1274539,6.65154514 37.3159717,6.24572978 38.5008989,5.89402314 C39.4470452,5.60905057 40.4506426,6.15374497 40.7325117,7.10966559 C41.0143807,8.06378259 40.4721868,9.06840105 39.5224497,9.35156999 C38.4254944,9.6780259 37.3267438,10.0531797 36.253128,10.4662095 C36.0430727,10.5473726 35.8258361,10.5870523 35.6103948,10.5870523 L35.6103948,10.5870523 L35.6103948,10.5870523 Z M60.6482643,8.26759208 C59.9283313,8.13051667 59.201217,8.0114775 58.4687165,7.91047456 C58.2371171,8.02049561 57.9785876,8.0800152 57.7074906,8.0800152 C56.7164606,8.0800152 55.9121465,7.27379536 55.9121465,6.27639139 L55.9121465,3.97136015 L57.9139552,4.20583125 C59.0593848,4.33749579 60.203019,4.5124473 61.3107463,4.72166766 C62.2856182,4.90563729 62.9283514,5.84712892 62.7452263,6.82649665 C62.58185,7.6940397 61.8278054,8.29825368 60.9821984,8.29825368 C60.8726824,8.29825368 60.761371,8.28743194 60.6482643,8.26759208 Z M46.303894,8.26759208 C47.023827,8.13051667 47.7509413,8.0114775 48.4834418,7.91047456 C48.7150411,8.02049561 48.9735707,8.0800152 49.2446677,8.0800152 C50.2356976,8.0800152 51.0400118,7.27379536 51.0400118,6.27639139 L51.0400118,3.97136015 L49.0382031,4.20583125 C47.8927735,4.33749579 46.7491393,4.5124473 45.641412,4.72166766 C44.6665401,4.90563729 44.0238069,5.84712892 44.206932,6.82649665 C44.3703083,7.6940397 45.1243528,8.29825368 45.9699599,8.29825368 C46.0794759,8.29825368 46.1907873,8.28743194 46.303894,8.26759208 Z" id="Fill-204" fill="#59C6E5"></path>
                                    <path d="M46.9354257,6.92419771 L11.0285427,6.92419771 C10.0375127,6.92419771 9.2331985,6.23485536 9.2331985,5.38548711 C9.2331985,4.53611886 10.0375127,3.84677651 11.0285427,3.84677651 L46.9354257,3.84677651 C47.9264557,3.84677651 48.7307699,4.53611886 48.7307699,5.38548711 C48.7307699,6.23485536 47.9264557,6.92419771 46.9354257,6.92419771" id="Fill-205" fill="#C3C6CA"></path>
                                    <path d="M93.1014182,6.92419771 L57.1945351,6.92419771 C56.2035052,6.92419771 55.399191,6.23485536 55.399191,5.38548711 C55.399191,4.53611886 56.2035052,3.84677651 57.1945351,3.84677651 L93.1014182,3.84677651 C94.0942435,3.84677651 94.8967624,4.53611886 94.8967624,5.38548711 C94.8967624,6.23485536 94.0942435,6.92419771 93.1014182,6.92419771" id="Fill-206" fill="#C3C6CA"></path>
                                    <path d="M64.8888672,85.0352325 L39.7540491,85.0352325 L39.7540491,77.380653 C39.7540491,70.6513326 34.323133,65.1953705 27.624704,65.1953705 L21.8006076,65.1953705 L52.3214582,18.3011514 L82.8423088,65.1953705 L77.0182123,65.1953705 C70.3197833,65.1953705 64.8888672,70.6513326 64.8888672,77.380653 L64.8888672,85.0352325" id="Fill-207" fill="#FFC500"></path>
                                    <polygon id="Fill-208" fill="#296693" points="39.7540491 85.0352325 64.8888672 85.0352325 64.8888672 94.0533516 39.7540491 94.0533516"></polygon>
                                    <polygon id="Fill-209" fill="#2A2A2F" points="61.2981789 94.0533516 61.2981789 103.071471 43.3447374 103.071471 43.3447374 94.0533516"></polygon>
                                    <g id="Group-9" transform="translate(0.000000, 52.316160)" stroke-width="6" stroke="#59C6E5" fill="#59C6E5">
                                        <g id="Group-19">
                                            <use id="Fill-866" mask="url(#mask-2)" xlink:href="#path-1"></use>
                                        </g>
                                    </g>
                                    <g id="Group-12" transform="translate(93.101418, 52.316160)" stroke-width="6" stroke="#59C6E5" fill="#59C6E5">
                                        <g id="Group-9">
                                            <g id="Group-19">
                                                <use id="Fill-866" mask="url(#mask-4)" xlink:href="#path-3"></use>
                                            </g>
                                        </g>
                                    </g>
                                    <g id="Group-8" transform="translate(46.935426, 0.000000)" stroke-width="6" stroke="#59C6E5" fill="#59C6E5">
                                        <g id="Group-9">
                                            <g id="Group-19">
                                                <use id="Fill-866" mask="url(#mask-6)" xlink:href="#path-5"></use>
                                            </g>
                                        </g>
                                    </g>
                                    <g id="Group-19" transform="translate(9.233198, 0.000000)" stroke-width="6" stroke="#C3C6CA" fill="#FFFFFF">
                                        <g id="Group-8">
                                            <use id="Fill-864" mask="url(#mask-8)" xlink:href="#path-7"></use>
                                        </g>
                                    </g>
                                    <g id="Group-8" transform="translate(86.176519, 0.000000)" stroke="#C3C6CA" stroke-width="6" fill="#FFFFFF">
                                        <use id="Fill-864" mask="url(#mask-10)" xlink:href="#path-9"></use>
                                    </g>
                                    <path d="M54.3732801,56.8616551 L54.3732801,18.7294404 C54.3732801,17.7338401 53.5689659,16.9258166 52.5779359,16.9258166 C51.5869059,16.9258166 50.7825917,17.7338401 50.7825917,18.7294404 L50.7825917,56.8616551 C47.6945998,57.667875 45.3965593,60.4689028 45.3965593,63.8200358 C45.3965593,67.7988299 48.6174067,71.0345311 52.5779359,71.0345311 C56.5384651,71.0345311 59.7593125,67.7988299 59.7593125,63.8200358 C59.7593125,60.4689028 57.461272,57.667875 54.3732801,56.8616551 L54.3732801,56.8616551 L54.3732801,56.8616551 Z M48.9872476,63.8200358 C48.9872476,61.8306387 50.5976713,60.2127882 52.5779359,60.2127882 C54.5582005,60.2127882 56.1686242,61.8306387 56.1686242,63.8200358 C56.1686242,65.8094329 54.5582005,67.4272834 52.5779359,67.4272834 C50.5976713,67.4272834 48.9872476,65.8094329 48.9872476,63.8200358 Z" id="Fill-879" fill="#FDEBA1"></path>
                                </g>
                            </g>
                        </g>
                    </g>
                </g>
            </g>
            <g id="color-palette-copy" transform="translate(49.406454, 160.531108) rotate(-180.000000) translate(-49.406454, -160.531108) translate(3.906454, 100.531108)">
                <g id="Layer_1" transform="translate(0.000000, 0.000000)">
                    <g id="Group">
                        <g>
                            <g transform="translate(14.840146, 12.109072)">
                                <path d="M10.7627463,10.3546948 C8.63873297,12.835829 4.91729684,13.111345 2.46232573,10.9563624 C0.0102964636,8.80435833 -0.255940667,5.03351105 1.86807268,2.55237693 C3.99208604,0.068264264 7.71499309,-0.202784001 10.1684933,1.95070936 C12.6205225,4.09973488 12.8882306,7.87058217 10.7627463,10.3546948 L10.7627463,10.3546948 Z" id="Shape" fill="#406A80"></path>
                                <ellipse id="Oval" fill="#335466" cx="6.31614496" cy="6.45279125" rx="4.41277012" ry="4.46782854"></ellipse>
                            </g>
                            <g transform="translate(0.000000, -0.000000)">
                                <path d="M52.0977234,21.7325318 L93.1923806,83.4853686 C95.9047633,87.5600282 94.8309892,93.1418353 90.805072,95.8880606 L71.2844479,109.203679 C67.2600015,111.949904 61.7469807,110.859754 59.034598,106.786584 L17.9399408,45.0307683 L52.0977234,21.7325318 L52.0977234,21.7325318 Z" id="Shape" fill="#59C6E5"></path>
                                <path d="M17.9414117,45.0322576 L52.0977234,21.7325318 L39.3910588,1.5991973 C36.6786761,-2.47546233 5.53270215,10.3961615 5.53270215,10.3961615 C1.50825581,13.1468546 13.5521764,18.7256832 16.2645591,22.8003428 L17.9414117,45.0322576 Z" id="Shape" fill="#C3C6CA"></path>
                                <path d="M24.4438046,23.5017919 C21.7534858,25.3365801 18.0908866,24.6157704 16.2757671,21.890395 C14.4635895,19.1650196 15.1769874,15.4567219 17.8687771,13.6204444 C20.559096,11.7856562 24.2231661,12.5064658 26.0353437,15.2348198 C27.8489922,17.9572166 27.1341235,21.6655143 24.4438046,23.5017919 L24.4438046,23.5017919 Z" id="Shape" fill="#406A80"></path>
                                <ellipse id="Oval" fill="#335466" cx="21.1562909" cy="18.5588842" rx="4.41277012" ry="4.46782854"></ellipse>
                            </g>
                            <path d="M73.6472066,98.230692 C75.3019954,102.850427 72.9264541,108.004812 68.3636498,109.680247 L46.2424332,117.813184 C41.6796289,119.491599 36.591705,117.087907 34.9339743,112.466683 L9.82531235,42.4766597 L48.5385446,28.2421579 L73.6472066,98.230692 Z" id="Shape" fill="#FFC500"></path>
                            <path d="M9.82678327,42.4781489 L48.5385446,28.2421579 L39.4997205,2.04360498 C37.8419898,-2.57761901 6.07004497,4.83004071 6.07004497,4.83004071 C1.50724067,6.50994424 3.81511944,12.6598613 5.47285008,17.279596 L9.82678327,42.4781489 Z" id="Shape" fill="#EEEEEE"></path>
                            <path d="M23.1655722,24.1615412 C20.1163481,25.2814769 16.7346952,23.6849728 15.6270899,20.5947248 C14.5194846,17.5044767 16.0992563,14.08212 19.1499514,12.9621843 C22.1991755,11.8392701 25.5808284,13.4372634 26.6884337,16.5290008 C27.7945681,19.614781 26.2147964,23.038627 23.1655722,24.1615412 L23.1655722,24.1615412 Z" id="Shape" fill="#406A80"></path>
                            <ellipse id="Oval" fill="#335466" cx="21.1562909" cy="18.5588842" rx="4.41277012" ry="4.46782854"></ellipse>
                            <path d="M41.8315898,36.4570053 L41.8315898,110.896986 C41.8315898,115.810108 37.777725,119.856471 32.9236779,119.856471 L9.38890389,119.856471 C4.53485676,119.856471 0.645735361,115.810108 0.645735361,110.896986 L0.645735361,36.4570053 L41.8315898,36.4570053 L41.8315898,36.4570053 Z" id="Shape" fill="#E56B6B"></path>
                            <path d="M0.645735361,9.62620569 L0.645735361,36.4570053 L41.8315898,36.4570053 L41.8315898,9.62620569 C41.8315898,4.7115943 37.777725,0.714377035 32.9236779,0.714377035 L9.38890389,0.714377035 C4.53485676,0.714377035 0.645735361,4.7115943 0.645735361,9.62620569 L0.645735361,9.62620569 Z" id="Shape" fill="#FFFFFF"></path>
                            <path d="M21.1562909,24.5189675 C17.9114339,24.5189675 15.2725974,21.8457167 15.2725974,18.5618628 C15.2725974,15.2750302 17.9114339,12.6047581 21.1562909,12.6047581 C24.4011478,12.6047581 27.0399844,15.2750302 27.0399844,18.5618628 C27.0399844,21.8457167 24.3996769,24.5189675 21.1562909,24.5189675 L21.1562909,24.5189675 Z" id="Shape" fill="#296693"></path>
                            <ellipse id="Oval" fill="#2A2A2F" cx="21.1562909" cy="18.5618628" rx="4.41277012" ry="4.46782854"></ellipse>
                        </g>
                    </g>
                </g>
            </g>
            <g id="brush" transform="translate(276.867967, 137.612458) rotate(-225.000000) translate(-276.867967, -137.612458) translate(208.867967, 77.112458)">
                <g id="Group-17" transform="translate(0.000000, 0.000000)">
                    <path d="M52.7046432,75.0092275 L49.6167065,71.9229179 C49.4187618,71.8279545 49.228735,71.7198018 49.0571829,71.593184 L29.5477574,93.1050256 C35.6075032,94.431875 40.1391163,99.417452 40.458467,105.803739 L41.8915863,107.236103 L64.4678344,86.7662205 L58.3025181,80.6041528 L52.7046432,75.0092275 Z" id="Fill-3" fill="#FFC500"></path>
                    <path d="M110.604468,4.33096566 L103.628561,11.3007323 L49.0764268,71.4507055 L64.3943248,86.7629969 L124.553816,32.2149613 L131.527257,25.2427301 C137.304758,19.4682735 137.304758,10.1054222 131.527257,4.33096566 C125.749756,-1.44349092 116.381969,-1.44349092 110.604468,4.33096566 Z" id="Fill-5" fill="#125688"></path>
                    <path d="M47.6622583,90.9512647 L42.4321776,85.7239398 L47.6622583,90.9512647 Z" id="Fill-7" fill="#0096E6"></path>
                    <path d="M0.43476102,120.56335 C0.43476102,120.56335 15.2693512,114.710027 15.2693512,100.642337 C15.2693512,91.3139896 21.9690822,90.9886681 28.0572809,90.9886681 L29.083077,90.9886681 C36.4116013,90.9886681 42.3543145,96.5339209 42.3543145,103.858584 C42.3543145,110.406911 43.6834109,120.56335 31.1001473,120.56335 L0.43476102,120.56335 Z" id="Fill-15" fill="#2A2A2F"></path>
                </g>
            </g>
        </g>
    </g>
</svg>