<?xml version="1.0" encoding="UTF-8"?>
<svg width="50px" height="50px" viewBox="0 0 50 50" version="1.1" xmlns="http://www.w3.org/2000/svg" xmlns:xlink="http://www.w3.org/1999/xlink">
    <!-- Generator: Sketch 39.1 (31720) - http://www.bohemiancoding.com/sketch -->
    <title>quote</title>
    <desc>Created with Sketch.</desc>
    <defs></defs>
    <g id="部落格" stroke="none" stroke-width="1" fill="none" fill-rule="evenodd">
        <g id="文章" transform="translate(-695.000000, -1551.000000)">
            <g id="Quote-Copy" transform="translate(400.000000, 1551.000000)">
                <g id="quote" transform="translate(295.000000, 0.000000)">
                    <path d="M24,50 C37.8071187,50 50,38.8071187 50,25 C50,11.1928813 38.8071187,0 25,0 C11.1928813,0 0,11.1928813 0,25 C0,38.8071187 10.1928813,50 24,50 Z" id="Oval-3" fill="#FFFFFF"></path>
                    <path d="M24.8593336,27.6326531 C24.8593336,28.590481 24.5217412,29.3911532 23.8465461,30.0346939 C23.1713511,30.6782345 22.3734052,31 21.4526847,31 C20.5319642,31 19.7263458,30.6782345 19.0358054,30.0346939 C18.345265,29.3911532 18,28.6204127 18,27.722449 C18,26.8244853 18.414318,25.7319792 19.2429665,24.444898 L22.0051143,20 L24.6751905,20 L22.971866,24.6693878 C24.2301841,25.2380981 24.8593336,26.2258433 24.8593336,27.6326531 Z M33,27.6326531 C33,28.590481 32.6624075,29.3911532 31.9872125,30.0346939 C31.3120174,30.6782345 30.5140716,31 29.5933511,31 C28.6726305,31 27.8670122,30.6782345 27.1764718,30.0346939 C26.4859314,29.3911532 26.1406664,28.6204127 26.1406664,27.722449 C26.1406664,26.8244853 26.5549844,25.7319792 27.3836329,24.444898 L30.1457806,20 L32.8158568,20 L31.1125324,24.6693878 C32.3708504,25.2380981 33,26.2258433 33,27.6326531 Z" id="Icon" fill="#00AAE9"></path>
                </g>
            </g>
        </g>
    </g>
</svg>