<?xml version="1.0" encoding="UTF-8"?>
<svg width="16px" height="16px" viewBox="0 0 16 16" version="1.1" xmlns="http://www.w3.org/2000/svg" xmlns:xlink="http://www.w3.org/1999/xlink">
    <!-- Generator: Sketch 39.1 (31720) - http://www.bohemiancoding.com/sketch -->
    <title>search</title>
    <desc>Created with Sketch.</desc>
    <defs></defs>
    <g id="資源總匯" stroke="none" stroke-width="1" fill="none" fill-rule="evenodd">
        <g id="設計資源總匯" transform="translate(-350.000000, -117.000000)" fill="#3E3C3C">
            <g id="Group-5" transform="translate(70.000000, 100.000000)">
                <g id="Search-bar" transform="translate(260.000000, 0.000000)">
                    <g id="Group" transform="translate(20.000000, 15.000000)">
                        <path d="M15.7870012,16.7585455 L11.6595701,12.6310909 C12.5553832,11.5112727 13.0908347,10.0909091 13.0908347,8.54545455 C13.0908347,4.93054545 10.1604877,2 6.54541736,2 C2.9305288,2 0,4.93054545 0,8.54545455 C0,12.1603636 2.9305288,15.0909091 6.54541736,15.0909091 C8.09086312,15.0909091 9.51121869,14.5552727 10.6310305,13.6594545 L14.7584616,17.7869091 C14.9004608,17.9289091 15.0866416,18 15.2726405,18 C15.4588213,18 15.645002,17.9289091 15.7870012,17.7869091 C16.0709996,17.5030909 16.0709996,17.0423636 15.7870012,16.7585455 L15.7870012,16.7585455 Z M6.54541736,13.6363636 C3.73379697,13.6363636 1.45453719,11.3570909 1.45453719,8.54545455 C1.45453719,5.73381818 3.73379697,3.45454545 6.54541736,3.45454545 C9.35721956,3.45454545 11.6362975,5.73381818 11.6362975,8.54545455 C11.6362975,11.3570909 9.35721956,13.6363636 6.54541736,13.6363636 L6.54541736,13.6363636 Z" id="search"></path>
                    </g>
                </g>
            </g>
        </g>
    </g>
</svg>