<?xml version="1.0" encoding="UTF-8"?>
<svg width="308px" height="328px" viewBox="0 0 308 328" version="1.1" xmlns="http://www.w3.org/2000/svg" xmlns:xlink="http://www.w3.org/1999/xlink">
    <!-- Generator: Sketch 39.1 (31720) - http://www.bohemiancoding.com/sketch -->
    <title>pic</title>
    <desc>Created with Sketch.</desc>
    <defs></defs>
    <g id="服務" stroke="none" stroke-width="1" fill="none" fill-rule="evenodd">
        <g id="服務項目v2-copy" transform="translate(-828.000000, -2931.000000)">
            <g id="consultant" transform="translate(0.000000, 2851.000000)">
                <g id="Group-11" transform="translate(295.000000, 80.000000)">
                    <g id="pic" transform="translate(533.000000, 0.000000)">
                        <g id="left">
                            <g id="bg">
                                <circle id="Oval-488" fill="#FFFFFF" cx="50" cy="50" r="50"></circle>
                                <path d="M72.5,72.5 L97.7538136,97.7538136" id="Line" stroke="#FFFFFF" stroke-width="3" stroke-linecap="square"></path>
                            </g>
                            <g id="human" transform="translate(29.545455, 13.557548)">
                                <rect id="Rectangle-348-Copy-3" fill="#CDEEF7" x="7.38935932" y="45.0683903" width="25.9202943" height="26.9974979" rx="12.9601472"></rect>
                                <rect id="Rectangle-342-Copy-16" fill="#FDD7AD" x="16.1924781" y="35.6355296" width="8.15103595" height="14.6371977" rx="4.07551798"></rect>
                                <polygon id="Fill-4" fill="#FAC47B" points="16.3636364 43.3628266 24.572727 43.3628266 24.572727 41.1818182 16.3636364 41.1818182"></polygon>
                                <ellipse id="Oval-38-Copy-9" fill="#FDD7AD" cx="3.31384134" cy="26.0400334" rx="3.26041438" ry="3.25271059"></ellipse>
                                <ellipse id="Oval-38-Copy-10" fill="#FDD7AD" cx="37.3851716" cy="26.0400334" rx="3.26041438" ry="3.25271059"></ellipse>
                                <ellipse id="Oval-38-Copy-11" fill="#C3C6CA" cx="36.1625162" cy="26.1213511" rx="2.03775899" ry="2.03294412"></ellipse>
                                <ellipse id="Oval-38-Copy-12" fill="#C3C6CA" cx="4.53649673" cy="26.1213511" rx="2.03775899" ry="2.03294412"></ellipse>
                                <rect id="Rectangle-342-Copy-5" fill="#C3C6CA" x="34.9398608" y="7.82485405" width="4.89062157" height="16.9140951" rx="2.44531079"></rect>
                                <rect id="Rectangle-342-Copy-6" fill="#C3C6CA" x="0.868530554" y="7.82485405" width="4.89062157" height="16.9140951" rx="2.44531079"></rect>
                                <path d="M3.1809589,3 L37.2522892,3 L37.2522892,24.6733623 C37.2522892,34.0809221 29.6272308,41.707256 20.216624,41.707256 L20.216624,41.707256 C10.808086,41.707256 3.1809589,34.0830517 3.1809589,24.6733623 L3.1809589,3 Z" id="Rectangle-342-Copy-14" fill="#FDD7AD"></path>
                                <path d="M19.076043,25.7269177 C19.8990015,24.6290745 20.6412906,24.4816231 21.5747808,25.7269177 C22.5082709,26.9722123 22.2753792,28.5193767 22.2753792,28.5193767 C22.2788483,29.5993116 21.3938543,30.4747719 20.3139495,30.4747719 L20.3368742,30.4747719 C19.2501375,30.4747719 18.3673554,29.5947082 18.4139937,28.512536 C18.4139937,28.512536 18.2530845,26.8247609 19.076043,25.7269177 Z" id="Rectangle-342-Copy-15" fill="#FAC176" opacity="0.9"></path>
                                <rect id="Rectangle-231" fill="#C3C6CA" x="1.06031963" y="0.533361134" width="36.7577473" height="11.9808173" rx="5.99040867"></rect>
                                <rect id="Rectangle-231-Copy" fill="#C3C6CA" x="16.0256823" y="29.7806505" width="8.48255708" height="4.58090075" rx="2.29045038"></rect>
                                <path d="M16.0773326,45.3254137 L19.327529,49.879522 L16.4973747,53.4044588 L12.7238356,46.3545851 L14.7690938,45.0809814 C15.2025791,44.8109932 15.7883031,44.9203764 16.0773326,45.3254137 L16.0773326,45.3254137 Z" id="Shape" fill="#59C6E5"></path>
                                <path d="M24.456707,45.3254137 L21.2063927,49.879522 L24.036547,53.4044588 L27.8100861,46.3545851 L25.7648279,45.0809814 C25.3313426,44.8109932 24.7457365,44.9203764 24.456707,45.3254137 L24.456707,45.3254137 Z" id="Shape" fill="#59C6E5"></path>
                                <path d="M20.3825781,57.2683891 L20.3825781,57.2683891 C19.8615938,57.2683891 19.4391933,56.8738165 19.4391933,56.3871549 L19.4391933,50.2185154 L21.3259628,50.2185154 L21.3259628,56.3871549 C21.3259628,56.8739267 20.9036802,57.2683891 20.3825781,57.2683891 L20.3825781,57.2683891 Z" id="Shape" fill="#59C6E5"></path>
                            </g>
                        </g>
                        <g id="right" transform="translate(208.000000, 50.000000)">
                            <g id="bg">
                                <circle id="Oval-488" fill="#FFFFFF" cx="49.732524" cy="49.732524" r="49.732524"></circle>
                                <path d="M1.75679382,77.9329609 L21.5083799,97.684547" id="Line" stroke="#FFFFFF" stroke-width="3" stroke-linecap="square" transform="translate(11.632587, 87.808754) scale(-1, 1) translate(-11.632587, -87.808754) "></path>
                            </g>
                            <g id="human" transform="translate(20.670391, 16.201117)">
                                <path d="M55.138002,54.1919149 C54.0701663,51.8832526 54.9872236,51.3150331 54.3311454,48.87723 C53.9040111,47.2900247 52.9496507,46.6485052 52.6226082,45.3179942 C52.3119392,44.0547231 52.8546845,41.8544236 52.527642,40.796912 C51.9370576,38.886494 51.1962644,38.3817627 50.8191048,36.804802 C50.4393824,35.2175967 51.4360291,34.0152165 51.103861,32.3317688 C50.6876898,30.2225173 49.9396353,29.3583561 49.6326681,28.2435608 C49.0631557,26.1754323 49.2377113,25.6581476 49.3005,23.962868 C49.4428781,20.1150494 47.9948928,15.3919593 46.8800723,12.9967221 C45.6180328,10.2851983 43.961606,8.77172585 41.9945102,7.94652338 L28.6556757,7.94652338 L28.6556757,64.9416237 C44.3172665,65.0859151 57.1312954,60.3242991 57.1312954,60.3242991 C57.0838835,56.1878978 56.3771186,56.8708289 55.138002,54.1919149 L55.138002,54.1919149 Z" id="Shape" fill="#FFC500"></path>
                                <path d="M2.17334931,54.2262989 C3.24118505,51.9176366 2.32412772,51.3494171 2.98020599,48.911614 C3.40734029,47.3244087 4.36170069,46.6828891 4.68874318,45.3523782 C4.99941219,44.089107 4.45666688,41.8888076 4.78370937,40.831296 C5.37429372,38.9208779 6.11508697,38.4161466 6.49224656,36.839186 C6.87196895,35.2519807 5.87532225,34.0496005 6.20749036,32.3661528 C6.62366154,30.2569012 7.37171607,29.3927401 7.67868325,28.2779448 C8.24819565,26.2098162 8.0736401,25.6925316 8.01085136,23.997252 C7.86847326,20.1494334 9.31645852,15.4263432 10.431279,13.0311061 C11.6933185,10.3195822 13.3497453,8.80610981 15.3168411,7.98090733 L28.6556757,7.98090733 L28.6556757,64.9760077 C12.9940848,65.1202991 0.180055926,60.3586831 0.180055926,60.3586831 C0.227467833,56.2222817 0.934232715,56.9052129 2.17334931,54.2262989 L2.17334931,54.2262989" id="Shape" fill="#FFC500"></path>
                                <rect id="Rectangle-342-Copy-6" fill="#FFC500" x="9.55189189" y="0" width="38.2075676" height="58.3219781" rx="19.1037838"></rect>
                                <rect id="Rectangle-348-Copy-3" fill="#CDEEF7" x="17.5344932" y="43.3991076" width="22.5970676" height="23.5176883" rx="11.2985338"></rect>
                                <rect id="Rectangle-342-Copy-16" fill="#FCDCC5" x="25.208969" y="35.182084" width="7.10599609" height="12.7505539" rx="3.55299805"></rect>
                                <polygon id="Fill-4-Copy" fill="#F8BBB6" points="25.2662947 42.1202555 32.3531822 42.1202555 32.3531822 40.2430586 25.2662947 40.2430586"></polygon>
                                <path d="M14.1410615,24.2704361 C14.1410615,16.0728394 20.7885153,9.4273743 28.9925933,9.4273743 L28.9925933,9.4273743 C37.1948678,9.4273743 43.8441251,16.0769595 43.8441251,24.2704361 L43.8441251,25.4925997 C43.8441251,33.6901964 37.1966713,40.3356615 28.9925933,40.3356615 L28.9925933,40.3356615 C20.7903187,40.3356615 14.1410615,33.6860763 14.1410615,25.4925997 L14.1410615,24.2704361 Z" id="Rectangle-342-Copy-14" fill="#FCDCC5"></path>
                                <rect id="Rectangle-231-Copy" fill="#FFC500" x="15.7122905" y="8.90363128" width="26.657452" height="9.4273743" rx="4.71368715"></rect>
                                <path d="M33.4737759,32.9153188 C33.4737759,34.6193165 31.4008245,36 28.8456264,36 C26.2880644,36 24.2155858,34.6193165 24.2155858,32.9153188 L33.4737759,32.9153188 Z" id="Fill-41-Copy-2" fill="#E56B6B"></path>
                            </g>
                        </g>
                        <g id="miss" transform="translate(65.000000, 100.000000)">
                            <rect id="Rectangle-342-Copy-6" fill="#582628" x="9" y="10" width="124" height="190" rx="62"></rect>
                            <rect id="Rectangle-348-Copy-3" fill="#125688" x="34.9069767" y="151.384615" width="73.3372093" height="76.6153846" rx="36.6686047"></rect>
                            <rect id="Rectangle-342-Copy-16" fill="#FCDCC5" x="59.8139535" y="124.615385" width="23.0620155" height="41.5384615" rx="11.5310078"></rect>
                            <polygon id="Fill-4-Copy" fill="#F8BBB6" points="60 148.110688 83 148.110688 83 142 60 142"></polygon>
                            <rect id="Rectangle-342-Copy-14" fill="#FEDCC3" x="23.375969" y="41" width="96.3992248" height="100.692308"></rect>
                            <path d="M67.8100775,94.1415925 C70.1385033,91.0260564 72.2386881,90.6076085 74.879845,94.1415925 C77.5210018,97.6755766 76.8620731,102.066228 76.8620731,102.066228 C76.8718882,105.130942 74.3955731,107.615385 71.3125304,107.615385 L71.377392,107.615385 C68.3026491,107.615385 65.8049625,105.117878 65.9369179,102.046815 C65.9369179,102.046815 65.4816518,97.2571287 67.8100775,94.1415925 Z" id="Rectangle-342-Copy-15" fill="#FAC176" opacity="0.9"></path>
                            <path d="M99.9418605,90.3076923 C99.9418605,92.8553846 97.8755039,94.9230769 95.3294574,94.9230769 C92.7834109,94.9230769 90.7170543,92.8553846 90.7170543,90.3076923 C90.7170543,87.76 92.7834109,85.6923077 95.3294574,85.6923077 C97.8755039,85.6923077 99.9418605,87.76 99.9418605,90.3076923" id="Fill-49-Copy-4" fill="#0B2C48"></path>
                            <path d="M51.9728682,90.3076923 C51.9728682,92.8553846 49.9065116,94.9230769 47.3604651,94.9230769 C44.8144186,94.9230769 42.748062,92.8553846 42.748062,90.3076923 C42.748062,87.76 44.8144186,85.6923077 47.3604651,85.6923077 C49.9065116,85.6923077 51.9728682,87.76 51.9728682,90.3076923" id="Fill-49-Copy-5" fill="#0B2C48"></path>
                            <path d="M80.6454109,117.230769 C80.6454109,120.568154 76.6007946,123.272308 71.6152481,123.272308 C66.6250891,123.272308 62.5813953,120.568154 62.5813953,117.230769 L80.6454109,117.230769 Z" id="Fill-41-Copy-2" fill="#E56B6B"></path>
                            <path d="M23.2291617,79.2039679 C44.7543528,79.2039679 62.2039679,61.7430732 62.2039679,40.2039679 C62.2039679,40.203968 42.4267368,40.203968 22.7960321,40.203968 C22.7960321,56.6003339 22.7960319,61.0180369 23.2291617,79.2039679 Z" id="Oval-50-Copy-2" fill="#582628" transform="translate(42.500000, 59.703968) scale(-1, 1) rotate(-270.000000) translate(-42.500000, -59.703968) "></path>
                            <path d="M65.8525565,90.2039679 C98.9682351,90.2039679 114.813797,63.3410529 114.813797,30.2039679 C114.813797,30.203968 95.3872873,30.203968 65.1862032,30.203968 C65.1862032,55.4291463 65.1862029,62.2256126 65.8525565,90.2039679 Z" id="Oval-50-Copy-2" fill="#582628" transform="translate(90.000000, 60.203968) rotate(-270.000000) translate(-90.000000, -60.203968) "></path>
                            <g id="Neckline" transform="translate(51.000000, 151.000000)" fill="#FFFFFF">
                                <polygon id="Fill-17" points="20.2196429 11.25 6.31863839 0 0 7.5 10.1098214 25"></polygon>
                                <polygon id="Fill-19" points="20 11.25 33.9010045 0 40.2196429 7.5 30.1098214 25"></polygon>
                            </g>
                            <g id="Bow" transform="translate(61.000000, 158.000000)" fill="#242424">
                                <polygon id="Fill-23" points="0 14 0 0 13.44 7"></polygon>
                                <polygon id="Fill-25" points="20.16 14 20.16 0 7.14 7"></polygon>
                            </g>
                            <g id="headphone" fill="#2A2A2F">
                                <path d="M132.794872,70.7571429 L125.512821,70.7571429 L125.512821,39.9142857 C125.512821,18.2444571 107.109256,7.25714286 70.8118718,7.25714286 C34.6291795,7.25714286 16.2820513,18.2444571 16.2820513,39.9142857 L16.2820513,70.7571429 L9,70.7571429 L9,39.9142857 C9,21.7061143 19.724641,0 70.8118718,0 C122.041103,0 132.794872,21.7061143 132.794872,39.9142857 L132.794872,70.7571429 Z" id="Fill-29"></path>
                                <path d="M23.6666667,112.357143 L7.28205128,112.357143 C3.27692308,112.357143 0,109.091429 0,105.1 L0,74.2571429 C0,70.2657143 3.27692308,67 7.28205128,67 L23.6666667,67 L23.6666667,112.357143 Z" id="Fill-31"></path>
                                <path d="M118.333333,112.228571 L134.717949,112.228571 C138.723077,112.228571 142,108.962857 142,104.971429 L142,74.1285714 C142,70.1371429 138.723077,66.8714286 134.717949,66.8714286 L118.333333,66.8714286 L118.333333,112.228571 Z" id="Fill-33"></path>
                                <path d="M120.153846,130.371429 L91.025641,130.371429 C89.0139744,130.371429 87.3846154,128.747643 87.3846154,126.742857 C87.3846154,124.739886 89.0139744,123.114286 91.025641,123.114286 L120.153846,123.114286 C122.061744,123.114286 125.615385,123.114286 125.615385,115.857143 L125.615385,106.785714 C125.615385,104.782743 127.244744,103.157143 129.25641,103.157143 C131.266256,103.157143 132.897436,104.782743 132.897436,106.785714 L132.897436,115.857143 C132.897436,125.080971 128.253308,130.371429 120.153846,130.371429" id="Fill-35"></path>
                                <path d="M94.6666667,128.557143 C94.6666667,131.550714 92.2089744,134 89.2051282,134 L78.2820513,134 C75.2782051,134 72.8205128,131.550714 72.8205128,128.557143 L72.8205128,124.928571 C72.8205128,121.935 75.2782051,119.485714 78.2820513,119.485714 L89.2051282,119.485714 C92.2089744,119.485714 94.6666667,121.935 94.6666667,124.928571 L94.6666667,128.557143 Z" id="Fill-37"></path>
                            </g>
                        </g>
                    </g>
                </g>
            </g>
        </g>
    </g>
</svg>