<?xml version="1.0" encoding="UTF-8"?>
<svg width="342px" height="377px" viewBox="0 0 342 377" version="1.1" xmlns="http://www.w3.org/2000/svg" xmlns:xlink="http://www.w3.org/1999/xlink">
    <!-- Generator: Sketch 39.1 (31720) - http://www.bohemiancoding.com/sketch -->
    <title>service-vd</title>
    <desc>Created with Sketch.</desc>
    <defs>
        <rect id="path-1" x="9.09494702e-13" y="-1.59872116e-13" width="45.2260288" height="34.3717819" rx="3"></rect>
        <mask id="mask-2" maskContentUnits="userSpaceOnUse" maskUnits="objectBoundingBox" x="0" y="0" width="45.2260288" height="34.3717819" fill="white">
            <use xlink:href="#path-1"></use>
        </mask>
    </defs>
    <g id="服務" stroke="none" stroke-width="1" fill="none" fill-rule="evenodd">
        <g id="service-vd" transform="translate(-3.000000, 1.000000)">
            <circle id="Oval" stroke="#D0D4D4" stroke-width="3" stroke-linecap="round" stroke-linejoin="bevel" stroke-dasharray="6,12" opacity="0.595848881" cx="172" cy="230" r="144"></circle>
            <g id="hand_brush" transform="translate(59.000000, 78.000000)">
                <path d="M79.2811159,131.734203 C79.2811159,131.734203 85.741097,130.301856 89.2278938,122.632002 C92.7146906,114.962148 104.055363,102.013346 114.140844,100.436803 L135.220927,172.449663 C135.220927,172.449663 111.571408,177.812381 93.8970979,170.697338 L90.9403931,171.562514 L79.2811159,131.734203 L79.2811159,131.734203 Z" id="Fill-1" fill="#FDD7AD" transform="translate(107.251021, 137.412340) rotate(-75.000000) translate(-107.251021, -137.412340) "></path>
                <g id="brush" transform="translate(102.137085, 102.773124) rotate(-315.000000) translate(-102.137085, -102.773124) translate(25.637085, 35.273124)">
                    <g id="Group-17" transform="translate(-0.000000, -0.000000)">
                        <path d="M58.9966617,83.7686911 L55.7745321,80.5465615 C55.5679854,80.447419 55.3697005,80.3345068 55.1906933,80.2023169 L34.8334438,102.660835 C41.1565288,104.046076 45.8850729,109.251054 46.2183016,115.918384 L47.7137003,117.413783 L71.2710477,96.043077 L64.8378043,89.6098337 L58.9966617,83.7686911 Z" id="Fill-3" fill="#FFC500"></path>
                        <path d="M124.527054,4.83952848 L116.73611,12.6277186 L55.8103215,79.8407911 L72.9179019,96.9511254 L140.106189,35.997797 L147.894379,28.2068529 C154.3469,21.7543318 154.3469,11.2920495 147.894379,4.83952848 C141.441858,-1.61299256 130.979575,-1.61299256 124.527054,4.83952848 Z" id="Fill-5" fill="#125688"></path>
                        <path d="M54.2309272,101.6312 L48.3897846,95.7900571 L54.2309272,101.6312 Z" id="Fill-7" fill="#0096E6"></path>
                        <path d="M35.0266582,134.013371 L0.778449989,134.013371 C0.778449989,134.013371 17.3462548,127.472724 17.3462548,111.753138 C17.3462548,101.329411 24.8287557,100.965888 31.6282753,100.965888 L32.7739214,100.965888 C40.9586814,100.965888 47.5957175,107.162291 47.5957175,115.347051 L47.5957175,115.347051 C47.5957175,122.664315 49.0801003,134.013371 35.0266582,134.013371" id="Fill-15" fill="#2A2A2F"></path>
                    </g>
                </g>
                <g id="shirt" transform="translate(84.000000, 162.000000)">
                    <rect id="Rectangle-345" fill="#59C6E5" transform="translate(31.255005, 48.835945) rotate(-360.000000) translate(-31.255005, -48.835945) " x="2.86466592e-13" y="2.06057393e-13" width="62.5100098" height="97.6718903" rx="15"></rect>
                    <path d="M52.5667497,13.700729 C53.1751195,15.7798981 51.9844725,17.9593177 49.9053034,18.5663142 C47.8275076,19.1760574 45.6494612,17.9826637 45.0397181,15.9034946 C44.4327216,13.8270721 45.6233686,11.6490258 47.7025377,11.0406559 C49.7803335,10.4322861 51.9583799,11.6229332 52.5667497,13.700729" id="Fill-7" fill="#FFFFFF" transform="translate(48.803538, 14.803671) rotate(-75.000000) translate(-48.803538, -14.803671) "></path>
                </g>
                <g id="shadow" transform="translate(81.000000, 92.000000)" fill="#989898" opacity="0.301072761">
                    <path d="M14.4695669,3.68813229 L5.8191798,6.22048884 C2.72789206,7.12549044 0.954967817,10.3650941 1.85996943,13.4563818 C2.76497103,16.5490429 6.00457467,18.3205938 9.09586241,17.4155922 L17.7462496,14.8832356 L14.4695669,3.68813229 Z" id="Fill-19" transform="translate(9.684907, 10.670118) rotate(-75.000000) translate(-9.684907, -10.670118) "></path>
                    <path d="M30.7442267,3.33015617 L22.0938395,5.86251272 C19.0025518,6.76751433 17.2296275,10.0057447 18.1346291,13.0984057 C19.0410041,16.1896934 22.2792344,17.9626177 25.3718954,17.0576161 L34.0209093,14.5252595 L30.7442267,3.33015617 Z" id="Fill-20" transform="translate(25.959567, 10.312089) rotate(-75.000000) translate(-25.959567, -10.312089) "></path>
                    <path d="M46.8504087,3.60109938 L38.2000216,6.13345592 C35.1087338,7.03845753 33.3358096,10.2766879 34.2408112,13.3693489 C35.1458128,16.4606366 38.3854164,18.2335609 41.4780775,17.3285593 L50.1270913,14.7962027 L46.8504087,3.60109938 Z" id="Fill-21" transform="translate(42.065749, 10.583032) rotate(-75.000000) translate(-42.065749, -10.583032) "></path>
                    <path d="M62.9562752,3.87228469 L54.3072614,6.40464124 C51.2146003,7.30964285 49.4430494,10.5492465 50.3466777,13.6405342 C51.2530526,16.731822 54.4926562,18.5047462 57.583944,17.5997446 L66.2329578,15.067388 L62.9562752,3.87228469 Z" id="Fill-22" transform="translate(58.171866, 10.854217) rotate(-75.000000) translate(-58.171866, -10.854217) "></path>
                </g>
                <g id="finger" transform="translate(66.000000, 81.000000)" fill="#FDD7AD">
                    <path d="M30.3872591,30.6297076 C31.3554323,34.300526 29.1650263,38.0619818 25.4928346,39.030155 L4.27404879,47.0543195 C0.601857132,48.0224927 1.09899003,44.7952487 0.129443546,41.1244304 L-0.362196175,39.6687374 C-1.33036937,35.9965457 0.279132735,33.7457147 2.92547279,32.2666756 L21.9868117,25.7352832 C25.65763,24.7643634 29.4190859,26.957516 30.3872591,30.6297076" id="Fill-23" transform="translate(14.985083, 36.366745) rotate(-75.000000) translate(-14.985083, -36.366745) "></path>
                    <path d="M46.9834886,0.931745566 C51.5584511,1.31451132 54.9588834,5.33784308 54.5721381,9.91173935 L53.2138444,26.1394905 C52.8293967,30.7154241 48.8081023,34.1135588 44.2318132,33.7304377 C39.656235,33.3446635 36.2587159,29.3263775 36.6421926,24.7487619 L38.0027839,8.52304814 C38.3845786,3.94640363 42.408526,0.548979814 46.9834886,0.931745566" id="Fill-24"></path>
                    <path d="M30.1076719,3.16044745 C34.6826345,3.5432132 38.0804137,7.5658341 37.6993299,12.1398256 L36.3383832,28.3668659 C35.95358,32.944126 31.9322856,36.3422607 27.3559966,35.9591395 C22.7800629,35.5746918 19.3828993,31.5550794 19.7660205,26.9787903 L21.1256408,10.7513946 C21.5100885,6.17546095 25.5317383,2.77599976 30.1076719,3.16044745" id="Fill-25" transform="translate(28.732524, 19.559701) scale(1, -1) translate(-28.732524, -19.559701) "></path>
                    <path d="M62.7797051,4.27090767 C66.8330601,4.6105874 69.8474636,8.17504809 69.5074284,12.2297296 L68.3024365,26.611909 C67.960364,30.668888 64.3966142,33.6806385 60.3406062,33.3402479 C56.2845982,32.9998573 53.2724923,29.437434 53.6132383,25.3800995 L54.8182302,10.9979201 C55.1582654,6.94323863 58.7250236,3.9308725 62.7797051,4.27090767" id="Fill-26"></path>
                    <path d="M76.9681724,9.8127635 C80.5405209,10.1117058 83.1956603,13.2500583 82.8963626,16.8237333 L81.8317748,29.4933721 C81.533188,33.0643941 78.3925379,35.7174962 74.8215159,35.4189093 C71.2465144,35.1192561 68.5960653,31.9793169 68.8946522,28.4082949 L69.9562315,15.7392718 C70.2555292,12.1655968 73.3948528,9.51213925 76.9681724,9.8127635" id="Fill-27"></path>
                </g>
            </g>
            <text id="T-Copy" transform="translate(60.990381, 134.820508) rotate(-345.000000) translate(-60.990381, -134.820508) " font-family="YuMin-Demibold, YuMincho" font-size="40" font-weight="500" fill="#125688">
                <tspan x="46.2503811" y="149.820508">T</tspan>
            </text>
            <g id="photo" transform="translate(318.000000, 235.500000) rotate(-330.000000) translate(-318.000000, -235.500000) translate(295.000000, 218.000000)">
                <use id="Rectangle-377" stroke="#D0D4D4" mask="url(#mask-2)" stroke-width="2" fill="#F6F6F8" xlink:href="#path-1"></use>
                <g id="Page-1" transform="translate(4.111457, 4.091879)">
                    <g id="Group-12" transform="translate(0.000000, 0.000000)">
                        <polygon id="Fill-4" fill="#D0D4D4" points="2.59348099e-13 26.1880243 37.0031145 26.1880243 37.0031145 4.93827201e-13 2.59348099e-13 4.93827201e-13"></polygon>
                        <path d="M11.9799639,7.83103764 C11.9799639,9.89579968 10.2975556,11.5701965 8.22291432,11.5701965 C6.14827304,11.5701965 4.46586477,9.89579968 4.46586477,7.83103764 C4.46586477,5.7662756 6.14827304,4.09187879 8.22291432,4.09187879 C10.2975556,4.09187879 11.9799639,5.7662756 11.9799639,7.83103764" id="Fill-6" fill="#F3D55B"></path>
                        <polygon id="Fill-8" fill="#125688" points="36.5919687 18.9134822 35.7696773 18.0042667 25.9021801 9.00213335 17.2681201 18.4134546 21.776744 22.9006089 25.0798887 26.1880243 36.5919687 26.1880243"></polygon>
                        <polygon id="Fill-10" fill="#125688" points="1.82609483e-12 26.1741119 25.4910344 26.1741119 22.1878897 22.8866965 13.1706419 13.9123879 1.82609483e-12 25.3557361"></polygon>
                    </g>
                </g>
            </g>
            <g id="shape" transform="translate(288.500000, 143.500000) rotate(-360.000000) translate(-288.500000, -143.500000) translate(263.000000, 121.000000)">
                <polygon id="Fill-3" fill="#CDEEF7" points="50.7952376 28.6237674 35.8251603 0.0137093023 20.855083 28.6237674"></polygon>
                <polygon id="Fill-5" fill="#FDEBA1" points="6.35034124 28.6237674 0.204841237 18.0304535 6.35034124 7.43713953 18.6413412 7.43713953 24.7868412 18.0304535 18.6413412 28.6237674"></polygon>
                <path d="M34.539566,33.5783983 C34.539566,39.8786599 29.4074938,44.9861599 23.0769216,44.9861599 C16.7460866,44.9861599 11.6140144,39.8786599 11.6140144,33.5783983 C11.6140144,27.2781366 16.7460866,22.1706366 23.0769216,22.1706366 C29.4074938,22.1706366 34.539566,27.2781366 34.539566,33.5783983" id="Fill-7" fill="#E56B6B"></path>
            </g>
            <g id="ruler" transform="translate(281.000000, 321.000000) rotate(-345.000000) translate(-281.000000, -321.000000) translate(251.000000, 291.000000)">
                <path d="M58.8581647,6.62329504 C59.3981983,7.16332866 59.3981983,8.03911673 58.8581647,8.57915035 L8.57893622,58.8583788 C8.0389026,59.3984124 7.16311453,59.3984124 6.62308091,58.8583788 L0.199590094,52.434888 L52.4346738,0.199804223 L58.8581647,6.62329504 Z" id="Fill-6" fill="#FDEBA1"></path>
                <g id="line" transform="translate(2.141291, 1.713033)" fill="#B8BCBE">
                    <polygon id="Fill-8" points="48.5567739 0.429971256 51.5884138 3.46118296 51.9798419 3.06975494 48.9482019 0.0385432401"></polygon>
                    <polygon id="Fill-10" points="46.5987773 2.38792503 48.3717663 4.16091407 48.7631943 3.7690578 46.9902053 1.99649701"></polygon>
                    <polygon id="Fill-12" points="44.6767115 4.30999076 47.7083515 7.34163072 48.0997795 6.94977445 45.0681396 3.91856274"></polygon>
                    <polygon id="Fill-14" points="42.7187149 6.26798736 44.491704 8.0409764 44.883132 7.64912013 43.110143 5.87655934"></polygon>
                    <polygon id="Fill-16" points="40.7966492 8.19005309 43.8282892 11.2216931 44.2197172 10.8298368 41.1880772 7.79862507"></polygon>
                    <polygon id="Fill-18" points="38.8386954 10.1480069 40.6116845 11.9209959 41.0031125 11.5295679 39.2301235 9.75657884"></polygon>
                    <polygon id="Fill-20" points="36.9165869 12.0701154 39.9482268 15.1017554 40.3396549 14.7098991 37.3080149 11.6786874"></polygon>
                    <polygon id="Fill-22" points="34.9586331 14.0280692 36.7316222 15.8010582 37.1230502 15.409202 35.3500611 13.6366412"></polygon>
                    <polygon id="Fill-24" points="33.0365674 15.9501349 36.0682073 18.9817749 36.4596354 18.5899186 33.4279954 15.5587069"></polygon>
                    <polygon id="Fill-26" points="31.0785708 17.9081315 32.8515598 19.6811206 33.2429878 19.2892643 31.4699988 17.5167035"></polygon>
                    <polygon id="Fill-28" points="29.1565051 19.8301972 32.188145 22.8618372 32.579573 22.4699809 29.5479331 19.4387692"></polygon>
                    <polygon id="Fill-30" points="27.1985085 21.788151 28.9714975 23.5611401 29.3629255 23.1692838 27.5899365 21.396723"></polygon>
                    <polygon id="Fill-32" points="25.2764427 23.7102596 28.3080827 26.7414713 28.6995107 26.3500433 25.6678707 23.3188316"></polygon>
                    <polygon id="Fill-34" points="23.318489 25.6682133 25.091478 27.4412024 25.482906 27.0493461 23.709917 25.2767853"></polygon>
                    <polygon id="Fill-36" points="21.3963804 27.5902791 24.4280204 30.621919 24.8194484 30.2300628 21.7878084 27.1988511"></polygon>
                    <polygon id="Fill-38" points="19.4384266 29.5482757 21.2114157 31.3212647 21.6028437 30.9294084 19.8298546 29.1568477"></polygon>
                    <polygon id="Fill-40" points="17.5163609 31.4703414 20.5480009 34.5019814 20.9394289 34.1101251 17.9077889 31.0789134"></polygon>
                    <polygon id="Fill-42" points="15.5583643 33.4282952 17.3313533 35.2012842 17.7227814 34.8094279 15.9497923 33.0368672"></polygon>
                    <polygon id="Fill-44" points="13.6362986 35.3504037 16.6679385 38.3820437 17.0593665 37.9901874 14.0277266 34.9589757"></polygon>
                    <polygon id="Fill-46" points="11.678302 37.3083575 13.451291 39.0813466 13.842719 38.6894903 12.06973 36.9169295"></polygon>
                    <polygon id="Fill-48" points="9.75623624 39.2304232 12.7878762 42.2620632 13.1793042 41.8702069 10.1476643 38.8389952"></polygon>
                    <polygon id="Fill-50" points="7.79828247 41.188377 9.57127151 42.9613661 9.96269953 42.569938 8.18971048 40.796949"></polygon>
                    <polygon id="Fill-52" points="5.87617391 43.1104856 8.90781387 46.1421255 9.29924189 45.7502693 6.26760192 42.7190576"></polygon>
                    <polygon id="Fill-54" points="3.91822014 45.0684393 5.69120918 46.8414284 6.0826372 46.4495721 4.30964815 44.6770113"></polygon>
                    <polygon id="Fill-56" points="1.9961544 46.9905051 5.02779437 50.022145 5.41922238 49.6302888 2.38758242 46.5990771"></polygon>
                    <polygon id="Fill-58" points="0.0381578077 48.9485017 1.81114685 50.7214907 2.20257487 50.3296344 0.429585824 48.5570737"></polygon>
                </g>
            </g>
            <g id="eye" transform="translate(68.941983, 324.699342) rotate(-15.000000) translate(-68.941983, -324.699342) translate(48.941983, 310.699342)">
                <path d="M38.2915287,14.3682976 L38.1408678,14.5988829 C28.1155805,29.9858585 11.7090287,29.9858585 1.68233333,14.5988829 L1.68233333,14.5988829 L1.83299425,14.3682976 C11.8582816,-1.01726341 28.2648333,-1.01726341 38.2915287,14.3682976 L38.2915287,14.3682976 Z" id="Fill-1"></path>
                <path d="M27.9744943,11.1401024 C27.9744943,15.7574683 24.2488046,19.4991756 19.6543506,19.4991756 C15.0584885,19.4991756 11.3342069,15.7574683 11.3342069,11.1401024 C11.3342069,6.52273659 15.0584885,2.78102927 19.6543506,2.78102927 C24.2488046,2.78102927 27.9744943,6.52273659 27.9744943,11.1401024" id="Fill-3" fill="#C5CACA"></path>
                <g id="Group-7" transform="translate(0.000000, 0.675488)" fill="#C5CACA">
                    <path d="M3.37635345,13.9184439 C7.89054885,20.4597122 13.7339397,24.048639 19.9124454,24.048639 C26.1585374,24.048639 32.0638822,20.379078 36.5977902,13.697761 C32.0835948,7.15649268 26.238796,3.56898049 20.0631063,3.56898049 C13.8156063,3.56898049 7.91026149,7.23712683 3.37635345,13.9184439 M19.9124454,26.8779073 C12.5145718,26.8779073 5.62218678,22.5533707 0.503939655,14.699322 L-0.000140804598,13.9241024 L0.654600575,12.9182976 C5.7728477,5.06424878 12.6652328,0.739712195 20.0631063,0.739712195 C27.4595718,0.739712195 34.3519569,5.06424878 39.468796,12.9168829 L39.9742845,13.6921024 L39.3195431,14.6979073 C34.201296,22.5533707 27.3089109,26.8779073 19.9124454,26.8779073" id="Fill-5"></path>
                </g>
            </g>
            <g id="light-bulb" transform="translate(137.000000, 0.000000)">
                <g id="lightbulb" transform="translate(0.000000, 25.000000)">
                    <g id="Group">
                        <path d="M70.5053499,34.6231629 C70.5053499,15.5048818 54.7217659,0 35.2526749,0 C15.783584,0 0,15.5048818 0,34.6231629 C0,49.2970888 9.30991097,61.814936 22.4335204,66.8478848 L22.4335204,75.5414463 L48.0718295,75.5414463 L48.0718295,66.8478848 C61.1954389,61.814936 70.5053499,49.2970888 70.5053499,34.6231629 L70.5053499,34.6231629 Z" id="Shape" fill="#EFC75E"></path>
                        <path d="M70.5053499,34.6231629 C70.5053499,15.5048818 54.7217659,0 35.2526749,0 C15.783584,0 0,15.5048818 0,34.6231629 C0,49.2970888 9.30991097,61.814936 22.4335204,66.8478848 L22.4335204,75.5414463 L48.0718295,75.5414463 L48.0718295,66.8478848 C61.1954389,61.814936 70.5053499,49.2970888 70.5053499,34.6231629 L70.5053499,34.6231629 Z" id="Shape" fill="#FFC500"></path>
                    </g>
                    <path d="M29.0514089,44.3396814 C29.4936698,44.3554192 29.945545,44.3617143 30.4166489,44.3491241 C32.2145353,44.3019107 33.8521823,43.8832852 35.2558797,43.1373134 C36.6595771,43.8801376 38.3004289,44.2987631 40.0951106,44.3491241 C40.5630097,44.3617143 41.0148849,44.3554192 41.4539409,44.3396814 C40.2072782,54.3741035 39.1945649,68.3870418 39.133674,69.1676368 L40.4476373,69.2400306 L30.0577126,69.2400306 L31.3716759,69.1676368 C31.3171945,68.3870418 30.3012765,54.3741035 29.0514089,44.3396814 L29.0514089,44.3396814 Z M34.3553341,34.8560823 C34.4995496,34.657786 34.675813,34.522441 35.0635924,34.522441 C35.0956403,34.522441 35.1276882,34.5255885 35.1565313,34.5255885 L35.2622893,34.5318836 L35.3552282,34.5255885 C35.8135129,34.5035556 35.9993907,34.6420482 36.1564253,34.8560823 C36.6050957,35.4950371 36.6243245,36.9429148 35.8006938,38.3750547 C35.6660927,38.6048266 35.4866245,38.8755168 35.2558797,39.1525021 C35.0251349,38.8755168 34.842462,38.6079742 34.7078609,38.3750547 C33.8778206,36.9429148 33.9066637,35.4950371 34.3553341,34.8560823 L34.3553341,34.8560823 Z M42.4698589,69.208555 C42.5820265,67.6095944 43.6396068,53.4203928 44.8670408,43.8612522 C48.0526007,43.0554768 49.9722691,41.3683845 50.7734663,39.7348007 C51.7124693,37.8242317 51.3439186,35.7814651 49.776777,34.2769313 C48.3153934,32.8636767 46.8764433,32.9738413 46.1457515,33.16899 C43.7966414,33.7890594 42.6941941,36.6470441 42.4890877,37.6007549 C42.2775716,38.5985315 42.0628508,39.8512605 41.8577443,41.2708102 C41.3385685,41.3117284 40.7809353,41.3274662 40.1848446,41.3085809 C39.3227565,41.2896955 38.5824503,41.1543504 37.9479022,40.9466114 C38.2427427,40.5877896 38.511945,40.2037872 38.7490993,39.797752 C40.0758818,37.5031805 40.1592063,34.9221811 38.9606154,33.219351 C38.1465991,32.0610488 36.7941783,31.4378319 35.2590845,31.4881929 C33.704762,31.4346843 32.37157,32.0610488 31.5575536,33.219351 C30.3557579,34.9221811 30.4390824,37.5031805 31.7658649,39.797752 C32.0030193,40.2037872 32.2722215,40.5877896 32.5670621,40.9466114 C31.9293091,41.1543504 31.1857982,41.2896955 30.3269148,41.3085809 C29.7308241,41.3274662 29.1731909,41.3117284 28.6540151,41.2708102 C28.4489087,39.8512605 28.2341878,38.5985315 28.0258766,37.6007549 C27.8239749,36.6470441 26.7215276,33.7890594 24.3724175,33.16899 C23.6385209,32.9738413 22.1995708,32.8605291 20.741392,34.2769313 C19.1774552,35.7846126 18.8056997,37.8242317 19.7447028,39.7348007 C20.5458999,41.3683845 22.4623635,43.0554768 25.6479234,43.8612522 C26.8753575,53.4172452 27.9329377,67.6032993 28.0419005,69.208555 L42.4698589,69.208555 Z M45.3445543,40.4807725 C45.4823602,39.6120459 45.6233709,38.8377461 45.7611769,38.1830535 C45.9214163,37.4276391 46.6777464,36.2126808 46.9822013,36.0867784 C46.9822013,36.0867784 47.1135977,36.1276967 47.3539568,36.3606161 C47.972481,36.9586526 48.1038773,37.7203622 47.7289171,38.494662 C47.3892095,39.1839777 46.6136506,39.9299495 45.3445543,40.4807725 L45.3445543,40.4807725 Z M25.1672051,40.4807725 C23.8981088,39.9268019 23.1193452,39.1839777 22.7828424,38.494662 C22.4014725,37.7203622 22.5328689,36.9618002 23.1578026,36.3574686 C23.3404756,36.1843528 23.4526432,36.1214016 23.4654624,36.0962211 C23.8660609,36.2693369 24.5935479,37.4433769 24.7473778,38.179906 C24.8915933,38.8377461 25.0293992,39.6088983 25.1672051,40.4807725 L25.1672051,40.4807725 Z" id="Shape" fill="#FDEBA1"></path>
                    <path d="M33.6502806,84.9841271 L36.8550692,84.9841271 C41.2808823,84.9841271 44.8670408,88.506247 44.8670408,92.8530277 C44.8670408,97.1998084 41.2808823,100.721928 36.8550692,100.721928 L33.6502806,100.721928 C29.2244675,100.721928 25.638309,97.1998084 25.638309,92.8530277 C25.638309,88.506247 29.2244675,84.9841271 33.6502806,84.9841271 L33.6502806,84.9841271 Z" id="Shape" fill="#C5CACA"></path>
                    <path d="M25.638309,69.2463258 L44.8670408,69.2463258 C48.4051275,69.2463258 51.2766181,72.0665398 51.2766181,75.5414463 L51.2766181,88.1316873 C51.2766181,91.6065939 48.4051275,94.4268079 44.8670408,94.4268079 L25.638309,94.4268079 C22.1002224,94.4268079 19.2287318,91.6065939 19.2287318,88.1316873 L19.2287318,75.5414463 C19.2287318,72.0665398 22.1002224,69.2463258 25.638309,69.2463258 L25.638309,69.2463258 Z" id="Shape" fill="#D0D4D4"></path>
                    <g id="Group" transform="translate(19.228732, 75.541446)">
                        <path d="M0,12.590241 L32.0478863,12.590241 L32.0478863,9.44268079 L0,9.44268079 L0,12.590241 L0,12.590241 Z M0,0 L0,3.14756026 L32.0478863,3.14756026 L32.0478863,0 L0,0 L0,0 Z" id="Shape" fill="#E4E7E7"></path>
                        <path d="M0,12.590241 L32.0478863,12.590241 L32.0478863,9.44268079 L0,9.44268079 L0,12.590241 L0,12.590241 Z M0,0 L0,3.14756026 L32.0478863,3.14756026 L32.0478863,0 L0,0 L0,0 Z" id="Shape" fill="#F2F2F2"></path>
                    </g>
                </g>
                <g id="shine" transform="translate(35.761828, 9.018306) rotate(-180.000000) translate(-35.761828, -9.018306) translate(12.261828, 0.018306)" stroke="#CDEEF7" stroke-width="2" fill="#CDEEF7">
                    <path d="M1.20127557,13.2342548 C1.06076848,13.2342548 0.917859564,13.2160785 0.778553389,13.1788604 C0.157680179,13.0100804 -0.155758714,12.5106648 0.0772188538,12.0631814 L6.08179535,0.560176436 C6.31477292,0.112693096 7.00890196,-0.111481343 7.62857426,0.0547020252 C8.24944747,0.223482008 8.56288636,0.72289765 8.32990879,1.17038099 L2.3253323,12.673386 C2.14399408,13.0196013 1.68644536,13.2342548 1.20127557,13.2342548" id="Fill-1"></path>
                    <path d="M45.6351417,13.2342548 C45.1499719,13.2342548 44.6924232,13.0196013 44.5110849,12.673386 L38.5065085,1.17038099 C38.2735309,0.72289765 38.5869698,0.223482008 39.207843,0.0547020252 C39.8251134,-0.111481343 40.5216443,0.112693096 40.7546219,0.560176436 L46.7591984,12.0631814 C46.992176,12.5106648 46.6787371,13.0100804 46.0578639,13.1788604 C45.9185577,13.2160785 45.7756488,13.2342548 45.6351417,13.2342548" id="Fill-3"></path>
                    <path d="M15.6140605,17.3105078 C15.5600194,17.3105078 15.5047773,17.3079112 15.4495351,17.302718 C14.7926345,17.2378026 14.3326839,16.8015713 14.4227526,16.3281218 L16.7885557,3.82455441 C16.8774234,3.35110492 17.4862875,3.0213348 18.1407863,3.08365357 C18.7964861,3.14856894 19.2576376,3.58480028 19.1675689,4.05824977 L16.8017658,16.5618171 C16.7201035,16.9954519 16.2049109,17.3105078 15.6140605,17.3105078" id="Fill-5"></path>
                    <path d="M31.2223567,17.3105078 C30.6315064,17.3105078 30.1163137,16.9963174 30.0346515,16.5618171 L27.6688483,4.05824977 C27.5787797,3.58480028 28.0399312,3.14856894 28.6956309,3.08365357 C29.3489288,3.0213348 29.9589938,3.35023938 30.0478615,3.82455441 L32.4136647,16.3281218 C32.5037333,16.8015713 32.0437828,17.2378026 31.3868821,17.302718 C31.33164,17.3079112 31.2763979,17.3105078 31.2223567,17.3105078" id="Fill-7"></path>
                </g>
            </g>
            <g id="color-palette-copy-2" transform="translate(23.080684, 243.909111) scale(-1, -1) rotate(-15.000000) translate(-23.080684, -243.909111) translate(5.080684, 221.909111)">
                <g id="Layer_1" transform="translate(-0.000000, 0.000000)">
                    <g id="Group" transform="translate(-0.000000, 0.000000)">
                        <g transform="translate(-0.000000, 0.000000)">
                            <g transform="translate(5.588880, 4.439993)">
                                <path d="M4.05330897,3.79672144 C3.25339396,4.70647062 1.85188081,4.80749318 0.927325299,4.01733289 C0.00387770436,3.22826472 -0.0963886512,1.84562072 0.703526362,0.935871542 C1.50344138,0.0250302301 2.90550848,-0.0743541336 3.82951003,0.715260097 C4.75295763,1.50323612 4.85377794,2.88588013 4.05330897,3.79672144 L4.05330897,3.79672144 Z" id="Shape" fill="#406A80"></path>
                                <ellipse id="Oval" fill="#335466" cx="2.37869464" cy="2.36602346" rx="1.6618733" ry="1.6382038"></ellipse>
                            </g>
                            <g transform="translate(1.671761, -0.000000)">
                                <path d="M17.948526,7.96859498 L33.424998,30.6113018 C34.4464962,32.1053437 34.042107,34.1520063 32.5259246,35.1589555 L25.1743511,40.0413489 C23.6587226,41.0482982 21.5824889,40.6485765 20.5609908,39.1550807 L5.08451876,16.5112817 L17.948526,7.96859498 L17.948526,7.96859498 Z" id="Shape" fill="#CDEEF7"></path>
                                <path d="M5.08507272,16.5118278 L17.948526,7.96859498 L13.1631268,0.586372343 C12.1416287,-0.907669521 0.411885011,3.81192588 0.411885011,3.81192588 C-1.10374343,4.82051335 3.43206275,6.86608382 4.45356087,8.36012569 L5.08507272,16.5118278 Z" id="Shape" fill="#C3C6CA"></path>
                                <path d="M7.53390935,8.61732368 C6.52072059,9.29007938 5.14136576,9.0257825 4.45778188,8.02647818 C3.77530591,7.02717386 4.04397543,5.66746471 5.05771814,4.99416295 C6.07090689,4.32140726 7.45081568,4.58570414 8.13329165,5.58610059 C8.81632157,6.58431277 8.5470981,7.94402192 7.53390935,8.61732368 L7.53390935,8.61732368 Z" id="Shape" fill="#406A80"></path>
                                <ellipse id="Oval" fill="#335466" cx="6.29581374" cy="6.80492421" rx="1.6618733" ry="1.6382038"></ellipse>
                            </g>
                            <path d="M27.7359397,36.0179204 C28.3591422,37.7118231 27.4645004,39.6017642 25.7461234,40.2160907 L17.4151526,43.1981676 C15.6967756,43.8135862 13.7806357,42.9322326 13.1563253,41.2377838 L3.70026622,15.5747752 L18.2798806,10.3554579 L27.7359397,36.0179204 Z" id="Shape" fill="#FDEBA1"></path>
                            <path d="M3.70082018,15.5753213 L18.2798806,10.3554579 L14.8758102,0.749321826 C14.2514998,-0.945126969 2.28601205,1.77101493 2.28601205,1.77101493 C0.567635057,2.38697956 1.43679479,4.64194913 2.06110519,6.33585186 L3.70082018,15.5753213 Z" id="Shape" fill="#EEEEEE"></path>
                            <path d="M8.72428085,8.85923178 C7.5759264,9.26987486 6.3023775,8.68449004 5.8852473,7.55139908 C5.4681171,6.41830812 6.06306774,5.16344401 7.21197615,4.75280092 C8.36033059,4.3410657 9.6338795,4.92699659 10.0510097,6.06063362 C10.4675859,7.19208638 9.87263529,8.44749656 8.72428085,8.85923178 L8.72428085,8.85923178 Z" id="Shape" fill="#406A80"></path>
                            <ellipse id="Oval" fill="#335466" cx="7.96757454" cy="6.80492421" rx="1.6618733" ry="1.6382038"></ellipse>
                            <path d="M15.7540049,13.3675686 L15.7540049,40.6622282 C15.7540049,42.4637063 14.2272973,43.9473729 12.3992367,43.9473729 L3.53591242,43.9473729 C1.70785179,43.9473729 0.243187459,42.4637063 0.243187459,40.6622282 L0.243187459,13.3675686 L15.7540049,13.3675686 L15.7540049,13.3675686 Z" id="Shape" fill="#E56B6B"></path>
                            <path d="M0.243187459,3.52960875 L0.243187459,13.3675686 L15.7540049,13.3675686 L15.7540049,3.52960875 C15.7540049,1.72758458 14.2272973,0.261938246 12.3992367,0.261938246 L3.53591242,0.261938246 C1.70785179,0.261938246 0.243187459,1.72758458 0.243187459,3.52960875 L0.243187459,3.52960875 Z" id="Shape" fill="#FFFFFF"></path>
                            <path d="M7.96757454,8.99028808 C6.74554371,8.99028808 5.75174348,8.01009614 5.75174348,6.80601635 C5.75174348,5.60084442 6.74554371,4.62174462 7.96757454,4.62174462 C9.18960537,4.62174462 10.1834056,5.60084442 10.1834056,6.80601635 C10.1834056,8.01009614 9.18905141,8.99028808 7.96757454,8.99028808 L7.96757454,8.99028808 Z" id="Shape" fill="#296693"></path>
                            <ellipse id="Oval" fill="#2A2A2F" cx="7.96757454" cy="6.80601635" rx="1.6618733" ry="1.6382038"></ellipse>
                        </g>
                    </g>
                </g>
            </g>
        </g>
    </g>
</svg>