<?xml version="1.0" encoding="UTF-8"?>
<svg width="343px" height="233px" viewBox="0 0 343 233" version="1.1" xmlns="http://www.w3.org/2000/svg" xmlns:xlink="http://www.w3.org/1999/xlink">
    <!-- Generator: Sketch 39.1 (31720) - http://www.bohemiancoding.com/sketch -->
    <title>service-ui</title>
    <desc>Created with Sketch.</desc>
    <defs>
        <polygon id="path-1" points="187.625502 181.365941 187.625502 0.0746070275 0.149762244 0.0746070275 0.149762244 181.365941 187.625502 181.365941"></polygon>
    </defs>
    <g id="服務" stroke="none" stroke-width="1" fill="none" fill-rule="evenodd">
        <g id="service-ui" transform="translate(172.000000, 115.500000) rotate(-90.000000) translate(-172.000000, -115.500000) translate(57.500000, -55.500000)">
            <g id="space">
                <g id="Group-5" transform="translate(40.681727, 47.939759)">
                    <mask id="mask-2" fill="white">
                        <use xlink:href="#path-1"></use>
                    </mask>
                    <g id="Clip-4"></g>
                </g>
                <g id="circle" transform="translate(0.000000, 2.000000)" stroke="#FFFFFF" stroke-width="5" stroke-linecap="round" opacity="0.595848881" stroke-linejoin="bevel">
                    <ellipse id="Oval-449-Copy-3" cx="113.625938" cy="112" rx="78.6641106" ry="77.5384615"></ellipse>
                    <ellipse id="Oval-449-Copy" cx="113.625937" cy="112" rx="96.145024" ry="94.7692308"></ellipse>
                    <ellipse id="Oval-449-Copy-2" cx="113.625938" cy="112" rx="113.625938" ry="112"></ellipse>
                </g>
                <g id="star" transform="translate(2.000000, 0.000000)">
                    <path d="M211.02008,34.3960843 C211.02008,47.0614869 200.75476,57.3268072 188.089357,57.3268072 C175.423955,57.3268072 165.158635,47.0614869 165.158635,34.3960843 C165.158635,21.7306817 175.423955,11.4653614 188.089357,11.4653614 C200.75476,11.4653614 211.02008,21.7306817 211.02008,34.3960843" id="Fill-10" fill="#296693"></path>
                    <path d="M77.2575301,61.1485944 C77.2575301,69.5909222 70.4127093,76.435743 61.9703815,76.435743 C53.5280537,76.435743 46.6832329,69.5909222 46.6832329,61.1485944 C46.6832329,52.7062666 53.5280537,45.8614458 61.9703815,45.8614458 C70.4127093,45.8614458 77.2575301,52.7062666 77.2575301,61.1485944" id="Fill-12" fill="#E56B6B"></path>
                    <path d="M46.6832329,191.089357 C46.6832329,199.531685 39.8384121,206.376506 31.3960843,206.376506 C22.9537565,206.376506 16.1089357,199.531685 16.1089357,191.089357 C16.1089357,182.64703 22.9537565,175.802209 31.3960843,175.802209 C39.8384121,175.802209 46.6832329,182.64703 46.6832329,191.089357" id="Fill-14" fill="#FDEBA1"></path>
                    <path d="M211.02008,214.02008 C211.02008,216.129707 209.30792,217.841867 207.198293,217.841867 C205.088667,217.841867 203.376506,216.129707 203.376506,214.02008 C203.376506,211.910454 205.088667,210.198293 207.198293,210.198293 C209.30792,210.198293 211.02008,211.910454 211.02008,214.02008" id="Fill-26" fill="#FFC500"></path>
                    <path d="M222.485442,191.089357 C222.485442,193.198984 220.773281,194.911145 218.663655,194.911145 C216.554028,194.911145 214.841867,193.198984 214.841867,191.089357 C214.841867,188.979731 216.554028,187.26757 218.663655,187.26757 C220.773281,187.26757 222.485442,188.979731 222.485442,191.089357" id="Fill-28" fill="#FFC500"></path>
                    <path d="M19.9307229,34.3960843 C19.9307229,36.5057108 18.2185622,38.2178715 16.1089357,38.2178715 C13.9993092,38.2178715 12.2871486,36.5057108 12.2871486,34.3960843 C12.2871486,32.2864578 13.9993092,30.5742972 16.1089357,30.5742972 C18.2185622,30.5742972 19.9307229,32.2864578 19.9307229,34.3960843" id="Fill-30" fill="#FFC500"></path>
                    <path d="M16.1089357,7.6435743 C16.1089357,9.7532008 14.3967751,11.4653614 12.2871486,11.4653614 C10.1775221,11.4653614 8.46536145,9.7532008 8.46536145,7.6435743 C8.46536145,5.53394779 10.1775221,3.82178715 12.2871486,3.82178715 C14.3967751,3.82178715 16.1089357,5.53394779 16.1089357,7.6435743" id="Fill-32" fill="#FFC500"></path>
                    <path d="M46.6832329,7.6435743 C46.6832329,9.7532008 44.9710723,11.4653614 42.8614458,11.4653614 C40.7518193,11.4653614 39.0396586,9.7532008 39.0396586,7.6435743 C39.0396586,5.53394779 40.7518193,3.82178715 42.8614458,3.82178715 C44.9710723,3.82178715 46.6832329,5.53394779 46.6832329,7.6435743" id="Fill-34" fill="#FFC500"></path>
                    <path d="M8.46536145,217.841867 C8.46536145,219.951494 6.7532008,221.663655 4.6435743,221.663655 C2.53394779,221.663655 0.821787149,219.951494 0.821787149,217.841867 C0.821787149,215.732241 2.53394779,214.02008 4.6435743,214.02008 C6.7532008,214.02008 8.46536145,215.732241 8.46536145,217.841867" id="Fill-36" fill="#FFC500"></path>
                    <path d="M172.802209,3.82178715 C172.802209,5.93141365 171.090048,7.6435743 168.980422,7.6435743 C166.870795,7.6435743 165.158635,5.93141365 165.158635,3.82178715 C165.158635,1.71216064 166.870795,0 168.980422,0 C171.090048,0 172.802209,1.71216064 172.802209,3.82178715" id="Fill-38" fill="#FFC500"></path>
                    <path d="M123.118976,22.9307229 C123.118976,25.0403494 121.406815,26.75251 119.297189,26.75251 C117.187562,26.75251 115.475402,25.0403494 115.475402,22.9307229 C115.475402,20.8210964 117.187562,19.1089357 119.297189,19.1089357 C121.406815,19.1089357 123.118976,20.8210964 123.118976,22.9307229" id="Fill-40" fill="#FFC500"></path>
                    <path d="M203.376506,156.693273 C203.376506,158.8029 201.664345,160.51506 199.554719,160.51506 C197.445092,160.51506 195.732932,158.8029 195.732932,156.693273 C195.732932,154.583647 197.445092,152.871486 199.554719,152.871486 C201.664345,152.871486 203.376506,154.583647 203.376506,156.693273" id="Fill-42" fill="#FFC500"></path>
                    <path d="M23.75251,110.831827 C23.75251,112.941454 22.0403494,114.653614 19.9307229,114.653614 C17.8210964,114.653614 16.1089357,112.941454 16.1089357,110.831827 C16.1089357,108.722201 17.8210964,107.01004 19.9307229,107.01004 C22.0403494,107.01004 23.75251,108.722201 23.75251,110.831827" id="Fill-44" fill="#FFC500"></path>
                </g>
            </g>
            <g id="hand_phone" transform="translate(50.000000, 73.000000)">
                <g id="Group-26" transform="translate(8.000000, 0.000000)">
                    <path d="M119.492675,43.463272 C120.823505,48.4269169 117.031687,53.9531716 111.065914,55.7450706 L91.4993163,61.6231546 C85.5345415,63.4145253 79.5637765,60.8201809 78.2339447,55.8565361 C76.9011177,50.894476 80.6929354,45.3671648 86.6577103,43.5752657 L106.227303,37.6971818 C112.192078,35.905811 118.160846,38.5006837 119.492675,43.463272 L119.492675,43.463272 Z" id="Fill-3" fill="#BFA072"></path>
                    <path d="M108.580766,25.2373555 C109.759345,29.6283534 106.404814,34.5175119 101.126919,36.1028565 L83.8156441,41.3021108 C78.5377493,42.8874554 73.2563603,40.5931696 72.0792794,36.2021717 C70.9012002,31.8111738 74.2547325,26.9220153 79.5326272,25.3361424 L96.8449007,20.1353033 C102.122296,18.5510152 107.403186,20.8458293 108.580766,25.2373555" id="Fill-5" fill="#FDD7AD"></path>
                    <path d="M119.492675,43.463272 C120.823505,48.4269169 117.031687,53.9531716 111.065914,55.7450706 L91.4993163,61.6231546 C85.5345415,63.4145253 79.5637765,60.8201809 78.2339447,55.8565361 C76.9011177,50.894476 80.6929354,45.3671648 86.6577103,43.5752657 L106.227303,37.6971818 C112.192078,35.905811 118.160846,38.5006837 119.492675,43.463272" id="Fill-7" fill="#FDD7AD"></path>
                    <path d="M114.683117,66.2950347 C115.847219,70.6374316 112.530626,75.4721781 107.310138,77.040618 L90.1915486,82.1822906 C84.9725578,83.749674 79.7490743,81.4802169 78.5854715,77.1372918 C77.4198719,72.7964798 80.7374628,67.9601485 85.9554552,66.3927651 L103.07704,61.2489794 C108.295032,59.6821243 113.518016,61.9521096 114.683117,66.2950347" id="Fill-9" fill="#FDD7AD"></path>
                    <path d="M109.946739,87.243296 C110.962583,91.0336485 108.066804,95.2540145 103.510733,96.6232959 L88.5675963,101.112024 C84.0125231,102.479721 79.4524579,100.4987 78.4356158,96.7078194 C77.4187737,92.9179952 80.3145524,88.6971009 84.8701248,87.3283478 L99.8157569,82.8385631 C104.37083,81.4703383 108.929897,83.4524153 109.946739,87.243296" id="Fill-11" fill="#FDD7AD"></path>
                    <g id="phone" transform="translate(24.447097, 0.000000)">
                        <path d="M69.109704,130.382686 C69.1089169,135.57633 65.336239,139.78483 60.6859196,139.78483 L8.5516516,139.769166 C3.90054507,139.767518 0.132589923,135.553247 0.134164168,130.360428 L0.164861943,10.3155404 C0.166436188,5.12189692 3.93832695,0.909274948 8.58864635,0.9125725 L60.7229144,0.929884645 C65.3724467,0.931533421 69.1435503,5.14250662 69.1411889,10.3386233 L69.109704,130.382686 Z" id="Fill-55" fill="#2A2A2F"></path>
                        <path d="M44.4360129,7.19465532 C44.4360129,7.93742878 43.851968,8.54005631 43.131751,8.53840753 L26.1755593,8.53181243 C25.4545551,8.53181243 24.8720845,7.93165807 24.8720845,7.18970899 C24.8720845,6.44611114 25.4561294,5.84513239 26.1763464,5.84513239 L43.131751,5.85007872 C43.851968,5.85172749 44.4360129,6.45270624 44.4360129,7.19465532" id="Fill-57" fill="#576A72"></path>
                        <polygon id="Fill-56" fill="#FFFFFF" points="64.6998505 119.878171 4.54952752 119.85921 4.57786393 12.3623306 64.7273998 12.3821159"></polygon>
                        <path d="M43.9279254,8.25894005 C43.7083182,8.43453466 43.4312511,8.53840753 43.1313574,8.53840753 L26.1751657,8.53181243 C25.4541616,8.53181243 24.871691,7.93165807 24.871691,7.18970899 C24.871691,6.44611114 25.4557358,5.84513239 26.1759528,5.84513239 C26.1759528,5.84513239 25.6808528,6.46177451 25.8807819,7.18970899 C26.0814982,7.91846786 28.086299,7.97287746 28.9899156,7.97287746 C29.8919579,7.97452623 43.9279254,8.25894005 43.9279254,8.25894005" id="Fill-58" fill="#2C404D"></path>
                        <path d="M39.6579435,129.731337 C39.6587306,126.60361 37.3886695,124.065319 34.5896621,124.065319 C31.7898676,124.065319 29.5182322,126.600312 29.5174451,129.72804 C29.5158708,132.855767 31.7867191,135.392409 34.5865136,135.392409 C37.3870953,135.392409 39.6571564,132.859065 39.6579435,129.731337" id="Fill-59" fill="#1D1E27"></path>
                        <path d="M38.9192291,129.731337 C38.9192291,127.058672 36.9813336,124.893005 34.5892685,124.893005 C32.1964163,124.891356 30.2569466,127.055374 30.2561595,129.72804 C30.2561595,132.399881 32.1940549,134.564723 34.5869072,134.564723 C36.9789723,134.568021 38.918442,132.403178 38.9192291,129.731337" id="Fill-60" fill="#2A2A2F"></path>
                        <polygon id="Fill-65" fill="#CDEEF7" points="8.28560421 73.6056926 59.1848771 73.6056926 59.1848771 51.9523211 8.28560421 51.9523211"></polygon>
                        <polygon id="Fill-66" fill="#D0D4D4" points="8.28560421 102.601062 30.9492208 102.601062 30.9492208 78.8644628 8.28560421 78.8644628"></polygon>
                        <polygon id="Fill-67" fill="#D0D4D4" points="36.5212606 102.601062 59.1848771 102.601062 59.1848771 78.8644628 36.5212606 78.8644628"></polygon>
                        <path d="M59.070036,108.800459 C59.070036,109.898544 58.5103919,110.789707 57.8192984,110.789707 L9.53484624,110.789707 C8.84453986,110.789707 8.2848958,109.898544 8.2848958,108.800459 C8.2848958,107.702375 8.84453986,106.812036 9.53484624,106.812036 L57.8192984,106.812036 C58.5103919,106.812036 59.070036,107.702375 59.070036,108.800459" id="Fill-69" fill="#D0D5D4"></path>
                        <path d="M53.29728,20.3840367 C53.29728,21.7500474 52.2393874,22.8588491 50.9343384,22.8588491 L18.3427464,22.8588491 C17.0376974,22.8588491 15.9805919,21.7500474 15.9805919,20.3840367 C15.9805919,19.0188504 17.0376974,17.9100487 18.3427464,17.9100487 L50.9343384,17.9100487 C52.2393874,17.9100487 53.29728,19.0188504 53.29728,20.3840367" id="Fill-70" fill="#FFC500"></path>
                        <path d="M53.29728,27.1304972 C53.29728,27.8139147 52.2393874,28.3679034 50.9343384,28.3679034 L18.3427464,28.3679034 C17.0376974,28.3679034 15.9805919,27.8139147 15.9805919,27.1304972 C15.9805919,26.4479041 17.0376974,25.8947398 18.3427464,25.8947398 L50.9343384,25.8947398 C52.2393874,25.8947398 53.29728,26.4479041 53.29728,27.1304972" id="Fill-71" fill="#D0D5D4"></path>
                        <path d="M59.6896588,42.3333635 C59.6896588,43.3119119 58.5459698,44.104973 57.1378078,44.104973 L49.4523442,44.104973 C48.0433951,44.104973 46.9004933,43.3119119 46.9004933,42.3333635 C46.9004933,41.3548151 48.0433951,40.561754 49.4523442,40.561754 L57.1378078,40.561754 C58.5459698,40.561754 59.6896588,41.3548151 59.6896588,42.3333635" id="Fill-72" fill="#C3C6CA"></path>
                        <path d="M40.3820175,42.3333635 C40.3820175,43.3119119 39.2383285,44.104973 37.8293794,44.104973 L30.1447029,44.104973 C28.7349666,44.104973 27.5920648,43.3119119 27.5920648,42.3333635 C27.5920648,41.3548151 28.7349666,40.561754 30.1447029,40.561754 L37.8293794,40.561754 C39.2383285,40.561754 40.3820175,41.3548151 40.3820175,42.3333635" id="Fill-73" fill="#C3C6CA"></path>
                        <path d="M21.0744549,42.3333635 C21.0744549,43.3119119 19.9315531,44.104973 18.5218168,44.104973 L10.8363532,44.104973 C9.42819115,44.104973 8.28528936,43.3119119 8.28528936,42.3333635 C8.28528936,41.3548151 9.42819115,40.561754 10.8363532,40.561754 L18.5218168,40.561754 C19.9315531,40.561754 21.0744549,41.3548151 21.0744549,42.3333635" id="Fill-74" fill="#125688"></path>
                        <path d="M30.1025919,60.7637907 C30.1025919,58.6632505 31.7279997,56.9600651 33.7343748,56.9600651 C35.74075,56.9600651 37.3669449,58.6632505 37.3669449,60.7637907 C37.3669449,62.8651554 33.7343748,68.5979486 33.7343748,68.5979486 C33.7343748,68.5979486 30.1025919,62.8651554 30.1025919,60.7637907" id="Fill-76" fill="#125688"></path>
                        <path d="M32.2494683,33.083979 C32.2494683,33.083979 32.4800952,31.5728761 33.7268972,31.5728761 C34.9744863,31.5728761 35.2059003,33.083979 35.2059003,33.083979 C35.2059003,33.083979 37.0989297,32.8787064 37.0989297,34.1853612 C37.0989297,35.492016 35.1586729,35.2010071 35.1586729,35.2010071 C35.1586729,35.2010071 34.6509789,36.5068374 33.6348038,36.5068374 C32.6186288,36.5068374 32.2494683,35.1037293 32.2494683,35.1037293 C32.2494683,35.1037293 30.3698199,35.3460993 30.3698199,34.1853612 C30.3698199,33.0246231 32.2494683,33.083979 32.2494683,33.083979" id="Fill-77" fill="#E56B6B"></path>
                    </g>
                    <path d="M0.0428800868,102.183518 L12.4796028,75.4677406 L12.4796028,48.632045 C12.4796028,48.632045 10.9176495,38.0222276 19.9604059,38.0222276 C29.0046598,38.0222276 26.9455171,47.3842662 26.9455171,47.3842662 L27.0797982,82.1915882 C27.0797982,82.1915882 51.2269278,99.8432729 35.7651373,139.463682 L71.6720933,139.463682 L51.8159674,161.122839 L4.04785024,161.122839 L0.0428800868,102.183518 Z" id="Fill-23" fill="#FDD7AD"></path>
                </g>
                <g id="Group-28" transform="translate(0.000000, 161.000000)">
                    <path d="M2.1912063e-14,16.462552 C2.41067325e-14,7.37053557 7.27073911,-2.2248504e-15 16.2229035,0 L51.4168144,8.74662075e-15 C60.3764766,1.09733346e-14 67.6397179,7.37098734 67.6397179,16.462552 L67.6397179,107.239241 L0,107.239241 L2.1912063e-14,16.462552" id="Rectangle-345" fill="#59C6E5"></path>
                    <path d="M52.5647504,11.6231353 C54.9082599,11.5687739 56.8527209,13.450834 56.9048602,15.8283714 C56.9602547,18.2052329 55.1029495,20.1760144 52.7590554,20.2318323 C50.4188012,20.2855178 48.4757755,18.403848 48.4222009,16.0259203 C48.3682417,13.649449 50.2226762,11.677887 52.5647504,11.6231353" id="Fill-7" fill="#FFFFFF"></path>
                </g>
            </g>
        </g>
    </g>
</svg>