<?xml version="1.0" encoding="UTF-8"?>
<svg width="296px" height="332px" viewBox="0 0 296 332" version="1.1" xmlns="http://www.w3.org/2000/svg" xmlns:xlink="http://www.w3.org/1999/xlink">
    <!-- Generator: Sketch 39.1 (31720) - http://www.bohemiancoding.com/sketch -->
    <title>service-mvp</title>
    <desc>Created with Sketch.</desc>
    <defs></defs>
    <g id="服務" stroke="none" stroke-width="1" fill="none" fill-rule="evenodd">
        <g id="service-mvp" transform="translate(148.000000, 166.000000) scale(-1, 1) translate(-148.000000, -166.000000) ">
            <path d="M136.493918,331.982384 L70.1446945,331.982384 C68.380911,331.982384 67.3746144,330.224119 68.4306729,328.992368 L75.6737965,303 L130.964816,303 L138.20794,328.992368 C139.263999,330.224119 138.257702,331.982384 136.493918,331.982384" id="Fill-420" fill="#2A2A2F"></path>
            <g id="rocket" transform="translate(25.000000, 129.000000)">
                <polygon id="Fill-22" fill="#125688" transform="translate(77.337102, 166.853275) rotate(-1.000000) translate(-77.337102, -166.853275) " points="99.7374198 174.55283 54.6817196 173.76638 54.9367845 159.153721 99.9924847 159.940171"></polygon>
                <path d="M79.2821752,100.482843 C122.235442,101.045804 156.583334,134.729186 156.000455,175.7242 C155.861797,185.249974 153.830709,194.323322 150.284651,202.641772 C139.363169,174.851055 111.484287,154.892944 78.5092835,154.462797 C45.5325684,154.034365 17.09135,173.253857 5.3849928,200.7481 C2.07687913,192.342249 0.306845731,183.221773 0.442080391,173.693429 C1.02838256,132.699271 36.3263406,99.9215963 79.2821752,100.482843" id="Fill-24" fill="#59C6E5"></path>
                <path d="M105.865214,168.481537 C97.2470005,165.74985 88.0476199,164.195496 78.4810516,164.072965 C68.9136274,163.947005 59.6774425,165.25801 50.9779167,167.765198 C38.4875408,142.775573 31.1882928,110.659398 31.6898593,75.6735811 C32.0594718,49.840899 36.627408,25.6734135 44.3084224,4.87162848 C44.3084222,5.01918766 116.928288,5.01918775 116.928288,5.01918766 C124.184806,26.1954311 128.164224,50.7618651 127.789492,76.9246047 C127.287925,111.911279 119.074559,143.82609 105.865214,168.481537 Z" id="Fill-28" fill="#F6F6F8"></path>
                <ellipse id="Oval" stroke="#D0D4D4" stroke-width="2" stroke-linecap="round" stroke-linejoin="round" stroke-dasharray="4" cx="79.3796065" cy="56.2001031" rx="19.7021576" ry="19.6628895"></ellipse>
                <path d="M116.146716,3.25328972 L118.263395,9.7089142 C118.263395,9.7089142 77.8143607,4.81497449 42.5181145,9.53630325 L45.2195601,2.33130248 C45.2195601,2.33130248 92.6278675,-2.65565458 116.146716,3.25328972 L124.496048,10.4994213" id="Fill-33" fill="#125688"></path>
                <path d="M87.6724588,149.064374 C87.3412194,172.179177 82.864781,192.133003 76.6054705,201.878991 C70.6303239,191.97534 66.7205016,171.910978 67.0525968,148.796175 C67.3829802,125.682229 71.86541,105.725832 78.120441,95.9824144 C84.0972994,105.887779 88.0054099,125.952141 87.6724588,149.064374" id="Fill-35" fill="#59C6E5"></path>
            </g>
            <g id="Group-16" transform="translate(76.000000, 0.000000)">
                <g id="Page-1">
                    <polygon id="Fill-1" fill="#C3C6CA" points="131.076974 57.3779812 122.61765 57.3779812 109.61822 57.3779812 101.158896 57.3779812 88.1610685 57.3779812 79.701745 57.3779812 66.7015136 57.3779812 58.2429912 57.3779812 45.2443622 57.3779812 38.0668757 57.3779812 10.6860347 57.3779812 28.0116651 47.3506619 30.8789744 45.6912927 39.0122306 40.9840212 41.8042319 40.9840212 46.3363271 40.9840212 57.1526286 40.9840212 61.6839226 40.9840212 63.2621845 40.9840212 67.7934786 40.9840212 78.6113823 40.9840212 83.1426763 40.9840212 84.7209382 40.9840212 89.2522323 40.9840212 100.068534 40.9840212 104.599828 40.9840212 106.17809 40.9840212 110.709384 40.9840212 121.527287 40.9840212 126.058581 40.9840212 127.636843 40.9840212 132.168137 40.9840212 135.804549 40.9840212 137.286673 34.8914121 39.0122306 34.8914121 0.156544352 57.3779812 0.156544352 63.4713892 130.33511 63.4713892 131.817235 57.3779812"></polygon>
                    <polygon id="Fill-2" fill="#C3C6CA" points="175.838324 34.8910126 175.838324 40.9844206 185.900745 40.9844206 190.432039 40.9844206 192.010301 40.9844206 196.542396 40.9844206 207.359498 40.9844206 211.891594 40.9844206 213.554777 40.9844206 213.554777 57.3783806 212.981956 57.3783806 208.450662 57.3783806 195.450431 57.3783806 186.991107 57.3783806 175.838324 57.3783806 175.838324 63.4709898 219.665134 63.4709898 219.665134 34.8910126"></polygon>
                    <polygon id="Fill-3" fill="#C3C6CA" points="143.346878 31.8447081 147.878172 31.8447081 159.339398 20.4152738 168.57904 31.8447081 171.031354 31.8447081 171.031354 29.7858759 161.619466 18.1423295 171.031354 8.75654772 171.031354 5.59200213 169.672607 5.59200213 159.595765 15.6400935 151.473725 5.59200213 149.359495 5.59200213 148.896432 7.49664153 157.316499 17.9138367"></polygon>
                    <g id="Group-58" transform="translate(27.239038, 0.048734)">
                        <g id="Group-6" transform="translate(-0.000000, 0.000000)" fill="#C3C6CA">
                            <path d="M150.987509,48.5885976 L148.599286,50.9709947 L148.599286,46.2062005 L150.987509,48.5885976 Z M116.885034,51.2362381 C116.885034,45.3066099 121.704742,40.5002715 127.650062,40.5002715 C133.596184,40.5002715 138.415891,45.3066099 138.415891,51.2362381 C138.415891,57.1650674 133.596184,61.9714058 127.650062,61.9714058 C121.704742,61.9714058 116.885034,57.1650674 116.885034,51.2362381 L116.885034,51.2362381 Z M121.657474,7.44790705 L122.120538,5.54326764 L124.233967,5.54326764 L142.43365,5.54326764 L143.792397,5.54326764 L143.792397,8.70781324 L143.792397,29.7371415 L143.792397,31.7959736 L141.340082,31.7959736 L120.639215,31.7959736 L116.107921,31.7959736 L115.734586,31.7959736 L121.657474,7.44790705 Z M148.599286,55.4897198 L153.253156,50.8479601 L159.752069,57.3288472 L168.211393,57.3288472 L174.711108,50.8479601 L181.211624,57.3288472 L185.742918,57.3288472 L176.976755,48.5885976 L184.652556,40.9356862 L180.120461,40.9356862 L174.711108,46.3292351 L169.302557,40.9356862 L164.771263,40.9356862 L172.445461,48.5885976 L163.982132,57.0284511 L155.518803,48.5885976 L163.193001,40.9356862 L158.661707,40.9356862 L153.253156,46.3292351 L148.599286,41.6866765 L148.599286,34.8422781 L148.599286,0.749712089 L118.339919,0.749712089 L110.047235,34.8422781 L108.565912,40.9356862 L107.855293,43.8541626 L104.9295,40.9356862 L100.398206,40.9356862 L106.971627,47.4908734 L106.266617,50.3885777 L99.6082741,57.0284511 L91.1449448,48.5885976 L98.8199443,40.9356862 L94.2878491,40.9356862 L88.8792978,46.3292351 L83.4707465,40.9356862 L78.9386513,40.9356862 L86.6128496,48.5885976 L78.1495204,57.0284511 L69.6869923,48.5885976 L77.3611906,40.9356862 L72.8290954,40.9356862 L67.4205441,46.3292351 L62.012794,40.9356862 L57.4814999,40.9356862 L65.1548971,48.5885976 L56.692369,57.0284511 L48.2282385,48.5885976 L55.903238,40.9356862 L51.371944,40.9356862 L45.9625915,46.3292351 L40.5540402,40.9356862 L36.0227462,40.9356862 L43.6969445,48.5885976 L35.2336152,57.0284511 L26.770286,48.5885976 L34.4444843,40.9356862 L29.9131902,40.9356862 L24.5046389,46.3292351 L19.0968888,40.9356862 L14.5655948,40.9356862 L22.2389919,48.5885976 L14.4165812,56.3893103 L3.63953602,45.6421588 L0.772226721,47.3023269 L10.8282385,57.3288472 L18.005725,57.3288472 L24.5046389,50.8479601 L31.0035529,57.3288472 L39.4628764,57.3288472 L45.9625915,50.8479601 L52.4631078,57.3288472 L60.9216301,57.3288472 L67.4205441,50.8479601 L73.9202592,57.3288472 L82.3787816,57.3288472 L88.8792978,50.8479601 L95.3790129,57.3288472 L103.837535,57.3288472 L104.814936,56.3549565 L103.096473,63.4222553 L101.755351,68.9348442 L113.830256,68.9348442 L119.940613,68.9348442 L119.940613,72.7880639 L126.439527,79.268951 L119.940613,85.7506371 L119.940613,94.1864959 L126.439527,100.668182 L119.940613,107.149069 L119.940613,115.584928 L126.439527,122.066614 L119.940613,128.547501 L119.940613,136.984159 L126.439527,143.465046 L119.940613,149.945933 L119.940613,158.382591 L126.439527,164.863478 L119.940613,171.344365 L119.940613,179.781023 L126.439527,186.26191 L119.940613,192.743596 L119.940613,196.66073 L119.109022,195.831445 L117.609272,197.326235 L119.940613,197.326235 L119.940613,201.179455 L126.439527,207.661141 L119.940613,214.142028 L119.940613,222.577887 L126.439527,229.059573 L119.940613,235.54046 L119.940613,243.977118 L126.439527,250.458005 L119.940613,256.938892 L119.940613,265.37555 L126.439527,271.856437 L119.940613,278.337324 L119.940613,286.773982 L126.439527,293.254869 L119.940613,299.736555 L119.940613,308.172414 L126.439527,314.653301 L119.940613,321.134987 L119.940609,324.565571 L128.705976,316.913462 L136.379373,324.565575 L136.379373,320.046051 L130.971623,314.653301 L136.379373,309.259752 L136.379373,304.741027 L128.705976,312.393938 L120.242646,303.954085 L128.705976,295.514231 L136.379373,303.166344 L136.379373,298.647619 L130.971623,293.254869 L136.379373,287.86132 L136.379373,283.342595 L128.705976,290.995506 L120.242646,282.555653 L128.705976,274.115799 L136.379373,281.767912 L136.379373,277.249187 L130.971623,271.856437 L136.379373,266.462888 L136.379373,261.944163 L128.705976,269.597074 L120.242646,261.157221 L128.705976,252.717367 L136.379373,260.36948 L136.379373,255.850755 L130.971623,250.458005 L136.379373,245.064456 L136.379373,240.545731 L128.705976,248.198642 L120.242646,239.758789 L128.705976,231.318935 L136.379373,238.971048 L136.379373,234.452323 L130.971623,229.059573 L136.379373,223.666024 L136.379373,219.1465 L128.705976,226.80021 L120.242646,218.360357 L128.705976,209.920503 L136.379373,217.572616 L136.379373,213.053891 L130.971623,207.661141 L136.379373,202.267592 L136.379373,197.748068 L128.705976,205.400979 L120.242646,196.961126 L128.705976,188.521272 L136.379373,196.174184 L136.379373,191.65466 L130.971623,186.26191 L136.379373,180.868361 L136.379373,176.349636 L128.705976,184.002547 L120.242646,175.562694 L128.705976,167.12284 L136.379373,174.774953 L136.379373,170.256228 L130.971623,164.863478 L136.379373,159.469929 L136.379373,154.951204 L128.705976,162.604115 L120.242646,154.164262 L128.705976,145.724408 L136.379373,153.376521 L136.379373,148.857796 L130.971623,143.465046 L136.379373,138.071497 L136.379373,133.552772 L128.705976,141.205683 L120.242646,132.76583 L128.705976,124.325976 L136.379373,131.978089 L136.379373,127.459364 L130.971623,122.066614 L136.379373,116.673065 L136.379373,112.15434 L128.705976,119.807251 L120.242646,111.367398 L128.705976,102.927544 L136.379373,110.579657 L136.379373,106.060932 L130.971623,100.668182 L136.379373,95.274633 L136.379373,90.7551091 L128.705976,98.4080205 L120.242646,89.968167 L128.705976,81.5291125 L136.379373,89.181225 L136.379373,84.661701 L130.971623,79.268951 L136.379373,73.8754021 L136.379373,69.3566771 L128.705976,77.0095885 L120.608771,68.9348442 L136.379373,68.9348442 L142.48973,68.9348442 L148.599286,68.9348442 L148.599286,63.4222553 L148.599286,57.3288472 L148.599286,55.4897198 Z" id="Fill-4"></path>
                            <g id="Group-19" transform="translate(113.682925, 68.531048)">
                                <polygon id="Fill-15" transform="translate(14.479967, 258.944708) rotate(-270.000000) translate(-14.479967, -258.944708) " points="17.5351458 272.481952 17.5351458 271.671087 17.5351458 271.143388 17.5351458 270.504441 17.5351458 270.332523 17.5351458 269.804824 17.5351458 268.993959 17.5351458 268.752923 17.5351458 268.46621 17.5351458 267.655395 17.5351458 267.127646 17.5351458 266.316831 17.5351458 265.789082 17.5351458 264.978217 17.5351458 264.450517 17.5351458 263.639653 17.5351458 263.111953 17.5351458 262.473007 17.5351458 262.301089 17.5351458 261.773389 17.5351458 260.962525 17.5351458 260.721489 17.5351458 260.434775 17.5351458 259.623961 17.5351458 259.096211 17.5351458 258.285396 17.5351458 257.757647 17.5351458 256.946782 17.5351458 256.419083 17.5351458 255.608218 17.5351458 255.080519 17.5351458 254.441573 17.5351458 254.269654 17.5351458 253.741905 17.5351458 252.93109 17.5351458 252.403341 17.5351458 251.592526 17.5351458 251.064777 17.5351458 250.253962 17.5351458 249.726213 17.5351458 248.915348 17.5351458 248.387649 17.5351458 247.576784 17.5351458 247.049085 17.5351458 246.23822 17.5351458 245.710471 17.5351458 244.899656 17.5351458 244.65862 11.4247887 244.65862 11.4247887 252.690055 11.4247887 254.441573 11.4247887 260.721489 11.4247887 262.473007 11.4247887 268.752923 11.4247887 270.504441 11.4247887 273.230796 17.5351458 273.230796 17.5351458 273.009651"></polygon>
                                <polygon id="Fill-9" points="22.6963674 0.404081225 22.6963674 3.16940754 22.6963674 9.20670874 22.6963674 11.735927 22.6963674 12.6173077 22.6963674 15.1465259 22.6963674 21.1838271 22.6963674 23.7130454 22.6963674 24.5944261 22.6963674 27.1236443 22.6963674 33.1609455 22.6963674 35.6906109 22.6963674 36.5715445 22.6963674 39.1007627 22.6963674 45.1380639 22.6963674 47.6677293 22.6963674 48.54911 22.6963674 51.0783283 22.6963674 57.1156295 22.6963674 59.6448477 22.6963674 60.5262284 22.6963674 63.0554467 22.6963674 69.0927479 22.6963674 71.6219661 22.6963674 72.5033468 22.6963674 75.0325651 22.6963674 81.0698663 22.6963674 83.5990845 22.6963674 84.4804652 22.6963674 87.0096834 22.6963674 87.9389118 22.6963674 93.0469846 22.6963674 95.5762029 22.6963674 96.4575836 22.6963674 98.9868018 22.6963674 105.024103 22.6963674 107.553768 22.6963674 108.434702 22.6963674 110.964367 22.6963674 117.001669 22.6963674 119.530887 22.6963674 120.41182 22.6963674 122.941486 22.6963674 128.978787 22.6963674 131.508005 22.6963674 132.389386 22.6963674 134.918604 22.6963674 140.955905 22.6963674 143.485124 22.6963674 144.366504 22.6963674 146.895723 22.6963674 152.933024 22.6963674 155.462242 22.6963674 156.343623 22.6963674 158.872841 22.6963674 159.802069 22.6963674 164.910142 22.6963674 167.439808 22.6963674 168.320741 22.6963674 170.849959 22.6963674 176.887261 22.6963674 179.416926 22.6963674 180.297859 22.6963674 182.827525 22.6963674 188.864826 22.6963674 191.394044 22.6963674 192.275425 22.6963674 194.804643 22.6963674 200.841944 22.6963674 203.371163 22.6963674 204.252543 22.6963674 206.781762 22.6963674 212.819063 22.6963674 215.348281 22.6963674 216.229662 22.6963674 218.75888 22.6963674 224.796181 22.6963674 227.3254 22.6963674 228.20678 22.6963674 230.735998 22.6963674 231.665227 22.6963674 236.7733 22.6963674 239.302965 22.6963674 240.183899 22.6963674 242.713564 22.6963674 248.750865 22.6963674 251.280083 22.6963674 252.161017 22.6963674 254.690682 22.6963674 256.060378 28.8067245 256.060378 28.8067245 231.665227 28.8067245 215.993554 28.8067245 159.802069 28.8067245 144.130396 28.8067245 87.9389118 28.8067245 72.2672387 28.8067245 0.404081225"></polygon>
                                <polygon id="Fill-15" points="6.25776835 249.359872 6.25776835 242.104468 6.25776835 237.382753 6.25776835 231.665629 6.25776835 230.127349 6.25776835 225.405635 6.25776835 218.150231 6.25776835 215.993509 6.25776835 213.428069 6.25776835 206.173112 6.25776835 201.450951 6.25776835 194.195994 6.25776835 189.473833 6.25776835 182.218428 6.25776835 177.496714 6.25776835 170.24131 6.25776835 165.519596 6.25776835 159.802471 6.25776835 158.264192 6.25776835 153.542477 6.25776835 146.287073 6.25776835 144.130351 6.25776835 141.564912 6.25776835 134.309955 6.25776835 129.587793 6.25776835 122.332836 6.25776835 117.610675 6.25776835 110.355271 6.25776835 105.633557 6.25776835 98.3781525 6.25776835 93.6564383 6.25776835 87.939314 6.25776835 86.4010341 6.25776835 81.6788727 6.25776835 74.4239157 6.25776835 69.7017544 6.25776835 62.4467973 6.25776835 57.724636 6.25776835 50.469679 6.25776835 45.7475176 6.25776835 38.4921134 6.25776835 33.7703992 6.25776835 26.514995 6.25776835 21.7932808 6.25776835 14.5378766 6.25776835 9.81571524 6.25776835 2.56075822 6.25776835 0.404036222 0.147411263 0.404036222 0.147411263 72.2671937 0.147411263 87.939314 0.147411263 144.130351 0.147411263 159.802471 0.147411263 215.993509 0.147411263 231.665629 0.147411263 256.060333 6.25776835 256.060333 6.25776835 254.081586"></polygon>
                            </g>
                        </g>
                        <path d="M138.415571,51.2358387 C138.415571,45.3070094 133.595864,40.4998721 127.649742,40.4998721 C121.705222,40.4998721 116.884714,45.3070094 116.884714,51.2358387 C116.884714,57.164668 121.705222,61.9718053 127.649742,61.9718053 C133.595864,61.9718053 138.415571,57.164668 138.415571,51.2358387" id="Fill-7" fill="#666666"></path>
                        <g id="Group-24" transform="translate(39.000000, 63.000000)">
                            <polygon id="Stroke-17" stroke="#666666" stroke-width="3" points="0.208919735 80.7662852 17.6455091 54.0292222 31.8775057 66.3856185"></polygon>
                            <path d="M10.7771857,47.4782693 C10.7771857,51.1069909 13.7270133,54.0486361 17.3658282,54.0486361 C21.0046432,54.0486361 23.9536696,51.1069909 23.9536696,47.4782693 C23.9536696,43.8495478 21.0046432,40.9079025 17.3658282,40.9079025 L17.3658282,35.9170122" id="Stroke-19" stroke="#666666" stroke-width="6" stroke-linecap="round"></path>
                            <polygon id="Fill-21" fill="#4B4B4B" points="12.8334126 37.7694818 21.8968018 37.7694818 21.8968018 34.0632644 12.8334126 34.0632644"></polygon>
                            <polygon id="Fill-23" fill="#4B4B4B" points="9.26189405 34.0640633 25.4683204 34.0640633 25.4683204 30.357846 9.26189405 30.357846"></polygon>
                            <polygon id="Fill-24" fill="#4B4B4B" points="12.8334126 7.51400115 21.8968018 7.51400115 21.8968018 3.80778378 12.8334126 3.80778378"></polygon>
                            <polygon id="Fill-25" fill="#4B4B4B" points="9.26189405 3.8085827 25.4683204 3.8085827 25.4683204 0.102365333 9.26189405 0.102365333"></polygon>
                            <polygon id="Fill-26" fill="#666666" points="15.1439239 40.357846 19.6311548 40.357846 19.6311548 7.51400115 15.1439239 7.51400115"></polygon>
                        </g>
                    </g>
                </g>
                <path d="M97.8121507,172.731731 C85.6941975,172.5741 73.813245,172.822174 62.2182392,173.413073 C71.053388,150.542022 82.8914058,132.198565 97.8121509,120.160082 C112.385982,132.58532 125.196905,151.248344 133.376008,174.339905 C121.801611,173.452696 109.93268,172.889361 97.8121507,172.731731 Z" id="Fill-39" fill="#59C6E5" transform="translate(97.797123, 147.249994) rotate(-330.000000) translate(-97.797123, -147.249994) "></path>
            </g>
            <g id="Group-18" transform="translate(0.000000, 193.000000)">
                <g id="Group-21" transform="translate(31.000000, 87.500000) scale(-1, 1) translate(-31.000000, -87.500000) translate(0.000000, 36.000000)" fill="#FFC500">
                    <polygon id="Fill-97" points="0 0 36.619 102.512 40.67 102.512 4.052 0"></polygon>
                    <polygon id="Fill-98" points="20.5088 0 57.1268 102.512 61.1778 102.512 24.5598 0"></polygon>
                    <polygon id="Fill-99" points="36.3107 94.5819 56.4727 94.5819 56.4727 91.2729 36.3107 91.2729"></polygon>
                    <polygon id="Fill-100" points="31.4087 80.7789 51.5717 80.7789 51.5717 77.4699 31.4087 77.4699"></polygon>
                    <polygon id="Fill-101" points="26.5067 66.9769 46.6687 66.9769 46.6687 63.6679 26.5067 63.6679"></polygon>
                    <polygon id="Fill-102" points="21.6057 53.1739 41.7677 53.1739 41.7677 49.8649 21.6057 49.8649"></polygon>
                    <polygon id="Fill-103" points="16.7027 39.3709 36.8647 39.3709 36.8647 36.0619 16.7027 36.0619"></polygon>
                    <polygon id="Fill-104" points="11.8007 25.5689 31.9637 25.5689 31.9637 22.2599 11.8007 22.2599"></polygon>
                </g>
                <g id="Group-15" transform="translate(62.000000, 0.000000)">
                    <ellipse id="Oval" fill="#E56B6B" cx="20.5542014" cy="20.552871" rx="19.7021576" ry="19.6628895"></ellipse>
                    <ellipse id="Oval" fill="#FFFFFE" cx="20.7133242" cy="20.6571427" rx="10.8036205" ry="10.7820879"></ellipse>
                </g>
                <g id="Group-22" transform="translate(53.000000, 33.000000) scale(-1, 1) translate(-53.000000, -33.000000) translate(39.000000, 7.000000)">
                    <path d="M23.3350064,48.7822 C25.4050064,48.7322 27.0120064,48.9852 27.0120064,50.5382 C27.0120064,52.0912 25.2650064,51.8932 23.1940064,51.9432 C21.1250064,51.9932 19.4790064,51.7402 19.5170064,50.7202 C19.5560064,49.7002 21.2660064,48.8322 23.3350064,48.7822" id="Fill-105" fill="#125688"></path>
                    <path d="M19.5196064,28.0336 C19.8466064,28.8586 20.0106064,29.6486 20.0746064,31.3226 C20.1006064,32.0216 20.1656064,32.7676 20.2746064,33.5506 C20.4936064,35.1396 21.1196064,39.3816 21.4916064,40.6626 C21.9856064,42.3666 21.7086064,48.0736 21.9946064,48.5836 C22.3566064,49.2286 26.6286064,49.8056 26.9676064,49.2836 C27.6456064,48.2426 26.5196064,46.0006 26.1156064,43.7226 C25.9666064,42.8846 25.7276064,42.0936 25.5446064,41.3566 C25.1586064,39.7926 25.2446064,40.2426 25.1746064,38.6596 C25.1096064,37.1746 25.1726064,35.3806 24.9026064,33.4256 C24.6856064,31.8646 24.4306064,30.4596 24.1416064,29.2716 C23.9476064,28.4756 23.8916064,28.2586 23.9316064,28.0336 L19.5196064,28.0336 Z" id="Fill-106" fill="#CDEEF7"></path>
                    <path d="M20.8926064,48.7822 C22.9616064,48.7322 24.5696064,48.9852 24.5696064,50.5382 C24.5696064,52.0912 22.8216064,51.8932 20.7516064,51.9432 C18.6826064,51.9932 17.0366064,51.7402 17.0756064,50.7202 C17.1136064,49.7002 18.8236064,48.8322 20.8926064,48.7822" id="Fill-107" fill="#125688"></path>
                    <path d="M14.7325064,8.8564 C14.7345064,10.1814 14.1045064,12.4984 15.0225064,15.1764 C17.1735064,21.4534 18.1595064,23.6644 19.4625064,27.8414 C19.7425064,28.7424 19.8395064,29.5204 19.7075064,31.3224 C19.6555064,32.0214 19.6365064,32.7674 19.6575064,33.5504 C19.7005064,35.1404 19.8525064,39.3814 20.0815064,40.6624 C20.3845064,42.3664 19.4705064,48.0734 19.7005064,48.5834 C19.9915064,49.2294 24.1985064,49.8054 24.5955064,49.2844 C25.3885064,48.2434 24.5125064,46.0004 24.3645064,43.7234 C24.3085064,42.8844 24.1575064,42.0934 24.0575064,41.3554 C23.8445064,39.7924 23.8805064,40.2424 23.9885064,38.6594 C24.0885064,37.1744 24.3525064,35.3804 24.2995064,33.4254 C24.2575064,31.8644 24.1605064,30.4594 24.0035064,29.2714 C23.8035064,27.7524 23.8705064,28.3424 24.3665064,26.9604 C25.1775064,24.6964 25.3635064,21.4444 24.2995064,18.7294 C22.0775064,13.0564 16.6075064,8.0434 14.7325064,8.8564" id="Fill-108" fill="#CDEEF7"></path>
                    <path d="M14.4815064,8.7314 C14.4825064,9.4624 14.5375064,10.5154 14.5595064,11.7864 C15.9585064,11.4894 16.9815064,10.5774 17.3925064,9.7214 C16.1745064,8.8574 15.1115064,8.4584 14.4815064,8.7314" id="Fill-109" fill="#FDD7AD"></path>
                    <path d="M2.29110635,19.3945 C1.03810635,19.4985 0.0131063533,19.0795 0.00010635334,18.4595 C-0.0118936467,17.8395 0.993106353,17.2535 2.24510635,17.1505 C3.49810635,17.0465 4.52410635,17.4655 4.53710635,18.0845 C4.55010635,18.7045 3.54410635,19.2905 2.29110635,19.3945" id="Fill-110" fill="#FDD7AD"></path>
                    <path d="M12.8350064,0.3481 C9.97100635,0.3481 7.64800635,2.6691 7.64800635,5.5341 C7.64800635,8.3981 9.97100635,10.7201 12.8350064,10.7201 C15.6990064,10.7201 18.0210064,8.3981 18.0210064,5.5341 C18.0210064,2.6691 15.6990064,0.3481 12.8350064,0.3481" id="Fill-111" fill="#FDD7AD"></path>
                    <path d="M12.8350064,0.3481 C9.97100635,0.3481 7.64800635,2.6691 7.64800635,5.5341 C7.64800635,5.6761 7.65400635,5.8161 7.66500635,5.9541 C8.75900635,6.2471 10.2510064,6.7981 13.2620064,5.5341 C14.9050064,3.6721 15.1480064,6.5471 14.8580064,6.9931 C14.3990064,7.7001 18.2760064,11.1581 18.2760064,5.7051 C18.2760064,2.8401 15.6990064,0.3481 12.8350064,0.3481" id="Fill-112" fill="#582628"></path>
                    <path d="M12.8204064,0 C9.75940635,0 7.27040635,2.445 7.19740635,5.489 L17.0964064,1.97 C16.0644064,0.765 14.5324064,0 12.8204064,0" id="Fill-113" fill="#CDEEF7"></path>
                    <polygon id="Fill-114" fill="#CDEEF7" points="17.3477064 1.792 5.95770635 5.84 6.12270635 6.295 17.5127064 2.248"></polygon>
                    <path d="M7.58310635,19.3945 C9.71010635,19.4815 11.5141064,19.2025 12.0601064,18.7455 C12.9841064,18.3545 14.3351064,17.3895 15.6861064,16.0955 C17.7941064,14.0785 20.1921064,12.9065 18.6101064,11.5115 C17.0301064,10.1165 15.2431064,13.0575 13.9041064,14.2345 C13.1671064,14.8805 12.6001064,15.6195 12.0291064,16.2065 C11.1621064,17.1005 11.1771064,17.2925 7.67410635,17.1505 C5.66210635,17.0685 4.97210635,17.1125 4.12610635,17.3045 C3.87910635,17.3605 3.78110635,18.9615 4.03610635,19.0415 C4.91410635,19.3185 6.13310635,19.3355 7.58310635,19.3945" id="Fill-116" fill="#CDEEF7"></path>
                    <path d="M4.29890635,22.8579 C3.11390635,23.2779 2.01590635,23.1349 1.84590635,22.5389 C1.67590635,21.9419 2.49790635,21.1189 3.68290635,20.6999 C4.86790635,20.2799 5.96590635,20.4229 6.13690635,21.0189 C6.30690635,21.6159 5.48390635,22.4389 4.29890635,22.8579" id="Fill-117" fill="#FDD7AD"></path>
                    <path d="M9.41610635,21.5087 C11.4951064,21.0507 13.1681064,20.3207 13.5791064,19.7397 C14.3741064,19.1257 15.4341064,17.8487 16.4101064,16.2537 C17.9341064,13.7647 19.9551064,12.0207 18.0701064,11.0747 C16.1861064,10.1297 15.2081064,13.4277 14.2131064,14.9077 C13.6651064,15.7207 13.3051064,16.5797 12.9031064,17.2927 C12.2921064,18.3787 12.3551064,18.5607 8.93210635,19.3157 C6.96610635,19.7497 6.30910635,19.9687 5.54010635,20.3687 C5.31510635,20.4867 5.63010635,22.0597 5.89710635,22.0727 C6.81610635,22.1157 7.99910635,21.8217 9.41610635,21.5087" id="Fill-118" fill="#CDEEF7"></path>
                </g>
            </g>
        </g>
    </g>
</svg>