<?xml version="1.0" encoding="UTF-8"?>
<svg width="442px" height="252px" viewBox="0 0 442 252" version="1.1" xmlns="http://www.w3.org/2000/svg" xmlns:xlink="http://www.w3.org/1999/xlink">
    <!-- Generator: Sketch 39.1 (31720) - http://www.bohemiancoding.com/sketch -->
    <title>service-rwd</title>
    <desc>Created with Sketch.</desc>
    <defs>
        <polygon id="path-1" points="0 0.175959 0 171.189459 286.089427 171.189459 286.089427 0.175959 0 0.175959"></polygon>
    </defs>
    <g id="服務" stroke="none" stroke-width="1" fill="none" fill-rule="evenodd">
        <g id="service-rwd" transform="translate(2.000000, 0.000000)">
            <g id="RWD" transform="translate(64.000000, 0.000000)">
                <g id="mac">
                    <path d="M286.089049,190.60543 C286.089049,194.5927 282.853371,197.82397 278.860031,197.82397 L7.22901758,197.82397 C3.23630859,197.82397 0,194.5927 0,190.60543 L0,8.21854 C0,4.23379 3.23630859,1 7.22901758,1 L278.860031,1 C282.853371,1 286.089049,4.23379 286.089049,8.21854 L286.089049,190.60543 L286.089049,190.60543 Z" id="Fill-1" fill="#F2F2F2"></path>
                    <path d="M171.835028,197 L143.159783,197 L114.484539,197 C114.484539,197 113.323212,218.65562 111,223.24832 L143.159783,223.24832 L175.319566,223.24832 C172.996912,218.65562 171.835028,197 171.835028,197" id="Fill-3" fill="#D0D5D4"></path>
                    <path d="M180.869731,225.80495 C177.385192,225.31229 175.497966,224 175.497966,224 L143.338741,224 L111.1784,224 C111.1784,224 109.291731,225.31229 105.807193,225.80495 C102.323212,226.29824 100,226.62521 100,228.59459 L143.338741,228.59459 L186.676924,228.59459 C186.676924,226.62521 184.353712,226.29824 180.869731,225.80495" id="Fill-5" fill="#C6CACA"></path>
                    <g id="Group-9" transform="translate(0.000000, 0.454230)">
                        <mask id="mask-2" fill="white">
                            <use xlink:href="#path-1"></use>
                        </mask>
                        <g id="Clip-8"></g>
                        <path d="M274.248197,160.930539 L130.675959,160.930539 L11.8403473,160.930539 L11.8403473,10.436139 L222.820541,10.436139 L274.248197,10.436139 L274.248197,160.930539 Z M278.86041,0.175959 L7.22876523,0.175959 C3.23605625,0.175959 -0.00025234375,3.409749 -0.00025234375,7.394499 L-0.00025234375,171.189459 L286.089427,171.189459 L286.089427,7.394499 C286.089427,3.409749 282.85375,0.175959 278.86041,0.175959 L278.86041,0.175959 Z" id="Fill-7" fill="#2A2A2F" mask="url(#mask-2)"></path>
                    </g>
                    <polygon id="Fill-10" fill="#FFFFFF" points="11.8402842 10.890432 11.8402842 161.384832 130.675896 161.384832 274.248134 161.384832 274.248134 10.890432 222.821108 10.890432"></polygon>
                    <polygon id="Fill-16" fill="#CDEEF7" points="24.5372754 96.16194 262.256443 96.16194 262.256443 43.24194 24.5372754 43.24194"></polygon>
                    <polygon id="Fill-18" fill="#D0D4D4" points="24.5366445 143.39493 60.8659434 143.39493 60.8659434 107.11575 24.5366445 107.11575"></polygon>
                    <polygon id="Fill-19" fill="#D0D4D4" points="74.8849004 143.39493 111.213568 143.39493 111.213568 107.11575 74.8849004 107.11575"></polygon>
                    <polygon id="Fill-20" fill="#D0D4D4" points="125.233156 143.39493 161.561824 143.39493 161.561824 107.11575 125.233156 107.11575"></polygon>
                    <polygon id="Fill-21" fill="#D0D4D4" points="175.57952 143.39493 211.908187 143.39493 211.908187 107.11575 175.57952 107.11575"></polygon>
                    <polygon id="Fill-22" fill="#D0D5D4" points="225.927775 143.39493 262.256443 143.39493 262.256443 107.11575 225.927775 107.11575"></polygon>
                    <polygon id="Fill-26" fill="#D0D5D4" points="217.917754 143.39493 219.190197 143.39493 219.190197 107.11575 217.917754 107.11575"></polygon>
                    <path d="M239.436367,150.714711 C239.436367,151.646481 238.680598,152.401221 237.748188,152.401221 L48.3408613,152.401221 C47.4078203,152.401221 46.6520508,151.646481 46.6520508,150.714711 C46.6520508,149.784201 47.4078203,149.029461 48.3408613,149.029461 L237.748188,149.029461 C238.680598,149.029461 239.436367,149.784201 239.436367,150.714711" id="Fill-27" fill="#D0D5D4"></path>
                    <path d="M61.3738482,27.944091 C61.3738482,29.230551 60.3291451,30.272571 59.042192,30.272571 L26.8683639,30.272571 C25.5814107,30.272571 24.5367076,29.230551 24.5367076,27.944091 C24.5367076,26.658891 25.5814107,25.616241 26.8683639,25.616241 L59.042192,25.616241 C60.3291451,25.616241 61.3738482,26.658891 61.3738482,27.944091" id="Fill-28" fill="#125688"></path>
                    <path d="M61.3738482,34.293924 C61.3738482,34.937154 60.3291451,35.458164 59.042192,35.458164 L26.8683639,35.458164 C25.5814107,35.458164 24.5367076,34.937154 24.5367076,34.293924 C24.5367076,33.651324 25.5814107,33.130944 26.8683639,33.130944 L59.042192,33.130944 C60.3291451,33.130944 61.3738482,33.651324 61.3738482,34.293924" id="Fill-29" fill="#D0D5D4"></path>
                    <path d="M241.430009,27.944091 C241.430009,29.230551 240.385937,30.272571 239.097722,30.272571 L232.073734,30.272571 C230.78615,30.272571 229.741446,29.230551 229.741446,27.944091 C229.741446,26.658891 230.78615,25.616241 232.073734,25.616241 L239.097722,25.616241 C240.385937,25.616241 241.430009,26.658891 241.430009,27.944091" id="Fill-30" fill="#C3C6CA"></path>
                    <path d="M220.603007,27.944091 C220.603007,29.230551 219.559565,30.272571 218.271351,30.272571 L211.246731,30.272571 C209.959147,30.272571 208.915075,29.230551 208.915075,27.944091 C208.915075,26.658891 209.959147,25.616241 211.246731,25.616241 L218.271351,25.616241 C219.559565,25.616241 220.603007,26.658891 220.603007,27.944091" id="Fill-31" fill="#C3C6CA"></path>
                    <path d="M199.776005,27.944091 C199.776005,29.230551 198.732563,30.272571 197.444348,30.272571 L190.419729,30.272571 C189.132776,30.272571 188.088073,29.230551 188.088073,27.944091 C188.088073,26.658891 189.132776,25.616241 190.419729,25.616241 L197.444348,25.616241 C198.732563,25.616241 199.776005,26.658891 199.776005,27.944091" id="Fill-32" fill="#C3C6CA"></path>
                    <path d="M178.949633,27.944091 C178.949633,29.230551 177.905561,30.272571 176.617977,30.272571 L169.593358,30.272571 C168.305774,30.272571 167.261702,29.230551 167.261702,27.944091 C167.261702,26.658891 168.305774,25.616241 169.593358,25.616241 L176.617977,25.616241 C177.905561,25.616241 178.949633,26.658891 178.949633,27.944091" id="Fill-33" fill="#125688"></path>
                    <path d="M134.515306,65.005794 C134.515306,60.107544 138.492243,56.136654 143.396544,56.136654 C148.302106,56.136654 152.277782,60.107544 152.277782,65.005794 C152.277782,69.904044 143.396544,83.266344 143.396544,83.266344 C143.396544,83.266344 134.515306,69.904044 134.515306,65.005794" id="Fill-34" fill="#FFC500"></path>
                    <path d="M253.972629,26.38692 C253.972629,26.38692 254.366285,23.92614 256.496066,23.92614 C258.627109,23.92614 259.021396,26.38692 259.021396,26.38692 C259.021396,26.38692 262.256443,26.05365 262.256443,28.18116 C262.256443,30.30867 258.942539,29.83554 258.942539,29.83554 C258.942539,29.83554 258.074477,31.96305 256.338352,31.96305 C254.602857,31.96305 253.972629,29.67741 253.972629,29.67741 C253.972629,29.67741 250.762816,30.07242 250.762816,28.18116 C250.762816,26.2899 253.972629,26.38692 253.972629,26.38692" id="Fill-35" fill="#E56B6B"></path>
                </g>
                <g id="pad" transform="translate(201.000000, 83.000000)">
                    <path d="M116.140515,145.297006 C119.377454,145.297006 121.999937,143.076886 121.999937,140.337016 L121.999937,5.081686 C121.999937,2.341816 119.377454,0.120436 116.140515,0.120436 L6.37161465,0.120436 C3.13530605,0.120436 0.512192773,2.341816 0.512192773,5.081686 L0.512192773,140.337016 C0.512192773,143.076886 3.13530605,145.297006 6.37161465,145.297006 L116.140515,145.297006 Z" id="Fill-37" fill="#2A2A2F"></path>
                    <path d="M56.8397338,138.497479 C56.8397338,140.931799 58.8174779,142.906849 61.2563803,142.906849 C63.6940209,142.906849 65.671765,140.931799 65.671765,138.497479 C65.671765,136.062529 63.6940209,134.086849 61.2563803,134.086849 C58.8174779,134.086849 56.8397338,136.062529 56.8397338,138.497479" id="Fill-39" fill="#1D1E27"></path>
                    <path d="M57.7170068,138.497479 C57.7170068,140.448589 59.3023564,142.031149 61.2561279,142.031149 C63.2092686,142.031149 64.7946182,140.448589 64.7946182,138.497479 C64.7946182,136.546369 63.2092686,134.963809 61.2561279,134.963809 C59.3023564,134.963809 57.7170068,136.546369 57.7170068,138.497479" id="Fill-40" fill="#2A2A2F"></path>
                    <polygon id="Fill-38" fill="#FFFFFF" points="13.5988027 132.25588 108.913453 132.25588 108.913453 13.16194 13.5988027 13.16194"></polygon>
                    <polygon id="Fill-42" fill="#CDEEF7" points="18.1908281 81.57301 104.867752 81.57301 104.867752 42.25534 18.1908281 42.25534"></polygon>
                    <polygon id="Fill-43" fill="#D0D4D4" points="19.1901973 117.66634 55.5194961 117.66634 55.5194961 88.1647 19.1901973 88.1647"></polygon>
                    <polygon id="Fill-44" fill="#D0D4D4" points="67.5371914 117.66634 103.867752 117.66634 103.867752 88.1647 67.5371914 88.1647"></polygon>
                    <path d="M104.867563,124.183438 C104.867563,125.115208 104.527529,125.869948 104.108639,125.869948 L18.9501936,125.869948 C18.5300412,125.869948 18.1906389,125.115208 18.1906389,124.183438 C18.1906389,123.252298 18.5300412,122.498188 18.9501936,122.498188 L104.108639,122.498188 C104.527529,122.498188 104.867563,123.252298 104.867563,124.183438" id="Fill-46" fill="#D0D5D4"></path>
                    <path d="M54.390233,26.4436 C54.390233,27.72943 53.3474225,28.77145 52.0592076,28.77145 L19.8866412,28.77145 C18.5984264,28.77145 17.5543541,27.72943 17.5543541,26.4436 C17.5543541,25.15777 18.5984264,24.11575 19.8866412,24.11575 L52.0592076,24.11575 C53.3474225,24.11575 54.390233,25.15777 54.390233,26.4436" id="Fill-47" fill="#125688"></path>
                    <path d="M54.390233,32.793433 C54.390233,33.436663 53.3474225,33.957673 52.0592076,33.957673 L19.8866412,33.957673 C18.5984264,33.957673 17.5543541,33.436663 17.5543541,32.793433 C17.5543541,32.150833 18.5984264,31.629823 19.8866412,31.629823 L52.0592076,31.629823 C53.3474225,31.629823 54.390233,32.150833 54.390233,32.793433" id="Fill-48" fill="#D0D5D4"></path>
                    <path d="M94.2489377,26.4436 C94.2489377,27.26575 93.2048654,27.93166 91.9172814,27.93166 L84.8926623,27.93166 C83.6050783,27.93166 82.5610061,27.26575 82.5610061,26.4436 C82.5610061,25.62145 83.6050783,24.95554 84.8926623,24.95554 L91.9172814,24.95554 C93.2048654,24.95554 94.2489377,25.62145 94.2489377,26.4436" id="Fill-49" fill="#C3C6CA"></path>
                    <path d="M79.1982732,26.4436 C79.1982732,27.26575 78.1548318,27.93166 76.866617,27.93166 L69.8419979,27.93166 C68.5544139,27.93166 67.5103416,27.26575 67.5103416,26.4436 C67.5103416,25.62145 68.5544139,24.95554 69.8419979,24.95554 L76.866617,24.95554 C78.1548318,24.95554 79.1982732,25.62145 79.1982732,26.4436" id="Fill-50" fill="#125688"></path>
                    <path d="M55.8398217,58.906429 C55.8398217,55.769029 58.386601,53.225089 61.5289115,53.225089 C64.6705912,53.225089 67.2173705,55.769029 67.2173705,58.906429 C67.2173705,62.043829 61.5289115,70.602379 61.5289115,70.602379 C61.5289115,70.602379 55.8398217,62.043829 55.8398217,58.906429" id="Fill-52" fill="#FFC500"></path>
                    <path d="M98.8781207,25.44631 C98.8781207,25.44631 99.1304645,23.86942 100.495013,23.86942 C101.860193,23.86942 102.112537,25.44631 102.112537,25.44631 C102.112537,25.44631 104.184279,25.23211 104.184279,26.59543 C104.184279,27.95812 102.062068,27.65509 102.062068,27.65509 C102.062068,27.65509 101.50565,29.01778 100.393445,29.01778 C99.2825016,29.01778 98.8781207,27.55366 98.8781207,27.55366 C98.8781207,27.55366 96.8227809,27.80692 96.8227809,26.59543 C96.8227809,25.38394 98.8781207,25.44631 98.8781207,25.44631" id="Fill-53" fill="#E56B6B"></path>
                </g>
                <g id="phone" transform="translate(20.000000, 145.000000)">
                    <path d="M56.2803613,99.638891 C56.2797305,103.607891 53.2560215,106.824041 49.5289043,106.824041 L7.74456445,106.812071 C4.01681641,106.810811 0.996892578,103.590251 0.998154297,99.621881 L1.02275781,7.883171 C1.02401953,3.914171 4.04709766,0.694871 7.77421484,0.697391 L49.5585547,0.710621 C53.285041,0.711881 56.3074883,3.929921 56.3055957,7.900811 L56.2803613,99.638891 Z" id="Fill-55" fill="#2A2A2F"></path>
                    <path d="M36.5050018,5.49818 C36.5050018,6.06581 36.0369041,6.52634 35.4596678,6.52508 L21.8696951,6.52004 C21.2918279,6.52004 20.824992,6.0614 20.824992,5.4944 C20.824992,4.92614 21.2930896,4.46687 21.870326,4.46687 L35.4596678,4.47065 C36.0369041,4.47191 36.5050018,4.93118 36.5050018,5.49818" id="Fill-57" fill="#576A72"></path>
                    <polygon id="Fill-56" fill="#FFFFFF" points="52.7459717 91.611305 4.53695996 91.596815 4.5596709 9.447335 52.7680518 9.462455"></polygon>
                    <path d="M36.097782,6.31151 C35.9217723,6.4457 35.6997098,6.52508 35.4593523,6.52508 L21.8693797,6.52004 C21.2915125,6.52004 20.8246766,6.0614 20.8246766,5.4944 C20.8246766,4.92614 21.2927742,4.46687 21.8700105,4.46687 C21.8700105,4.46687 21.4732,4.93811 21.6334383,5.4944 C21.7943074,6.05132 23.4011062,6.0929 24.1253328,6.0929 C24.8482977,6.09416 36.097782,6.31151 36.097782,6.31151" id="Fill-58" fill="#2C404D"></path>
                    <path d="M32.6754961,99.141128 C32.676127,96.750908 30.8567285,94.811138 28.6133926,94.811138 C26.3694258,94.811138 24.5487656,96.748388 24.5481348,99.138608 C24.546873,101.528828 26.3669023,103.467338 28.6108691,103.467338 C30.8554668,103.467338 32.6748652,101.531348 32.6754961,99.141128" id="Fill-59" fill="#1D1E27"></path>
                    <path d="M32.0834346,99.141128 C32.0834346,97.098668 30.5302588,95.443658 28.6130771,95.443658 C26.6952646,95.442398 25.1408271,97.096148 25.1401963,99.138608 C25.1401963,101.180438 26.6933721,102.834818 28.6111846,102.834818 C30.5283662,102.837338 32.0828037,101.182958 32.0834346,99.141128" id="Fill-60" fill="#2A2A2F"></path>
                    <polygon id="Fill-65" fill="#CDEEF7" points="7.53133398 56.24972 48.3258555 56.24972 48.3258555 39.70214 7.53133398 39.70214"></polygon>
                    <polygon id="Fill-66" fill="#D0D4D4" points="7.53133398 78.40808 25.695668 78.40808 25.695668 60.26849 7.53133398 60.26849"></polygon>
                    <polygon id="Fill-67" fill="#D0D4D4" points="30.1615215 78.40808 48.3258555 78.40808 48.3258555 60.26849 30.1615215 60.26849"></polygon>
                    <path d="M48.2338131,83.14568 C48.2338131,83.98484 47.7852721,84.66587 47.2313775,84.66587 L8.5325709,84.66587 C7.97930723,84.66587 7.53076621,83.98484 7.53076621,83.14568 C7.53076621,82.30652 7.97930723,81.62612 8.5325709,81.62612 L47.2313775,81.62612 C47.7852721,81.62612 48.2338131,82.30652 48.2338131,83.14568" id="Fill-69" fill="#D0D5D4"></path>
                    <path d="M43.6070904,15.57755 C43.6070904,16.62146 42.7592154,17.46881 41.7132506,17.46881 L15.5918873,17.46881 C14.5459225,17.46881 13.6986783,16.62146 13.6986783,15.57755 C13.6986783,14.53427 14.5459225,13.68692 15.5918873,13.68692 L41.7132506,13.68692 C42.7592154,13.68692 43.6070904,14.53427 43.6070904,15.57755" id="Fill-70" fill="#125688"></path>
                    <path d="M43.6070904,20.733218 C43.6070904,21.255488 42.7592154,21.678848 41.7132506,21.678848 L15.5918873,21.678848 C14.5459225,21.678848 13.6986783,21.255488 13.6986783,20.733218 C13.6986783,20.211578 14.5459225,19.788848 15.5918873,19.788848 L41.7132506,19.788848 C42.7592154,19.788848 43.6070904,20.211578 43.6070904,20.733218" id="Fill-71" fill="#D0D5D4"></path>
                    <path d="M48.7304256,32.3513 C48.7304256,33.09911 47.8137869,33.70517 46.6851795,33.70517 L40.5254686,33.70517 C39.3962303,33.70517 38.4802225,33.09911 38.4802225,32.3513 C38.4802225,31.60349 39.3962303,30.99743 40.5254686,30.99743 L46.6851795,30.99743 C47.8137869,30.99743 48.7304256,31.60349 48.7304256,32.3513" id="Fill-72" fill="#C3C6CA"></path>
                    <path d="M33.2558236,32.3513 C33.2558236,33.09911 32.339185,33.70517 31.2099467,33.70517 L25.0508666,33.70517 C23.9209975,33.70517 23.0049896,33.09911 23.0049896,32.3513 C23.0049896,31.60349 23.9209975,30.99743 25.0508666,30.99743 L31.2099467,30.99743 C32.339185,30.99743 33.2558236,31.60349 33.2558236,32.3513" id="Fill-73" fill="#C3C6CA"></path>
                    <path d="M17.7812848,32.3513 C17.7812848,33.09911 16.865277,33.70517 15.7354078,33.70517 L9.57569687,33.70517 C8.44708945,33.70517 7.53108164,33.09911 7.53108164,32.3513 C7.53108164,31.60349 8.44708945,30.99743 9.57569687,30.99743 L15.7354078,30.99743 C16.865277,30.99743 17.7812848,31.60349 17.7812848,32.3513" id="Fill-74" fill="#125688"></path>
                    <path d="M25.0171156,46.435895 C25.0171156,44.830655 26.3198402,43.529075 27.9279008,43.529075 C29.5359613,43.529075 30.8393168,44.830655 30.8393168,46.435895 C30.8393168,48.041765 27.9279008,52.422785 27.9279008,52.422785 C27.9279008,52.422785 25.0171156,48.041765 25.0171156,46.435895" id="Fill-76" fill="#FFC500"></path>
                    <path d="M26.7377846,25.282889 C26.7377846,25.282889 26.9226264,24.128099 27.9219076,24.128099 C28.9218197,24.128099 29.1072924,25.282889 29.1072924,25.282889 C29.1072924,25.282889 30.6245092,25.126019 30.6245092,26.124569 C30.6245092,27.123119 29.0694408,26.900729 29.0694408,26.900729 C29.0694408,26.900729 28.6625365,27.898649 27.8480971,27.898649 C27.0336576,27.898649 26.7377846,26.826389 26.7377846,26.826389 C26.7377846,26.826389 25.2312924,27.011609 25.2312924,26.124569 C25.2312924,25.237529 26.7377846,25.282889 26.7377846,25.282889" id="Fill-77" fill="#E56B6B"></path>
                </g>
            </g>
            <g id="line_l" transform="translate(53.500000, 135.000000) scale(1, -1) rotate(-90.000000) translate(-53.500000, -135.000000) translate(-7.500000, 81.500000)" stroke="#59C6E5">
                <path d="M5,63.0000015 L5,20.6" id="Stroke-4" stroke-width="2" stroke-linecap="round" stroke-linejoin="round" stroke-dasharray="6,12"></path>
                <path d="M19.2825143,5 L102.753926,5" id="Stroke-6" stroke-width="2" stroke-linecap="round" stroke-linejoin="round" stroke-dasharray="6,12"></path>
                <path d="M117,20.6 L117,107" id="Stroke-8" stroke-width="2" stroke-linecap="round" stroke-linejoin="round" stroke-dasharray="6,12"></path>
                <polygon id="Fill-9" stroke-width="3" points="0 10 10 10 10 7.10542736e-15 0 7.10542736e-15"></polygon>
                <polygon id="Fill-11" stroke-width="3" points="111.577236 10 121.577236 10 121.577236 2.73292125e-16 111.577236 2.73292125e-16"></polygon>
            </g>
            <g id="line_r" transform="translate(393.500000, 93.500000) scale(-1, 1) rotate(-90.000000) translate(-393.500000, -93.500000) translate(333.000000, 49.000000)" stroke="#59C6E5">
                <path d="M5,81.6480866 L5,21.6" id="Stroke-4" stroke-width="2" stroke-linecap="round" stroke-linejoin="round" stroke-dasharray="6,12"></path>
                <path d="M19,4 L102.471412,4" id="Stroke-6" stroke-width="2" stroke-linecap="round" stroke-linejoin="round" stroke-dasharray="6,12"></path>
                <path d="M117,21.6 L117,88.0000015" id="Stroke-8" stroke-width="2" stroke-linecap="round" stroke-linejoin="round" stroke-dasharray="6,12"></path>
                <polygon id="Fill-9" stroke-width="3" points="0 10 10 10 10 0 0 0"></polygon>
                <polygon id="Fill-11" stroke-width="3" points="111 10 121 10 121 0 111 0"></polygon>
            </g>
        </g>
    </g>
</svg>