<?xml version="1.0" encoding="UTF-8"?>
<svg width="327px" height="261px" viewBox="0 0 327 261" version="1.1" xmlns="http://www.w3.org/2000/svg" xmlns:xlink="http://www.w3.org/1999/xlink">
    <!-- Generator: Sketch 39.1 (31720) - http://www.bohemiancoding.com/sketch -->
    <title>service-ux</title>
    <desc>Created with Sketch.</desc>
    <defs></defs>
    <g id="服務" stroke="none" stroke-width="1" fill="none" fill-rule="evenodd">
        <g id="service-ux">
            <g id="macbook" transform="translate(0.000000, 128.492308)">
                <path d="M199.203924,118.221167 C199.203924,123.127793 195.241508,127.105431 190.35366,127.105431 L26.5055434,127.105431 C21.6176953,127.105431 17.6552797,123.127793 17.6552797,118.221167 L17.6552797,8.88473039 C17.6552797,3.97810497 21.6176953,0.000467297659 26.5055434,0.000467297659 L190.35366,0.000467297659 C195.241508,0.000467297659 199.203924,3.97810497 199.203924,8.88473039 L199.203924,118.221167 Z" id="Fill-130" fill="#2A2A2F"></path>
                <path d="M0.495115737,122.474324 C0.955038968,127.692958 6.7310789,131.820277 13.809614,131.820277 L202.614617,131.820277 C209.69129,131.820277 215.468261,127.692958 215.929116,122.474324 L0.495115737,122.474324 Z" id="Fill-132" fill="#C3C6CA"></path>
                <g id="Group-27" transform="translate(26.999542, 12.149739)">
                    <g id="Platform">
                        <rect id="Rectangle-1" fill="#125688" x="0" y="0" width="162.92827" height="102.805485" rx="0.72"></rect>
                        <g id="Page-1" transform="translate(6.840458, 5.133873)" fill-opacity="0.1" fill="#FEFEFE">
                            <polygon id="Fill-1" points="0 43.2128567 72.2553662 43.2128567 72.2553662 15.123742 0 15.123742"></polygon>
                            <polygon id="Fill-1-Copy" points="0 7.46307435 148.475777 7.46307435 148.475777 0.258324208 0 0.258324208"></polygon>
                            <polygon id="Fill-2" points="81.8878021 93.433112 148.475777 93.433112 148.475777 15.123742 81.8878021 15.123742"></polygon>
                            <polygon id="Fill-3" points="38.8191132 93.433112 72.2543984 93.433112 72.2543984 50.8735243 38.8191132 50.8735243"></polygon>
                            <polygon id="Fill-4" points="0 93.433112 29.1847418 93.433112 29.1847418 50.8735243 0 50.8735243"></polygon>
                        </g>
                    </g>
                </g>
            </g>
            <g id="user" transform="translate(143.000000, 0.000000)">
                <g id="&lt;3" transform="translate(121.000000, 0.000000)">
                    <g id="Group-13" fill="#F1F1F1">
                        <path d="M62.2452537,9.54421226 C62.2452537,4.27355785 57.9724182,0 52.7026547,0 L9.54259897,0 C4.27283548,0 0,4.27355785 0,9.54421226 L0,31.6249306 C0,36.895585 4.27283548,41.1691428 9.54259897,41.1691428 L52.7026547,41.1691428 C57.9724182,41.1691428 62.2452537,36.895585 62.2452537,31.6249306 L62.2452537,9.54421226" id="Fill-162"></path>
                        <polyline id="Fill-163" points="25.0707819 39.1237393 13.0514242 50.8800399 13.0514242 35.1443902"></polyline>
                    </g>
                    <path d="M30.5454242,13.9849024 C31.5594932,11.6629231 33.872899,10.0412544 36.5634056,10.0412544 C40.1898256,10.0412544 42.8021766,13.04007 43.1304301,16.6140011 C43.1304301,16.6140011 43.3062803,17.5021043 42.9174561,19.0983428 C42.385998,21.273609 41.1374623,23.2063095 39.4551629,24.6812652 L30.5454242,32.3670752 L21.7861351,24.6812652 C20.1038357,23.2063095 18.8553,21.273609 18.3238419,19.0983428 C17.9350177,17.5021043 18.1108678,16.6140011 18.1108678,16.6140011 C18.4391214,13.04007 21.0514724,10.0412544 24.6759385,10.0412544 C27.368399,10.0412544 29.5313553,11.6629231 30.5454242,13.9849024" id="Fill-1" fill="#E56B6B"></path>
                </g>
                <g id="human" transform="translate(0.000000, 51.196154)">
                    <rect id="Rectangle-348-Copy-3" fill="#59C6E5" x="26.9069767" y="132.893787" width="73.3372093" height="76.9100592" rx="36.6686047"></rect>
                    <path d="M63.4486903,132.507692 C57.7068929,132.546596 46.912502,133.211393 42.5399648,134.62303 L63.4486903,154.207036 L84.3574158,134.62303 C79.9851399,133.211658 69.1904877,132.546596 63.4486903,132.507692 L63.4486903,132.507692 Z" id="Shape" fill="#CDEEF7"></path>
                    <rect id="Rectangle-342-Copy-16" fill="#FDD7AD" x="52" y="108" width="23.0620155" height="44.5553254" rx="11.5310078"></rect>
                    <polygon id="Fill-4" fill="#FAC47B" points="52 128.492308 74.5833805 128.492308 74.5833805 122.469231 52 122.469231"></polygon>
                    <ellipse id="Oval-38-Copy-9" fill="#FDD7AD" cx="15.375969" cy="78.6860947" rx="9.2248062" ry="9.26627219"></ellipse>
                    <ellipse id="Oval-38-Copy-10" fill="#FDD7AD" cx="111.775194" cy="78.6860947" rx="9.2248062" ry="9.26627219"></ellipse>
                    <ellipse id="Oval-38-Copy-11" fill="#805333" cx="108.315891" cy="78.9177515" rx="5.76550388" ry="5.79142012"></ellipse>
                    <ellipse id="Oval-38-Copy-12" fill="#805333" cx="18.8352713" cy="78.9177515" rx="5.76550388" ry="5.79142012"></ellipse>
                    <rect id="Rectangle-342-Copy-5" fill="#582628" x="104.856589" y="26.7949704" width="13.8372093" height="48.1846154" rx="6.91860465"></rect>
                    <rect id="Rectangle-342-Copy-6" fill="#582628" x="8.45736434" y="26.7949704" width="13.8372093" height="48.1846154" rx="6.91860465"></rect>
                    <rect id="Rectangle-342-Copy-14" fill="#FDD7AD" x="15.375969" y="12.8955621" width="96.3992248" height="110.268639"></rect>
                    <path d="M15,-1.13686838e-13 L100.962168,-1.13686838e-13 C108.637986,-1.13686838e-13 114.860465,6.22128922 114.860465,13.8994083 L114.860465,27.7988166 L15,27.7988166 L15,-1.13686838e-13 Z M15,-1.13686838e-13 L22.1328904,-1.13686838e-13 L22.1328904,13.8994083 L15,13.8994083 L15,-1.13686838e-13 Z" id="Combined-Shape-Copy" fill="#582628"></path>
                    <path d="M59.8100775,75.4305987 C62.1385033,72.3030797 64.2386881,71.8830224 66.879845,75.4305987 C69.5210018,78.978175 68.8631257,83.4030014 68.8631257,83.4030014 C68.8723595,86.4699555 66.3955731,88.956213 63.3125304,88.956213 L63.377392,88.956213 C60.3026491,88.956213 57.8047115,86.4630716 57.9344826,83.4012519 C57.9344826,83.4012519 57.4816518,78.5581177 59.8100775,75.4305987 Z" id="Rectangle-342-Copy-15" fill="#FAC176" opacity="0.9"></path>
                    <path d="M91.9418605,71.5819527 C91.9418605,74.1394438 89.8755039,76.2150888 87.3294574,76.2150888 C84.7834109,76.2150888 82.7170543,74.1394438 82.7170543,71.5819527 C82.7170543,69.0244615 84.7834109,66.9488166 87.3294574,66.9488166 C89.8755039,66.9488166 91.9418605,69.0244615 91.9418605,71.5819527" id="Fill-49-Copy-4" fill="#0B2C48"></path>
                    <path d="M43.9728682,71.5819527 C43.9728682,74.1394438 41.9065116,76.2150888 39.3604651,76.2150888 C36.8144186,76.2150888 34.748062,74.1394438 34.748062,71.5819527 C34.748062,69.0244615 36.8144186,66.9488166 39.3604651,66.9488166 C41.9065116,66.9488166 43.9728682,69.0244615 43.9728682,71.5819527" id="Fill-49-Copy-5" fill="#0B2C48"></path>
                    <path d="M72.6454109,98.6085799 C72.6454109,101.958801 68.6007946,104.673355 63.6152481,104.673355 C58.6250891,104.673355 54.5813953,101.958801 54.5813953,98.6085799 L72.6454109,98.6085799 Z" id="Fill-41-Copy-2" fill="#E56B6B"></path>
                    <path d="M15,28.1174258 C23.2842712,28.1174258 30,21.3715095 30,13.05 C30,13.05 0,13.05 0,13.05 C0,21.3715095 6.71572875,28.1174258 15,28.1174258 Z" id="Oval-50-Copy-2" fill="#582628"></path>
                    <path d="M29.9874031,41.1560701 C39.3692868,41.1560701 46.9748062,33.5163634 46.9748062,24.0923077 C46.9748062,24.0923077 13,24.0923077 13,24.0923077 C13,33.5163634 20.6055194,41.1560701 29.9874031,41.1560701 Z" id="Oval-50-Copy-2" fill="#582628"></path>
                    <path d="M52.3207364,41.1560701 C61.7026201,41.1560701 69.3081395,33.5163634 69.3081395,24.0923077 C69.3081395,24.0923077 35.3333333,24.0923077 35.3333333,24.0923077 C35.3333333,33.5163634 42.9388528,41.1560701 52.3207364,41.1560701 Z" id="Oval-50-Copy-2" fill="#582628"></path>
                    <path d="M74.6540698,41.1560701 C84.0359534,41.1560701 91.6414729,33.5163634 91.6414729,24.0923077 C91.6414729,24.0923077 57.6666667,24.0923077 57.6666667,24.0923077 C57.6666667,33.5163634 65.2721861,41.1560701 74.6540698,41.1560701 Z" id="Oval-50-Copy-2" fill="#582628"></path>
                    <path d="M96.9874031,41.1560701 C106.369287,41.1560701 113.974806,33.5163634 113.974806,24.0923077 C113.974806,24.0923077 80,24.0923077 80,24.0923077 C80,33.5163634 87.6055194,41.1560701 96.9874031,41.1560701 Z" id="Oval-50-Copy-2" fill="#582628"></path>
                    <path d="M22,15.0674258 C30.2842712,15.0674258 37,8.32150948 37,-1.1385412e-13 C37,3.0329334e-08 7,-1.1385412e-13 7,-1.1385412e-13 C7,8.32150948 13.7157288,15.0674258 22,15.0674258 Z" id="Oval-50-Copy-3" fill="#582628"></path>
                    <path d="M53.5,167.884857 L53.5,167.884857 C52.675,167.884857 52,166.00522 52,163.707886 L52,151.176971 C52,148.879637 52.675,147 53.5,147 L53.5,147 C54.325,147 55,148.879637 55,151.176971 L55,163.707886 C55,166.00522 54.3248125,167.884857 53.5,167.884857 L53.5,167.884857 Z" id="Shape" fill="#FFC500"></path>
                    <path d="M73.5,167.446396 L73.5,167.446396 C72.675,167.446396 72,165.566759 72,163.269424 L72,150.73851 C72,148.441176 72.675,146.561538 73.5,146.561538 L73.5,146.561538 C74.325,146.561538 75,148.441176 75,150.73851 L75,163.269424 C75,165.566759 74.3248125,167.446396 73.5,167.446396 L73.5,167.446396 Z" id="Shape-Copy" fill="#FFC500"></path>
                    <path d="M84.1793173,134.515385 L63.5074367,152.350404 L42.8352975,134.515385 C40.0775818,135.955185 42.4475059,138.18033 40.6378115,139.402066 C38.3384655,140.954432 38.6988532,142.892402 38.6988532,142.892402 L63.4970955,155.447458 L88.3157616,142.892402 C88.3157616,142.892402 88.6764078,140.954432 86.3768033,139.402066 C84.5671089,138.18033 86.937033,135.955185 84.1793173,134.515385 Z" id="Shape" fill="#FFFFFF"></path>
                </g>
            </g>
        </g>
    </g>
</svg>