<?xml version="1.0" encoding="UTF-8"?>
<svg width="120px" height="139px" viewBox="0 0 120 139" version="1.1" xmlns="http://www.w3.org/2000/svg" xmlns:xlink="http://www.w3.org/1999/xlink">
    <!-- Generator: Sketch 39.1 (31720) - http://www.bohemiancoding.com/sketch -->
    <title>service-mvp</title>
    <desc>Created with Sketch.</desc>
    <defs></defs>
    <g id="首頁" stroke="none" stroke-width="1" fill="none" fill-rule="evenodd">
        <g id="service-mvp" transform="translate(0.000000, -1.000000)">
            <g id="Group-43">
                <circle id="Oval" fill="#CDEEF7" transform="translate(60.000000, 79.591837) rotate(-360.000000) translate(-60.000000, -79.591837) " cx="60" cy="79.5918367" r="60"></circle>
                <path d="M27.459761,108.469501 C35.8850735,131.420439 57.930386,147.795751 83.801636,147.795751 C84.446636,147.795751 85.084136,147.767626 85.7244485,147.747001 C77.299136,124.796064 55.2538235,108.420751 29.3825735,108.420751 C28.738511,108.420751 28.1000735,108.448876 27.459761,108.469501 L27.459761,108.469501 Z" id="Shape" fill="#E6E6E6" transform="translate(56.592105, 128.108251) rotate(-30.000000) translate(-56.592105, -128.108251) "></path>
                <g id="Group" transform="translate(41.828318, 125.298683) rotate(-30.000000) translate(-41.828318, -125.298683) translate(34.481379, 119.176234)">
                    <ellipse id="Oval" fill="#CCCCCC" transform="translate(7.440155, 6.078682) rotate(202.117411) translate(-7.440155, -6.078682) " cx="7.44015497" cy="6.07868166" rx="5.6249134" ry="4.21868505"></ellipse>
                    <path d="M7.74375,10.0021875 C4.865625,8.833125 3.2428125,6.135 4.1203125,3.9759375 C4.621875,2.7403125 5.8453125,1.9659375 7.3303125,1.7353125 C5.0446875,1.4071875 2.9484375,2.24625 2.2453125,3.9759375 C1.3678125,6.135 2.990625,8.833125 5.86875,10.0021875 C7.0996875,10.501875 8.349375,10.621875 9.4584375,10.45125 C8.889375,10.36875 8.3146875,10.2346875 7.74375,10.0021875 L7.74375,10.0021875 Z" id="Shape" fill="#B3B3B3"></path>
                </g>
                <g id="Group" transform="translate(57.333772, 121.427876) rotate(-30.000000) translate(-57.333772, -121.427876) translate(52.435813, 116.529917)">
                    <ellipse id="Oval" fill="#CCCCCC" transform="translate(4.659130, 4.592290) rotate(225.506455) translate(-4.659130, -4.592290) " cx="4.65912975" cy="4.59228966" rx="3.68984784" ry="2.76644842"></ellipse>
                    <path d="M3.7978125,6.9909375 C2.371875,5.53875 2.098125,3.4921875 3.1884375,2.420625 C3.8109375,1.8065625 4.7484375,1.6603125 5.70375,1.9078125 C4.41375,1.115625 2.9334375,1.0715625 2.0596875,1.929375 C0.969375,3.0028125 1.243125,5.0475 2.67,6.500625 C3.2803125,7.1221875 4.003125,7.5215625 4.715625,7.7053125 C4.393125,7.51125 4.081875,7.280625 3.7978125,6.9909375 L3.7978125,6.9909375 Z" id="Shape" fill="#B3B3B3"></path>
                </g>
                <g id="Group" transform="translate(60.226152, 130.914665) rotate(-30.000000) translate(-60.226152, -130.914665) translate(52.879213, 124.792216)">
                    <ellipse id="Oval" fill="#CCCCCC" transform="translate(7.418545, 6.430637) rotate(195.770685) translate(-7.418545, -6.430637) " cx="7.41854475" cy="6.43063669" rx="5.59524897" ry="4.19643673"></ellipse>
                    <path d="M8.1665625,10.27125 C5.195625,9.43125 3.29625,6.94125 3.928125,4.7109375 C4.28625,3.4340625 5.41125,2.5378125 6.8540625,2.1459375 C4.56,2.0728125 2.5771875,3.1303125 2.071875,4.9171875 C1.4409375,7.1465625 3.34125,9.6375 6.3140625,10.4765625 C7.5853125,10.8365625 8.8340625,10.816875 9.913125,10.5271875 C9.3440625,10.5084375 8.758125,10.4390625 8.1665625,10.27125 L8.1665625,10.27125 Z" id="Shape" fill="#B3B3B3"></path>
                </g>
                <g id="icon-copy-13" transform="translate(28.163265, 0.000000)">
                    <g id="Group">
                        <g id="fire" transform="translate(20.816327, 79.591837)">
                            <path d="M20.8827717,0 L4.17655434,0 C1.61214998,2.29292833 0,5.27498813 0,8.34057902 C0,16.7062174 4.15608923,20.8497769 12.529663,29.2233507 C20.9011486,20.8518652 25.0593261,16.7062174 25.0593261,8.34057902 C25.0593261,5.27498813 23.4471761,2.29292833 20.8827717,0 L20.8827717,0 Z" id="Shape" fill="#FFC500"></path>
                            <path d="M8.73091478,0 C8.73091478,0 5.55401872,6.30450878 8.8267667,11.1593355 C11.2744364,14.7900142 12.8529651,16.6771903 12.8738479,16.7062174 C12.8947306,16.6771903 14.4732593,14.7900142 16.920929,11.1593355 C20.193677,6.30450878 17.0188692,0 17.0188692,0 L8.73091478,0 L8.73091478,0 Z" id="Shape" fill="#FDEBA1"></path>
                        </g>
                        <g id="rocket">
                            <path d="M35.6840166,1.92536782 C34.3414632,0.990863787 32.4996027,0.990863787 31.1570494,1.92536782 C22.4353597,7.9955719 16.7143156,18.068168 16.7143156,29.4983531 L16.7143156,68.1137304 C16.7143156,70.4204414 18.584159,72.2902848 20.89087,72.2902848 L45.950196,72.2902848 C48.256907,72.2902848 50.1267504,70.4204414 50.1267504,68.1137304 L50.1267504,29.4983531 C50.1267504,18.068168 44.4057062,7.9955719 35.6840166,1.92536782 L35.6840166,1.92536782 Z" id="Shape" fill="#F6F6F8"></path>
                            <path d="M50.1186521,46.8626863 L50.1186521,67.745458 C50.1186521,70.052169 51.9884955,71.9220123 54.2952065,71.9220123 L66.8248695,71.9220123 L66.8248695,67.0287613 C66.8248695,64.813308 65.9448695,62.6886948 64.3782439,61.1222781 L50.1186521,46.8626863 L50.1186521,46.8626863 Z" id="Shape" fill="#59C6E5"></path>
                            <path d="M-2.22733396e-12,67.0287613 L-2.22733396e-12,71.9218035 L12.529663,71.9218035 C14.836374,71.9218035 16.7062174,70.0519601 16.7062174,67.7452492 L16.7062174,46.8624775 L2.44662553,61.1220693 C0.88,62.6886948 -2.22733396e-12,64.8135168 -2.22733396e-12,67.0287613 L-2.22733396e-12,67.0287613 Z" id="Shape" fill="#59C6E5"></path>
                            <path d="M41.7655434,71.9094827 L25.0593261,71.9094827 L22.3938491,77.2404366 C21.6994969,78.6289321 22.7091789,80.2625914 24.2616042,80.2625914 L42.5630565,80.2625914 C44.1154817,80.2625914 45.1251637,78.6289321 44.4308116,77.2404366 L41.7655434,71.9094827 L41.7655434,71.9094827 Z" id="Shape" fill="#125688"></path>
                            <path d="M31.1495776,1.91295434 C26.7535453,4.9722804 23.1266255,9.05235634 20.6033602,13.8065281 L46.2215093,13.8065281 C43.6982439,9.05235634 40.0713242,4.97207157 35.6752919,1.91295434 C34.3329473,0.978659138 32.4919222,0.978659138 31.1495776,1.91295434 L31.1495776,1.91295434 Z" id="Shape" fill="#59C6E5"></path>
                            <ellipse id="Oval" fill="#E56B6B" cx="33.4124347" cy="30.1564689" rx="8.30904604" ry="8.30904604"></ellipse>
                            <ellipse id="Oval" fill="#FFFFFF" cx="33.4124347" cy="30.1564689" rx="4.17655434" ry="4.17655434"></ellipse>
                            <path d="M33.4124347,44.7739915 C32.2582439,44.7739915 31.3241576,45.7080778 31.3241576,46.8622686 L31.3241576,71.9215947 L35.5007119,71.9215947 L35.5007119,46.8622686 C35.5007119,45.7080778 34.5666255,44.7739915 33.4124347,44.7739915 L33.4124347,44.7739915 Z" id="Shape" fill="#59C6E5"></path>
                        </g>
                    </g>
                </g>
                <g id="39-earth-flat" transform="translate(20.816327, 37.959184)" fill="#F3D55B">
                    <g id="39---Earth-(Flat)">
                        <g id="Page-1">
                            <g id="39---Earth-(Flat)">
                                <path d="M83.2653061,61.2244898 L81.3232653,61.2244898 L78.3673469,58.2685714 L78.3673469,56.3265306 C78.3673469,55.6506122 77.8187755,55.1020408 77.1428571,55.1020408 C76.4669388,55.1020408 75.9183673,55.6506122 75.9183673,56.3265306 L75.9183673,58.2685714 L72.962449,61.2244898 L71.0204082,61.2244898 C70.3444898,61.2244898 69.7959184,61.7730612 69.7959184,62.4489796 C69.7959184,63.124898 70.3444898,63.6734694 71.0204082,63.6734694 L72.962449,63.6734694 L75.9183673,66.6293878 L75.9183673,68.5714286 C75.9183673,69.2473469 76.4669388,69.7959184 77.1428571,69.7959184 C77.8187755,69.7959184 78.3673469,69.2473469 78.3673469,68.5714286 L78.3673469,66.6293878 L81.3232653,63.6734694 L83.2653061,63.6734694 C83.9412245,63.6734694 84.4897959,63.124898 84.4897959,62.4489796 C84.4897959,61.7730612 83.9412245,61.2244898 83.2653061,61.2244898" id="Fill-326"></path>
                                <path d="M3.21428571,11.0204082 C3.21428571,11.6963265 2.66571429,12.244898 1.98979592,12.244898 C1.31387755,12.244898 0.765306122,11.6963265 0.765306122,11.0204082 C0.765306122,10.3444898 1.31387755,9.79591837 1.98979592,9.79591837 C2.66571429,9.79591837 3.21428571,10.3444898 3.21428571,11.0204082" id="Fill-460"></path>
                                <path d="M5.66326531,69.7995918 C5.66326531,70.4755102 5.11469388,71.0240816 4.43877551,71.0240816 C3.76285714,71.0240816 3.21428571,70.4755102 3.21428571,69.7995918 C3.21428571,69.122449 3.76285714,68.575102 4.43877551,68.575102 C5.11469388,68.575102 5.66326531,69.122449 5.66326531,69.7995918" id="Fill-461"></path>
                                <path d="M25.8673469,75 C25.8673469,75.6759184 25.3187755,76.2244898 24.6428571,76.2244898 C23.9669388,76.2244898 23.4183673,75.6759184 23.4183673,75 C23.4183673,74.3240816 23.9669388,73.7755102 24.6428571,73.7755102 C25.3187755,73.7755102 25.8673469,74.3240816 25.8673469,75" id="Fill-462"></path>
                                <path d="M18.5204082,45.3061224 C18.5204082,45.9820408 17.9718367,46.5306122 17.2959184,46.5306122 C16.62,46.5306122 16.0714286,45.9820408 16.0714286,45.3061224 C16.0714286,44.6302041 16.62,44.0816327 17.2959184,44.0816327 C17.9718367,44.0816327 18.5204082,44.6302041 18.5204082,45.3061224" id="Fill-463"></path>
                                <path d="M67.8465306,1.68367347 C67.8465306,2.35959184 67.2991837,2.90816327 66.6220408,2.90816327 C65.9461224,2.90816327 65.397551,2.35959184 65.397551,1.68367347 C65.397551,1.0077551 65.9461224,0.459183673 66.6220408,0.459183673 C67.2991837,0.459183673 67.8465306,1.0077551 67.8465306,1.68367347" id="Fill-464"></path>
                                <path d="M83.877551,53.1122449 C83.877551,53.7881633 83.3289796,54.3367347 82.6530612,54.3367347 C81.9771429,54.3367347 81.4285714,53.7881633 81.4285714,53.1122449 C81.4285714,52.4363265 81.9771429,51.8877551 82.6530612,51.8877551 C83.3289796,51.8877551 83.877551,52.4363265 83.877551,53.1122449" id="Fill-465"></path>
                            </g>
                        </g>
                    </g>
                </g>
            </g>
        </g>
    </g>
</svg>