<?xml version="1.0" encoding="UTF-8"?>
<svg width="120px" height="122px" viewBox="0 0 120 122" version="1.1" xmlns="http://www.w3.org/2000/svg" xmlns:xlink="http://www.w3.org/1999/xlink">
    <!-- Generator: Sketch 39.1 (31720) - http://www.bohemiancoding.com/sketch -->
    <title>service-ux</title>
    <desc>Created with Sketch.</desc>
    <defs>
        <ellipse id="path-1" cx="60" cy="60.4290469" rx="60" ry="60.4290469"></ellipse>
    </defs>
    <g id="首頁" stroke="none" stroke-width="1" fill="none" fill-rule="evenodd">
        <g id="service-ux" transform="translate(0.000000, 1.000000)">
            <mask id="mask-2" fill="white">
                <use xlink:href="#path-1"></use>
            </mask>
            <use id="Mask" fill="#EEEEEE" xlink:href="#path-1"></use>
            <g id="human" mask="url(#mask-2)">
                <g transform="translate(62.400000, 56.389355)">
                    <rect id="Rectangle-348-Copy-3" fill="#2A2A2F" x="6.60837012" y="40.0727481" width="23.180751" height="24.2060047" rx="11.5903755"></rect>
                    <rect id="Rectangle-342-Copy-16" fill="#296693" x="14.481078" y="31.6152284" width="7.28954435" height="13.1237375" rx="3.64477217"></rect>
                    <ellipse id="Oval-38-Copy-9" fill="#CDEEF7" cx="2.96359795" cy="23.0118894" rx="2.91581774" ry="2.91638611"></ellipse>
                    <ellipse id="Oval-38-Copy-10" fill="#296693" cx="33.4338933" cy="23.0118894" rx="2.91581774" ry="2.91638611"></ellipse>
                    <rect id="Rectangle-342-Copy-5" fill="#2A2A2F" x="31.24703" y="6.68012715" width="4.37372661" height="15.1652078" rx="2.1868633"></rect>
                    <rect id="Rectangle-342-Copy-6" fill="#125688" x="0.776734641" y="6.68012715" width="4.37372661" height="15.1652078" rx="2.1868633"></rect>
                    <path d="M2.84476,2.35415442 L33.3150554,2.35415442 L33.3150554,27.0675875 C33.3150554,32.5857746 28.8354308,37.0591491 23.3168448,37.0591491 L12.8429706,37.0591491 C7.32111136,37.0591491 2.84476,32.5754048 2.84476,27.0675875 L2.84476,2.35415442 Z" id="Rectangle-342-Copy-14" fill="#296693"></path>
                    <path d="M17.0598759,22.7311493 C17.795855,21.7468211 18.4596908,21.6146159 19.2945194,22.7311493 C20.129348,23.8476827 19.9210709,25.234873 19.9210709,25.234873 C19.9241733,26.2031446 19.1327152,26.9880838 18.1771976,26.9880838 L18.1771976,26.9880838 C17.2109806,26.9880838 16.4260902,26.1990171 16.4677992,25.2287396 C16.4677992,25.2287396 16.3238967,23.7154775 17.0598759,22.7311493 Z" id="Rectangle-342-Copy-15" fill="#125688" opacity="0.9"></path>
                    <rect id="Rectangle-231" fill="#2A2A2F" x="0.948253332" y="0.14256162" width="32.8727822" height="10.7420222" rx="5.37101108"></rect>
                    <rect id="Rectangle-231-Copy" fill="#2A2A2F" x="14.331911" y="26.3657334" width="7.58602666" height="4.10724377" rx="2.05362189"></rect>
                    <path d="M14.3781024,40.3031957 L17.284782,44.3864173 L14.7537497,47.5468819 L11.37904,41.2259526 L13.2081327,40.0840372 C13.5958025,39.8419654 14.1196207,39.9400386 14.3781024,40.3031957 L14.3781024,40.3031957 Z" id="Shape" fill="#125688"></path>
                    <path d="M21.8718518,40.3031957 L18.9650666,44.3864173 L21.496099,47.5468819 L24.8708087,41.2259526 L23.041716,40.0840372 C22.6540462,39.8419654 22.1303335,39.9400386 21.8718518,40.3031957 L21.8718518,40.3031957 Z" id="Shape" fill="#125688"></path>
                    <path d="M18.2283219,51.0112887 L18.2283219,51.0112887 C17.762401,51.0112887 17.3846444,50.6575142 17.3846444,50.2211726 L17.3846444,44.6903594 L19.0719993,44.6903594 L19.0719993,50.2211726 C19.0719993,50.657613 18.6943482,51.0112887 18.2283219,51.0112887 L18.2283219,51.0112887 Z" id="Shape" fill="#125688"></path>
                </g>
            </g>
            <g id="human" mask="url(#mask-2)">
                <g transform="translate(12.000000, 56.389355)">
                    <path d="M52.5812222,52.1253242 C51.5629026,49.904702 52.4374354,49.3581514 51.8117799,47.0133131 C51.404452,45.4866353 50.4943459,44.8695799 50.1824685,43.5898076 C49.8862054,42.3747108 50.4037833,40.2583191 50.0919059,39.2411353 C49.5287073,37.4035704 48.8222651,36.9180869 48.4625946,35.4012631 C48.1004801,33.8745853 49.0509118,32.7180575 48.7341465,31.0988076 C48.3372734,29.0699916 47.6239066,28.2387849 47.3311736,27.166502 C46.7880698,25.1772408 46.9545311,24.6796827 47.0144083,23.049052 C47.1501843,19.3479687 45.7693429,14.804992 44.7062172,12.5010965 C43.5026992,9.89297565 41.9230819,8.437219 40.0472014,7.64348534 L27.326896,7.64348534 L27.326896,62.4650964 C42.2622502,62.6038853 54.4820854,58.023852 54.4820854,58.023852 C54.436872,54.0451909 53.7628802,54.7020787 52.5812222,52.1253242 L52.5812222,52.1253242 Z" id="Shape" fill="#125688"></path>
                    <path d="M2.07256989,52.158397 C3.09088949,49.9377747 2.21635662,49.3912241 2.84201218,47.0463858 C3.24934002,45.519708 4.15944619,44.9026526 4.47132354,43.6228803 C4.76758666,42.4077836 4.25000875,40.2913918 4.5618861,39.274208 C5.12508473,37.4366432 5.83152698,36.9511596 6.19119746,35.4343359 C6.55331192,33.9076581 5.60288029,32.7511303 5.91964557,31.1318803 C6.31651866,29.1030643 7.02988549,28.2718577 7.32261843,27.1995747 C7.86572222,25.2103136 7.69926091,24.7127554 7.63938372,23.0821247 C7.50360777,19.3810414 8.88444915,14.8380647 9.94757481,12.5341692 C11.1510928,9.92604839 12.7307102,8.47029173 14.6065907,7.67655808 L27.326896,7.67655808 L27.326896,62.4981692 C12.3915419,62.6369581 0.171706632,58.0569247 0.171706632,58.0569247 C0.216920023,54.0782637 0.890911823,54.7351515 2.07256989,52.158397 L2.07256989,52.158397" id="Shape" fill="#2A2A2F"></path>
                    <rect id="Rectangle-342-Copy-6" fill="#2A2A2F" x="9.10896534" y="0" width="36.4358614" height="56.0978888" rx="18.2179307"></rect>
                    <rect id="Rectangle-348-Copy-3" fill="#125688" x="16.721409" y="41.744097" width="21.549229" height="22.6208491" rx="10.7746145"></rect>
                    <rect id="Rectangle-342-Copy-16" fill="#296693" x="24.0400151" y="33.8404269" width="6.77648709" height="12.2643158" rx="3.38824355"></rect>
                    <path d="M13.4853326,19.0707983 C13.4853326,13.5463305 17.957996,9.06786451 23.4918474,9.06786451 L31.8045337,9.06786451 C37.3309793,9.06786451 41.8110486,13.5508766 41.8110486,19.0707983 L41.8110486,28.7945407 C41.8110486,34.3190084 37.3383851,38.7974744 31.8045337,38.7974744 L23.4918474,38.7974744 C17.9654019,38.7974744 13.4853326,34.3144624 13.4853326,28.7945407 L13.4853326,19.0707983 Z" id="Rectangle-342-Copy-14" fill="#296693"></path>
                    <rect id="Rectangle-231-Copy" fill="#2A2A2F" x="14.9837028" y="8.56409426" width="25.4213311" height="9.06786451" rx="4.53393225"></rect>
                    <path d="M30.1610803,31.6601041 C30.1610803,32.6454737 28.97262,33.4438807 27.507679,33.4438807 C26.0413828,33.4438807 24.8531935,32.6454737 24.8531935,31.6601041 L30.1610803,31.6601041 Z" id="Fill-41-Copy-2" fill="#2A2A2F"></path>
                    <path d="M41.5249309,20.9628953 L31.2776536,20.9628953 C30.460711,20.9628953 29.7961195,21.625121 29.7961195,22.4391555 L29.7961195,22.4923009 C29.168196,21.8528342 28.2933501,21.454982 27.326896,21.454982 C26.360442,21.454982 25.4855961,21.8528342 24.8576726,22.4923009 L24.8576726,22.4391555 C24.8576726,21.625121 24.1930811,20.9628953 23.3761385,20.9628953 L13.1288611,20.9628953 C12.8561354,20.9628953 12.6350164,21.1832271 12.6350164,21.454982 C12.6350164,21.726737 12.8561354,21.9470688 13.1288611,21.9470688 L16.0548909,21.9470688 C15.9999507,22.101215 15.9684681,22.2664331 15.9684681,22.4391555 L15.9684681,25.391676 C15.9684681,26.2057105 16.6330596,26.8679362 17.4500022,26.8679362 L23.3761385,26.8679362 C24.1930811,26.8679362 24.8576726,26.2057105 24.8576726,25.391676 L24.8576726,24.8995893 C24.8576726,23.5430291 25.9654897,22.4391555 27.326896,22.4391555 C28.6883024,22.4391555 29.7961195,23.5430291 29.7961195,24.8995893 L29.7961195,25.391676 C29.7961195,26.2057105 30.460711,26.8679362 31.2776536,26.8679362 L37.2037899,26.8679362 C38.0207324,26.8679362 38.6853239,26.2057105 38.6853239,25.391676 L38.6853239,22.4391555 C38.6853239,22.2664331 38.6538413,22.101215 38.5989011,21.9470688 L41.5249309,21.9470688 C41.7976566,21.9470688 42.0187756,21.726737 42.0187756,21.454982 C42.0187756,21.1832271 41.7976566,20.9628953 41.5249309,20.9628953 L41.5249309,20.9628953 Z M23.8699832,25.391676 C23.8699832,25.6626928 23.6486173,25.8837627 23.3761385,25.8837627 L17.4500022,25.8837627 C17.1775234,25.8837627 16.9561575,25.6626928 16.9561575,25.391676 L16.9561575,22.4391555 C16.9561575,22.1681388 17.1775234,21.9470688 17.4500022,21.9470688 L23.3761385,21.9470688 C23.6486173,21.9470688 23.8699832,22.1681388 23.8699832,22.4391555 L23.8699832,25.391676 L23.8699832,25.391676 Z M37.6976346,22.4391555 L37.6976346,25.391676 C37.6976346,25.6626928 37.4762687,25.8837627 37.2037899,25.8837627 L31.2776536,25.8837627 C31.0051747,25.8837627 30.7838089,25.6626928 30.7838089,25.391676 L30.7838089,22.4391555 C30.7838089,22.1681388 31.0051747,21.9470688 31.2776536,21.9470688 L37.2037899,21.9470688 C37.4762687,21.9470688 37.6976346,22.1681388 37.6976346,22.4391555 L37.6976346,22.4391555 Z" id="glasses" fill="#2A2A2F"></path>
                </g>
            </g>
            <g id="human" mask="url(#mask-2)">
                <g transform="translate(34.000000, 29.805802)">
                    <rect id="Rectangle-348-Copy-3" fill="#59C6E5" x="11.5633288" y="57.6053625" width="31.5168172" height="33.3381412" rx="15.7584086"></rect>
                    <path d="M27.2672057,57.4380023 C24.7996565,57.4548657 20.1607447,57.743035 18.2816378,58.3549359 L27.2672057,66.8439994 L36.2527737,58.3549359 C34.3737791,57.7431497 29.734755,57.4548657 27.2672057,57.4380023 L27.2672057,57.4380023 Z" id="Shape" fill="#CDEEF7"></path>
                    <rect id="Rectangle-342-Copy-16" fill="#FDD7AD" x="22.3471074" y="46.8146727" width="9.91094881" height="19.3133609" rx="4.95547441"></rect>
                    <polygon id="Fill-4" fill="#FAC47B" points="22.3471074 55.7530737 32.2591077 55.7530737 32.2591077 53.0866385 22.3471074 53.0866385"></polygon>
                    <ellipse id="Oval-38-Copy-9" fill="#FDD7AD" cx="6.60785444" cy="34.1079979" rx="3.96437952" ry="4.01664352"></ellipse>
                    <ellipse id="Oval-38-Copy-10" fill="#FDD7AD" cx="48.0356205" cy="34.1079979" rx="3.96437952" ry="4.01664352"></ellipse>
                    <ellipse id="Oval-38-Copy-11" fill="#805333" cx="46.5489782" cy="34.208414" rx="2.4777372" ry="2.5104022"></ellipse>
                    <ellipse id="Oval-38-Copy-12" fill="#805333" cx="8.09449676" cy="34.208414" rx="2.4777372" ry="2.5104022"></ellipse>
                    <rect id="Rectangle-342-Copy-5" fill="#582628" x="45.0623358" y="11.6147942" width="5.94656929" height="20.8865463" rx="2.97328464"></rect>
                    <rect id="Rectangle-342-Copy-6" fill="#582628" x="3.6345698" y="11.6147942" width="5.94656929" height="20.8865463" rx="2.97328464"></rect>
                    <rect id="Rectangle-342-Copy-14" fill="#FDD7AD" x="6.60785444" y="5.5898289" width="41.427766" height="47.7980579"></rect>
                    <path d="M6.44628099,0 L43.3378373,0 C46.6646266,0 49.3615222,2.70423962 49.3615222,6.02496528 L49.3615222,12.0499306 L6.44628099,12.0499306 L6.44628099,0 Z M6.44628099,0 L9.51165536,0 L9.51165536,6.02496528 L6.44628099,6.02496528 L6.44628099,0 Z" id="Combined-Shape-Copy" fill="#582628"></path>
                    <path d="M25.7035044,32.6968407 C26.7041502,31.3411575 27.606709,31.1590756 28.7417516,32.6968407 C29.8767942,34.2346057 29.5954077,36.1750884 29.5954077,36.1750884 C29.5986374,37.492116 28.5217608,38.5597778 27.2086908,38.5597778 L27.2365652,38.5597778 C25.9151881,38.5597778 24.8413794,37.4971721 24.8964284,36.1670403 C24.8964284,36.1670403 24.7028586,34.0525238 25.7035044,32.6968407 Z" id="Rectangle-342-Copy-15" fill="#FAC176" opacity="0.9"></path>
                    <path d="M39.5122045,31.0285712 C39.5122045,32.1371648 38.6241835,33.0368929 37.5300147,33.0368929 C36.435846,33.0368929 35.547825,32.1371648 35.547825,31.0285712 C35.547825,29.9199776 36.435846,29.0202494 37.5300147,29.0202494 C38.6241835,29.0202494 39.5122045,29.9199776 39.5122045,31.0285712" id="Fill-49-Copy-4" fill="#0B2C48"></path>
                    <path d="M18.897431,31.0285712 C18.897431,32.1371648 18.00941,33.0368929 16.9152412,33.0368929 C15.8210725,33.0368929 14.9330514,32.1371648 14.9330514,31.0285712 C14.9330514,29.9199776 15.8210725,29.0202494 16.9152412,29.0202494 C18.00941,29.0202494 18.897431,29.9199776 18.897431,31.0285712" id="Fill-49-Copy-5" fill="#0B2C48"></path>
                    <path d="M31.2195154,42.7437814 C31.2195154,44.1959989 29.4813332,45.3726746 27.3387843,45.3726746 C25.1942532,45.3726746 23.4564674,44.1959989 23.4564674,42.7437814 L31.2195154,42.7437814 Z" id="Fill-41-Copy-2" fill="#E56B6B"></path>
                    <path d="M6.44628099,12.1880378 C10.0064637,12.1880378 12.892562,9.26389095 12.892562,5.65677296 C12.892562,5.65677297 0,5.65677296 0,5.65677296 C0,9.26389095 2.88609831,12.1880378 6.44628099,12.1880378 Z" id="Oval-50-Copy-2" fill="#582628"></path>
                    <path d="M12.8871484,17.8398884 C16.9190323,17.8398884 20.18752,14.528311 20.18752,10.4432731 C20.18752,10.4432732 5.58677686,10.4432731 5.58677686,10.4432731 C5.58677686,14.528311 8.85526455,17.8398884 12.8871484,17.8398884 Z" id="Oval-50-Copy-2" fill="#582628"></path>
                    <path d="M22.4849446,17.8398884 C26.5168285,17.8398884 29.7853162,14.528311 29.7853162,10.4432731 C29.7853162,10.4432732 15.184573,10.4432731 15.184573,10.4432731 C15.184573,14.528311 18.4530607,17.8398884 22.4849446,17.8398884 Z" id="Oval-50-Copy-2" fill="#582628"></path>
                    <path d="M32.0827407,17.8398884 C36.1146246,17.8398884 39.3831123,14.528311 39.3831123,10.4432731 C39.3831123,10.4432732 24.7823691,10.4432731 24.7823691,10.4432731 C24.7823691,14.528311 28.0508568,17.8398884 32.0827407,17.8398884 Z" id="Oval-50-Copy-2" fill="#582628"></path>
                    <path d="M41.6805369,17.8398884 C45.7124208,17.8398884 48.9809085,14.528311 48.9809085,10.4432731 C48.9809085,10.4432732 34.3801653,10.4432731 34.3801653,10.4432731 C34.3801653,14.528311 37.648653,17.8398884 41.6805369,17.8398884 Z" id="Oval-50-Copy-2" fill="#582628"></path>
                    <path d="M9.45454545,6.53126488 C13.0147281,6.53126488 15.9008264,3.60711799 15.9008264,-7.25116065e-17 C15.9008264,1.31468812e-08 3.00826446,-7.25116065e-17 3.00826446,-7.25116065e-17 C3.00826446,3.60711799 5.89436277,6.53126488 9.45454545,6.53126488 Z" id="Oval-50-Copy-3" fill="#582628"></path>
                    <path d="M22.9917355,72.7729135 L22.9917355,72.7729135 C22.6371901,72.7729135 22.3471074,71.9581487 22.3471074,70.962325 L22.3471074,65.5305597 C22.3471074,64.534736 22.6371901,63.7199712 22.9917355,63.7199712 L22.9917355,63.7199712 C23.346281,63.7199712 23.6363636,64.534736 23.6363636,65.5305597 L23.6363636,70.962325 C23.6363636,71.9581487 23.3462004,72.7729135 22.9917355,72.7729135 L22.9917355,72.7729135 Z" id="Shape" fill="#FFC500"></path>
                    <path d="M31.5867769,72.5828539 L31.5867769,72.5828539 C31.2322314,72.5828539 30.9421488,71.7680891 30.9421488,70.7722655 L30.9421488,65.3405001 C30.9421488,64.3446765 31.2322314,63.5299117 31.5867769,63.5299117 L31.5867769,63.5299117 C31.9413223,63.5299117 32.231405,64.3446765 32.231405,65.3405001 L32.231405,70.7722655 C32.231405,71.7680891 31.9412417,72.5828539 31.5867769,72.5828539 L31.5867769,72.5828539 Z" id="Shape-Copy" fill="#FFC500"></path>
                    <path d="M36.1762355,58.3082751 L27.2924521,66.0392066 L18.4085576,58.3082751 C17.2234236,58.932384 18.2419034,59.8969159 17.4641834,60.4265007 C16.4760348,61.0994036 16.6309121,61.9394542 16.6309121,61.9394542 L27.288008,67.3816839 L37.953881,61.9394542 C37.953881,61.9394542 38.1088695,61.0994036 37.1206097,60.4265007 C36.3428898,59.8969159 37.3613695,58.932384 36.1762355,58.3082751 Z" id="Shape" fill="#FFFFFF"></path>
                </g>
            </g>
            <g id="check" transform="translate(76.701031, 0.000000)">
                <g id="Group-3">
                    <ellipse id="Oval-6" stroke="#E56B6B" stroke-width="2" fill="#FFFFFF" cx="12.371134" cy="12.371134" rx="12.371134" ry="12.371134"></ellipse>
                    <path d="M9.5226742,7.42268041 C8.70245289,7.42268041 7.88893528,7.70865318 7.253225,8.30428609 C5.85511844,9.614261 5.83012782,11.8047071 7.17829875,13.1463106 L12.3711487,18.3134238 L17.5639075,13.1463106 C18.9121241,11.8047525 18.887179,9.61435176 17.4890725,8.30433147 C16.8534078,7.70878932 16.0397078,7.42277117 15.2195777,7.42272579 C14.2962473,7.42268041 13.3647539,7.78525141 12.6697593,8.47685899 L12.3711031,8.77404015 L12.0724926,8.47681361 C11.3775892,7.78525141 10.4459134,7.42268041 9.5226742,7.42268041 L9.5226742,7.42268041 Z" id="heart" fill="#E56B6B"></path>
                </g>
            </g>
            <path d="M62.8,26.2255356 C62.8,26.2255356 62.8,13.8544016 75.171134,13.8544016" id="Stroke-4" stroke="#E46B6B" stroke-width="3" stroke-linecap="round" stroke-linejoin="bevel" stroke-dasharray="3,6"></path>
        </g>
    </g>
</svg>