<?xml version="1.0" encoding="UTF-8"?>
<svg width="120px" height="120px" viewBox="0 0 120 120" version="1.1" xmlns="http://www.w3.org/2000/svg" xmlns:xlink="http://www.w3.org/1999/xlink">
    <!-- Generator: Sketch 39.1 (31720) - http://www.bohemiancoding.com/sketch -->
    <title>service-vd</title>
    <desc>Created with Sketch.</desc>
    <defs></defs>
    <g id="首頁" stroke="none" stroke-width="1" fill="none" fill-rule="evenodd">
        <g id="service-vd">
            <g id="123">
                <g id="Layer_1">
                    <g id="Group" transform="translate(0.000000, -0.000000)">
                        <ellipse id="Oval" fill="#E9E9E9" cx="60" cy="60" rx="60" ry="60"></ellipse>
                        <rect id="Rectangle-path" fill="#2A2A2F" x="57.3917323" y="15.2444159" width="4.21653543" height="9.11859232"></rect>
                        <rect id="Rectangle-path" fill="#FFFFFF" x="24.5360825" y="20.8163265" width="70.4629921" height="68.5531094"></rect>
                        <g id="graphic" transform="translate(31.670103, 34.285714)">
                            <path d="M42.7584371,15.6420264 C40.5581069,15.6420264 38.4881195,16.1894417 36.6748439,17.1490886 L43.7519039,29.3961792 L29.8938369,29.3961792 C30.4026906,35.9891341 35.961336,41.1854531 42.7584371,41.1854531 C49.8911313,41.1854531 55.6735055,35.4672623 55.6735055,28.4137397 C55.6735055,21.3602172 49.8911313,15.6420264 42.7584371,15.6420264 L42.7584371,15.6420264 Z" id="Shape" fill="#295185"></path>
                            <rect id="Rectangle-path" fill="#E56B6B" x="0.0393649604" y="15.6420264" width="23.8432031" height="23.5785477"></rect>
                            <ellipse id="Oval" fill="#59C6E5" cx="42.7584371" cy="28.4137397" rx="12.9150683" ry="12.7717133"></ellipse>
                            <polygon id="Triangle-1" fill="#FFC500" points="28.100935 0 43.5073124 27.3374466 12.6945577 27.3374466"></polygon>
                            <polygon id="Shape" fill-opacity="0.15" fill="#000000" points="38.257732 20.5400056 63.3571979 10.7379773 63.3571979 19.4584313"></polygon>
                        </g>
                        <rect id="Rectangle-path" fill="#2A2A2F" x="24.2685039" y="89.7363008" width="70.4629921" height="4.11505705"></rect>
                        <rect id="Rectangle-path" fill="#2A2A2F" x="38.8389764" y="105.728909" width="41.2751969" height="3.08629278"></rect>
                        <path d="M73.6956693,92.0744014 L80.1610236,115.081311 C81.3322835,114.660453 82.4566929,114.192833 83.5811024,113.678451 L77.2562992,91.0456372 L73.6956693,92.0744014 L73.6956693,92.0744014 Z" id="Shape" fill="#2A2A2F"></path>
                        <path d="M41.7905512,91.0923992 L35.465748,113.725213 C36.5901575,114.239595 37.7145669,114.707215 38.8858268,115.128073 L45.3511811,92.1211634 L41.7905512,91.0923992 L41.7905512,91.0923992 Z" id="Shape" fill="#2A2A2F"></path>
                    </g>
                </g>
            </g>
            <g id="Group-46" transform="translate(85.628866, 32.551020) rotate(-345.000000) translate(-85.628866, -32.551020) translate(66.000000, 5.000000)">
                <path d="M37.8605902,0.278857185 C30.7999787,-3.49384358 17.0999937,32.2614175 17.0999937,32.2614175 L19.0409634,33.3453295 L21.031788,34.4566732 C21.0315472,34.4569118 44.7754905,4.30870081 37.8605902,0.278857185 L37.8605902,0.278857185 Z" id="Shape" fill="#296693"></path>
                <path d="M37.8466212,0.238536973 L19.0267535,33.3050093 L21.0175781,34.416353 C21.0175781,34.4165916 44.7615215,4.2683806 37.8466212,0.238536973 L37.8466212,0.238536973 Z" id="Shape" fill-opacity="0.1" fill="#000000"></path>
                <polyline id="Rectangle-path" fill="#C3C6CA" points="16.9816302 32.4410284 20.8640064 34.6081303 18.0922301 39.4790689 14.2098539 37.3119669 16.9816302 32.4410284"></polyline>
                <polyline id="Rectangle-path" fill-opacity="0.1" fill="#000000" points="18.9077073 33.3951763 20.8492101 34.4786822 18.0781166 39.3494129 16.1366137 38.265907 18.9077073 33.3951763"></polyline>
                <path d="M14.3035426,37.2123236 C14.3035426,37.2123236 5.73427816,36.9880989 5.63769932,45.547044 C5.54087964,54.1064662 2.61509027e-13,51.8573011 2.61509027e-13,51.8573011 C2.61509027e-13,51.8573011 7.7985605,59.3592889 16.3943179,51.214921 C23.7966884,44.2009799 18.1857229,39.379432 18.1857229,39.379432 L14.3035426,37.2123236 L14.3035426,37.2123236 Z" id="Shape" fill="#582628"></path>
                <path d="M18.180906,39.3794412 L14.2987257,37.2123328 C14.2987257,37.2123328 13.7551386,37.1980205 12.9413234,37.3134724 C13.4408359,37.7757571 18.1303285,42.4563296 11.1072888,49.1103184 C7.49172399,52.5366635 4.0168126,53.1935944 1.20422491,52.8050176 C3.71744229,54.5251077 9.82045411,57.4393139 16.389501,51.2149302 C23.7918715,44.200989 18.180906,39.3794412 18.180906,39.3794412 L18.180906,39.3794412 Z" id="Shape" fill-opacity="0.1" fill="#000000"></path>
            </g>
        </g>
    </g>
</svg>