<?xml version="1.0" encoding="UTF-8"?>
<svg width="120px" height="120px" viewBox="0 0 120 120" version="1.1" xmlns="http://www.w3.org/2000/svg" xmlns:xlink="http://www.w3.org/1999/xlink">
    <!-- Generator: Sketch 39.1 (31720) - http://www.bohemiancoding.com/sketch -->
    <title>service-rwd</title>
    <desc>Created with Sketch.</desc>
    <defs>
        <path d="M60,0 C26.8632,0 0,26.8632 0,60 C0,93.1356 26.8632,120 60,120 C93.1356,120 120,93.1356 120,60 C120,26.8632 93.1356,0 60,0 L60,0 Z" id="path-1"></path>
    </defs>
    <g id="首頁" stroke="none" stroke-width="1" fill="none" fill-rule="evenodd">
        <g id="service-rwd">
            <mask id="mask-2" fill="white">
                <use xlink:href="#path-1"></use>
            </mask>
            <use id="Shape" fill="#E9E9E9" xlink:href="#path-1"></use>
            <g id="seo-marketing-business-responsive-adaptive-design" mask="url(#mask-2)">
                <g transform="translate(23.505155, 19.793814)" id="Group">
                    <g>
                        <g>
                            <path d="M0,63.7675726 C0,65.4376757 1.36157427,66.8041237 3.0257206,66.8041237 L69.5915737,66.8041237 C71.2617715,66.8041237 72.6172943,65.4437488 72.6172943,63.7675726 L72.6184963,12.1462043 L0,12.1462043 L0,63.7675726 Z" id="Shape" fill="#F6F6F8"></path>
                            <rect id="Rectangle-path" fill="#FFFFFF" x="6.18556701" y="12.371134" width="60.514412" height="48.5848172"></rect>
                            <g>
                                <path d="M69.5915737,0 L3.0257206,0 C1.35552283,0 0,1.36037488 0,3.03655108 L0,12.1462043 L72.6172943,12.1462043 L72.6172943,3.03655108 C72.6172943,1.36037488 71.2617715,0 69.5915737,0 L69.5915737,0 Z" id="Shape" fill="#2A2A2F"></path>
                                <ellipse id="Oval" fill="#E56B6B" cx="6.0514412" cy="6.07310216" rx="3.0257206" ry="3.03655108"></ellipse>
                                <ellipse id="Oval" fill="#FFC500" cx="15.128603" cy="6.07310216" rx="3.0257206" ry="3.03655108"></ellipse>
                                <ellipse id="Oval" fill="#69C2B2" cx="24.2057648" cy="6.07310216" rx="3.0257206" ry="3.03655108"></ellipse>
                            </g>
                        </g>
                        <rect id="Rectangle-path" fill="#59C6E5" x="12.1028824" y="18.2193065" width="48.4115296" height="21.2558575"></rect>
                        <rect id="Rectangle-path" fill="#FFC500" x="12.1028824" y="45.5482662" width="21.1800442" height="6.07310216"></rect>
                        <rect id="Rectangle-path" fill="#59C6E5" x="39.3343678" y="45.5482662" width="21.1800442" height="6.07310216"></rect>
                    </g>
                </g>
            </g>
            <g id="hand_phone" mask="url(#mask-2)">
                <g transform="translate(34.000000, 47.000000)">
                    <g id="Group-26">
                        <path d="M45.2674672,10.4266486 C45.7588181,12.2407607 44.3603097,14.2606846 42.1599483,14.9156594 L34.9428545,17.0636973 C32.7424931,17.7186721 30.5406749,16.7708029 30.0499484,14.9566908 C29.5588055,13.1425787 30.9568977,11.1226548 33.1572591,10.4674618 L40.3747691,8.31876906 C42.5749224,7.66423078 44.7765325,8.61231824 45.2674672,10.4266486" id="Fill-5" fill="#FDD7AD"></path>
                        <path d="M49.8166566,17.956567 C50.3714815,20.0072645 48.7906676,22.2904005 46.3035287,23.0307119 L38.1461878,25.4592039 C35.6594652,26.199297 33.1702452,25.1274605 32.6158365,23.0767631 C32.0601792,21.0267204 33.6409931,18.7431478 36.1277157,18.0028365 L44.2863053,15.5743445 C46.773028,14.8342513 49.2614155,15.906306 49.8166566,17.956567" id="Fill-7" fill="#FDD7AD"></path>
                        <path d="M47.8115453,27.3893606 C48.296861,29.1833935 46.9141691,31.1808375 44.7377405,31.8288282 L37.6009777,33.9530766 C35.4251734,34.6006309 33.2474961,33.6630195 32.7623886,31.8687683 C32.2764485,30.0753902 33.6595566,28.0772915 35.8349447,27.4297373 L42.9729562,25.3046158 C45.1483442,24.6572799 47.3258134,25.5951095 47.8115453,27.3893606" id="Fill-9" fill="#FDD7AD"></path>
                        <path d="M45.8369431,36.043998 C46.2604497,37.6099574 45.0531957,39.353574 43.1537633,39.9192837 L36.9239498,41.7737724 C35.0249336,42.3388273 33.1238364,41.5203816 32.6999135,39.954204 C32.2759907,38.3884629 33.4832447,36.644628 35.382469,36.0791366 L41.613323,34.2242113 C43.5123392,33.6589382 45.4130202,34.4778204 45.8369431,36.043998" id="Fill-11" fill="#FDD7AD"></path>
                        <g id="phone" transform="translate(11.000000, 0.000000)">
                            <path d="M28.8119284,53.8667553 C28.8116002,56.0124752 27.2387658,57.7511895 25.3000414,57.7511895 L3.56519503,57.7447182 C1.62614247,57.7440371 0.0552769169,56.0029386 0.0559332217,53.8575593 L0.0687311654,4.26179817 C0.0693874702,2.11607826 1.64189379,0.375661007 3.58061819,0.377023368 L25.3154645,0.384175768 C27.2538608,0.384856949 28.8260389,2.12459302 28.8250545,4.2713347 L28.8119284,53.8667553 Z" id="Fill-55" fill="#2A2A2F"></path>
                            <path d="M18.5254334,2.97242486 C18.5254334,3.27929686 18.2819443,3.52826849 17.9816849,3.52758731 L10.9126258,3.52486259 C10.6120382,3.52486259 10.3692054,3.27691273 10.3692054,2.97038132 C10.3692054,2.66316872 10.6126945,2.41487827 10.912954,2.41487827 L17.9816849,2.41692182 C18.2819443,2.417603 18.5254334,2.66589344 18.5254334,2.97242486" id="Fill-57" fill="#576A72"></path>
                            <polygon id="Fill-56" fill="#FFFFFF" points="26.9734545 49.5268835 1.89670413 49.5190499 1.90851762 5.10741616 26.9849399 5.11559033"></polygon>
                            <g id="Group-16" transform="translate(2.000000, 4.817150)">
                                <rect id="Rectangle-path" fill="#FFFFFF" x="0.59356184" y="0" width="24.3770764" height="40.1382646"></rect>
                                <rect id="Rectangle-path" fill="#59C6E5" x="5.92994058" y="6.14950166" width="13.7043189" height="19.9335548"></rect>
                                <rect id="Rectangle-path" fill="#FFC500" x="5.92994058" y="29.820598" width="13.7043189" height="4.9833887"></rect>
                            </g>
                            <path d="M18.313611,3.41212714 C18.2220565,3.48467291 18.1065469,3.52758731 17.9815208,3.52758731 L10.9124617,3.52486259 C10.6118741,3.52486259 10.3690413,3.27691273 10.3690413,2.97038132 C10.3690413,2.66316872 10.6125304,2.41487827 10.9127899,2.41487827 C10.9127899,2.41487827 10.706382,2.66963994 10.7897327,2.97038132 C10.8734116,3.27146328 11.7092158,3.29394225 12.0859347,3.29394225 C12.4619974,3.29462343 18.313611,3.41212714 18.313611,3.41212714" id="Fill-58" fill="#2C404D"></path>
                            <path d="M16.5334499,53.5976547 C16.533778,52.3054545 15.5873865,51.2567765 14.4204766,51.2567765 C13.2532385,51.2567765 12.3061906,52.3040922 12.3058625,53.5962924 C12.3052062,54.8884926 13.2519258,55.9364894 14.4191639,55.9364894 C15.5867302,55.9364894 16.5331217,54.8898549 16.5334499,53.5976547" id="Fill-59" fill="#1D1E27"></path>
                            <path d="M16.2254789,53.5976547 C16.2254789,52.4934605 15.4175676,51.5987293 14.4203125,51.5987293 C13.4227292,51.5980481 12.6141616,52.4920981 12.6138335,53.5962924 C12.6138335,54.7001461 13.4217447,55.5945366 14.419328,55.5945366 C15.4165832,55.595899 16.2251507,54.7015084 16.2254789,53.5976547" id="Fill-60" fill="#2A2A2F"></path>
                        </g>
                        <path d="M0.0178767658,42.2164533 L5.20276317,31.1790042 L5.20276317,20.0920118 C5.20276317,20.0920118 4.55158273,15.708635 8.32152,15.708635 C12.0920816,15.708635 11.2336222,19.5765001 11.2336222,19.5765001 L11.2896042,33.9569179 C11.2896042,33.9569179 21.356575,41.2495962 14.9105337,57.6185095 L29.8801919,57.6185095 L21.6021464,66.5668488 L1.6875542,66.5668488 L0.0178767658,42.2164533 Z" id="Fill-23" fill="#FDD7AD"></path>
                    </g>
                    <g id="Group-28" transform="translate(0.000000, 65.516099)">
                        <path d="M9.13516847e-15,2.37553915 C1.00501292e-14,1.06356511 3.03118089,-2.50787359e-13 6.76335024,-2.50466314e-13 L21.4357389,-2.49204181e-13 C25.1710341,-2.48882867e-13 28.1990892,1.0636303 28.1990892,2.37553915 L28.1990892,15.4745763 L0,15.4745763 L9.13516847e-15,2.37553915" id="Rectangle-345" fill="#125688"></path>
                        <path d="M21.914315,4.80202245 C22.8913273,4.77956338 23.7019757,5.5571242 23.7237126,6.53938827 C23.7468067,7.52137307 22.9724936,8.33558859 21.995321,8.35864938 C21.0196659,8.38082918 20.2096159,7.60342959 20.1872806,6.6210043 C20.1647849,5.63918072 20.9379011,4.82464274 21.914315,4.80202245" id="Fill-7" fill="#FFFFFF"></path>
                    </g>
                </g>
            </g>
        </g>
    </g>
</svg>