<?xml version="1.0" encoding="UTF-8"?>
<svg width="131px" height="123px" viewBox="0 0 131 123" version="1.1" xmlns="http://www.w3.org/2000/svg" xmlns:xlink="http://www.w3.org/1999/xlink">
    <!-- Generator: Sketch 39.1 (31720) - http://www.bohemiancoding.com/sketch -->
    <title>service-ui</title>
    <desc>Created with Sketch.</desc>
    <defs>
        <path d="M59.4787941,0 C26.6298457,0 -3.96408053e-13,26.6298457 -3.96408053e-13,59.4787941 C-3.96408053e-13,92.3265529 26.6298457,118.957588 59.4787941,118.957588 C92.3265529,118.957588 118.957588,92.3265529 118.957588,59.4787941 C118.957588,26.6298457 92.3265529,0 59.4787941,0 L59.4787941,0 Z" id="path-1"></path>
        <ellipse id="path-3" cx="12.2636689" cy="12.2636689" rx="12.2636689" ry="12.2636689"></ellipse>
        <mask id="mask-4" maskContentUnits="userSpaceOnUse" maskUnits="objectBoundingBox" x="-2" y="-2" width="28.5273378" height="28.5273378">
            <rect x="-2" y="-2" width="28.5273378" height="28.5273378" fill="white"></rect>
            <use xlink:href="#path-3" fill="black"></use>
        </mask>
        <ellipse id="path-5" cx="12.2636689" cy="12.2636689" rx="12.2636689" ry="12.2636689"></ellipse>
        <mask id="mask-6" maskContentUnits="userSpaceOnUse" maskUnits="objectBoundingBox" x="-2" y="-2" width="28.5273378" height="28.5273378">
            <rect x="-2" y="-2" width="28.5273378" height="28.5273378" fill="white"></rect>
            <use xlink:href="#path-5" fill="black"></use>
        </mask>
        <ellipse id="path-7" cx="12.2636689" cy="12.2636689" rx="12.2636689" ry="12.2636689"></ellipse>
        <mask id="mask-8" maskContentUnits="userSpaceOnUse" maskUnits="objectBoundingBox" x="-2" y="-2" width="28.5273378" height="28.5273378">
            <rect x="-2" y="-2" width="28.5273378" height="28.5273378" fill="white"></rect>
            <use xlink:href="#path-7" fill="black"></use>
        </mask>
    </defs>
    <g id="首頁" stroke="none" stroke-width="1" fill="none" fill-rule="evenodd">
        <g id="service-ui" transform="translate(2.000000, 2.000000)">
            <g id="ICON" transform="translate(7.358201, 0.000000)">
                <mask id="mask-2" fill="white">
                    <use xlink:href="#path-1"></use>
                </mask>
                <use id="Shape" fill="#CDEEF7" xlink:href="#path-1"></use>
                <g id="Group" mask="url(#mask-2)">
                    <g transform="translate(22.074604, 26.980072)" id="Shape">
                        <path d="M60.0061318,0.380173735 L50.4895248,0.380173735 C49.8316893,0.380173735 49.2999489,0.911914154 49.2999489,1.56974962 L49.2999489,2.7593255 L61.1957077,2.7593255 L61.1957077,1.56974962 C61.1957077,0.911914154 60.6639673,0.380173735 60.0061318,0.380173735 L60.0061318,0.380173735 Z M0.527337762,21.79135 L0.527337762,28.9288053 C0.527337762,29.5866408 1.06026776,30.1183812 1.71691364,30.1183812 L2.90648952,30.1183812 L2.90648952,20.6017741 L1.71691364,20.6017741 C1.06026776,20.6017741 0.527337762,21.1358937 0.527337762,21.79135 L0.527337762,21.79135 Z M0.527337762,38.4454124 L0.527337762,42.01414 C0.527337762,42.673165 1.06026776,43.206095 1.71691364,43.206095 L2.90648952,43.206095 L2.90648952,37.2570261 L1.71691364,37.2570261 C1.06026776,37.2570261 0.527337762,37.7887665 0.527337762,38.4454124 L0.527337762,38.4454124 Z M0.527337762,50.3423608 L0.527337762,53.9098988 C0.527337762,54.5689239 1.06026776,55.0994747 1.71691364,55.0994747 L2.90648952,55.0994747 L2.90648952,49.1515953 L1.71691364,49.1515953 C1.06026776,49.1515953 0.527337762,49.6845253 0.527337762,50.3423608 L0.527337762,50.3423608 Z" fill="#1D1E27"></path>
                        <path d="M63.5748595,1.56974962 L11.2335207,1.56974962 C5.97797445,1.56974962 1.71691364,5.82962085 1.71691364,11.0863567 L1.71691364,80.0829474 C11.6581993,87.5487256 24.0131344,91.9775166 37.4041901,91.9775166 C50.7952458,91.9775166 63.15256,87.5487256 73.0914665,80.0829474 L73.0914665,11.0863567 C73.0914665,5.82962085 68.8304057,1.56974962 63.5748595,1.56974962 L63.5748595,1.56974962 Z" fill="#2A2A2F"></path>
                        <path d="M65.9540112,21.79135 L8.85436893,21.79135 C7.54107716,21.79135 6.47521717,22.85721 6.47521717,24.1716914 L6.47521717,83.3114563 C15.487444,88.8084865 26.075859,91.9775166 37.4041901,91.9775166 C48.7325212,91.9775166 59.3209361,88.8084865 68.333163,83.3114563 L68.333163,24.1716914 C68.333163,22.8583996 67.267303,21.79135 65.9540112,21.79135 L65.9540112,21.79135 Z" fill="#1D1E27"></path>
                        <path d="M8.85436893,84.6842269 C17.3300971,89.3307103 27.0572591,91.9775166 37.4041901,91.9775166 C47.7499315,91.9775166 57.4782831,89.3307103 65.9540112,84.6842269 L65.9540112,24.1716914 L8.85436893,24.1716914 L8.85436893,84.6842269 L8.85436893,84.6842269 Z" fill="#FFFFFF"></path>
                        <path d="M43.3520695,13.4643189 L32.6458866,13.4643189 C31.9892407,13.4643189 31.4563107,13.9972489 31.4563107,14.6538947 C31.4563107,15.3117302 31.9892407,15.8434706 32.6458866,15.8434706 L43.3520695,15.8434706 C44.009905,15.8434706 44.5416454,15.3117302 44.5416454,14.6538947 C44.5416454,13.9972489 44.009905,13.4643189 43.3520695,13.4643189 L43.3520695,13.4643189 Z M37.998978,11.0863567 C38.9839469,11.0863567 39.7833418,10.2869617 39.7833418,9.30199285 C39.7833418,8.31583444 38.9839469,7.51762902 37.998978,7.51762902 C37.0128196,7.51762902 36.2146142,8.31583444 36.2146142,9.30199285 C36.2146142,10.2869617 37.0128196,11.0863567 37.998978,11.0863567 L37.998978,11.0863567 Z" fill="#787878"></path>
                    </g>
                </g>
                <g id="hand-touch-gestures-doubleclick-02" mask="url(#mask-2)">
                    <g transform="translate(35.564640, 53.960143)">
                        <g id="Group" stroke-width="1" fill="none" transform="translate(3.679101, 0.000000)">
                            <path d="M22.074604,9.36318707 C29.7295558,9.36318707 35.9573602,15.8398462 35.9573602,23.8006795 C35.9573602,31.7615127 29.7295558,38.2381718 22.074604,38.2381718 C14.4196522,38.2381718 8.19184775,31.7615127 8.19184775,23.8006795 C8.19184775,15.8398462 14.4196522,9.36318707 22.074604,9.36318707 L22.074604,9.36318707 Z M22.074604,7.30068816 C13.3121057,7.30068816 6.20859686,14.6879405 6.20859686,23.8006795 C6.20859686,32.9134184 13.3121057,40.3006707 22.074604,40.3006707 C30.8371022,40.3006707 37.9406111,32.9134184 37.9406111,23.8006795 C37.9406111,14.6879405 30.8372014,7.30068816 22.074604,7.30068816 L22.074604,7.30068816 Z" id="Shape" fill="#59C6E5" opacity="0.503556437"></path>
                            <path d="M22.074604,3.94912743 C32.6001627,3.94912743 41.1633938,12.8545337 41.1633938,23.8006795 C41.1633938,34.7468252 32.6001627,43.6522315 22.074604,43.6522315 C11.5490453,43.6522315 2.98581416,34.7468252 2.98581416,23.8006795 C2.98581416,12.8545337 11.5490453,3.94912743 22.074604,3.94912743 L22.074604,3.94912743 Z M22.074604,1.11319143 C10.0261689,1.11319143 0.258844187,11.2706634 0.258844187,23.8006795 C0.258844187,36.3306955 10.0261689,46.4881675 22.074604,46.4881675 C34.1230391,46.4881675 43.8903638,36.3306955 43.8903638,23.8006795 C43.8903638,11.2706634 34.1231754,1.11319143 22.074604,1.11319143 L22.074604,1.11319143 Z" id="Shape" fill="#59C6E5" opacity="0.100000001"></path>
                            <path d="M22.074604,15.5506838 C26.4488622,15.5506838 30.0076075,19.2516319 30.0076075,23.8006795 C30.0076075,28.3497271 26.4488622,32.0506751 22.074604,32.0506751 C17.7003458,32.0506751 14.1416004,28.3497271 14.1416004,23.8006795 C14.1416004,19.2516319 17.7003458,15.5506838 22.074604,15.5506838 L22.074604,15.5506838 Z M22.074604,13.4881849 C16.598055,13.4881849 12.1583495,18.1051918 12.1583495,23.8006795 C12.1583495,29.4961671 16.598055,34.113174 22.074604,34.113174 C27.551153,34.113174 31.9908584,29.4961671 31.9908584,23.8006795 C31.9908584,18.1051918 27.5512522,13.4881849 22.074604,13.4881849 L22.074604,13.4881849 Z" id="Shape" fill="#59C6E5"></path>
                        </g>
                        <path d="M38.8882167,47.1294021 C34.6004701,47.1294021 32.6751967,49.2824119 30.225161,51.7357588 L30.225161,25.9845069 C30.225161,23.2863771 28.0177006,21.0790393 25.3196934,21.0790393 C22.6216863,21.0790393 20.4142259,23.2863771 20.4142259,25.9845069 L20.4142259,39.1899029 C18.7776392,37.1811139 15.9205723,36.7751865 13.7992029,38.2995606 L3.23527849,44.4142259 C1.77602453,45.2628717 0.792478283,46.8350741 0.792478283,48.6402862 L0.792478283,56.7073275 C0.792478283,65.4783035 7.90050077,72.586326 16.6714768,72.586326 C20.9196117,72.586326 24.7679509,70.9086561 27.6154522,68.1910271 L44.4191313,51.4094226 C46.7261727,49.1105979 42.1861625,47.1294021 38.8882167,47.1294021 L38.8882167,47.1294021 Z" id="Shape" fill="#FDD7AD"></path>
                    </g>
                </g>
            </g>
            <g id="check-copy-3" transform="translate(0.000000, 38.017374)">
                <g id="Group-3">
                    <g id="Oval-6">
                        <use fill="#FFFFFF" fill-rule="evenodd" xlink:href="#path-3"></use>
                        <use stroke="#69C2B2" mask="url(#mask-4)" stroke-width="4" xlink:href="#path-3"></use>
                    </g>
                    <path d="M6.49701846,12.7725025 L10.4197807,16.8151061 C10.9066927,17.3168934 11.6961331,17.3168934 12.1830451,16.8151061 L18.0303193,10.7891963 C18.5172313,10.287409 18.5172313,9.47385105 18.0303193,8.97206375 C17.5434073,8.47027645 16.7539669,8.47027645 16.2670549,8.97206375 L10.4197807,14.9979735 L12.1830451,14.9979735 L8.26028287,10.95537 C7.77337085,10.4535827 6.98393048,10.4535827 6.49701846,10.95537 C6.01010643,11.4571573 6.01010643,12.2707152 6.49701846,12.7725025 L6.49701846,12.7725025 Z" id="Check-Icon" fill="#69C2B2"></path>
                </g>
            </g>
            <g id="check-copy-2" transform="translate(90.751150, 0.000000)">
                <g id="Group-3">
                    <g id="Oval-6">
                        <use fill="#FFFFFF" fill-rule="evenodd" xlink:href="#path-5"></use>
                        <use stroke="#FFC500" mask="url(#mask-6)" stroke-width="4" xlink:href="#path-5"></use>
                    </g>
                    <path d="M17.1691364,11.037302 L13.4900358,11.037302 L13.4900358,7.35820133 C13.4900358,6.68094021 12.94093,6.13183444 12.2636689,6.13183444 C11.5864078,6.13183444 11.037302,6.68094021 11.037302,7.35820133 L11.037302,11.037302 L7.35820133,11.037302 C6.68094021,11.037302 6.13183444,11.5864078 6.13183444,12.2636689 C6.13183444,12.94093 6.68094021,13.4900358 7.35820133,13.4900358 L11.037302,13.4900358 L11.037302,17.1691364 C11.037302,17.8463975 11.5864078,18.3955033 12.2636689,18.3955033 C12.94093,18.3955033 13.4900358,17.8463975 13.4900358,17.1691364 L13.4900358,13.4900358 L17.1691364,13.4900358 C17.8463975,13.4900358 18.3955033,12.94093 18.3955033,12.2636689 C18.3955033,11.5864078 17.8463975,11.037302 17.1691364,11.037302 L17.1691364,11.037302 Z" id="Path" fill="#FFC500"></path>
                </g>
            </g>
            <g id="check-copy-4" transform="translate(101.788452, 94.430250)">
                <g id="Group-3">
                    <g id="Oval-6">
                        <use fill="#FFFFFF" fill-rule="evenodd" xlink:href="#path-7"></use>
                        <use stroke="#E56B6B" mask="url(#mask-8)" stroke-width="4" xlink:href="#path-7"></use>
                    </g>
                    <path d="M17.9267633,6.60092477 C17.3013096,5.975471 16.2862486,5.975471 15.6611952,6.60092477 L12.2636438,9.99807571 L8.8664929,6.60132519 C8.24103913,5.97587142 7.22637854,5.97587142 6.60092477,6.60132519 C5.975471,7.22677896 5.975471,8.24143955 6.60092477,8.86609248 L9.99847613,12.2632434 L6.60092477,15.6603944 C5.975471,16.2858481 5.975471,17.3005087 6.60092477,17.9251617 C7.22637854,18.5506154 8.24103913,18.5506154 8.8664929,17.9251617 L12.2636438,14.5284111 L15.6607948,17.9251617 C16.2862486,18.5506154 17.3009092,18.5506154 17.9263629,17.9251617 C18.5518167,17.2997079 18.5518167,16.2846469 17.9263629,15.6603944 L14.5288116,12.2632434 L17.9263629,8.86609248 C18.5518167,8.2402383 18.5518167,7.22597812 17.9267633,6.60092477 L17.9267633,6.60092477 Z" id="Path" fill="#E56B6B"></path>
                </g>
            </g>
        </g>
    </g>
</svg>