<?xml version="1.0" encoding="UTF-8"?>
<svg width="120px" height="120px" viewBox="0 0 120 120" version="1.1" xmlns="http://www.w3.org/2000/svg" xmlns:xlink="http://www.w3.org/1999/xlink">
    <!-- Generator: Sketch 39.1 (31720) - http://www.bohemiancoding.com/sketch -->
    <title>service-consult</title>
    <desc>Created with Sketch.</desc>
    <defs>
        <ellipse id="path-1" cx="60" cy="60" rx="60" ry="60"></ellipse>
    </defs>
    <g id="首頁" stroke="none" stroke-width="1" fill="none" fill-rule="evenodd">
        <g id="service-consult">
            <mask id="mask-2" fill="white">
                <use xlink:href="#path-1"></use>
            </mask>
            <use id="Mask" fill="#CDEEF7" xlink:href="#path-1"></use>
            <g id="13-tech-power-flat" mask="url(#mask-2)">
                <g transform="translate(23.505155, 29.690722)" id="13---Tech-Power-(Flat)">
                    <g>
                        <g id="Page-1">
                            <g id="Icons">
                                <g id="13---Tech-Power-(Flat)">
                                    <path d="M43.0629357,16.9006672 C45.0364936,16.0463166 46.417824,14.1070511 46.417824,11.8440482 C46.417824,8.79144221 43.9096609,6.31682573 40.8156728,6.31682573 C38.5219921,6.31682573 36.5564373,7.68126008 35.6905048,9.62684241 L43.0629357,16.9006672" id="Fill-1499" fill="#FDD7AD"></path>
                                    <path d="M51.0660088,24.7966994 C53.0395667,23.9423487 54.4208971,22.0030832 54.4208971,19.7400804 C54.4208971,16.6874744 51.912734,14.2128579 48.8187459,14.2128579 C46.5250652,14.2128579 44.5595104,15.5772922 43.6935779,17.5228746 L51.0660088,24.7966994" id="Fill-1500" fill="#FDD7AD"></path>
                                    <path d="M59.0690819,32.6927315 C61.0426398,31.8383809 62.4239702,29.8991154 62.4239702,27.6361126 C62.4239702,24.5835065 59.9158071,22.10889 56.821819,22.10889 C54.5281383,22.10889 52.5625835,23.4717452 51.696651,25.4189067 L59.0690819,32.6927315" id="Fill-1501" fill="#FDD7AD"></path>
                                    <path d="M67.072155,40.5887637 C69.0457129,39.734413 70.4270433,37.7951475 70.4270433,35.5321447 C70.4270433,32.4795387 67.9188802,30.0049222 64.8248921,30.0049222 C62.5312114,30.0049222 60.5656566,31.3693566 59.6997241,33.3149389 L67.072155,40.5887637" id="Fill-1502" fill="#FDD7AD"></path>
                                    <path d="M34.4132143,52.1138122 L18.4070681,52.1138122 C15.325885,52.1138122 12.804917,49.6265621 12.804917,46.5865897 C12.804917,43.5466174 15.325885,41.0593672 18.4070681,41.0593672 L34.4132143,41.0593672 C37.4943975,41.0593672 40.0153655,43.5466174 40.0153655,46.5865897 C40.0153655,49.6265621 37.4943975,52.1138122 34.4132143,52.1138122" id="Fill-1503" fill="#FDD7AD"></path>
                                    <path d="M67.4434976,49.8429134 L49.644663,67.4036889 C48.2105123,68.8186579 45.8864199,68.8186579 44.4522692,67.4036889 L28.9535179,52.1138122 L18.4070681,52.1138122 C17.4819129,52.5607277 14.9577436,50.9483579 15.9261155,51.767966 L33.2319607,68.7760193 C33.3504062,68.8944598 33.4880591,68.9781577 33.612907,69.0839646 L33.612907,74.2227023 L65.6251994,74.2227023 L65.6251994,67.1004813 C68.5367174,64.9385477 70.4270433,61.5116697 70.4270433,57.6410348 C70.4270433,54.651597 69.2954087,51.9290451 67.4434976,49.8429134" id="Fill-1504" fill="#FDD7AD"></path>
                                    <g id="Group-34" transform="translate(27.868791, 71.966693)">
                                        <rect id="Rectangle-4" fill="#59C6E5" x="0" y="0" width="43.7938144" height="19.6272799" rx="5"></rect>
                                        <path d="M37.1558028,7.19666931 C37.1558028,8.28088025 36.2653763,9.1593973 35.1664675,9.1593973 C34.0675586,9.1593973 33.1771321,8.28088025 33.1771321,7.19666931 C33.1771321,6.11245837 34.0675586,5.23394132 35.1664675,5.23394132 C36.2653763,5.23394132 37.1558028,6.11245837 37.1558028,7.19666931" id="Fill-1498" fill="#FFFFFF"></path>
                                    </g>
                                    <path d="M30.5573337,4.56232738 L5.65817268,29.1300418 L17.8100389,41.1193771 C18.0085151,41.0988474 18.2021895,41.0593672 18.4070681,41.0593672 L34.4132143,41.0593672 C37.4943975,41.0593672 40.0153655,43.5466174 40.0153655,46.5865897 C40.0153655,49.6265621 37.4943975,52.1138122 34.4132143,52.1138122 L28.9535179,52.1138122 L39.1254238,62.1496691 L64.0245848,37.5835339 L30.5573337,4.56232738" id="Fill-3136" fill="#424A60"></path>
                                    <path d="M30.5573337,4.56232738 L27.0087711,1.06122672 C25.5746204,-0.353742241 23.250528,-0.353742241 21.8163773,1.06122672 L2.10961007,20.5044163 C0.67545937,21.9193853 0.67545937,24.2139722 2.10961007,25.6289412 L5.65817268,29.1300418 L30.5573337,4.56232738" id="Fill-3137" fill="#2A2A2F"></path>
                                    <path d="M69.3514302,42.8375537 L64.0245848,37.5835339 L39.1254238,62.1496691 L44.4522692,67.4036889 C45.8864199,68.8186579 48.2105123,68.8186579 49.644663,67.4036889 L69.3514302,47.9620785 C70.7855809,46.5471096 70.7855809,44.2525226 69.3514302,42.8375537" id="Fill-3138" fill="#2A2A2F"></path>
                                    <path d="M58.4224336,52.9034155 C58.4224336,54.6484386 56.9898835,56.0618283 55.2212044,56.0618283 C53.4525252,56.0618283 52.0199751,54.6484386 52.0199751,52.9034155 C52.0199751,51.1599716 53.4525252,49.7450026 55.2212044,49.7450026 C56.9898835,49.7450026 58.4224336,51.1599716 58.4224336,52.9034155" id="Fill-3139" stroke="#1D1E27" fill="#2A2A2F"></path>
                                    <path d="M14.4055316,17.3712707 C13.9957742,17.3712707 13.5860169,17.2165085 13.273897,16.9085633 C12.6480567,16.2910935 12.6480567,15.2930351 13.273897,14.6755654 L16.4751263,11.5171525 C17.1009666,10.901262 18.112555,10.901262 18.7383954,11.5171525 C19.3642357,12.1346222 19.3642357,13.1342599 18.7383954,13.7501504 L15.5371661,16.9085633 C15.2250463,17.2165085 14.8152889,17.3712707 14.4055316,17.3712707" id="Fill-3140" fill="#586A72"></path>
                                </g>
                            </g>
                        </g>
                    </g>
                </g>
            </g>
        </g>
    </g>
</svg>