<?xml version="1.0" encoding="UTF-8"?>
<svg width="120px" height="130px" viewBox="0 0 120 130" version="1.1" xmlns="http://www.w3.org/2000/svg" xmlns:xlink="http://www.w3.org/1999/xlink">
    <!-- Generator: Sketch 39.1 (31720) - http://www.bohemiancoding.com/sketch -->
    <title>Group 18</title>
    <desc>Created with Sketch.</desc>
    <defs>
        <path d="M60,0 C26.8632,0 0,26.8632 0,60 C0,93.1356 26.8632,120 60,120 C93.1356,120 120,93.1356 120,60 C120,26.8632 93.1356,0 60,0 L60,0 Z" id="path-1"></path>
    </defs>
    <g id="首頁" stroke="none" stroke-width="1" fill="none" fill-rule="evenodd">
        <g id="首頁設計" transform="translate(-1015.000000, -1084.000000)">
            <g id="服務項目-copy-3" transform="translate(0.000000, 610.000000)">
                <g id="Group-8" transform="translate(215.000000, 200.000000)">
                    <g id="Group" transform="translate(710.000000, 274.000000)">
                        <g id="Group-18" transform="translate(90.000000, 0.000000)">
                            <g id="Group-44" transform="translate(0.000000, 10.000000)">
                                <mask id="mask-2" fill="white">
                                    <use xlink:href="#path-1"></use>
                                </mask>
                                <use id="Shape" fill="#E9E9E9" xlink:href="#path-1"></use>
                                <g id="Group-51" mask="url(#mask-2)">
                                    <g transform="translate(31.000000, 36.000000)">
                                        <g id="miss" transform="translate(30.000000, 0.000000)">
                                            <rect id="Rectangle-342-Copy-6" fill="#582628" x="3.25041942" y="3.64389124" width="44.7835564" height="69.2339335" rx="22.3917782"></rect>
                                            <rect id="Rectangle-348-Copy-3" fill="#125688" x="12.6069239" y="55.1629074" width="26.4862988" height="27.9178129" rx="13.2431494"></rect>
                                            <rect id="Rectangle-342-Copy-16" fill="#FCDCC5" x="21.6022706" y="45.4084908" width="8.32902477" height="15.1361636" rx="4.16451239"></rect>
                                            <polygon id="Fill-4-Copy" fill="#F8BBB6" points="21.6694628 53.969924 29.9760902 53.969924 29.9760902 51.7432556 21.6694628 51.7432556"></polygon>
                                            <rect id="Rectangle-342-Copy-14" fill="#FEDCC3" x="8.4424115" y="14.9399541" width="34.8153235" height="36.6911818"></rect>
                                            <path d="M24.4901325,34.3041724 C25.3310614,33.1689049 26.0895594,33.0164271 27.0434335,34.3041724 C27.9973077,35.5919178 27.7608344,37.2169044 27.7608344,37.2169044 C27.7635486,38.3198012 26.8585563,39.2138757 25.7550704,39.2138757 L25.7784957,39.2138757 C24.6680285,39.2138757 23.7656146,38.3240352 23.811877,37.2101648 C23.811877,37.2101648 23.6492036,35.4394399 24.4901325,34.3041724 Z" id="Rectangle-342-Copy-15" fill="#FAC176" opacity="0.9"></path>
                                            <path d="M36.0947737,32.9071409 C36.0947737,33.8354922 35.3484931,34.5889368 34.4289688,34.5889368 C33.5094444,34.5889368 32.7631638,33.8354922 32.7631638,32.9071409 C32.7631638,31.9787895 33.5094444,31.2253449 34.4289688,31.2253449 C35.3484931,31.2253449 36.0947737,31.9787895 36.0947737,32.9071409" id="Fill-49-Copy-4" fill="#0B2C48"></path>
                                            <path d="M18.7704022,32.9071409 C18.7704022,33.8354922 18.0241216,34.5889368 17.1045973,34.5889368 C16.1850729,34.5889368 15.4387923,33.8354922 15.4387923,32.9071409 C15.4387923,31.9787895 16.1850729,31.2253449 17.1045973,31.2253449 C18.0241216,31.2253449 18.7704022,31.9787895 18.7704022,32.9071409" id="Fill-49-Copy-5" fill="#0B2C48"></path>
                                            <path d="M29.1257121,42.7176173 C29.1257121,43.9337239 27.6649678,44.9190882 25.8643992,44.9190882 C24.0621648,44.9190882 22.6017536,43.9337239 22.6017536,42.7176173 L29.1257121,42.7176173 Z" id="Fill-41-Copy-2" fill="#E56B6B"></path>
                                            <path d="M8.38939092,28.8610645 C16.1633797,28.8610645 22.4654428,22.4985043 22.4654428,14.6498887 C22.4654428,14.6498887 15.3227432,14.6498887 8.2329628,14.6498887 C8.2329628,20.6245461 8.23296274,22.234309 8.38939092,28.8610645 Z" id="Oval-50-Copy-2" fill="#582628" transform="translate(15.349203, 21.755477) scale(-1, 1) rotate(-270.000000) translate(-15.349203, -21.755477) "></path>
                                            <path d="M23.7831587,32.8693449 C35.7431414,32.8693449 41.4658883,23.0807908 41.4658883,11.0059974 C41.4658883,11.0059974 34.4498545,11.0059974 23.5425,11.0059974 C23.5425,20.197778 23.5424999,22.6743364 23.7831587,32.8693449 Z" id="Oval-50-Copy-2" fill="#582628" transform="translate(32.504194, 21.937671) rotate(-270.000000) translate(-32.504194, -21.937671) "></path>
                                            <g id="Neckline" transform="translate(18.419043, 55.022758)" fill="#FFFFFF">
                                                <polygon id="Fill-17" points="7.30247997 4.09937764 2.28202499 0 0 2.73291843 3.65123998 9.1097281"></polygon>
                                                <polygon id="Fill-19" points="7.22315426 4.09937764 12.2436092 0 14.5256342 2.73291843 10.8743942 9.1097281"></polygon>
                                            </g>
                                            <g id="Bow" transform="translate(22.030620, 57.573482)" fill="#242424">
                                                <polygon id="Fill-23" points="0 5.10144773 0 0 4.85395966 2.55072387"></polygon>
                                                <polygon id="Fill-25" points="7.28093949 5.10144773 7.28093949 0 2.57866607 2.55072387"></polygon>
                                            </g>
                                            <g id="headphone" fill="#2A2A2F">
                                                <path d="M47.9598922,25.7831333 L45.3299232,25.7831333 L45.3299232,14.5443316 C45.3299232,6.64808175 38.6833341,2.64442393 25.5742537,2.64442393 C12.5065953,2.64442393 5.8803884,6.64808175 5.8803884,14.5443316 L5.8803884,25.7831333 L3.25041942,25.7831333 L3.25041942,14.5443316 C3.25041942,7.90947197 7.12370624,0 25.5742537,0 C44.0760855,0 47.9598922,7.90947197 47.9598922,14.5443316 L47.9598922,25.7831333 Z" id="Fill-29"></path>
                                                <path d="M8.5473992,40.9417208 L2.62996899,40.9417208 C1.18348604,40.9417208 0,39.7517301 0,38.2972969 L0,27.0584952 C0,25.6040621 1.18348604,24.4140713 2.62996899,24.4140713 L8.5473992,24.4140713 L8.5473992,40.9417208 Z" id="Fill-31"></path>
                                                <path d="M42.736996,40.8948708 L48.6544262,40.8948708 C50.1009092,40.8948708 51.2843952,39.7048801 51.2843952,38.2504469 L51.2843952,27.0116452 C51.2843952,25.557212 50.1009092,24.3672213 48.6544262,24.3672213 L42.736996,24.3672213 L42.736996,40.8948708 Z" id="Fill-33"></path>
                                                <path d="M43.3944883,47.5059306 L32.8746123,47.5059306 C32.1480834,47.5059306 31.5596278,46.9142408 31.5596278,46.1837187 C31.5596278,45.4538577 32.1480834,44.8615067 32.8746123,44.8615067 L43.3944883,44.8615067 C44.0835401,44.8615067 45.366965,44.8615067 45.366965,42.2170828 L45.366965,38.9115529 C45.366965,38.1816919 45.9554206,37.5893409 46.6819495,37.5893409 C47.4078209,37.5893409 47.996934,38.1816919 47.996934,38.9115529 L47.996934,42.2170828 C47.996934,45.5781456 46.3196713,47.5059306 43.3944883,47.5059306" id="Fill-35"></path>
                                                <path d="M34.1895968,46.8448247 C34.1895968,47.9356495 33.3019823,48.8281426 32.2171201,48.8281426 L28.2721666,48.8281426 C27.1873044,48.8281426 26.2996899,47.9356495 26.2996899,46.8448247 L26.2996899,45.5226127 C26.2996899,44.4317878 27.1873044,43.5392947 28.2721666,43.5392947 L32.2171201,43.5392947 C33.3019823,43.5392947 34.1895968,44.4317878 34.1895968,45.5226127 L34.1895968,46.8448247 Z" id="Fill-37"></path>
                                            </g>
                                        </g>
                                        <g id="47-chat-conversation-flat" transform="translate(15.000000, 15.500000) scale(-1, 1) translate(-15.000000, -15.500000) ">
                                            <g id="47---Chat-Conversation-(Flat)">
                                                <g id="Page-1" transform="translate(-0.000000, 0.000000)">
                                                    <g id="47---Chat-Conversation-(Flat)" transform="translate(-0.000000, 0.000000)">
                                                        <path d="M29.7325224,4.30069032 L29.7325224,19.1359318 C29.7325224,21.0459463 28.3654458,22.5945878 26.679364,22.5945878 L13.6274061,22.5945878 L7.43313061,30.3132358 L7.43313061,22.5945878 L3.0531584,22.5945878 C1.3670766,22.5945878 -7.46069873e-14,21.0459463 -7.46069873e-14,19.1359318 L-7.46069873e-14,4.30069032 C-7.46069873e-14,2.39067579 1.3670766,0.842034327 3.0531584,0.842034327 L26.679364,0.842034327 C28.3654458,0.842034327 29.7325224,2.39067579 29.7325224,4.30069032" id="Fill-70" fill="#59C6E5"></path>
                                                        <path d="M8.67198571,12.0691587 C8.67198571,13.2318678 7.84009451,14.1742445 6.81370306,14.1742445 C5.78731161,14.1742445 4.95542041,13.2318678 4.95542041,12.0691587 C4.95542041,10.9064496 5.78731161,9.96407287 6.81370306,9.96407287 C7.84009451,9.96407287 8.67198571,10.9064496 8.67198571,12.0691587" id="Fill-438" fill="#FFFFFF"></path>
                                                        <path d="M16.7245439,12.0691587 C16.7245439,13.2318678 15.8926527,14.1742445 14.8662612,14.1742445 C13.8398698,14.1742445 13.0079786,13.2318678 13.0079786,12.0691587 C13.0079786,10.9064496 13.8398698,9.96407287 14.8662612,9.96407287 C15.8926527,9.96407287 16.7245439,10.9064496 16.7245439,12.0691587" id="Fill-439" fill="#FFFFFF"></path>
                                                        <path d="M24.777102,12.0691587 C24.777102,13.2318678 23.9452108,14.1742445 22.9188194,14.1742445 C21.8924279,14.1742445 21.0605367,13.2318678 21.0605367,12.0691587 C21.0605367,10.9064496 21.8924279,9.96407287 22.9188194,9.96407287 C23.9452108,9.96407287 24.777102,10.9064496 24.777102,12.0691587" id="Fill-440" fill="#FFFFFF"></path>
                                                    </g>
                                                </g>
                                            </g>
                                        </g>
                                    </g>
                                </g>
                            </g>
                            <g id="46-chat-conversation-flat">
                                <g id="46---Chat-Conversation-(Flat)">
                                    <g id="Page-1">
                                        <g id="46---Chat-Conversation-(Flat)">
                                            <path d="M61,6.87715891 L61,36.3680345 C61,40.165119 57.9402955,43.2437984 54.1666136,43.2437984 L30.5,43.3428407 L16.6363636,58.6874143 L16.6363636,43.3428407 L6.83338636,43.3428407 C3.05970455,43.3428407 0,40.2641612 0,36.4656818 L0,6.9748062 C0,3.17772171 3.05970455,0.0990422481 6.83338636,0.0990422481 L54.1666136,0 C57.9402955,0 61,3.07867946 61,6.87715891" id="Fill-73" fill="#FFC500"></path>
                                            <g id="smile" transform="translate(20.392962, 13.949612)">
                                                <path d="M18.7190671,9.00706064 C18.7190671,13.4986529 15.0824075,17.1397936 10.5963429,17.1397936 C6.1102784,17.1397936 2.47361874,13.4986529 2.47361874,9.00706064" id="Path" stroke="#FAFAFA" stroke-width="2.07792208"></path>
                                                <path d="M4.79439708,2.323638 C4.79439708,3.607448 3.75584877,4.64727601 2.47361874,4.64727601 C1.19138871,4.64727601 0.152840398,3.607448 0.152840398,2.323638 C0.152840398,1.04098983 1.19138871,0 2.47361874,0 C3.75584877,0 4.79439708,1.04098983 4.79439708,2.323638" id="Fill-58" fill="#FAFAFA"></path>
                                                <path d="M21.0398455,2.323638 C21.0398455,3.607448 20.0012972,4.64727601 18.7190671,4.64727601 C17.4368371,4.64727601 16.3982888,3.607448 16.3982888,2.323638 C16.3982888,1.04098983 17.4368371,0 18.7190671,0 C20.0012972,0 21.0398455,1.04098983 21.0398455,2.323638" id="Fill-59" fill="#FAFAFA"></path>
                                            </g>
                                        </g>
                                    </g>
                                </g>
                            </g>
                        </g>
                    </g>
                </g>
            </g>
        </g>
    </g>
</svg>