<?xml version="1.0" encoding="UTF-8"?>
<svg width="133px" height="120px" viewBox="0 0 133 120" version="1.1" xmlns="http://www.w3.org/2000/svg" xmlns:xlink="http://www.w3.org/1999/xlink">
    <!-- Generator: Sketch 39.1 (31720) - http://www.bohemiancoding.com/sketch -->
    <title>service-ui</title>
    <desc>Created with Sketch.</desc>
    <defs>
        <path d="M60,0 C26.8632,0 0,26.8632 0,60 C0,93.1356 26.8632,120 60,120 C93.1356,120 120,93.1356 120,60 C120,26.8632 93.1356,0 60,0 L60,0 Z" id="path-1"></path>
    </defs>
    <g id="首頁" stroke="none" stroke-width="1" fill="none" fill-rule="evenodd">
        <g id="service-ui">
            <g id="ICON" transform="translate(12.336449, 0.000000)">
                <mask id="mask-2" fill="white">
                    <use xlink:href="#path-1"></use>
                </mask>
                <use id="Shape" fill="#E9E9E9" xlink:href="#path-1"></use>
                <g id="Group" mask="url(#mask-2)">
                    <g transform="translate(23.439252, 28.453608)" id="Shape">
                        <path d="M62.7185047,0.346391753 L10.0665421,0.346391753 C4.77980636,0.346391753 0.493457944,4.64359175 0.493457944,9.94639175 L0.493457944,79.5475918 C10.4937409,87.0787918 22.9219974,91.5463918 36.3925234,91.5463918 C49.8630493,91.5463918 62.2936991,87.0787918 72.2915888,79.5475918 L72.2915888,9.94639175 C72.2915888,4.64359175 68.0052404,0.346391753 62.7185047,0.346391753 L62.7185047,0.346391753 Z" fill="#2A2A2F"></path>
                        <path d="M65.1117757,20.7451918 L7.67327103,20.7451918 C6.35218542,20.7451918 5.28,21.8203918 5.28,23.1463918 L5.28,82.8043918 C14.3457107,88.3495918 24.9969634,91.5463918 36.3925234,91.5463918 C47.7880834,91.5463918 58.4393361,88.3495918 67.5050467,82.8043918 L67.5050467,23.1463918 C67.5050467,21.8215918 66.4328613,20.7451918 65.1117757,20.7451918 L65.1117757,20.7451918 Z" fill="#1D1E27"></path>
                        <path d="M7.67327103,84.1891918 C16.1992991,88.8763918 25.9841877,91.5463918 36.3925234,91.5463918 C46.7996624,91.5463918 56.5857477,88.8763918 65.1117757,84.1891918 L65.1117757,23.1463918 L7.67327103,23.1463918 L7.67327103,84.1891918 L7.67327103,84.1891918 Z" fill="#FFFFFF"></path>
                        <path d="M42.3757009,12.3451918 L31.6059813,12.3451918 C30.9454385,12.3451918 30.4093458,12.8827918 30.4093458,13.5451918 C30.4093458,14.2087918 30.9454385,14.7451918 31.6059813,14.7451918 L42.3757009,14.7451918 C43.0374404,14.7451918 43.5723364,14.2087918 43.5723364,13.5451918 C43.5723364,12.8827918 43.0374404,12.3451918 42.3757009,12.3451918 L42.3757009,12.3451918 Z M36.9908411,9.94639175 C37.9816553,9.94639175 38.7857944,9.13999175 38.7857944,8.14639175 C38.7857944,7.15159175 37.9816553,6.34639175 36.9908411,6.34639175 C35.9988303,6.34639175 35.1958879,7.15159175 35.1958879,8.14639175 C35.1958879,9.13999175 35.9988303,9.94639175 36.9908411,9.94639175 L36.9908411,9.94639175 Z" fill="#586A72"></path>
                    </g>
                </g>
                <g id="hand-touch-gestures-doubleclick-02" mask="url(#mask-2)">
                    <g transform="translate(37.009346, 54.432990)">
                        <g id="Group" transform="translate(2.467290, 0.000000)">
                            <path d="M22.2056075,9.44523562 C29.9059882,9.44523562 36.170752,15.9786489 36.170752,24.0092421 C36.170752,32.0398353 29.9059882,38.5732486 22.2056075,38.5732486 C14.5052268,38.5732486 8.24046292,32.0398353 8.24046292,24.0092421 C8.24046292,15.9786489 14.5052268,9.44523562 22.2056075,9.44523562 L22.2056075,9.44523562 Z M22.2056075,7.36466326 C13.3911075,7.36466326 6.24544227,14.8166493 6.24544227,24.0092421 C6.24544227,33.2018349 13.3911075,40.6538209 22.2056075,40.6538209 C31.0201075,40.6538209 38.1657727,33.2018349 38.1657727,24.0092421 C38.1657727,14.8166493 31.0202072,7.36466326 22.2056075,7.36466326 L22.2056075,7.36466326 Z" id="Shape" fill="#59C6E5" opacity="0.503556437"></path>
                            <path d="M22.2056075,3.98373319 C32.7936309,3.98373319 41.4076812,12.9671765 41.4076812,24.0092421 C41.4076812,35.0513077 32.7936309,44.034751 22.2056075,44.034751 C11.617584,44.034751 3.00353371,35.0513077 3.00353371,24.0092421 C3.00353371,12.9671765 11.617584,3.98373319 22.2056075,3.98373319 L22.2056075,3.98373319 Z M22.2056075,1.1229462 C10.08567,1.1229462 0.260380318,11.369427 0.260380318,24.0092421 C0.260380318,36.6490573 10.08567,46.895538 22.2056075,46.895538 C34.325545,46.895538 44.1508346,36.6490573 44.1508346,24.0092421 C44.1508346,11.369427 34.3256821,1.1229462 22.2056075,1.1229462 L22.2056075,1.1229462 Z" id="Shape" fill="#59C6E5" opacity="0.100000001"></path>
                            <path d="M22.2056075,15.6869527 C26.605825,15.6869527 30.1856901,19.4203317 30.1856901,24.0092421 C30.1856901,28.5981525 26.605825,32.3315315 22.2056075,32.3315315 C17.8053899,32.3315315 14.2255249,28.5981525 14.2255249,24.0092421 C14.2255249,19.4203317 17.8053899,15.6869527 22.2056075,15.6869527 L22.2056075,15.6869527 Z M22.2056075,13.6063803 C16.6965575,13.6063803 12.2305042,18.2638456 12.2305042,24.0092421 C12.2305042,29.7546386 16.6965575,34.4121039 22.2056075,34.4121039 C27.7146575,34.4121039 32.1807107,29.7546386 32.1807107,24.0092421 C32.1807107,18.2638456 27.7147573,13.6063803 22.2056075,13.6063803 L22.2056075,13.6063803 Z" id="Shape" fill="#59C6E5"></path>
                        </g>
                        <g id="hand-touch-gestures-finger-point-click-02" transform="translate(0.000000, 21.030928)">
                            <g id="XMLID_2_">
                                <g id="flat-icon-398">
                                    <path d="M38.9086654,27.3277113 C34.5954729,27.3277113 32.6587738,29.4995876 30.1941981,31.974433 L30.1941981,5.99752577 C30.1941981,3.27575258 27.9736374,1.04907216 25.2596187,1.04907216 C22.5456,1.04907216 20.3250393,3.27575258 20.3250393,5.99752577 L20.3250393,19.3186392 C18.6787402,17.2922474 15.8047178,16.8827629 13.6707589,18.4204948 L3.04414206,24.5887423 C1.57622804,25.4448247 0.58684486,27.0308041 0.58684486,28.8518351 L0.58684486,36.989567 C0.58684486,45.8374021 7.73705047,53.0077113 16.5600785,53.0077113 C20.8334243,53.0077113 24.7047252,51.3153402 27.5691252,48.5738969 L44.4725271,31.6452371 C46.7931364,29.3261443 42.2261832,27.3277113 38.9086654,27.3277113 L38.9086654,27.3277113 Z" id="Shape" fill="#FDD7AD"></path>
                                    <path d="M25.2546841,5.76210309 L25.2546841,21.707134 C25.2546841,23.3427216 25.9025944,24.9112577 27.055929,26.0677113 L28.5240897,27.5398763 C29.5440673,28.4482887 30.1893869,29.7716289 30.1893869,31.2387216 L30.1893869,5.99740206 C30.1893869,5.71435052 30.1653308,5.43649485 30.1191925,5.16606186 C29.6282019,2.28705155 25.2546841,2.84127835 25.2546841,5.76210309 L25.2546841,5.76210309 Z" id="Shape" fill="#FAC47B"></path>
                                    <path d="M41.6931252,27.7514227 L23.8931103,45.6013608 C20.7723589,48.7308866 16.5397234,50.4890722 12.1262355,50.4890722 L7.93196636,50.4890722 C10.4109757,52.0759175 13.3477907,53.0077113 16.5075252,53.0077113 C24.9524411,53.0077113 27.5071963,48.5831753 44.4199738,31.6453608 C46.1045159,29.9620206 44.1544935,28.4550928 41.6931252,27.7514227 L41.6931252,27.7514227 Z" id="Shape" fill="#FAC47B"></path>
                                </g>
                            </g>
                        </g>
                    </g>
                </g>
            </g>
            <g id="check-copy-3" transform="translate(0.000000, 35.876289)">
                <g id="Group-3">
                    <ellipse id="Oval-6" fill="#125688" cx="12.3364486" cy="12.371134" rx="12.3364486" ry="12.371134"></ellipse>
                    <path d="M6.53557553,12.8844265 L10.4816177,16.962455 C10.9714194,17.4686394 11.7655447,17.4686394 12.2553464,16.962455 L18.1373217,10.8837408 C18.6271233,10.3775564 18.6271233,9.55686934 18.1373217,9.05068493 C17.64752,8.54450053 16.8533947,8.54450053 16.363593,9.05068493 L10.4816177,15.1293991 L12.2553464,15.1293991 L8.30930418,11.0513706 C7.81950253,10.5451862 7.02537717,10.5451862 6.53557553,11.0513706 C6.04577389,11.557555 6.04577389,12.3782421 6.53557553,12.8844265 L6.53557553,12.8844265 Z" id="Check-Icon" fill="#FFFFFF"></path>
                </g>
            </g>
            <g id="check-copy-2" transform="translate(83.887850, 0.000000)">
                <g id="Group-3">
                    <ellipse id="Oval-6" fill="#FFC500" cx="12.3364486" cy="12.371134" rx="12.3364486" ry="12.371134"></ellipse>
                    <path d="M17.271028,11.1340206 L13.5700935,11.1340206 L13.5700935,7.42268041 C13.5700935,6.73948454 13.017729,6.18556701 12.3364486,6.18556701 C11.6551682,6.18556701 11.1028037,6.73948454 11.1028037,7.42268041 L11.1028037,11.1340206 L7.40186916,11.1340206 C6.72058879,11.1340206 6.1682243,11.6879381 6.1682243,12.371134 C6.1682243,13.0543299 6.72058879,13.6082474 7.40186916,13.6082474 L11.1028037,13.6082474 L11.1028037,17.3195876 C11.1028037,18.0027835 11.6551682,18.556701 12.3364486,18.556701 C13.017729,18.556701 13.5700935,18.0027835 13.5700935,17.3195876 L13.5700935,13.6082474 L17.271028,13.6082474 C17.9523084,13.6082474 18.5046729,13.0543299 18.5046729,12.371134 C18.5046729,11.6879381 17.9523084,11.1340206 17.271028,11.1340206 L17.271028,11.1340206 Z" id="Path" fill="#FFFFFF"></path>
                </g>
            </g>
            <g id="check-copy-4" transform="translate(96.224299, 95.257732)">
                <g id="Group-3">
                    <ellipse id="Oval-6" fill="#E56B6B" cx="12.3364486" cy="12.371134" rx="12.3364486" ry="12.371134"></ellipse>
                    <path d="M9.49597511,7.42268041 C8.67805349,7.42268041 7.86681677,7.70865318 7.23288886,8.30428609 C5.83870222,9.614261 5.81378166,11.8047071 7.15817268,13.1463106 L12.3364633,18.3134238 L17.5146629,13.1463106 C18.8590994,11.8047525 18.8342243,9.61435176 17.4400377,8.30433147 C16.8061553,7.70878932 15.9947366,7.42277117 15.176906,7.42272579 C14.2561643,7.42268041 13.3272826,7.78525141 12.6342366,8.47685899 L12.3364178,8.77404015 L12.0386445,8.47681361 C11.3456894,7.78525141 10.4166258,7.42268041 9.49597511,7.42268041 L9.49597511,7.42268041 Z" id="heart" fill="#FFFFFF"></path>
                </g>
            </g>
        </g>
    </g>
</svg>