<?xml version="1.0" encoding="UTF-8"?>
<svg width="120px" height="135px" viewBox="0 0 120 135" version="1.1" xmlns="http://www.w3.org/2000/svg" xmlns:xlink="http://www.w3.org/1999/xlink">
    <!-- Generator: Sketch 39.1 (31720) - http://www.bohemiancoding.com/sketch -->
    <title>Group 49</title>
    <desc>Created with Sketch.</desc>
    <defs>
        <ellipse id="path-1" cx="60" cy="60" rx="60" ry="60"></ellipse>
    </defs>
    <g id="首頁" stroke="none" stroke-width="1" fill="none" fill-rule="evenodd">
        <g id="首頁設計" transform="translate(-658.000000, -1079.000000)">
            <g id="Group-49" transform="translate(658.000000, 1079.000000)">
                <g id="Oval-Copy" transform="translate(0.000000, 15.000000)">
                    <mask id="mask-2" fill="white">
                        <use xlink:href="#path-1"></use>
                    </mask>
                    <use id="Mask" fill="#E9E9E9" xlink:href="#path-1"></use>
                    <ellipse fill="#296693" mask="url(#mask-2)" cx="60" cy="150" rx="60" ry="60"></ellipse>
                    <g id="Group-48" mask="url(#mask-2)">
                        <g transform="translate(50.183013, 106.683013) rotate(-30.000000) translate(-50.183013, -106.683013) translate(35.183013, 91.683013)" id="Group">
                            <g transform="translate(0.845703, 0.330874)">
                                <path d="M8.2562296,1.26955758 C4.89395111,-0.124963172 1.33747872,0.830767394 0.312626187,3.40424155 C-0.712226349,5.9777157 1.18263178,9.19441113 4.54491027,10.5889319 C7.90718876,11.9834526 11.4636612,11.0277221 12.4885137,8.45424792 C13.5133662,5.88077376 11.6185081,2.66407833 8.2562296,1.26955758 L8.2562296,1.26955758 Z" id="Oval" fill="#000000" opacity="0.200000003"></path>
                                <path d="M6.75525608,10.607121 C3.39277995,9.21328343 1.49686914,5.99639137 2.52204102,3.42220707 C3.10800998,1.94900911 4.53733615,1.02574544 6.2722424,0.750778295 C3.60197635,0.359564875 1.15295464,1.35995348 0.331502821,3.42220707 C-0.693669054,5.99639137 1.20224175,9.21328343 4.56471788,10.607121 C6.00280621,11.2028831 7.46279991,11.3459554 8.75850326,11.1425245 C8.09367491,11.0441622 7.42227496,10.8843236 6.75525608,10.607121 L6.75525608,10.607121 Z" id="Shape" fill="#2A2A2F"></path>
                            </g>
                            <g transform="translate(20.655816, 7.037390)">
                                <path d="M6.45701905,1.84548454 C4.7884927,0.112334887 2.40368413,-0.257730714 1.13040002,1.01891988 C-0.142884085,2.29557048 0.177523054,4.73549567 1.8460494,6.46864532 C3.51457575,8.20179498 5.89938431,8.57186058 7.17266842,7.29520998 C8.44595253,6.01855938 8.12554539,3.57863419 6.45701905,1.84548454 L6.45701905,1.84548454 Z" id="Oval" fill="#000000" opacity="0.200000003"></path>
                                <path d="M3.14526845,7.01689952 C1.47936415,5.2855007 1.15954557,2.84544672 2.43334353,1.56785546 C3.16060221,0.835727494 4.25587131,0.661358084 5.37195052,0.956444778 C3.86486024,0.011943808 2.13543034,-0.0405905654 1.11463954,0.982153088 C-0.15915842,2.26197985 0.160660156,4.69979833 1.82765972,6.4323149 C2.5406799,7.17338489 3.38513238,7.64954751 4.21753689,7.86862702 C3.84076432,7.63725223 3.47713498,7.36228508 3.14526845,7.01689952 L3.14526845,7.01689952 Z" id="Shape" fill="#2A2A2F"></path>
                            </g>
                            <g transform="translate(15.179470, 18.097164)">
                                <path d="M8.70780197,0.533924296 C5.23349399,-0.467428276 1.82043972,0.876539684 1.08453191,3.53576075 C0.34862409,6.19498182 2.56853604,9.16246307 6.04284403,10.1638156 C9.51715201,11.1651682 12.9302063,9.82120026 13.6661141,7.16197919 C14.4020219,4.50275812 12.18211,1.53527687 8.70780197,0.533924296 L8.70780197,0.533924296 Z" id="Oval" fill="#000000" opacity="0.200000003"></path>
                                <path d="M8.24922244,9.92791596 C4.77831467,8.92640961 2.55929948,5.95765863 3.29751085,3.29852513 C3.71590365,1.77614605 5.03022656,0.707574543 6.7158457,0.240353945 C4.03572222,0.15316924 1.71922808,1.4139942 1.12887804,3.54443071 C0.391761936,6.20244646 2.6118724,9.17231519 6.0849707,10.1727038 C7.5701556,10.6019208 9.02905404,10.578448 10.2897088,10.2330624 C9.62488043,10.2107074 8.94033724,10.1279937 8.24922244,9.92791596 L8.24922244,9.92791596 Z" id="Shape" fill="#2A2A2F"></path>
                            </g>
                        </g>
                    </g>
                </g>
                <g id="icon-copy-13" transform="translate(30.000000, 0.000000)">
                    <g id="Group">
                        <g id="fire" transform="translate(18.827957, 70.989247)">
                            <path d="M18.8880553,0 L3.77761107,0 C1.45815787,2.07390848 0,4.77112278 0,7.54388931 C0,15.1104443 3.75910078,18.8582122 11.3328332,26.4319447 C18.9046768,18.860101 22.6656664,15.1104443 22.6656664,7.54388931 C22.6656664,4.77112278 21.2075085,2.07390848 18.8880553,0 L18.8880553,0 Z" id="Shape" fill="#FFC500"></path>
                            <path d="M7.89694031,0 C7.89694031,0 5.02350045,5.70230391 7.98363648,10.093399 C10.1975054,13.3772763 11.6252536,15.0841899 11.6441416,15.1104443 C11.6630297,15.0841899 13.0907778,13.3772763 15.3046467,10.093399 C18.2647828,5.70230391 15.3932317,0 15.3932317,0 L7.89694031,0 L7.89694031,0 Z" id="Shape" fill="#FDEBA1"></path>
                        </g>
                        <g id="rocket">
                            <path d="M32.2754896,0.741457239 C31.0611765,-0.103783237 29.39525,-0.103783237 28.1809369,0.741457239 C20.2923406,6.23183717 15.117769,15.3423018 15.117769,25.6806789 L15.117769,60.6075264 C15.117769,62.693901 16.8090055,64.3851375 18.89538,64.3851375 L41.5610465,64.3851375 C43.6474211,64.3851375 45.3386575,62.693901 45.3386575,60.6075264 L45.3386575,25.6806789 C45.3386575,15.3423018 40.1640859,6.23183717 32.2754896,0.741457239 L32.2754896,0.741457239 Z" id="Shape" fill="#F6F6F8"></path>
                            <path d="M45.3313328,41.3863759 L45.3313328,60.2744313 C45.3313328,62.3608059 47.0225693,64.0520423 49.1089439,64.0520423 L60.4417771,64.0520423 L60.4417771,59.6261932 C60.4417771,57.6223594 59.6458345,55.7006887 58.2288525,54.2838956 L45.3313328,41.3863759 L45.3313328,41.3863759 Z" id="Shape" fill="#59C6E5"></path>
                            <path d="M-1.8189894e-12,59.6261932 L-1.8189894e-12,64.0518535 L11.3328332,64.0518535 C13.4192078,64.0518535 15.1104443,62.360617 15.1104443,60.2742424 L15.1104443,41.386187 L2.21292456,54.2837068 C0.795942652,55.7006887 -1.8189894e-12,57.6225483 -1.8189894e-12,59.6261932 L-1.8189894e-12,59.6261932 Z" id="Shape" fill="#59C6E5"></path>
                            <path d="M37.7761107,64.0407095 L22.6656664,64.0407095 L20.254795,68.8624523 C19.6267672,70.1183191 20.5400047,71.5959316 21.9441427,71.5959316 L38.4974455,71.5959316 C39.9015836,71.5959316 40.814821,70.1183191 40.1867932,68.8624523 L37.7761107,64.0407095 L37.7761107,64.0407095 Z" id="Shape" fill="#2A2A2F"></path>
                            <path d="M28.1741789,0.730229494 C24.1980543,3.4973296 20.9175769,7.18767786 18.6353332,11.4877325 L41.8064439,11.4877325 C39.5242002,7.18767786 36.2437228,3.49714072 32.2675982,0.730229494 C31.053474,-0.114822102 29.3883031,-0.114822102 28.1741789,0.730229494 L28.1741789,0.730229494 Z" id="Shape" fill="#59C6E5"></path>
                            <ellipse id="Oval" fill="#E56B6B" cx="30.2208886" cy="26.2759316" rx="7.51536834" ry="7.51536834"></ellipse>
                            <ellipse id="Oval" fill="#FFFFFF" cx="30.2208886" cy="26.2759316" rx="3.77761107" ry="3.77761107"></ellipse>
                            <path d="M30.2208886,39.4971926 C29.1769457,39.4971926 28.332083,40.3420553 28.332083,41.3859982 L28.332083,64.0516646 L32.1096941,64.0516646 L32.1096941,41.3859982 C32.1096941,40.3420553 31.2648314,39.4971926 30.2208886,39.4971926 L30.2208886,39.4971926 Z" id="Shape" fill="#59C6E5"></path>
                        </g>
                    </g>
                </g>
                <g id="39-earth-flat" transform="translate(24.000000, 32.000000)" fill="#F3D55B">
                    <g id="39---Earth-(Flat)">
                        <g id="Page-1">
                            <g id="39---Earth-(Flat)">
                                <path d="M75.311828,55.3763441 L73.5552903,55.3763441 L70.8817204,52.7027742 L70.8817204,50.9462366 C70.8817204,50.3348817 70.3855484,49.8387097 69.7741935,49.8387097 C69.1628387,49.8387097 68.6666667,50.3348817 68.6666667,50.9462366 L68.6666667,52.7027742 L65.9930968,55.3763441 L64.2365591,55.3763441 C63.6252043,55.3763441 63.1290323,55.8725161 63.1290323,56.483871 C63.1290323,57.0952258 63.6252043,57.5913978 64.2365591,57.5913978 L65.9930968,57.5913978 L68.6666667,60.2649677 L68.6666667,62.0215054 C68.6666667,62.6328602 69.1628387,63.1290323 69.7741935,63.1290323 C70.3855484,63.1290323 70.8817204,62.6328602 70.8817204,62.0215054 L70.8817204,60.2649677 L73.5552903,57.5913978 L75.311828,57.5913978 C75.9231828,57.5913978 76.4193548,57.0952258 76.4193548,56.483871 C76.4193548,55.8725161 75.9231828,55.3763441 75.311828,55.3763441" id="Fill-326"></path>
                                <path d="M2.90725806,9.96774194 C2.90725806,10.5790968 2.41108602,11.0752688 1.79973118,11.0752688 C1.18837634,11.0752688 0.692204301,10.5790968 0.692204301,9.96774194 C0.692204301,9.3563871 1.18837634,8.86021505 1.79973118,8.86021505 C2.41108602,8.86021505 2.90725806,9.3563871 2.90725806,9.96774194" id="Fill-460"></path>
                                <path d="M5.12231183,63.1323548 C5.12231183,63.7437097 4.62613978,64.2398817 4.01478495,64.2398817 C3.40343011,64.2398817 2.90725806,63.7437097 2.90725806,63.1323548 C2.90725806,62.5198925 3.40343011,62.024828 4.01478495,62.024828 C4.62613978,62.024828 5.12231183,62.5198925 5.12231183,63.1323548" id="Fill-461"></path>
                                <path d="M23.3965054,67.8360215 C23.3965054,68.4473763 22.9003333,68.9435484 22.2889785,68.9435484 C21.6776237,68.9435484 21.1814516,68.4473763 21.1814516,67.8360215 C21.1814516,67.2246667 21.6776237,66.7284946 22.2889785,66.7284946 C22.9003333,66.7284946 23.3965054,67.2246667 23.3965054,67.8360215" id="Fill-462"></path>
                                <path d="M16.7513441,40.9784946 C16.7513441,41.5898495 16.255172,42.0860215 15.6438172,42.0860215 C15.0324624,42.0860215 14.5362903,41.5898495 14.5362903,40.9784946 C14.5362903,40.3671398 15.0324624,39.8709677 15.6438172,39.8709677 C16.255172,39.8709677 16.7513441,40.3671398 16.7513441,40.9784946" id="Fill-463"></path>
                                <path d="M61.3658495,1.52284946 C61.3658495,2.1342043 60.8707849,2.63037634 60.2583226,2.63037634 C59.6469677,2.63037634 59.1507957,2.1342043 59.1507957,1.52284946 C59.1507957,0.911494624 59.6469677,0.415322581 60.2583226,0.415322581 C60.8707849,0.415322581 61.3658495,0.911494624 61.3658495,1.52284946" id="Fill-464"></path>
                                <path d="M75.8655914,48.0389785 C75.8655914,48.6503333 75.3694194,49.1465054 74.7580645,49.1465054 C74.1467097,49.1465054 73.6505376,48.6503333 73.6505376,48.0389785 C73.6505376,47.4276237 74.1467097,46.9314516 74.7580645,46.9314516 C75.3694194,46.9314516 75.8655914,47.4276237 75.8655914,48.0389785" id="Fill-465"></path>
                            </g>
                        </g>
                    </g>
                </g>
            </g>
        </g>
    </g>
</svg>