<?xml version="1.0" encoding="UTF-8"?>
<svg width="120px" height="120px" viewBox="0 0 120 120" version="1.1" xmlns="http://www.w3.org/2000/svg" xmlns:xlink="http://www.w3.org/1999/xlink">
    <!-- Generator: Sketch 39.1 (31720) - http://www.bohemiancoding.com/sketch -->
    <title>service-vd</title>
    <desc>Created with Sketch.</desc>
    <defs>
        <ellipse id="path-1" cx="60" cy="60" rx="60" ry="60"></ellipse>
    </defs>
    <g id="首頁" stroke="none" stroke-width="1" fill="none" fill-rule="evenodd">
        <g id="service-vd">
            <mask id="mask-2" fill="white">
                <use xlink:href="#path-1"></use>
            </mask>
            <use id="Mask" fill="#CDEEF7" xlink:href="#path-1"></use>
            <g id="hand_phone" mask="url(#mask-2)">
                <g transform="translate(25.979381, 24.742268)">
                    <g id="Group-26" transform="translate(2.888921, 0.000000)">
                        <path d="M56.0009903,12.8989467 C56.6088471,15.1432091 54.8787337,17.6420841 52.1566371,18.4523621 L43.2282736,21.1097287 C40.5061771,21.9200067 37.7822783,20.747385 37.1751938,18.5031226 C36.5675945,16.2588602 38.297193,13.7599853 41.0192896,12.9494372 L49.948168,10.2912607 C52.6700071,9.48152262 55.3936484,10.6544143 56.0009903,12.8989467" id="Fill-5" fill="#FDD7AD"></path>
                        <path d="M61.6288535,22.2143097 C62.3152348,24.751255 60.3595888,27.5757532 57.282716,28.4916023 L47.1911602,31.4959223 C44.1148023,32.4115014 41.0353549,31.0855182 40.3494885,28.5485729 C39.6620774,26.0124376 41.6177234,23.1873994 44.6940813,22.2715502 L54.7871819,19.2672303 C57.8635398,18.3516511 60.9419573,19.6779044 61.6288535,22.2143097" id="Fill-7" fill="#FDD7AD"></path>
                        <path d="M59.1483034,33.8837451 C59.748694,36.1031673 58.0381473,38.5742319 55.3456584,39.3758699 L46.5166734,42.0038062 C43.8249568,42.8049042 41.1309231,41.6449726 40.53079,39.4252804 C39.9296271,37.2066683 41.6406886,34.7347936 44.3318903,33.9336956 L53.16242,31.3046794 C55.8536217,30.5038514 58.547398,31.664053 59.1483034,33.8837451" id="Fill-9" fill="#FDD7AD"></path>
                        <path d="M56.7054966,44.590513 C57.2294223,46.5277823 55.7359122,48.6848338 53.386099,49.3846808 L45.6791131,51.6788937 C43.3298148,52.3779307 40.9779419,51.3654206 40.4535013,49.4278812 C39.9290607,47.4908819 41.4225707,45.3335604 43.7721265,44.6339834 L51.4803996,42.3392305 C53.829698,41.6399235 56.181056,42.6529736 56.7054966,44.590513" id="Fill-11" fill="#FDD7AD"></path>
                        <g id="phone" transform="translate(13.608247, 0.000000)">
                            <path d="M35.6436227,66.6392849 C35.6432168,69.2937837 33.6974422,71.4447705 31.2990202,71.4447705 L4.41055055,71.4367648 C2.01172265,71.4359221 0.0683838147,69.2819859 0.0691957382,66.6279084 L0.0850282459,5.27232763 C0.0858401694,2.61782878 2.03120881,0.464735266 4.42963075,0.466420662 L31.3181004,0.475268992 C33.7161164,0.47611169 35.6610791,2.6283625 35.6598612,5.2841254 L35.6436227,66.6392849 Z" id="Fill-55" fill="#2A2A2F"></path>
                            <path d="M22.918062,3.67722663 C22.918062,4.0568621 22.6168384,4.36486824 22.2453834,4.36402554 L13.5001556,4.36065475 C13.1282947,4.36065475 12.827883,4.05391266 12.827883,3.67469853 C12.827883,3.29464171 13.1291066,2.98747828 13.5005616,2.98747828 L22.2453834,2.99000637 C22.6168384,2.99084907 22.918062,3.29801251 22.918062,3.67722663" id="Fill-57" fill="#576A72"></path>
                            <polygon id="Fill-56" fill="#FFFFFF" points="33.3692221 61.2703713 2.3464381 61.2606803 2.36105272 6.31845298 33.3834308 6.32856536"></polygon>
                            <path d="M22.6560137,4.22118822 C22.5427503,4.31093556 22.3998518,4.36402554 22.2451804,4.36402554 L13.4999527,4.36065475 C13.1280917,4.36065475 12.82768,4.05391266 12.82768,3.67469853 C12.82768,3.29464171 13.1289036,2.98747828 13.5003586,2.98747828 C13.5003586,2.98747828 13.2450087,3.30264735 13.348123,3.67469853 C13.4516432,4.04717107 14.4856277,4.07498011 14.9516718,4.07498011 C15.416904,4.07582281 22.6560137,4.22118822 22.6560137,4.22118822" id="Fill-58" fill="#2C404D"></path>
                            <path d="M20.4537524,66.306377 C20.4541584,64.7077788 19.2833647,63.4104452 17.8397648,63.4104452 C16.3957589,63.4104452 15.2241533,64.7060934 15.2237474,66.3046916 C15.2229355,67.9032898 16.3941351,69.1997807 17.838141,69.1997807 C19.2825528,69.1997807 20.4533465,67.9049752 20.4537524,66.306377" id="Fill-59" fill="#1D1E27"></path>
                            <path d="M20.0727573,66.306377 C20.0727573,64.9403635 19.0732795,63.8334796 17.8395618,63.8334796 C16.6054382,63.8326369 15.6051484,64.9386781 15.6047425,66.3046916 C15.6047425,67.6702838 16.6042203,68.7767463 17.8383439,68.7767463 C19.0720617,68.7784317 20.0723514,67.6719692 20.0727573,66.306377" id="Fill-60" fill="#2A2A2F"></path>
                            <polygon id="Fill-65" fill="#CDEEF7" points="4.27333549 37.6202613 30.5248512 37.6202613 30.5248512 26.5531078 4.27333549 26.5531078"></polygon>
                            <polygon id="Fill-66" fill="#D0D4D4" points="4.27333549 52.4399492 15.9621918 52.4399492 15.9621918 40.3080467 4.27333549 40.3080467"></polygon>
                            <polygon id="Fill-67" fill="#D0D4D4" points="18.8359949 52.4399492 30.5248512 52.4399492 30.5248512 40.3080467 18.8359949 40.3080467"></polygon>
                            <path d="M30.4656214,55.6084938 C30.4656214,56.1697307 30.1769826,56.625209 29.8205482,56.625209 L4.91763736,56.625209 C4.56160892,56.625209 4.27297012,56.1697307 4.27297012,55.6084938 C4.27297012,55.0472569 4.56160892,54.5922 4.91763736,54.5922 L29.8205482,54.5922 C30.1769826,54.5922 30.4656214,55.0472569 30.4656214,55.6084938" id="Fill-69" fill="#D0D5D4"></path>
                            <path d="M27.488298,10.4183897 C27.488298,11.116565 26.9426854,11.6832794 26.2696009,11.6832794 L9.4603492,11.6832794 C8.78726464,11.6832794 8.24205802,11.116565 8.24205802,10.4183897 C8.24205802,9.72063568 8.78726464,9.15392124 9.4603492,9.15392124 L26.2696009,9.15392124 C26.9426854,9.15392124 27.488298,9.72063568 27.488298,10.4183897" id="Fill-70" fill="#FFC500"></path>
                            <path d="M27.488298,13.8665415 C27.488298,14.2158399 26.9426854,14.4989864 26.2696009,14.4989864 L9.4603492,14.4989864 C8.78726464,14.4989864 8.24205802,14.2158399 8.24205802,13.8665415 C8.24205802,13.5176645 8.78726464,13.2349393 9.4603492,13.2349393 L26.2696009,13.2349393 C26.9426854,13.2349393 27.488298,13.5176645 27.488298,13.8665415" id="Fill-71" fill="#D0D5D4"></path>
                            <path d="M30.7851945,21.6368074 C30.7851945,22.1369487 30.1953321,22.5422865 29.4690665,22.5422865 L25.5052561,22.5422865 C24.7785846,22.5422865 24.1891282,22.1369487 24.1891282,21.6368074 C24.1891282,21.1366661 24.7785846,20.7313284 25.5052561,20.7313284 L29.4690665,20.7313284 C30.1953321,20.7313284 30.7851945,21.1366661 30.7851945,21.6368074" id="Fill-72" fill="#C3C6CA"></path>
                            <path d="M20.8271966,21.6368074 C20.8271966,22.1369487 20.2373342,22.5422865 19.5106627,22.5422865 L15.5472583,22.5422865 C14.8201808,22.5422865 14.2307244,22.1369487 14.2307244,21.6368074 C14.2307244,21.1366661 14.8201808,20.7313284 15.5472583,20.7313284 L19.5106627,20.7313284 C20.2373342,20.7313284 20.8271966,21.1366661 20.8271966,21.6368074" id="Fill-73" fill="#C3C6CA"></path>
                            <path d="M10.8692394,21.6368074 C10.8692394,22.1369487 10.279783,22.5422865 9.55270549,22.5422865 L5.58889509,22.5422865 C4.86262954,22.5422865 4.2731731,22.1369487 4.2731731,21.6368074 C4.2731731,21.1366661 4.86262954,20.7313284 5.58889509,20.7313284 L9.55270549,20.7313284 C10.279783,20.7313284 10.8692394,21.1366661 10.8692394,21.6368074" id="Fill-74" fill="#125688"></path>
                            <path d="M15.5255393,31.0566969 C15.5255393,29.9830996 16.3638503,29.1125925 17.3986468,29.1125925 C18.4334433,29.1125925 19.2721602,29.9830996 19.2721602,31.0566969 C19.2721602,32.1307155 17.3986468,35.0607766 17.3986468,35.0607766 C17.3986468,35.0607766 15.5255393,32.1307155 15.5255393,31.0566969" id="Fill-76" fill="#125688"></path>
                            <path d="M16.6328,16.9093978 C16.6328,16.9093978 16.7517468,16.137065 17.3947902,16.137065 C18.0382395,16.137065 18.1575923,16.9093978 18.1575923,16.9093978 C18.1575923,16.9093978 19.1339302,16.8044819 19.1339302,17.4723201 C19.1339302,18.1401583 18.1332346,17.9914221 18.1332346,17.9914221 C18.1332346,17.9914221 17.8713892,18.6588389 17.3472926,18.6588389 C16.823196,18.6588389 16.6328,17.9417029 16.6328,17.9417029 C16.6328,17.9417029 15.6633633,18.0655795 15.6633633,17.4723201 C15.6633633,16.8790606 16.6328,16.9093978 16.6328,16.9093978" id="Fill-77" fill="#E56B6B"></path>
                        </g>
                        <path d="M0.0221155865,52.2265402 L6.43640804,38.5719639 L6.43640804,24.856097 C6.43640804,24.856097 5.63082399,19.4333629 10.2946639,19.4333629 C14.9592762,19.4333629 13.8972646,24.2183507 13.8972646,24.2183507 L13.9665207,42.0085582 C13.9665207,42.0085582 26.4205051,51.0304282 18.4460211,71.2806303 L36.9651859,71.2806303 L26.7243048,82.3507408 L2.08769592,82.3507408 L0.0221155865,52.2265402 Z" id="Fill-23" fill="#FDD7AD"></path>
                    </g>
                    <g id="Group-28" transform="translate(0.000000, 81.050844)">
                        <path d="M1.13012393e-14,2.93881132 C1.24331495e-14,1.31575065 3.74991451,-3.10252403e-13 8.36703123,-3.09855234e-13 L26.5184399,-3.08293832e-13 C31.1394237,-3.0789633e-13 34.8854711,1.31583129 34.8854711,2.93881132 L34.8854711,19.1438057 L0,19.1438057 L1.13012393e-14,2.93881132" id="Rectangle-345" fill="#59C6E5"></path>
                        <path d="M27.1104928,5.94064633 C28.3191678,5.91286192 29.3220318,6.87479283 29.3489228,8.08996487 C29.3774928,9.30479143 28.4195797,10.3120684 27.2107064,10.3405972 C26.0037104,10.3680361 25.0015867,9.40630465 24.9739553,8.19093315 C24.9461257,6.97630605 25.9025581,5.96863019 27.1104928,5.94064633" id="Fill-7" fill="#FFFFFF"></path>
                    </g>
                </g>
            </g>
        </g>
    </g>
</svg>